  0
SECTION
  2
HEADER
  9
$ACADVER
  1
AC1003
  9
$EXTMIN
 10
0.9
 20
3.60852168188684
  9
$EXTMAX
 10
3.69637854619558
 20
1
  9
$INSUNITS
 70
1
  9
$INSBASE
 10
2.29818927309779
 20
2.30426084094342
999
Created with OMAX LAYOUT for Windows. (www.omax.com) 1/5/2026
  0
ENDSEC
  0
SECTION
  2
TABLES
  0
TABLE
  2
LAYER
 70
    10
  0
LAYER
  2
0
 70
     0
 62
     7
  6
CONTINUOUS
  0
LAYER
  2
1
 70
     0
 62
     7
  6
CONTINUOUS
  0
LAYER
  2
2
 70
     0
 62
     7
  6
CONTINUOUS
  0
LAYER
  2
3
 70
     0
 62
     7
  6
CONTINUOUS
  0
LAYER
  2
4
 70
     0
 62
     7
  6
CONTINUOUS
  0
LAYER
  2
5
 70
     0
 62
     7
  6
CONTINUOUS
  0
LAYER
  2
6
 70
     0
 62
     7
  6
CONTINUOUS
  0
LAYER
  2
7
 70
     0
 62
     7
  6
CONTINUOUS
  0
LAYER
  2
8
 70
     0
 62
     7
  6
CONTINUOUS
  0
LAYER
  2
9
 70
     0
 62
     7
  6
CONTINUOUS
  0
LAYER
  2
10
 70
     0
 62
     7
  6
CONTINUOUS
  0
LAYER
  2
11
 70
     0
 62
     7
  6
CONTINUOUS
  0
LAYER
  2
12
 70
     0
 62
     7
  6
CONTINUOUS
  0
LAYER
  2
13
 70
     0
 62
     7
  6
CONTINUOUS
  0
LAYER
  2
14
 70
     0
 62
     7
  6
CONTINUOUS
  0
LAYER
  2
15
 70
     0
 62
     7
  6
CONTINUOUS
  0
LAYER
  2
16
 70
     0
 62
     7
  6
CONTINUOUS
  0
LAYER
  2
17
 70
     0
 62
     7
  6
CONTINUOUS
  0
LAYER
  2
18
 70
     0
 62
     7
  6
CONTINUOUS
  0
LAYER
  2
19
 70
     0
 62
     7
  6
CONTINUOUS
  0
LAYER
  2
20
 70
     0
 62
     7
  6
CONTINUOUS
  0
LAYER
  2
21
 70
     0
 62
     7
  6
CONTINUOUS
  0
LAYER
  2
22
 70
     0
 62
     7
  6
CONTINUOUS
  0
LAYER
  2
23
 70
     0
 62
     7
  6
CONTINUOUS
  0
LAYER
  2
24
 70
     0
 62
     7
  6
CONTINUOUS
  0
LAYER
  2
25
 70
     0
 62
     7
  6
CONTINUOUS
  0
LAYER
  2
26
 70
     0
 62
     7
  6
CONTINUOUS
  0
LAYER
  2
27
 70
     0
 62
     7
  6
CONTINUOUS
  0
LAYER
  2
28
 70
     0
 62
     7
  6
CONTINUOUS
  0
LAYER
  2
29
 70
     0
 62
     7
  6
CONTINUOUS
  0
LAYER
  2
30
 70
     0
 62
     7
  6
CONTINUOUS
  0
LAYER
  2
31
 70
     0
 62
     7
  6
CONTINUOUS
  0
ENDTAB
  0
ENDSEC
  0
SECTION
  2
ENTITIES
  0
LINE
  8
0
  6
CONTINUOUS
 62
0
 10
0.9
 20
1
 30
0.0
 11
3.59637854619558
 21
3.60852168188684
 31
0.0
  0
LINE
  8
0
  6
CONTINUOUS
 62
0
 10
3.5002522144869
 20
3.49716785802712
 30
0.0
 11
3.69637854619558
 21
3.60852168188684
 31
0.0
  0
ARC
  8
3
  6
CONTINUOUS
 62
3
 10
3.37500000000619
 20
3.3749999999986
 30
0.0
 40
0.124999999993806
 50
6.42981779239502E-10
 51
45.0000000019292
  0
LINE
  8
3
  6
CONTINUOUS
 62
3
 10
3.5
 20
3.375
 30
0.0
 11
3.5
 21
1.125
 31
0.0
  0
ARC
  8
3
  6
CONTINUOUS
 62
3
 10
3.375
 20
1.125
 30
0.0
 40
0.125
 50
270
 51
1.53511459547513E-13
  0
LINE
  8
3
  6
CONTINUOUS
 62
3
 10
3.375
 20
1
 30
0.0
 11
1.125
 21
1
 31
0.0
  0
ARC
  8
3
  6
CONTINUOUS
 62
3
 10
1.125
 20
1.125
 30
0.0
 40
0.125
 50
180
 51
270
  0
LINE
  8
3
  6
CONTINUOUS
 62
3
 10
1
 20
1.125
 30
0.0
 11
1
 21
3.375
 31
0.0
  0
ARC
  8
3
  6
CONTINUOUS
 62
3
 10
1.125
 20
3.375
 30
0.0
 40
0.125
 50
89.9999999999998
 51
180
  0
LINE
  8
3
  6
CONTINUOUS
 62
3
 10
1.125
 20
3.5
 30
0.0
 11
3.375
 21
3.5
 31
0.0
  0
ARC
  8
3
  6
CONTINUOUS
 62
3
 10
3.37499999999182
 20
3.37499999998984
 30
0.0
 40
0.125000000010162
 50
45.00000000011
 51
89.9999999962513
  0
LINE
  8
9
  6
CONTINUOUS
 62
9
 10
3.59637854619558
 20
3.60852168188684
 30
0.0
 11
3.46338834764716
 21
3.46338834764551
 31
0.0
  0
LINE
  8
9
  6
CONTINUOUS
 62
9
 10
3.46338834764716
 20
3.46338834764551
 30
0.0
 11
3.5002522144869
 21
3.49716785802712
 31
0.0
  0
ENDSEC
  0
EOF
