<?xml version="1.0" encoding="UTF-8" standalone="no"?>
<!-- Created with Inkscape (http://www.inkscape.org/) -->

<svg
   xmlns:dc="http://purl.org/dc/elements/1.1/"
   xmlns:cc="http://creativecommons.org/ns#"
   xmlns:rdf="http://www.w3.org/1999/02/22-rdf-syntax-ns#"
   xmlns:svg="http://www.w3.org/2000/svg"
   xmlns="http://www.w3.org/2000/svg"
   version="1.1"
   width="400"
   height="220"
   viewBox="0 0 400 220"
   id="Layer_1"
   xml:space="preserve"><metadata
   id="metadata18"><rdf:RDF><cc:Work
       rdf:about=""><dc:format>image/svg+xml</dc:format><dc:type
         rdf:resource="http://purl.org/dc/dcmitype/StillImage" /><dc:title></dc:title></cc:Work></rdf:RDF></metadata><defs
   id="defs16" />
<g
   transform="matrix(1.9260531,0,0,1.8960332,-389.16481,-640.387)"
   id="_x23_231f20ff">
	<path
   d="m 392.326,339.423 c 3.057,-0.384 6.243,0.143 8.929,1.685 3.729,2.067 6.433,5.883 7.107,10.097 0.351,2.375 0.206,4.851 -0.612,7.118 -1.144,3.271 -3.528,6.082 -6.563,7.752 -2.771,1.55 -6.069,2.112 -9.201,1.603 -3.239,-0.51 -6.272,-2.19 -8.434,-4.655 -2.209,-2.484 -3.5,-5.765 -3.566,-9.088 -0.093,-3.138 0.896,-6.292 2.763,-8.815 2.251,-3.085 5.782,-5.212 9.577,-5.697 m 1.244,1.819 c -1.288,0.285 -2.205,1.389 -2.719,2.545 -0.382,0.881 -1.108,1.611 -2.005,1.957 -1.311,0.533 -2.755,-0.006 -4.094,0.349 -1.175,0.34 -2.027,1.584 -1.838,2.805 0.272,1.645 1.595,2.939 1.645,4.645 0.101,0.957 -0.519,1.744 -0.912,2.556 -0.479,0.95 -0.854,2.056 -0.546,3.12 0.462,1.194 1.793,1.915 3.049,1.792 1.315,-0.065 2.787,-0.09 3.848,0.826 0.961,0.97 1.389,2.348 2.39,3.288 0.963,0.89 2.567,0.976 3.61,0.174 1.299,-0.994 1.608,-2.845 3.012,-3.732 1.335,-0.747 2.919,-0.304 4.358,-0.546 1.186,-0.155 2.185,-1.25 2.149,-2.46 -0.006,-1.38 -0.976,-2.459 -1.429,-3.701 -0.444,-0.932 -0.339,-2.052 0.151,-2.943 0.535,-1.081 1.286,-2.18 1.168,-3.441 -0.132,-1.328 -1.37,-2.381 -2.685,-2.406 -1.357,-0.128 -2.907,0.256 -4.065,-0.657 -1.251,-0.833 -1.567,-2.434 -2.669,-3.4 -0.633,-0.607 -1.545,-0.949 -2.418,-0.771 z"
   id="path5" />
	</g>
</svg>