  0
SECTION
  2
HEADER
  9
$ACADVER
  1
AC1014
  9
$HANDSEED
  5
FFFF
  9
$INSUNITS
 70
     4
  9
$MEASUREMENT
 70
     1
  0
ENDSEC
  0
SECTION
  2
TABLES
  0
TABLE
  2
VPORT
  5
8
330
0
100
AcDbSymbolTable
 70
     4
  0
VPORT
  5
2E
330
8
100
AcDbSymbolTableRecord
100
AcDbViewportTableRecord
  2
*ACTIVE
 70
     0
 10
0.0
 20
0.0
 11
1.0
 21
1.0
 12
210.0
 22
148.5
 13
0.0
 23
0.0
 14
10.0
 24
10.0
 15
10.0
 25
10.0
 16
0.0
 26
0.0
 36
1.0
 17
0.0
 27
0.0
 37
0.0
 40
341.0
 41
1.24
 42
50.0
 43
0.0
 44
0.0
 50
0.0
 51
0.0
 71
     0
 72
   100
 73
     1
 74
     3
 75
     0
 76
     0
 77
     0
 78
     0
  0
ENDTAB
  0
TABLE
  2
LTYPE
  5
5
330
0
100
AcDbSymbolTable
 70
     1
  0
LTYPE
  5
14
330
5
100
AcDbSymbolTableRecord
100
AcDbLinetypeTableRecord
  2
BYBLOCK
 70
     0
  3

 72
    65
 73
     0
 40
0.0
  0
LTYPE
  5
15
330
5
100
AcDbSymbolTableRecord
100
AcDbLinetypeTableRecord
  2
BYLAYER
 70
     0
  3

 72
    65
 73
     0
 40
0.0
  0
LTYPE
  5
16
330
5
100
AcDbSymbolTableRecord
100
AcDbLinetypeTableRecord
  2
CONTINUOUS
 70
     0
  3
Solid line
 72
    65
 73
     0
 40
0.0
  0
ENDTAB
  0
TABLE
  2
LAYER
  5
2
100
AcDbSymbolTable
 70
2
  0
LAYER
  5
50
100
AcDbSymbolTableRecord
100
AcDbLayerTableRecord
  2
0
 70
0
  6
CONTINUOUS
  0
LAYER
  5
51
100
AcDbSymbolTableRecord
100
AcDbLayerTableRecord
  2
Layer_1
 70
0
  6
CONTINUOUS
  0
ENDTAB
  0
TABLE
  2
STYLE
  5
3
330
0
100
AcDbSymbolTable
 70
     1
  0
STYLE
  5
11
330
3
100
AcDbSymbolTableRecord
100
AcDbTextStyleTableRecord
  2
STANDARD
 70
     0
 40
0.0
 41
1.0
 50
0.0
 71
     0
 42
2.5
  3
txt
  4

  0
ENDTAB
  0
TABLE
  2
VIEW
  5
6
330
0
100
AcDbSymbolTable
 70
     0
  0
ENDTAB
  0
TABLE
  2
UCS
  5
7
330
0
100
AcDbSymbolTable
 70
     0
  0
ENDTAB
  0
TABLE
  2
APPID
  5
9
330
0
100
AcDbSymbolTable
 70
     2
  0
APPID
  5
12
330
9
100
AcDbSymbolTableRecord
100
AcDbRegAppTableRecord
  2
ACAD
 70
     0
  0
ENDTAB
  0
TABLE
  2
DIMSTYLE
  5
A
330
0
100
AcDbSymbolTable
 70
     1
  0
DIMSTYLE
105
27
330
A
100
AcDbSymbolTableRecord
100
AcDbDimStyleTableRecord
  2
ISO-25
 70
     0
  3

  4

  5

  6

  7

 40
1.0
 41
2.5
 42
0.625
 43
3.75
 44
1.25
 45
0.0
 46
0.0
 47
0.0
 48
0.0
140
2.5
141
2.5
142
0.0
143
0.03937007874016
144
1.0
145
0.0
146
1.0
147
0.625
 71
     0
 72
     0
 73
     0
 74
     0
 75
     0
 76
     0
 77
     1
 78
     8
170
     0
171
     3
172
     1
173
     0
174
     0
175
     0
176
     0
177
     0
178
     0
270
     2
271
     2
272
     2
273
     2
274
     3
340
11
275
     0
280
     0
281
     0
282
     0
283
     0
284
     8
285
     0
286
     0
287
     3
288
     0
  0
ENDTAB
  0
TABLE
  2
BLOCK_RECORD
  5
1
330
0
100
AcDbSymbolTable
 70
     1
  0
BLOCK_RECORD
  5
1F
330
1
100
AcDbSymbolTableRecord
100
AcDbBlockTableRecord
  2
*MODEL_SPACE
  0
BLOCK_RECORD
  5
1B
330
1
100
AcDbSymbolTableRecord
100
AcDbBlockTableRecord
  2
*PAPER_SPACE
  0
ENDTAB
  0
ENDSEC
  0
SECTION
  2
BLOCKS
  0
BLOCK
  5
20
330
1F
100
AcDbEntity
  8
0
100
AcDbBlockBegin
  2
*MODEL_SPACE
 70
     0
 10
0.0
 20
0.0
 30
0.0
  3
*MODEL_SPACE
  1

  0
ENDBLK
  5
21
330
1F
100
AcDbEntity
  8
0
100
AcDbBlockEnd
  0
BLOCK
  5
1C
330
1B
100
AcDbEntity
 67
     1
  8
0
100
AcDbBlockBegin
  2
*PAPER_SPACE
  1

  0
ENDBLK
  5
1D
330
1B
100
AcDbEntity
 67
     1
  8
0
100
AcDbBlockEnd
  0
ENDSEC
  0
SECTION
  2
ENTITIES
  0
SPLINE
  5
100
100
AcDbEntity
  8
Layer_1
 62
7
100
AcDbSpline
 70
8
 71
3
 72
8
 73
4
 74
0
 40
0
 40
0
 40
0
 40
0
 40
1
 40
1
 40
1
 40
1
 10
5.332105
 20
6.644217
 30
0.0
 10
5.440055
 20
6.644217
 30
0.0
 10
5.536363
 20
6.612467
 30
0.0
 10
5.621030
 20
6.548967
 30
0.0
  0
SPLINE
  5
101
100
AcDbEntity
  8
Layer_1
 62
7
100
AcDbSpline
 70
8
 71
3
 72
8
 73
4
 74
0
 40
0
 40
0
 40
0
 40
0
 40
1
 40
1
 40
1
 40
1
 10
5.621030
 20
6.548967
 30
0.0
 10
5.703580
 20
6.485467
 30
0.0
 10
5.769197
 20
6.398684
 30
0.0
 10
5.817880
 20
6.288617
 30
0.0
  0
SPLINE
  5
102
100
AcDbEntity
  8
Layer_1
 62
7
100
AcDbSpline
 70
8
 71
3
 72
8
 73
4
 74
0
 40
0
 40
0
 40
0
 40
0
 40
1
 40
1
 40
1
 40
1
 10
5.817880
 20
6.288617
 30
0.0
 10
5.864447
 20
6.180667
 30
0.0
 10
5.887730
 20
6.056842
 30
0.0
 10
5.887730
 20
5.917142
 30
0.0
  0
SPLINE
  5
103
100
AcDbEntity
  8
Layer_1
 62
7
100
AcDbSpline
 70
8
 71
3
 72
8
 73
4
 74
0
 40
0
 40
0
 40
0
 40
0
 40
1
 40
1
 40
1
 40
1
 10
5.887730
 20
5.917142
 30
0.0
 10
5.887730
 20
5.781675
 30
0.0
 10
5.864447
 20
5.657850
 30
0.0
 10
5.817880
 20
5.545667
 30
0.0
  0
SPLINE
  5
104
100
AcDbEntity
  8
Layer_1
 62
7
100
AcDbSpline
 70
8
 71
3
 72
8
 73
4
 74
0
 40
0
 40
0
 40
0
 40
0
 40
1
 40
1
 40
1
 40
1
 10
5.817880
 20
5.545667
 30
0.0
 10
5.769197
 20
5.435600
 30
0.0
 10
5.703580
 20
5.348817
 30
0.0
 10
5.621030
 20
5.285317
 30
0.0
  0
SPLINE
  5
105
100
AcDbEntity
  8
Layer_1
 62
7
100
AcDbSpline
 70
8
 71
3
 72
8
 73
4
 74
0
 40
0
 40
0
 40
0
 40
0
 40
1
 40
1
 40
1
 40
1
 10
5.621030
 20
5.285317
 30
0.0
 10
5.536363
 20
5.221817
 30
0.0
 10
5.440055
 20
5.190067
 30
0.0
 10
5.332105
 20
5.190067
 30
0.0
  0
SPLINE
  5
106
100
AcDbEntity
  8
Layer_1
 62
7
100
AcDbSpline
 70
8
 71
3
 72
8
 73
4
 74
0
 40
0
 40
0
 40
0
 40
0
 40
1
 40
1
 40
1
 40
1
 10
5.332105
 20
5.190067
 30
0.0
 10
5.222038
 20
5.190067
 30
0.0
 10
5.125730
 20
5.221817
 30
0.0
 10
5.043180
 20
5.285317
 30
0.0
  0
SPLINE
  5
107
100
AcDbEntity
  8
Layer_1
 62
7
100
AcDbSpline
 70
8
 71
3
 72
8
 73
4
 74
0
 40
0
 40
0
 40
0
 40
0
 40
1
 40
1
 40
1
 40
1
 10
5.043180
 20
5.285317
 30
0.0
 10
4.960630
 20
5.348817
 30
0.0
 10
4.896072
 20
5.435600
 30
0.0
 10
4.849505
 20
5.545667
 30
0.0
  0
SPLINE
  5
108
100
AcDbEntity
  8
Layer_1
 62
7
100
AcDbSpline
 70
8
 71
3
 72
8
 73
4
 74
0
 40
0
 40
0
 40
0
 40
0
 40
1
 40
1
 40
1
 40
1
 10
4.849505
 20
5.545667
 30
0.0
 10
4.800822
 20
5.657850
 30
0.0
 10
4.776480
 20
5.781675
 30
0.0
 10
4.776480
 20
5.917142
 30
0.0
  0
SPLINE
  5
109
100
AcDbEntity
  8
Layer_1
 62
7
100
AcDbSpline
 70
8
 71
3
 72
8
 73
4
 74
0
 40
0
 40
0
 40
0
 40
0
 40
1
 40
1
 40
1
 40
1
 10
4.776480
 20
5.917142
 30
0.0
 10
4.776480
 20
6.056842
 30
0.0
 10
4.800822
 20
6.180667
 30
0.0
 10
4.849505
 20
6.288617
 30
0.0
  0
SPLINE
  5
10a
100
AcDbEntity
  8
Layer_1
 62
7
100
AcDbSpline
 70
8
 71
3
 72
8
 73
4
 74
0
 40
0
 40
0
 40
0
 40
0
 40
1
 40
1
 40
1
 40
1
 10
4.849505
 20
6.288617
 30
0.0
 10
4.896072
 20
6.398684
 30
0.0
 10
4.960630
 20
6.485467
 30
0.0
 10
5.043180
 20
6.548967
 30
0.0
  0
SPLINE
  5
10b
100
AcDbEntity
  8
Layer_1
 62
7
100
AcDbSpline
 70
8
 71
3
 72
8
 73
4
 74
0
 40
0
 40
0
 40
0
 40
0
 40
1
 40
1
 40
1
 40
1
 10
5.043180
 20
6.548967
 30
0.0
 10
5.125730
 20
6.612467
 30
0.0
 10
5.222038
 20
6.644217
 30
0.0
 10
5.332105
 20
6.644217
 30
0.0
  0
SPLINE
  5
10c
100
AcDbEntity
  8
Layer_1
 62
7
100
AcDbSpline
 70
8
 71
3
 72
8
 73
4
 74
0
 40
0
 40
0
 40
0
 40
0
 40
1
 40
1
 40
1
 40
1
 10
5.332105
 20
6.412442
 30
0.0
 10
5.249555
 20
6.412442
 30
0.0
 10
5.178647
 20
6.390217
 30
0.0
 10
5.119380
 20
6.345767
 30
0.0
  0
SPLINE
  5
10d
100
AcDbEntity
  8
Layer_1
 62
7
100
AcDbSpline
 70
8
 71
3
 72
8
 73
4
 74
0
 40
0
 40
0
 40
0
 40
0
 40
1
 40
1
 40
1
 40
1
 10
5.119380
 20
6.345767
 30
0.0
 10
5.057997
 20
6.301317
 30
0.0
 10
5.011430
 20
6.242050
 30
0.0
 10
4.979680
 20
6.167967
 30
0.0
  0
SPLINE
  5
10e
100
AcDbEntity
  8
Layer_1
 62
7
100
AcDbSpline
 70
8
 71
3
 72
8
 73
4
 74
0
 40
0
 40
0
 40
0
 40
0
 40
1
 40
1
 40
1
 40
1
 10
4.979680
 20
6.167967
 30
0.0
 10
4.945813
 20
6.093884
 30
0.0
 10
4.928880
 20
6.010275
 30
0.0
 10
4.928880
 20
5.917142
 30
0.0
  0
SPLINE
  5
10f
100
AcDbEntity
  8
Layer_1
 62
7
100
AcDbSpline
 70
8
 71
3
 72
8
 73
4
 74
0
 40
0
 40
0
 40
0
 40
0
 40
1
 40
1
 40
1
 40
1
 10
4.928880
 20
5.917142
 30
0.0
 10
4.928880
 20
5.826125
 30
0.0
 10
4.945813
 20
5.742517
 30
0.0
 10
4.979680
 20
5.666317
 30
0.0
  0
SPLINE
  5
110
100
AcDbEntity
  8
Layer_1
 62
7
100
AcDbSpline
 70
8
 71
3
 72
8
 73
4
 74
0
 40
0
 40
0
 40
0
 40
0
 40
1
 40
1
 40
1
 40
1
 10
4.979680
 20
5.666317
 30
0.0
 10
5.011430
 20
5.592234
 30
0.0
 10
5.057997
 20
5.532967
 30
0.0
 10
5.119380
 20
5.488517
 30
0.0
  0
SPLINE
  5
111
100
AcDbEntity
  8
Layer_1
 62
7
100
AcDbSpline
 70
8
 71
3
 72
8
 73
4
 74
0
 40
0
 40
0
 40
0
 40
0
 40
1
 40
1
 40
1
 40
1
 10
5.119380
 20
5.488517
 30
0.0
 10
5.178647
 20
5.446183
 30
0.0
 10
5.249555
 20
5.425017
 30
0.0
 10
5.332105
 20
5.425017
 30
0.0
  0
SPLINE
  5
112
100
AcDbEntity
  8
Layer_1
 62
7
100
AcDbSpline
 70
8
 71
3
 72
8
 73
4
 74
0
 40
0
 40
0
 40
0
 40
0
 40
1
 40
1
 40
1
 40
1
 10
5.332105
 20
5.425017
 30
0.0
 10
5.414655
 20
5.425017
 30
0.0
 10
5.485563
 20
5.446183
 30
0.0
 10
5.544830
 20
5.488517
 30
0.0
  0
SPLINE
  5
113
100
AcDbEntity
  8
Layer_1
 62
7
100
AcDbSpline
 70
8
 71
3
 72
8
 73
4
 74
0
 40
0
 40
0
 40
0
 40
0
 40
1
 40
1
 40
1
 40
1
 10
5.544830
 20
5.488517
 30
0.0
 10
5.604097
 20
5.532967
 30
0.0
 10
5.650663
 20
5.592234
 30
0.0
 10
5.684530
 20
5.666317
 30
0.0
  0
SPLINE
  5
114
100
AcDbEntity
  8
Layer_1
 62
7
100
AcDbSpline
 70
8
 71
3
 72
8
 73
4
 74
0
 40
0
 40
0
 40
0
 40
0
 40
1
 40
1
 40
1
 40
1
 10
5.684530
 20
5.666317
 30
0.0
 10
5.718397
 20
5.742517
 30
0.0
 10
5.735330
 20
5.826125
 30
0.0
 10
5.735330
 20
5.917142
 30
0.0
  0
SPLINE
  5
115
100
AcDbEntity
  8
Layer_1
 62
7
100
AcDbSpline
 70
8
 71
3
 72
8
 73
4
 74
0
 40
0
 40
0
 40
0
 40
0
 40
1
 40
1
 40
1
 40
1
 10
5.735330
 20
5.917142
 30
0.0
 10
5.735330
 20
6.010275
 30
0.0
 10
5.718397
 20
6.093884
 30
0.0
 10
5.684530
 20
6.167967
 30
0.0
  0
SPLINE
  5
116
100
AcDbEntity
  8
Layer_1
 62
7
100
AcDbSpline
 70
8
 71
3
 72
8
 73
4
 74
0
 40
0
 40
0
 40
0
 40
0
 40
1
 40
1
 40
1
 40
1
 10
5.684530
 20
6.167967
 30
0.0
 10
5.650663
 20
6.242050
 30
0.0
 10
5.604097
 20
6.301317
 30
0.0
 10
5.544830
 20
6.345767
 30
0.0
  0
SPLINE
  5
117
100
AcDbEntity
  8
Layer_1
 62
7
100
AcDbSpline
 70
8
 71
3
 72
8
 73
4
 74
0
 40
0
 40
0
 40
0
 40
0
 40
1
 40
1
 40
1
 40
1
 10
5.544830
 20
6.345767
 30
0.0
 10
5.485563
 20
6.390217
 30
0.0
 10
5.414655
 20
6.412442
 30
0.0
 10
5.332105
 20
6.412442
 30
0.0
  0
LWPOLYLINE
  5
118
100
AcDbEntity
  8
Layer_1
 62
7
100
AcDbPolyline
 90
1
 70
1
 10
5.332105
 20
6.644217
 30
0.0
  0
LWPOLYLINE
  5
119
100
AcDbEntity
  8
Layer_1
 62
7
100
AcDbPolyline
 90
1
 70
1
 10
5.332105
 20
6.412442
 30
0.0
  0
SPLINE
  5
11a
100
AcDbEntity
  8
Layer_1
 62
7
100
AcDbSpline
 70
8
 71
3
 72
8
 73
4
 74
0
 40
0
 40
0
 40
0
 40
0
 40
1
 40
1
 40
1
 40
1
 10
6.183005
 20
6.987117
 30
0.0
 10
6.183005
 20
7.025217
 30
0.0
 10
6.186180
 20
7.066492
 30
0.0
 10
6.192530
 20
7.110942
 30
0.0
  0
SPLINE
  5
11b
100
AcDbEntity
  8
Layer_1
 62
7
100
AcDbSpline
 70
8
 71
3
 72
8
 73
4
 74
0
 40
0
 40
0
 40
0
 40
0
 40
1
 40
1
 40
1
 40
1
 10
6.192530
 20
7.110942
 30
0.0
 10
6.196763
 20
7.157509
 30
0.0
 10
6.202055
 20
7.200900
 30
0.0
 10
6.208405
 20
7.241117
 30
0.0
  0
SPLINE
  5
11c
100
AcDbEntity
  8
Layer_1
 62
7
100
AcDbSpline
 70
8
 71
3
 72
8
 73
4
 74
0
 40
0
 40
0
 40
0
 40
0
 40
1
 40
1
 40
1
 40
1
 10
6.208405
 20
7.241117
 30
0.0
 10
6.214755
 20
7.283450
 30
0.0
 10
6.222163
 20
7.317317
 30
0.0
 10
6.230630
 20
7.342717
 30
0.0
  0
SPLINE
  5
11d
100
AcDbEntity
  8
Layer_1
 62
7
100
AcDbSpline
 70
8
 71
3
 72
8
 73
4
 74
0
 40
0
 40
0
 40
0
 40
0
 40
1
 40
1
 40
1
 40
1
 10
6.230630
 20
7.342717
 30
0.0
 10
6.239097
 20
7.370234
 30
0.0
 10
6.256030
 20
7.383992
 30
0.0
 10
6.281430
 20
7.383992
 30
0.0
  0
SPLINE
  5
11e
100
AcDbEntity
  8
Layer_1
 62
7
100
AcDbSpline
 70
8
 71
3
 72
8
 73
4
 74
0
 40
0
 40
0
 40
0
 40
0
 40
1
 40
1
 40
1
 40
1
 10
6.281430
 20
7.383992
 30
0.0
 10
6.308947
 20
7.383992
 30
0.0
 10
6.334347
 20
7.376584
 30
0.0
 10
6.357630
 20
7.361767
 30
0.0
  0
SPLINE
  5
11f
100
AcDbEntity
  8
Layer_1
 62
7
100
AcDbSpline
 70
8
 71
3
 72
8
 73
4
 74
0
 40
0
 40
0
 40
0
 40
0
 40
1
 40
1
 40
1
 40
1
 10
6.357630
 20
7.361767
 30
0.0
 10
6.378797
 20
7.346950
 30
0.0
 10
6.392555
 20
7.332134
 30
0.0
 10
6.398905
 20
7.317317
 30
0.0
  0
SPLINE
  5
120
100
AcDbEntity
  8
Layer_1
 62
7
100
AcDbSpline
 70
8
 71
3
 72
8
 73
4
 74
0
 40
0
 40
0
 40
0
 40
0
 40
1
 40
1
 40
1
 40
1
 10
6.398905
 20
7.317317
 30
0.0
 10
6.394672
 20
7.289800
 30
0.0
 10
6.391497
 20
7.252759
 30
0.0
 10
6.389380
 20
7.206192
 30
0.0
  0
SPLINE
  5
121
100
AcDbEntity
  8
Layer_1
 62
7
100
AcDbSpline
 70
8
 71
3
 72
8
 73
4
 74
0
 40
0
 40
0
 40
0
 40
0
 40
1
 40
1
 40
1
 40
1
 10
6.389380
 20
7.206192
 30
0.0
 10
6.387263
 20
7.159625
 30
0.0
 10
6.386205
 20
7.113059
 30
0.0
 10
6.386205
 20
7.066492
 30
0.0
  0
SPLINE
  5
122
100
AcDbEntity
  8
Layer_1
 62
7
100
AcDbSpline
 70
8
 71
3
 72
8
 73
4
 74
0
 40
0
 40
0
 40
0
 40
0
 40
1
 40
1
 40
1
 40
1
 10
6.386205
 20
7.066492
 30
0.0
 10
6.384088
 20
7.019925
 30
0.0
 10
6.383030
 20
6.980767
 30
0.0
 10
6.383030
 20
6.949017
 30
0.0
  0
SPLINE
  5
123
100
AcDbEntity
  8
Layer_1
 62
7
100
AcDbSpline
 70
8
 71
3
 72
8
 73
4
 74
0
 40
0
 40
0
 40
0
 40
0
 40
1
 40
1
 40
1
 40
1
 10
6.383030
 20
6.949017
 30
0.0
 10
6.383030
 20
6.913034
 30
0.0
 10
6.384088
 20
6.846359
 30
0.0
 10
6.386205
 20
6.748992
 30
0.0
  0
SPLINE
  5
124
100
AcDbEntity
  8
Layer_1
 62
7
100
AcDbSpline
 70
8
 71
3
 72
8
 73
4
 74
0
 40
0
 40
0
 40
0
 40
0
 40
1
 40
1
 40
1
 40
1
 10
6.386205
 20
6.748992
 30
0.0
 10
6.386205
 20
6.653742
 30
0.0
 10
6.387263
 20
6.541559
 30
0.0
 10
6.389380
 20
6.412442
 30
0.0
  0
SPLINE
  5
125
100
AcDbEntity
  8
Layer_1
 62
7
100
AcDbSpline
 70
8
 71
3
 72
8
 73
4
 74
0
 40
0
 40
0
 40
0
 40
0
 40
1
 40
1
 40
1
 40
1
 10
6.389380
 20
6.412442
 30
0.0
 10
6.389380
 20
6.283325
 30
0.0
 10
6.390438
 20
6.147859
 30
0.0
 10
6.392555
 20
6.006042
 30
0.0
  0
SPLINE
  5
126
100
AcDbEntity
  8
Layer_1
 62
7
100
AcDbSpline
 70
8
 71
3
 72
8
 73
4
 74
0
 40
0
 40
0
 40
0
 40
0
 40
1
 40
1
 40
1
 40
1
 10
6.392555
 20
6.006042
 30
0.0
 10
6.392555
 20
5.866342
 30
0.0
 10
6.393613
 20
5.732992
 30
0.0
 10
6.395730
 20
5.605992
 30
0.0
  0
SPLINE
  5
127
100
AcDbEntity
  8
Layer_1
 62
7
100
AcDbSpline
 70
8
 71
3
 72
8
 73
4
 74
0
 40
0
 40
0
 40
0
 40
0
 40
1
 40
1
 40
1
 40
1
 10
6.395730
 20
5.605992
 30
0.0
 10
6.397847
 20
5.481109
 30
0.0
 10
6.399963
 20
5.373158
 30
0.0
 10
6.402080
 20
5.282142
 30
0.0
  0
SPLINE
  5
128
100
AcDbEntity
  8
Layer_1
 62
7
100
AcDbSpline
 70
8
 71
3
 72
8
 73
4
 74
0
 40
0
 40
0
 40
0
 40
0
 40
1
 40
1
 40
1
 40
1
 10
6.402080
 20
5.282142
 30
0.0
 10
6.404197
 20
5.193242
 30
0.0
 10
6.406313
 20
5.133975
 30
0.0
 10
6.408430
 20
5.104342
 30
0.0
  0
SPLINE
  5
129
100
AcDbEntity
  8
Layer_1
 62
7
100
AcDbSpline
 70
8
 71
3
 72
8
 73
4
 74
0
 40
0
 40
0
 40
0
 40
0
 40
1
 40
1
 40
1
 40
1
 10
6.408430
 20
5.104342
 30
0.0
 10
6.410547
 20
5.078942
 30
0.0
 10
6.415838
 20
5.046133
 30
0.0
 10
6.424305
 20
5.005917
 30
0.0
  0
SPLINE
  5
12a
100
AcDbEntity
  8
Layer_1
 62
7
100
AcDbSpline
 70
8
 71
3
 72
8
 73
4
 74
0
 40
0
 40
0
 40
0
 40
0
 40
1
 40
1
 40
1
 40
1
 10
6.424305
 20
5.005917
 30
0.0
 10
6.430655
 20
4.965700
 30
0.0
 10
6.438063
 20
4.925483
 30
0.0
 10
6.446530
 20
4.885267
 30
0.0
  0
SPLINE
  5
12b
100
AcDbEntity
  8
Layer_1
 62
7
100
AcDbSpline
 70
8
 71
3
 72
8
 73
4
 74
0
 40
0
 40
0
 40
0
 40
0
 40
1
 40
1
 40
1
 40
1
 10
6.446530
 20
4.885267
 30
0.0
 10
6.454997
 20
4.847167
 30
0.0
 10
6.463463
 20
4.814358
 30
0.0
 10
6.471930
 20
4.786842
 30
0.0
  0
SPLINE
  5
12c
100
AcDbEntity
  8
Layer_1
 62
7
100
AcDbSpline
 70
8
 71
3
 72
8
 73
4
 74
0
 40
0
 40
0
 40
0
 40
0
 40
1
 40
1
 40
1
 40
1
 10
6.471930
 20
4.786842
 30
0.0
 10
6.452880
 20
4.729692
 30
0.0
 10
6.428538
 20
4.673600
 30
0.0
 10
6.398905
 20
4.618567
 30
0.0
  0
SPLINE
  5
12d
100
AcDbEntity
  8
Layer_1
 62
7
100
AcDbSpline
 70
8
 71
3
 72
8
 73
4
 74
0
 40
0
 40
0
 40
0
 40
0
 40
1
 40
1
 40
1
 40
1
 10
6.398905
 20
4.618567
 30
0.0
 10
6.367155
 20
4.563533
 30
0.0
 10
6.335405
 20
4.515908
 30
0.0
 10
6.303655
 20
4.475692
 30
0.0
  0
SPLINE
  5
12e
100
AcDbEntity
  8
Layer_1
 62
7
100
AcDbSpline
 70
8
 71
3
 72
8
 73
4
 74
0
 40
0
 40
0
 40
0
 40
0
 40
1
 40
1
 40
1
 40
1
 10
6.303655
 20
4.475692
 30
0.0
 10
6.295188
 20
4.467225
 30
0.0
 10
6.285663
 20
4.464050
 30
0.0
 10
6.275080
 20
4.466167
 30
0.0
  0
LWPOLYLINE
  5
12f
100
AcDbEntity
  8
Layer_1
 62
7
100
AcDbPolyline
 90
2
 70
0
 10
6.230630
 20
6.872817
 30
0.0
 10
6.183005
 20
6.987117
 30
0.0
  0
SPLINE
  5
130
100
AcDbEntity
  8
Layer_1
 62
7
100
AcDbSpline
 70
8
 71
3
 72
8
 73
4
 74
0
 40
0
 40
0
 40
0
 40
0
 40
1
 40
1
 40
1
 40
1
 10
6.230630
 20
4.488392
 30
0.0
 10
6.239097
 20
4.541308
 30
0.0
 10
6.246505
 20
4.600575
 30
0.0
 10
6.252855
 20
4.666192
 30
0.0
  0
SPLINE
  5
131
100
AcDbEntity
  8
Layer_1
 62
7
100
AcDbSpline
 70
8
 71
3
 72
8
 73
4
 74
0
 40
0
 40
0
 40
0
 40
0
 40
1
 40
1
 40
1
 40
1
 10
6.252855
 20
4.666192
 30
0.0
 10
6.259205
 20
4.731808
 30
0.0
 10
6.262380
 20
4.790017
 30
0.0
 10
6.262380
 20
4.840817
 30
0.0
  0
LWPOLYLINE
  5
132
100
AcDbEntity
  8
Layer_1
 62
7
100
AcDbPolyline
 90
2
 70
0
 10
6.275080
 20
4.466167
 30
0.0
 10
6.230630
 20
4.488392
 30
0.0
  0
SPLINE
  5
133
100
AcDbEntity
  8
Layer_1
 62
7
100
AcDbSpline
 70
8
 71
3
 72
8
 73
4
 74
0
 40
0
 40
0
 40
0
 40
0
 40
1
 40
1
 40
1
 40
1
 10
6.262380
 20
5.288492
 30
0.0
 10
6.260263
 20
5.402792
 30
0.0
 10
6.259205
 20
5.523442
 30
0.0
 10
6.259205
 20
5.650442
 30
0.0
  0
LWPOLYLINE
  5
134
100
AcDbEntity
  8
Layer_1
 62
7
100
AcDbPolyline
 90
3
 70
0
 10
6.262380
 20
4.840817
 30
0.0
 10
6.262380
 20
5.002742
 30
0.0
 10
6.262380
 20
5.288492
 30
0.0
  0
SPLINE
  5
135
100
AcDbEntity
  8
Layer_1
 62
7
100
AcDbSpline
 70
8
 71
3
 72
8
 73
4
 74
0
 40
0
 40
0
 40
0
 40
0
 40
1
 40
1
 40
1
 40
1
 10
6.252855
 20
6.037792
 30
0.0
 10
6.250738
 20
6.169025
 30
0.0
 10
6.248622
 20
6.291792
 30
0.0
 10
6.246505
 20
6.406092
 30
0.0
  0
SPLINE
  5
136
100
AcDbEntity
  8
Layer_1
 62
7
100
AcDbSpline
 70
8
 71
3
 72
8
 73
4
 74
0
 40
0
 40
0
 40
0
 40
0
 40
1
 40
1
 40
1
 40
1
 10
6.246505
 20
6.406092
 30
0.0
 10
6.244388
 20
6.520392
 30
0.0
 10
6.242272
 20
6.618817
 30
0.0
 10
6.240155
 20
6.701367
 30
0.0
  0
SPLINE
  5
137
100
AcDbEntity
  8
Layer_1
 62
7
100
AcDbSpline
 70
8
 71
3
 72
8
 73
4
 74
0
 40
0
 40
0
 40
0
 40
0
 40
1
 40
1
 40
1
 40
1
 10
6.240155
 20
6.701367
 30
0.0
 10
6.235922
 20
6.783917
 30
0.0
 10
6.232747
 20
6.841067
 30
0.0
 10
6.230630
 20
6.872817
 30
0.0
  0
LWPOLYLINE
  5
138
100
AcDbEntity
  8
Layer_1
 62
7
100
AcDbPolyline
 90
2
 70
0
 10
6.259205
 20
5.650442
 30
0.0
 10
6.252855
 20
6.037792
 30
0.0
  0
LWPOLYLINE
  5
139
100
AcDbEntity
  8
Layer_1
 62
7
100
AcDbPolyline
 90
1
 70
1
 10
6.230630
 20
6.872817
 30
0.0
  0
LWPOLYLINE
  5
13a
100
AcDbEntity
  8
Layer_1
 62
7
100
AcDbPolyline
 90
4
 70
1
 10
6.300480
 20
6.034617
 30
0.0
 10
6.300480
 20
5.809192
 30
0.0
 10
5.843280
 20
5.809192
 30
0.0
 10
5.843280
 20
6.034617
 30
0.0
  0
SPLINE
  5
13b
100
AcDbEntity
  8
Layer_1
 62
7
100
AcDbSpline
 70
8
 71
3
 72
8
 73
4
 74
0
 40
0
 40
0
 40
0
 40
0
 40
1
 40
1
 40
1
 40
1
 10
6.837055
 20
6.101292
 30
0.0
 10
6.837055
 20
6.016625
 30
0.0
 10
6.838113
 20
5.931959
 30
0.0
 10
6.840230
 20
5.847292
 30
0.0
  0
SPLINE
  5
13c
100
AcDbEntity
  8
Layer_1
 62
7
100
AcDbSpline
 70
8
 71
3
 72
8
 73
4
 74
0
 40
0
 40
0
 40
0
 40
0
 40
1
 40
1
 40
1
 40
1
 10
6.840230
 20
5.847292
 30
0.0
 10
6.842347
 20
5.762625
 30
0.0
 10
6.844463
 20
5.688542
 30
0.0
 10
6.846580
 20
5.625042
 30
0.0
  0
SPLINE
  5
13d
100
AcDbEntity
  8
Layer_1
 62
7
100
AcDbSpline
 70
8
 71
3
 72
8
 73
4
 74
0
 40
0
 40
0
 40
0
 40
0
 40
1
 40
1
 40
1
 40
1
 10
6.846580
 20
5.625042
 30
0.0
 10
6.846580
 20
5.561542
 30
0.0
 10
6.847638
 20
5.516034
 30
0.0
 10
6.849755
 20
5.488517
 30
0.0
  0
SPLINE
  5
13e
100
AcDbEntity
  8
Layer_1
 62
7
100
AcDbSpline
 70
8
 71
3
 72
8
 73
4
 74
0
 40
0
 40
0
 40
0
 40
0
 40
1
 40
1
 40
1
 40
1
 10
6.849755
 20
5.488517
 30
0.0
 10
6.851872
 20
5.452534
 30
0.0
 10
6.858222
 20
5.404908
 30
0.0
 10
6.868805
 20
5.345642
 30
0.0
  0
SPLINE
  5
13f
100
AcDbEntity
  8
Layer_1
 62
7
100
AcDbSpline
 70
8
 71
3
 72
8
 73
4
 74
0
 40
0
 40
0
 40
0
 40
0
 40
1
 40
1
 40
1
 40
1
 10
6.868805
 20
5.345642
 30
0.0
 10
6.877272
 20
5.286375
 30
0.0
 10
6.887855
 20
5.239808
 30
0.0
 10
6.900555
 20
5.205942
 30
0.0
  0
SPLINE
  5
140
100
AcDbEntity
  8
Layer_1
 62
7
100
AcDbSpline
 70
8
 71
3
 72
8
 73
4
 74
0
 40
0
 40
0
 40
0
 40
0
 40
1
 40
1
 40
1
 40
1
 10
6.900555
 20
5.205942
 30
0.0
 10
6.883622
 20
5.157258
 30
0.0
 10
6.862455
 20
5.108575
 30
0.0
 10
6.837055
 20
5.059892
 30
0.0
  0
SPLINE
  5
141
100
AcDbEntity
  8
Layer_1
 62
7
100
AcDbSpline
 70
8
 71
3
 72
8
 73
4
 74
0
 40
0
 40
0
 40
0
 40
0
 40
1
 40
1
 40
1
 40
1
 10
6.837055
 20
5.059892
 30
0.0
 10
6.809538
 20
5.011208
 30
0.0
 10
6.782022
 20
4.968875
 30
0.0
 10
6.754505
 20
4.932892
 30
0.0
  0
SPLINE
  5
142
100
AcDbEntity
  8
Layer_1
 62
7
100
AcDbSpline
 70
8
 71
3
 72
8
 73
4
 74
0
 40
0
 40
0
 40
0
 40
0
 40
1
 40
1
 40
1
 40
1
 10
6.754505
 20
4.932892
 30
0.0
 10
6.746038
 20
4.920192
 30
0.0
 10
6.735455
 20
4.915958
 30
0.0
 10
6.722755
 20
4.920192
 30
0.0
  0
LWPOLYLINE
  5
143
100
AcDbEntity
  8
Layer_1
 62
7
100
AcDbPolyline
 90
4
 70
0
 10
6.684655
 20
6.523567
 30
0.0
 10
6.837055
 20
6.523567
 30
0.0
 10
6.837055
 20
6.342592
 30
0.0
 10
6.837055
 20
6.101292
 30
0.0
  0
SPLINE
  5
144
100
AcDbEntity
  8
Layer_1
 62
7
100
AcDbSpline
 70
8
 71
3
 72
8
 73
4
 74
0
 40
0
 40
0
 40
0
 40
0
 40
1
 40
1
 40
1
 40
1
 10
6.681480
 20
4.942417
 30
0.0
 10
6.689947
 20
4.991100
 30
0.0
 10
6.696297
 20
5.044017
 30
0.0
 10
6.700530
 20
5.101167
 30
0.0
  0
SPLINE
  5
145
100
AcDbEntity
  8
Layer_1
 62
7
100
AcDbSpline
 70
8
 71
3
 72
8
 73
4
 74
0
 40
0
 40
0
 40
0
 40
0
 40
1
 40
1
 40
1
 40
1
 10
6.700530
 20
5.101167
 30
0.0
 10
6.704763
 20
5.158317
 30
0.0
 10
6.706880
 20
5.209117
 30
0.0
 10
6.706880
 20
5.253567
 30
0.0
  0
LWPOLYLINE
  5
146
100
AcDbEntity
  8
Layer_1
 62
7
100
AcDbPolyline
 90
2
 70
0
 10
6.722755
 20
4.920192
 30
0.0
 10
6.681480
 20
4.942417
 30
0.0
  0
SPLINE
  5
147
100
AcDbEntity
  8
Layer_1
 62
7
100
AcDbSpline
 70
8
 71
3
 72
8
 73
4
 74
0
 40
0
 40
0
 40
0
 40
0
 40
1
 40
1
 40
1
 40
1
 10
6.706880
 20
5.390092
 30
0.0
 10
6.704763
 20
5.453592
 30
0.0
 10
6.703705
 20
5.527675
 30
0.0
 10
6.703705
 20
5.612342
 30
0.0
  0
SPLINE
  5
148
100
AcDbEntity
  8
Layer_1
 62
7
100
AcDbSpline
 70
8
 71
3
 72
8
 73
4
 74
0
 40
0
 40
0
 40
0
 40
0
 40
1
 40
1
 40
1
 40
1
 10
6.703705
 20
5.612342
 30
0.0
 10
6.701588
 20
5.697009
 30
0.0
 10
6.700530
 20
5.785909
 30
0.0
 10
6.700530
 20
5.879042
 30
0.0
  0
SPLINE
  5
149
100
AcDbEntity
  8
Layer_1
 62
7
100
AcDbSpline
 70
8
 71
3
 72
8
 73
4
 74
0
 40
0
 40
0
 40
0
 40
0
 40
1
 40
1
 40
1
 40
1
 10
6.700530
 20
5.879042
 30
0.0
 10
6.698413
 20
5.972175
 30
0.0
 10
6.696297
 20
6.062134
 30
0.0
 10
6.694180
 20
6.148917
 30
0.0
  0
SPLINE
  5
14a
100
AcDbEntity
  8
Layer_1
 62
7
100
AcDbSpline
 70
8
 71
3
 72
8
 73
4
 74
0
 40
0
 40
0
 40
0
 40
0
 40
1
 40
1
 40
1
 40
1
 10
6.694180
 20
6.148917
 30
0.0
 10
6.692063
 20
6.235700
 30
0.0
 10
6.691005
 20
6.311900
 30
0.0
 10
6.691005
 20
6.377517
 30
0.0
  0
SPLINE
  5
14b
100
AcDbEntity
  8
Layer_1
 62
7
100
AcDbSpline
 70
8
 71
3
 72
8
 73
4
 74
0
 40
0
 40
0
 40
0
 40
0
 40
1
 40
1
 40
1
 40
1
 10
6.691005
 20
6.377517
 30
0.0
 10
6.688888
 20
6.445250
 30
0.0
 10
6.686772
 20
6.493934
 30
0.0
 10
6.684655
 20
6.523567
 30
0.0
  0
LWPOLYLINE
  5
14c
100
AcDbEntity
  8
Layer_1
 62
7
100
AcDbPolyline
 90
2
 70
0
 10
6.706880
 20
5.253567
 30
0.0
 10
6.706880
 20
5.390092
 30
0.0
  0
LWPOLYLINE
  5
14d
100
AcDbEntity
  8
Layer_1
 62
7
100
AcDbPolyline
 90
1
 70
1
 10
6.684655
 20
6.523567
 30
0.0
  0
SPLINE
  5
14e
100
AcDbEntity
  8
Layer_1
 62
7
100
AcDbSpline
 70
8
 71
3
 72
8
 73
4
 74
0
 40
0
 40
0
 40
0
 40
0
 40
1
 40
1
 40
1
 40
1
 10
6.643380
 20
6.599767
 30
0.0
 10
6.634913
 20
6.614584
 30
0.0
 10
6.634913
 20
6.630459
 30
0.0
 10
6.643380
 20
6.647392
 30
0.0
  0
SPLINE
  5
14f
100
AcDbEntity
  8
Layer_1
 62
7
100
AcDbSpline
 70
8
 71
3
 72
8
 73
4
 74
0
 40
0
 40
0
 40
0
 40
0
 40
1
 40
1
 40
1
 40
1
 10
6.643380
 20
6.647392
 30
0.0
 10
6.651847
 20
6.666442
 30
0.0
 10
6.664547
 20
6.688667
 30
0.0
 10
6.681480
 20
6.714067
 30
0.0
  0
SPLINE
  5
150
100
AcDbEntity
  8
Layer_1
 62
7
100
AcDbSpline
 70
8
 71
3
 72
8
 73
4
 74
0
 40
0
 40
0
 40
0
 40
0
 40
1
 40
1
 40
1
 40
1
 10
6.681480
 20
6.714067
 30
0.0
 10
6.696297
 20
6.741584
 30
0.0
 10
6.708997
 20
6.760634
 30
0.0
 10
6.719580
 20
6.771217
 30
0.0
  0
SPLINE
  5
151
100
AcDbEntity
  8
Layer_1
 62
7
100
AcDbSpline
 70
8
 71
3
 72
8
 73
4
 74
0
 40
0
 40
0
 40
0
 40
0
 40
1
 40
1
 40
1
 40
1
 10
6.719580
 20
6.771217
 30
0.0
 10
6.728047
 20
6.779684
 30
0.0
 10
6.739688
 20
6.780742
 30
0.0
 10
6.754505
 20
6.774392
 30
0.0
  0
LWPOLYLINE
  5
152
100
AcDbEntity
  8
Layer_1
 62
7
100
AcDbPolyline
 90
4
 70
0
 10
6.852930
 20
6.739467
 30
0.0
 10
6.837055
 20
6.507692
 30
0.0
 10
6.684655
 20
6.510867
 30
0.0
 10
6.643380
 20
6.599767
 30
0.0
  0
LWPOLYLINE
  5
153
100
AcDbEntity
  8
Layer_1
 62
7
100
AcDbPolyline
 90
2
 70
0
 10
6.754505
 20
6.774392
 30
0.0
 10
6.852930
 20
6.739467
 30
0.0
  0
SPLINE
  5
154
100
AcDbEntity
  8
Layer_1
 62
7
100
AcDbSpline
 70
8
 71
3
 72
8
 73
4
 74
0
 40
0
 40
0
 40
0
 40
0
 40
1
 40
1
 40
1
 40
1
 10
7.703830
 20
6.526742
 30
0.0
 10
7.665730
 20
6.524625
 30
0.0
 10
7.621280
 20
6.521450
 30
0.0
 10
7.570480
 20
6.517217
 30
0.0
  0
SPLINE
  5
155
100
AcDbEntity
  8
Layer_1
 62
7
100
AcDbSpline
 70
8
 71
3
 72
8
 73
4
 74
0
 40
0
 40
0
 40
0
 40
0
 40
1
 40
1
 40
1
 40
1
 10
7.570480
 20
6.517217
 30
0.0
 10
7.521797
 20
6.515100
 30
0.0
 10
7.472055
 20
6.512984
 30
0.0
 10
7.421255
 20
6.510867
 30
0.0
  0
SPLINE
  5
156
100
AcDbEntity
  8
Layer_1
 62
7
100
AcDbSpline
 70
8
 71
3
 72
8
 73
4
 74
0
 40
0
 40
0
 40
0
 40
0
 40
1
 40
1
 40
1
 40
1
 10
7.421255
 20
6.510867
 30
0.0
 10
7.372572
 20
6.508750
 30
0.0
 10
7.329180
 20
6.507692
 30
0.0
 10
7.291080
 20
6.507692
 30
0.0
  0
LWPOLYLINE
  5
157
100
AcDbEntity
  8
Layer_1
 62
7
100
AcDbPolyline
 90
2
 70
0
 10
7.703830
 20
6.666442
 30
0.0
 10
7.703830
 20
6.526742
 30
0.0
  0
SPLINE
  5
158
100
AcDbEntity
  8
Layer_1
 62
7
100
AcDbSpline
 70
8
 71
3
 72
8
 73
4
 74
0
 40
0
 40
0
 40
0
 40
0
 40
1
 40
1
 40
1
 40
1
 10
7.237105
 20
6.729942
 30
0.0
 10
7.281555
 20
6.729942
 30
0.0
 10
7.331297
 20
6.726767
 30
0.0
 10
7.386330
 20
6.720417
 30
0.0
  0
SPLINE
  5
159
100
AcDbEntity
  8
Layer_1
 62
7
100
AcDbSpline
 70
8
 71
3
 72
8
 73
4
 74
0
 40
0
 40
0
 40
0
 40
0
 40
1
 40
1
 40
1
 40
1
 10
7.386330
 20
6.720417
 30
0.0
 10
7.443480
 20
6.716184
 30
0.0
 10
7.499572
 20
6.709834
 30
0.0
 10
7.554605
 20
6.701367
 30
0.0
  0
SPLINE
  5
15a
100
AcDbEntity
  8
Layer_1
 62
7
100
AcDbSpline
 70
8
 71
3
 72
8
 73
4
 74
0
 40
0
 40
0
 40
0
 40
0
 40
1
 40
1
 40
1
 40
1
 10
7.554605
 20
6.701367
 30
0.0
 10
7.611755
 20
6.692900
 30
0.0
 10
7.661497
 20
6.681259
 30
0.0
 10
7.703830
 20
6.666442
 30
0.0
  0
LWPOLYLINE
  5
15b
100
AcDbEntity
  8
Layer_1
 62
7
100
AcDbPolyline
 90
4
 70
0
 10
7.291080
 20
6.507692
 30
0.0
 10
6.837055
 20
6.507692
 30
0.0
 10
6.837055
 20
6.739467
 30
0.0
 10
7.237105
 20
6.729942
 30
0.0
  0
LWPOLYLINE
  5
15c
100
AcDbEntity
  8
Layer_1
 62
7
100
AcDbPolyline
 90
1
 70
1
 10
7.703830
 20
6.666442
 30
0.0
  0
SPLINE
  5
15d
100
AcDbEntity
  8
Layer_1
 62
7
100
AcDbSpline
 70
8
 71
3
 72
8
 73
4
 74
0
 40
0
 40
0
 40
0
 40
0
 40
1
 40
1
 40
1
 40
1
 10
6.560830
 20
9.641417
 30
0.0
 10
6.531197
 20
9.639301
 30
0.0
 10
6.494155
 20
9.637184
 30
0.0
 10
6.449705
 20
9.635067
 30
0.0
  0
SPLINE
  5
15e
100
AcDbEntity
  8
Layer_1
 62
7
100
AcDbSpline
 70
8
 71
3
 72
8
 73
4
 74
0
 40
0
 40
0
 40
0
 40
0
 40
1
 40
1
 40
1
 40
1
 10
6.449705
 20
9.635067
 30
0.0
 10
6.405255
 20
9.632951
 30
0.0
 10
6.358688
 20
9.630834
 30
0.0
 10
6.310005
 20
9.628717
 30
0.0
  0
SPLINE
  5
15f
100
AcDbEntity
  8
Layer_1
 62
7
100
AcDbSpline
 70
8
 71
3
 72
8
 73
4
 74
0
 40
0
 40
0
 40
0
 40
0
 40
1
 40
1
 40
1
 40
1
 10
6.310005
 20
9.628717
 30
0.0
 10
6.261322
 20
9.626601
 30
0.0
 10
6.213697
 20
9.624484
 30
0.0
 10
6.167130
 20
9.622367
 30
0.0
  0
LWPOLYLINE
  5
160
100
AcDbEntity
  8
Layer_1
 62
7
100
AcDbPolyline
 90
2
 70
0
 10
6.560830
 20
9.774767
 30
0.0
 10
6.560830
 20
9.641417
 30
0.0
  0
SPLINE
  5
161
100
AcDbEntity
  8
Layer_1
 62
7
100
AcDbSpline
 70
8
 71
3
 72
8
 73
4
 74
0
 40
0
 40
0
 40
0
 40
0
 40
1
 40
1
 40
1
 40
1
 10
4.871730
 20
9.622367
 30
0.0
 10
4.839980
 20
9.594851
 30
0.0
 10
4.810347
 20
9.556751
 30
0.0
 10
4.782830
 20
9.508067
 30
0.0
  0
SPLINE
  5
162
100
AcDbEntity
  8
Layer_1
 62
7
100
AcDbSpline
 70
8
 71
3
 72
8
 73
4
 74
0
 40
0
 40
0
 40
0
 40
0
 40
1
 40
1
 40
1
 40
1
 10
4.782830
 20
9.508067
 30
0.0
 10
4.753197
 20
9.461501
 30
0.0
 10
4.728855
 20
9.410701
 30
0.0
 10
4.709805
 20
9.355667
 30
0.0
  0
LWPOLYLINE
  5
163
100
AcDbEntity
  8
Layer_1
 62
7
100
AcDbPolyline
 90
3
 70
0
 10
6.167130
 20
9.622367
 30
0.0
 10
6.046480
 20
9.622367
 30
0.0
 10
4.871730
 20
9.622367
 30
0.0
  0
SPLINE
  5
164
100
AcDbEntity
  8
Layer_1
 62
7
100
AcDbSpline
 70
8
 71
3
 72
8
 73
4
 74
0
 40
0
 40
0
 40
0
 40
0
 40
1
 40
1
 40
1
 40
1
 10
4.633605
 20
9.381067
 30
0.0
 10
4.623022
 20
9.383184
 30
0.0
 10
4.617730
 20
9.394826
 30
0.0
 10
4.617730
 20
9.415992
 30
0.0
  0
SPLINE
  5
165
100
AcDbEntity
  8
Layer_1
 62
7
100
AcDbSpline
 70
8
 71
3
 72
8
 73
4
 74
0
 40
0
 40
0
 40
0
 40
0
 40
1
 40
1
 40
1
 40
1
 10
4.617730
 20
9.415992
 30
0.0
 10
4.617730
 20
9.454092
 30
0.0
 10
4.623022
 20
9.498542
 30
0.0
 10
4.633605
 20
9.549342
 30
0.0
  0
SPLINE
  5
166
100
AcDbEntity
  8
Layer_1
 62
7
100
AcDbSpline
 70
8
 71
3
 72
8
 73
4
 74
0
 40
0
 40
0
 40
0
 40
0
 40
1
 40
1
 40
1
 40
1
 10
4.633605
 20
9.549342
 30
0.0
 10
4.642072
 20
9.602259
 30
0.0
 10
4.652655
 20
9.653059
 30
0.0
 10
4.665355
 20
9.701742
 30
0.0
  0
SPLINE
  5
167
100
AcDbEntity
  8
Layer_1
 62
7
100
AcDbSpline
 70
8
 71
3
 72
8
 73
4
 74
0
 40
0
 40
0
 40
0
 40
0
 40
1
 40
1
 40
1
 40
1
 10
4.665355
 20
9.701742
 30
0.0
 10
4.675938
 20
9.750426
 30
0.0
 10
4.687580
 20
9.789584
 30
0.0
 10
4.700280
 20
9.819217
 30
0.0
  0
SPLINE
  5
168
100
AcDbEntity
  8
Layer_1
 62
7
100
AcDbSpline
 70
8
 71
3
 72
8
 73
4
 74
0
 40
0
 40
0
 40
0
 40
0
 40
1
 40
1
 40
1
 40
1
 10
4.700280
 20
9.819217
 30
0.0
 10
4.708747
 20
9.844617
 30
0.0
 10
4.729913
 20
9.857317
 30
0.0
 10
4.763780
 20
9.857317
 30
0.0
  0
LWPOLYLINE
  5
169
100
AcDbEntity
  8
Layer_1
 62
7
100
AcDbPolyline
 90
2
 70
0
 10
4.709805
 20
9.355667
 30
0.0
 10
4.633605
 20
9.381067
 30
0.0
  0
SPLINE
  5
16a
100
AcDbEntity
  8
Layer_1
 62
7
100
AcDbSpline
 70
8
 71
3
 72
8
 73
4
 74
0
 40
0
 40
0
 40
0
 40
0
 40
1
 40
1
 40
1
 40
1
 10
5.970280
 20
9.847792
 30
0.0
 10
6.038013
 20
9.847792
 30
0.0
 10
6.108922
 20
9.844617
 30
0.0
 10
6.183005
 20
9.838267
 30
0.0
  0
SPLINE
  5
16b
100
AcDbEntity
  8
Layer_1
 62
7
100
AcDbSpline
 70
8
 71
3
 72
8
 73
4
 74
0
 40
0
 40
0
 40
0
 40
0
 40
1
 40
1
 40
1
 40
1
 10
6.183005
 20
9.838267
 30
0.0
 10
6.254972
 20
9.834034
 30
0.0
 10
6.323763
 20
9.825567
 30
0.0
 10
6.389380
 20
9.812867
 30
0.0
  0
SPLINE
  5
16c
100
AcDbEntity
  8
Layer_1
 62
7
100
AcDbSpline
 70
8
 71
3
 72
8
 73
4
 74
0
 40
0
 40
0
 40
0
 40
0
 40
1
 40
1
 40
1
 40
1
 10
6.389380
 20
9.812867
 30
0.0
 10
6.454997
 20
9.802284
 30
0.0
 10
6.512147
 20
9.789584
 30
0.0
 10
6.560830
 20
9.774767
 30
0.0
  0
LWPOLYLINE
  5
16d
100
AcDbEntity
  8
Layer_1
 62
7
100
AcDbPolyline
 90
3
 70
0
 10
4.763780
 20
9.857317
 30
0.0
 10
4.928880
 20
9.847792
 30
0.0
 10
5.970280
 20
9.847792
 30
0.0
  0
LWPOLYLINE
  5
16e
100
AcDbEntity
  8
Layer_1
 62
7
100
AcDbPolyline
 90
1
 70
1
 10
6.560830
 20
9.774767
 30
0.0
  0
SPLINE
  5
16f
100
AcDbEntity
  8
Layer_1
 62
7
100
AcDbSpline
 70
8
 71
3
 72
8
 73
4
 74
0
 40
0
 40
0
 40
0
 40
0
 40
1
 40
1
 40
1
 40
1
 10
5.595630
 20
10.174817
 30
0.0
 10
5.593513
 20
10.221384
 30
0.0
 10
5.594572
 20
10.272184
 30
0.0
 10
5.598805
 20
10.327217
 30
0.0
  0
SPLINE
  5
170
100
AcDbEntity
  8
Layer_1
 62
7
100
AcDbSpline
 70
8
 71
3
 72
8
 73
4
 74
0
 40
0
 40
0
 40
0
 40
0
 40
1
 40
1
 40
1
 40
1
 10
5.598805
 20
10.327217
 30
0.0
 10
5.600922
 20
10.384367
 30
0.0
 10
5.605155
 20
10.426701
 30
0.0
 10
5.611505
 20
10.454217
 30
0.0
  0
SPLINE
  5
171
100
AcDbEntity
  8
Layer_1
 62
7
100
AcDbSpline
 70
8
 71
3
 72
8
 73
4
 74
0
 40
0
 40
0
 40
0
 40
0
 40
1
 40
1
 40
1
 40
1
 10
5.611505
 20
10.454217
 30
0.0
 10
5.619972
 20
10.483851
 30
0.0
 10
5.637963
 20
10.498667
 30
0.0
 10
5.665480
 20
10.498667
 30
0.0
  0
SPLINE
  5
172
100
AcDbEntity
  8
Layer_1
 62
7
100
AcDbSpline
 70
8
 71
3
 72
8
 73
4
 74
0
 40
0
 40
0
 40
0
 40
0
 40
1
 40
1
 40
1
 40
1
 10
5.665480
 20
10.498667
 30
0.0
 10
5.692997
 20
10.500784
 30
0.0
 10
5.717338
 20
10.497609
 30
0.0
 10
5.738505
 20
10.489142
 30
0.0
  0
SPLINE
  5
173
100
AcDbEntity
  8
Layer_1
 62
7
100
AcDbSpline
 70
8
 71
3
 72
8
 73
4
 74
0
 40
0
 40
0
 40
0
 40
0
 40
1
 40
1
 40
1
 40
1
 10
5.738505
 20
10.489142
 30
0.0
 10
5.757555
 20
10.482792
 30
0.0
 10
5.771313
 20
10.473267
 30
0.0
 10
5.779780
 20
10.460567
 30
0.0
  0
SPLINE
  5
174
100
AcDbEntity
  8
Layer_1
 62
7
100
AcDbSpline
 70
8
 71
3
 72
8
 73
4
 74
0
 40
0
 40
0
 40
0
 40
0
 40
1
 40
1
 40
1
 40
1
 10
5.779780
 20
10.460567
 30
0.0
 10
5.784013
 20
10.454217
 30
0.0
 10
5.788247
 20
10.444692
 30
0.0
 10
5.792480
 20
10.431992
 30
0.0
  0
SPLINE
  5
175
100
AcDbEntity
  8
Layer_1
 62
7
100
AcDbSpline
 70
8
 71
3
 72
8
 73
4
 74
0
 40
0
 40
0
 40
0
 40
0
 40
1
 40
1
 40
1
 40
1
 10
5.792480
 20
10.431992
 30
0.0
 10
5.794597
 20
10.421409
 30
0.0
 10
5.795655
 20
10.410826
 30
0.0
 10
5.795655
 20
10.400242
 30
0.0
  0
LWPOLYLINE
  5
176
100
AcDbEntity
  8
Layer_1
 62
7
100
AcDbPolyline
 90
5
 70
0
 10
5.795655
 20
10.400242
 30
0.0
 10
5.805180
 20
9.803342
 30
0.0
 10
5.668655
 20
9.803342
 30
0.0
 10
5.655955
 20
10.073217
 30
0.0
 10
5.595630
 20
10.174817
 30
0.0
  0
SPLINE
  5
177
100
AcDbEntity
  8
Layer_1
 62
7
100
AcDbSpline
 70
8
 71
3
 72
8
 73
4
 74
0
 40
0
 40
0
 40
0
 40
0
 40
1
 40
1
 40
1
 40
1
 10
7.078355
 20
9.835092
 30
0.0
 10
7.192655
 20
9.835092
 30
0.0
 10
7.293197
 20
9.805459
 30
0.0
 10
7.379980
 20
9.746192
 30
0.0
  0
SPLINE
  5
178
100
AcDbEntity
  8
Layer_1
 62
7
100
AcDbSpline
 70
8
 71
3
 72
8
 73
4
 74
0
 40
0
 40
0
 40
0
 40
0
 40
1
 40
1
 40
1
 40
1
 10
7.379980
 20
9.746192
 30
0.0
 10
7.468880
 20
9.686926
 30
0.0
 10
7.537672
 20
9.606492
 30
0.0
 10
7.586355
 20
9.504892
 30
0.0
  0
SPLINE
  5
179
100
AcDbEntity
  8
Layer_1
 62
7
100
AcDbSpline
 70
8
 71
3
 72
8
 73
4
 74
0
 40
0
 40
0
 40
0
 40
0
 40
1
 40
1
 40
1
 40
1
 10
7.586355
 20
9.504892
 30
0.0
 10
7.637155
 20
9.403292
 30
0.0
 10
7.662555
 20
9.286876
 30
0.0
 10
7.662555
 20
9.155642
 30
0.0
  0
SPLINE
  5
17a
100
AcDbEntity
  8
Layer_1
 62
7
100
AcDbSpline
 70
8
 71
3
 72
8
 73
4
 74
0
 40
0
 40
0
 40
0
 40
0
 40
1
 40
1
 40
1
 40
1
 10
7.662555
 20
9.155642
 30
0.0
 10
7.662555
 20
9.026526
 30
0.0
 10
7.637155
 20
8.910109
 30
0.0
 10
7.586355
 20
8.806392
 30
0.0
  0
SPLINE
  5
17b
100
AcDbEntity
  8
Layer_1
 62
7
100
AcDbSpline
 70
8
 71
3
 72
8
 73
4
 74
0
 40
0
 40
0
 40
0
 40
0
 40
1
 40
1
 40
1
 40
1
 10
7.586355
 20
8.806392
 30
0.0
 10
7.537672
 20
8.704792
 30
0.0
 10
7.468880
 20
8.624359
 30
0.0
 10
7.379980
 20
8.565092
 30
0.0
  0
SPLINE
  5
17c
100
AcDbEntity
  8
Layer_1
 62
7
100
AcDbSpline
 70
8
 71
3
 72
8
 73
4
 74
0
 40
0
 40
0
 40
0
 40
0
 40
1
 40
1
 40
1
 40
1
 10
7.379980
 20
8.565092
 30
0.0
 10
7.293197
 20
8.505825
 30
0.0
 10
7.192655
 20
8.476192
 30
0.0
 10
7.078355
 20
8.476192
 30
0.0
  0
SPLINE
  5
17d
100
AcDbEntity
  8
Layer_1
 62
7
100
AcDbSpline
 70
8
 71
3
 72
8
 73
4
 74
0
 40
0
 40
0
 40
0
 40
0
 40
1
 40
1
 40
1
 40
1
 10
7.078355
 20
8.476192
 30
0.0
 10
6.968288
 20
8.476192
 30
0.0
 10
6.870922
 20
8.505825
 30
0.0
 10
6.786255
 20
8.565092
 30
0.0
  0
SPLINE
  5
17e
100
AcDbEntity
  8
Layer_1
 62
7
100
AcDbSpline
 70
8
 71
3
 72
8
 73
4
 74
0
 40
0
 40
0
 40
0
 40
0
 40
1
 40
1
 40
1
 40
1
 10
6.786255
 20
8.565092
 30
0.0
 10
6.701588
 20
8.624359
 30
0.0
 10
6.635972
 20
8.704792
 30
0.0
 10
6.589405
 20
8.806392
 30
0.0
  0
SPLINE
  5
17f
100
AcDbEntity
  8
Layer_1
 62
7
100
AcDbSpline
 70
8
 71
3
 72
8
 73
4
 74
0
 40
0
 40
0
 40
0
 40
0
 40
1
 40
1
 40
1
 40
1
 10
6.589405
 20
8.806392
 30
0.0
 10
6.542838
 20
8.910109
 30
0.0
 10
6.519555
 20
9.026526
 30
0.0
 10
6.519555
 20
9.155642
 30
0.0
  0
SPLINE
  5
180
100
AcDbEntity
  8
Layer_1
 62
7
100
AcDbSpline
 70
8
 71
3
 72
8
 73
4
 74
0
 40
0
 40
0
 40
0
 40
0
 40
1
 40
1
 40
1
 40
1
 10
6.519555
 20
9.155642
 30
0.0
 10
6.519555
 20
9.286876
 30
0.0
 10
6.542838
 20
9.403292
 30
0.0
 10
6.589405
 20
9.504892
 30
0.0
  0
SPLINE
  5
181
100
AcDbEntity
  8
Layer_1
 62
7
100
AcDbSpline
 70
8
 71
3
 72
8
 73
4
 74
0
 40
0
 40
0
 40
0
 40
0
 40
1
 40
1
 40
1
 40
1
 10
6.589405
 20
9.504892
 30
0.0
 10
6.635972
 20
9.606492
 30
0.0
 10
6.701588
 20
9.686926
 30
0.0
 10
6.786255
 20
9.746192
 30
0.0
  0
SPLINE
  5
182
100
AcDbEntity
  8
Layer_1
 62
7
100
AcDbSpline
 70
8
 71
3
 72
8
 73
4
 74
0
 40
0
 40
0
 40
0
 40
0
 40
1
 40
1
 40
1
 40
1
 10
6.786255
 20
9.746192
 30
0.0
 10
6.870922
 20
9.805459
 30
0.0
 10
6.968288
 20
9.835092
 30
0.0
 10
7.078355
 20
9.835092
 30
0.0
  0
LWPOLYLINE
  5
183
100
AcDbEntity
  8
Layer_1
 62
7
100
AcDbPolyline
 90
1
 70
1
 10
5.795655
 20
10.400242
 30
0.0
  0
SPLINE
  5
184
100
AcDbEntity
  8
Layer_1
 62
7
100
AcDbSpline
 70
8
 71
3
 72
8
 73
4
 74
0
 40
0
 40
0
 40
0
 40
0
 40
1
 40
1
 40
1
 40
1
 10
7.078355
 20
9.596967
 30
0.0
 10
6.953472
 20
9.596967
 30
0.0
 10
6.855047
 20
9.554634
 30
0.0
 10
6.783080
 20
9.469967
 30
0.0
  0
SPLINE
  5
185
100
AcDbEntity
  8
Layer_1
 62
7
100
AcDbSpline
 70
8
 71
3
 72
8
 73
4
 74
0
 40
0
 40
0
 40
0
 40
0
 40
1
 40
1
 40
1
 40
1
 10
6.783080
 20
9.469967
 30
0.0
 10
6.711113
 20
9.385301
 30
0.0
 10
6.675130
 20
9.280526
 30
0.0
 10
6.675130
 20
9.155642
 30
0.0
  0
SPLINE
  5
186
100
AcDbEntity
  8
Layer_1
 62
7
100
AcDbSpline
 70
8
 71
3
 72
8
 73
4
 74
0
 40
0
 40
0
 40
0
 40
0
 40
1
 40
1
 40
1
 40
1
 10
6.675130
 20
9.155642
 30
0.0
 10
6.675130
 20
9.030759
 30
0.0
 10
6.711113
 20
8.925984
 30
0.0
 10
6.783080
 20
8.841317
 30
0.0
  0
SPLINE
  5
187
100
AcDbEntity
  8
Layer_1
 62
7
100
AcDbSpline
 70
8
 71
3
 72
8
 73
4
 74
0
 40
0
 40
0
 40
0
 40
0
 40
1
 40
1
 40
1
 40
1
 10
6.783080
 20
8.841317
 30
0.0
 10
6.855047
 20
8.758767
 30
0.0
 10
6.953472
 20
8.717492
 30
0.0
 10
7.078355
 20
8.717492
 30
0.0
  0
SPLINE
  5
188
100
AcDbEntity
  8
Layer_1
 62
7
100
AcDbSpline
 70
8
 71
3
 72
8
 73
4
 74
0
 40
0
 40
0
 40
0
 40
0
 40
1
 40
1
 40
1
 40
1
 10
7.078355
 20
8.717492
 30
0.0
 10
7.201122
 20
8.717492
 30
0.0
 10
7.298488
 20
8.758767
 30
0.0
 10
7.370455
 20
8.841317
 30
0.0
  0
SPLINE
  5
189
100
AcDbEntity
  8
Layer_1
 62
7
100
AcDbSpline
 70
8
 71
3
 72
8
 73
4
 74
0
 40
0
 40
0
 40
0
 40
0
 40
1
 40
1
 40
1
 40
1
 10
7.370455
 20
8.841317
 30
0.0
 10
7.444538
 20
8.925984
 30
0.0
 10
7.481580
 20
9.030759
 30
0.0
 10
7.481580
 20
9.155642
 30
0.0
  0
SPLINE
  5
18a
100
AcDbEntity
  8
Layer_1
 62
7
100
AcDbSpline
 70
8
 71
3
 72
8
 73
4
 74
0
 40
0
 40
0
 40
0
 40
0
 40
1
 40
1
 40
1
 40
1
 10
7.481580
 20
9.155642
 30
0.0
 10
7.481580
 20
9.280526
 30
0.0
 10
7.444538
 20
9.385301
 30
0.0
 10
7.370455
 20
9.469967
 30
0.0
  0
SPLINE
  5
18b
100
AcDbEntity
  8
Layer_1
 62
7
100
AcDbSpline
 70
8
 71
3
 72
8
 73
4
 74
0
 40
0
 40
0
 40
0
 40
0
 40
1
 40
1
 40
1
 40
1
 10
7.370455
 20
9.469967
 30
0.0
 10
7.298488
 20
9.554634
 30
0.0
 10
7.201122
 20
9.596967
 30
0.0
 10
7.078355
 20
9.596967
 30
0.0
  0
LWPOLYLINE
  5
18c
100
AcDbEntity
  8
Layer_1
 62
7
100
AcDbPolyline
 90
1
 70
1
 10
7.078355
 20
9.835092
 30
0.0
  0
LWPOLYLINE
  5
18d
100
AcDbEntity
  8
Layer_1
 62
7
100
AcDbPolyline
 90
1
 70
1
 10
7.078355
 20
9.596967
 30
0.0
  0
SPLINE
  5
18e
100
AcDbEntity
  8
Layer_1
 62
7
100
AcDbSpline
 70
8
 71
3
 72
8
 73
4
 74
0
 40
0
 40
0
 40
0
 40
0
 40
1
 40
1
 40
1
 40
1
 10
5.138430
 20
8.806392
 30
0.0
 10
5.138430
 20
8.770409
 30
0.0
 10
5.139488
 20
8.718550
 30
0.0
 10
5.141605
 20
8.650817
 30
0.0
  0
SPLINE
  5
18f
100
AcDbEntity
  8
Layer_1
 62
7
100
AcDbSpline
 70
8
 71
3
 72
8
 73
4
 74
0
 40
0
 40
0
 40
0
 40
0
 40
1
 40
1
 40
1
 40
1
 10
5.141605
 20
8.650817
 30
0.0
 10
5.141605
 20
8.585200
 30
0.0
 10
5.142663
 20
8.516409
 30
0.0
 10
5.144780
 20
8.444442
 30
0.0
  0
SPLINE
  5
190
100
AcDbEntity
  8
Layer_1
 62
7
100
AcDbSpline
 70
8
 71
3
 72
8
 73
4
 74
0
 40
0
 40
0
 40
0
 40
0
 40
1
 40
1
 40
1
 40
1
 10
5.144780
 20
8.444442
 30
0.0
 10
5.146897
 20
8.372475
 30
0.0
 10
5.149013
 20
8.306859
 30
0.0
 10
5.151130
 20
8.247592
 30
0.0
  0
SPLINE
  5
191
100
AcDbEntity
  8
Layer_1
 62
7
100
AcDbSpline
 70
8
 71
3
 72
8
 73
4
 74
0
 40
0
 40
0
 40
0
 40
0
 40
1
 40
1
 40
1
 40
1
 10
5.151130
 20
8.247592
 30
0.0
 10
5.151130
 20
8.188325
 30
0.0
 10
5.152188
 20
8.147050
 30
0.0
 10
5.154305
 20
8.123767
 30
0.0
  0
SPLINE
  5
192
100
AcDbEntity
  8
Layer_1
 62
7
100
AcDbSpline
 70
8
 71
3
 72
8
 73
4
 74
0
 40
0
 40
0
 40
0
 40
0
 40
1
 40
1
 40
1
 40
1
 10
5.154305
 20
8.123767
 30
0.0
 10
5.156422
 20
8.096250
 30
0.0
 10
5.162772
 20
8.059209
 30
0.0
 10
5.173355
 20
8.012642
 30
0.0
  0
SPLINE
  5
193
100
AcDbEntity
  8
Layer_1
 62
7
100
AcDbSpline
 70
8
 71
3
 72
8
 73
4
 74
0
 40
0
 40
0
 40
0
 40
0
 40
1
 40
1
 40
1
 40
1
 10
5.173355
 20
8.012642
 30
0.0
 10
5.181822
 20
7.966075
 30
0.0
 10
5.192405
 20
7.927975
 30
0.0
 10
5.205105
 20
7.898342
 30
0.0
  0
SPLINE
  5
194
100
AcDbEntity
  8
Layer_1
 62
7
100
AcDbSpline
 70
8
 71
3
 72
8
 73
4
 74
0
 40
0
 40
0
 40
0
 40
0
 40
1
 40
1
 40
1
 40
1
 10
5.205105
 20
7.898342
 30
0.0
 10
5.188172
 20
7.856009
 30
0.0
 10
5.167005
 20
7.813675
 30
0.0
 10
5.141605
 20
7.771342
 30
0.0
  0
SPLINE
  5
195
100
AcDbEntity
  8
Layer_1
 62
7
100
AcDbSpline
 70
8
 71
3
 72
8
 73
4
 74
0
 40
0
 40
0
 40
0
 40
0
 40
1
 40
1
 40
1
 40
1
 10
5.141605
 20
7.771342
 30
0.0
 10
5.114088
 20
7.729009
 30
0.0
 10
5.087630
 20
7.691967
 30
0.0
 10
5.062230
 20
7.660217
 30
0.0
  0
SPLINE
  5
196
100
AcDbEntity
  8
Layer_1
 62
7
100
AcDbSpline
 70
8
 71
3
 72
8
 73
4
 74
0
 40
0
 40
0
 40
0
 40
0
 40
1
 40
1
 40
1
 40
1
 10
5.062230
 20
7.660217
 30
0.0
 10
5.053763
 20
7.651750
 30
0.0
 10
5.044238
 20
7.649634
 30
0.0
 10
5.033655
 20
7.653867
 30
0.0
  0
LWPOLYLINE
  5
197
100
AcDbEntity
  8
Layer_1
 62
7
100
AcDbPolyline
 90
2
 70
0
 10
5.001905
 20
8.806392
 30
0.0
 10
5.138430
 20
8.806392
 30
0.0
  0
SPLINE
  5
198
100
AcDbEntity
  8
Layer_1
 62
7
100
AcDbSpline
 70
8
 71
3
 72
8
 73
4
 74
0
 40
0
 40
0
 40
0
 40
0
 40
1
 40
1
 40
1
 40
1
 10
4.998730
 20
7.672917
 30
0.0
 10
5.005080
 20
7.713134
 30
0.0
 10
5.010372
 20
7.757584
 30
0.0
 10
5.014605
 20
7.806267
 30
0.0
  0
SPLINE
  5
199
100
AcDbEntity
  8
Layer_1
 62
7
100
AcDbSpline
 70
8
 71
3
 72
8
 73
4
 74
0
 40
0
 40
0
 40
0
 40
0
 40
1
 40
1
 40
1
 40
1
 10
5.014605
 20
7.806267
 30
0.0
 10
5.018838
 20
7.857067
 30
0.0
 10
5.020955
 20
7.901517
 30
0.0
 10
5.020955
 20
7.939617
 30
0.0
  0
LWPOLYLINE
  5
19a
100
AcDbEntity
  8
Layer_1
 62
7
100
AcDbPolyline
 90
2
 70
0
 10
5.033655
 20
7.653867
 30
0.0
 10
4.998730
 20
7.672917
 30
0.0
  0
SPLINE
  5
19b
100
AcDbEntity
  8
Layer_1
 62
7
100
AcDbSpline
 70
8
 71
3
 72
8
 73
4
 74
0
 40
0
 40
0
 40
0
 40
0
 40
1
 40
1
 40
1
 40
1
 10
5.020955
 20
8.057092
 30
0.0
 10
5.018838
 20
8.114242
 30
0.0
 10
5.017780
 20
8.178800
 30
0.0
 10
5.017780
 20
8.250767
 30
0.0
  0
SPLINE
  5
19c
100
AcDbEntity
  8
Layer_1
 62
7
100
AcDbSpline
 70
8
 71
3
 72
8
 73
4
 74
0
 40
0
 40
0
 40
0
 40
0
 40
1
 40
1
 40
1
 40
1
 10
5.017780
 20
8.250767
 30
0.0
 10
5.015663
 20
8.324850
 30
0.0
 10
5.014605
 20
8.398934
 30
0.0
 10
5.014605
 20
8.473017
 30
0.0
  0
SPLINE
  5
19d
100
AcDbEntity
  8
Layer_1
 62
7
100
AcDbSpline
 70
8
 71
3
 72
8
 73
4
 74
0
 40
0
 40
0
 40
0
 40
0
 40
1
 40
1
 40
1
 40
1
 10
5.014605
 20
8.473017
 30
0.0
 10
5.012488
 20
8.547100
 30
0.0
 10
5.010372
 20
8.613775
 30
0.0
 10
5.008255
 20
8.673042
 30
0.0
  0
SPLINE
  5
19e
100
AcDbEntity
  8
Layer_1
 62
7
100
AcDbSpline
 70
8
 71
3
 72
8
 73
4
 74
0
 40
0
 40
0
 40
0
 40
0
 40
1
 40
1
 40
1
 40
1
 10
5.008255
 20
8.673042
 30
0.0
 10
5.006138
 20
8.734425
 30
0.0
 10
5.004022
 20
8.778876
 30
0.0
 10
5.001905
 20
8.806392
 30
0.0
  0
LWPOLYLINE
  5
19f
100
AcDbEntity
  8
Layer_1
 62
7
100
AcDbPolyline
 90
2
 70
0
 10
5.020955
 20
7.939617
 30
0.0
 10
5.020955
 20
8.057092
 30
0.0
  0
LWPOLYLINE
  5
1a0
100
AcDbEntity
  8
Layer_1
 62
7
100
AcDbPolyline
 90
1
 70
1
 10
5.001905
 20
8.806392
 30
0.0
  0
SPLINE
  5
1a1
100
AcDbEntity
  8
Layer_1
 62
7
100
AcDbSpline
 70
8
 71
3
 72
8
 73
4
 74
0
 40
0
 40
0
 40
0
 40
0
 40
1
 40
1
 40
1
 40
1
 10
4.954280
 20
8.907992
 30
0.0
 10
4.943697
 20
8.924926
 30
0.0
 10
4.943697
 20
8.941859
 30
0.0
 10
4.954280
 20
8.958792
 30
0.0
  0
SPLINE
  5
1a2
100
AcDbEntity
  8
Layer_1
 62
7
100
AcDbSpline
 70
8
 71
3
 72
8
 73
4
 74
0
 40
0
 40
0
 40
0
 40
0
 40
1
 40
1
 40
1
 40
1
 10
4.954280
 20
8.958792
 30
0.0
 10
4.960630
 20
8.979959
 30
0.0
 10
4.971213
 20
9.005359
 30
0.0
 10
4.986030
 20
9.034992
 30
0.0
  0
SPLINE
  5
1a3
100
AcDbEntity
  8
Layer_1
 62
7
100
AcDbSpline
 70
8
 71
3
 72
8
 73
4
 74
0
 40
0
 40
0
 40
0
 40
0
 40
1
 40
1
 40
1
 40
1
 10
4.986030
 20
9.034992
 30
0.0
 10
4.998730
 20
9.066742
 30
0.0
 10
5.010372
 20
9.090026
 30
0.0
 10
5.020955
 20
9.104842
 30
0.0
  0
SPLINE
  5
1a4
100
AcDbEntity
  8
Layer_1
 62
7
100
AcDbSpline
 70
8
 71
3
 72
8
 73
4
 74
0
 40
0
 40
0
 40
0
 40
0
 40
1
 40
1
 40
1
 40
1
 10
5.020955
 20
9.104842
 30
0.0
 10
5.029422
 20
9.121776
 30
0.0
 10
5.043180
 20
9.123892
 30
0.0
 10
5.062230
 20
9.111192
 30
0.0
  0
LWPOLYLINE
  5
1a5
100
AcDbEntity
  8
Layer_1
 62
7
100
AcDbPolyline
 90
4
 70
0
 10
5.151130
 20
9.047692
 30
0.0
 10
5.138430
 20
8.771467
 30
0.0
 10
5.001905
 20
8.803217
 30
0.0
 10
4.954280
 20
8.907992
 30
0.0
  0
LWPOLYLINE
  5
1a6
100
AcDbEntity
  8
Layer_1
 62
7
100
AcDbPolyline
 90
2
 70
0
 10
5.062230
 20
9.111192
 30
0.0
 10
5.151130
 20
9.047692
 30
0.0
  0
SPLINE
  5
1a7
100
AcDbEntity
  8
Layer_1
 62
7
100
AcDbSpline
 70
8
 71
3
 72
8
 73
4
 74
0
 40
0
 40
0
 40
0
 40
0
 40
1
 40
1
 40
1
 40
1
 10
6.468755
 20
7.568142
 30
0.0
 10
6.458172
 20
7.559675
 30
0.0
 10
6.448647
 20
7.559675
 30
0.0
 10
6.440180
 20
7.568142
 30
0.0
  0
SPLINE
  5
1a8
100
AcDbEntity
  8
Layer_1
 62
7
100
AcDbSpline
 70
8
 71
3
 72
8
 73
4
 74
0
 40
0
 40
0
 40
0
 40
0
 40
1
 40
1
 40
1
 40
1
 10
6.440180
 20
7.568142
 30
0.0
 10
6.317413
 20
7.754409
 30
0.0
 10
6.184063
 20
7.924800
 30
0.0
 10
6.040130
 20
8.079317
 30
0.0
  0
SPLINE
  5
1a9
100
AcDbEntity
  8
Layer_1
 62
7
100
AcDbSpline
 70
8
 71
3
 72
8
 73
4
 74
0
 40
0
 40
0
 40
0
 40
0
 40
1
 40
1
 40
1
 40
1
 10
6.040130
 20
8.079317
 30
0.0
 10
5.894080
 20
8.233834
 30
0.0
 10
5.744855
 20
8.369300
 30
0.0
 10
5.592455
 20
8.485717
 30
0.0
  0
SPLINE
  5
1aa
100
AcDbEntity
  8
Layer_1
 62
7
100
AcDbSpline
 70
8
 71
3
 72
8
 73
4
 74
0
 40
0
 40
0
 40
0
 40
0
 40
1
 40
1
 40
1
 40
1
 10
5.592455
 20
8.485717
 30
0.0
 10
5.437938
 20
8.604250
 30
0.0
 10
5.286597
 20
8.699500
 30
0.0
 10
5.138430
 20
8.771467
 30
0.0
  0
LWPOLYLINE
  5
1ab
100
AcDbEntity
  8
Layer_1
 62
7
100
AcDbPolyline
 90
2
 70
0
 10
6.503680
 20
7.606242
 30
0.0
 10
6.468755
 20
7.568142
 30
0.0
  0
SPLINE
  5
1ac
100
AcDbEntity
  8
Layer_1
 62
7
100
AcDbSpline
 70
8
 71
3
 72
8
 73
4
 74
0
 40
0
 40
0
 40
0
 40
0
 40
1
 40
1
 40
1
 40
1
 10
5.151130
 20
9.047692
 30
0.0
 10
5.314113
 20
8.971492
 30
0.0
 10
5.479213
 20
8.862484
 30
0.0
 10
5.646430
 20
8.720667
 30
0.0
  0
SPLINE
  5
1ad
100
AcDbEntity
  8
Layer_1
 62
7
100
AcDbSpline
 70
8
 71
3
 72
8
 73
4
 74
0
 40
0
 40
0
 40
0
 40
0
 40
1
 40
1
 40
1
 40
1
 10
5.646430
 20
8.720667
 30
0.0
 10
5.811530
 20
8.578850
 30
0.0
 10
5.968163
 20
8.414809
 30
0.0
 10
6.116330
 20
8.228542
 30
0.0
  0
SPLINE
  5
1ae
100
AcDbEntity
  8
Layer_1
 62
7
100
AcDbSpline
 70
8
 71
3
 72
8
 73
4
 74
0
 40
0
 40
0
 40
0
 40
0
 40
1
 40
1
 40
1
 40
1
 10
6.116330
 20
8.228542
 30
0.0
 10
6.262380
 20
8.044392
 30
0.0
 10
6.390438
 20
7.846484
 30
0.0
 10
6.500505
 20
7.634817
 30
0.0
  0
SPLINE
  5
1af
100
AcDbEntity
  8
Layer_1
 62
7
100
AcDbSpline
 70
8
 71
3
 72
8
 73
4
 74
0
 40
0
 40
0
 40
0
 40
0
 40
1
 40
1
 40
1
 40
1
 10
6.500505
 20
7.634817
 30
0.0
 10
6.506855
 20
7.622117
 30
0.0
 10
6.507913
 20
7.612592
 30
0.0
 10
6.503680
 20
7.606242
 30
0.0
  0
LWPOLYLINE
  5
1b0
100
AcDbEntity
  8
Layer_1
 62
7
100
AcDbPolyline
 90
3
 70
0
 10
5.138430
 20
8.771467
 30
0.0
 10
5.087630
 20
8.917517
 30
0.0
 10
5.151130
 20
9.047692
 30
0.0
  0
LWPOLYLINE
  5
1b1
100
AcDbEntity
  8
Layer_1
 62
7
100
AcDbPolyline
 90
1
 70
1
 10
6.503680
 20
7.606242
 30
0.0
  0
SPLINE
  5
1b2
100
AcDbEntity
  8
Layer_1
 62
7
100
AcDbSpline
 70
8
 71
3
 72
8
 73
4
 74
0
 40
0
 40
0
 40
0
 40
0
 40
1
 40
1
 40
1
 40
1
 10
5.970280
 20
9.184217
 30
0.0
 10
5.997797
 20
9.209617
 30
0.0
 10
6.029547
 20
9.235017
 30
0.0
 10
6.065530
 20
9.260417
 30
0.0
  0
SPLINE
  5
1b3
100
AcDbEntity
  8
Layer_1
 62
7
100
AcDbSpline
 70
8
 71
3
 72
8
 73
4
 74
0
 40
0
 40
0
 40
0
 40
0
 40
1
 40
1
 40
1
 40
1
 10
6.065530
 20
9.260417
 30
0.0
 10
6.101513
 20
9.285817
 30
0.0
 10
6.132205
 20
9.304867
 30
0.0
 10
6.157605
 20
9.317567
 30
0.0
  0
SPLINE
  5
1b4
100
AcDbEntity
  8
Layer_1
 62
7
100
AcDbSpline
 70
8
 71
3
 72
8
 73
4
 74
0
 40
0
 40
0
 40
0
 40
0
 40
1
 40
1
 40
1
 40
1
 10
6.157605
 20
9.317567
 30
0.0
 10
6.191472
 20
9.336617
 30
0.0
 10
6.217930
 20
9.342967
 30
0.0
 10
6.236980
 20
9.336617
 30
0.0
  0
SPLINE
  5
1b5
100
AcDbEntity
  8
Layer_1
 62
7
100
AcDbSpline
 70
8
 71
3
 72
8
 73
4
 74
0
 40
0
 40
0
 40
0
 40
0
 40
1
 40
1
 40
1
 40
1
 10
6.236980
 20
9.336617
 30
0.0
 10
6.256030
 20
9.332384
 30
0.0
 10
6.271905
 20
9.319684
 30
0.0
 10
6.284605
 20
9.298517
 30
0.0
  0
SPLINE
  5
1b6
100
AcDbEntity
  8
Layer_1
 62
7
100
AcDbSpline
 70
8
 71
3
 72
8
 73
4
 74
0
 40
0
 40
0
 40
0
 40
0
 40
1
 40
1
 40
1
 40
1
 10
6.284605
 20
9.298517
 30
0.0
 10
6.295188
 20
9.277351
 30
0.0
 10
6.298363
 20
9.257242
 30
0.0
 10
6.294130
 20
9.238192
 30
0.0
  0
SPLINE
  5
1b7
100
AcDbEntity
  8
Layer_1
 62
7
100
AcDbSpline
 70
8
 71
3
 72
8
 73
4
 74
0
 40
0
 40
0
 40
0
 40
0
 40
1
 40
1
 40
1
 40
1
 10
6.294130
 20
9.238192
 30
0.0
 10
6.292013
 20
9.227609
 30
0.0
 10
6.287780
 20
9.215967
 30
0.0
 10
6.281430
 20
9.203267
 30
0.0
  0
SPLINE
  5
1b8
100
AcDbEntity
  8
Layer_1
 62
7
100
AcDbSpline
 70
8
 71
3
 72
8
 73
4
 74
0
 40
0
 40
0
 40
0
 40
0
 40
1
 40
1
 40
1
 40
1
 10
6.281430
 20
9.203267
 30
0.0
 10
6.272963
 20
9.190567
 30
0.0
 10
6.263438
 20
9.178926
 30
0.0
 10
6.252855
 20
9.168342
 30
0.0
  0
LWPOLYLINE
  5
1b9
100
AcDbEntity
  8
Layer_1
 62
7
100
AcDbPolyline
 90
4
 70
0
 10
6.252855
 20
9.168342
 30
0.0
 10
5.725805
 20
8.533342
 30
0.0
 10
5.935355
 20
9.044517
 30
0.0
 10
5.970280
 20
9.184217
 30
0.0
  0
LWPOLYLINE
  5
1ba
100
AcDbEntity
  8
Layer_1
 62
7
100
AcDbPolyline
 90
1
 70
1
 10
6.252855
 20
9.168342
 30
0.0
  0
LWPOLYLINE
  5
1bb
100
AcDbEntity
  8
Layer_1
 62
7
100
AcDbPolyline
 90
4
 70
1
 10
5.935355
 20
9.044517
 30
0.0
 10
5.954405
 20
9.031817
 30
0.0
 10
5.725805
 20
8.533342
 30
0.0
 10
5.614680
 20
8.628592
 30
0.0
  0
SPLINE
  5
1bc
100
AcDbEntity
  8
Layer_1
 62
7
100
AcDbSpline
 70
8
 71
3
 72
8
 73
4
 74
0
 40
0
 40
0
 40
0
 40
0
 40
1
 40
1
 40
1
 40
1
 10
7.456180
 20
12.000440
 30
0.0
 10
7.456180
 20
12.080873
 30
0.0
 10
7.455122
 20
12.160248
 30
0.0
 10
7.453005
 20
12.238565
 30
0.0
  0
SPLINE
  5
1bd
100
AcDbEntity
  8
Layer_1
 62
7
100
AcDbSpline
 70
8
 71
3
 72
8
 73
4
 74
0
 40
0
 40
0
 40
0
 40
0
 40
1
 40
1
 40
1
 40
1
 10
7.453005
 20
12.238565
 30
0.0
 10
7.453005
 20
12.318998
 30
0.0
 10
7.451947
 20
12.392023
 30
0.0
 10
7.449830
 20
12.457640
 30
0.0
  0
SPLINE
  5
1be
100
AcDbEntity
  8
Layer_1
 62
7
100
AcDbSpline
 70
8
 71
3
 72
8
 73
4
 74
0
 40
0
 40
0
 40
0
 40
0
 40
1
 40
1
 40
1
 40
1
 10
7.449830
 20
12.457640
 30
0.0
 10
7.449830
 20
12.525373
 30
0.0
 10
7.448772
 20
12.578290
 30
0.0
 10
7.446655
 20
12.616390
 30
0.0
  0
LWPOLYLINE
  5
1bf
100
AcDbEntity
  8
Layer_1
 62
7
100
AcDbPolyline
 90
5
 70
0
 10
7.586355
 20
12.984690
 30
0.0
 10
7.592705
 20
11.581340
 30
0.0
 10
7.456180
 20
11.609915
 30
0.0
 10
7.456180
 20
11.775015
 30
0.0
 10
7.456180
 20
12.000440
 30
0.0
  0
SPLINE
  5
1c0
100
AcDbEntity
  8
Layer_1
 62
7
100
AcDbSpline
 70
8
 71
3
 72
8
 73
4
 74
0
 40
0
 40
0
 40
0
 40
0
 40
1
 40
1
 40
1
 40
1
 10
7.389505
 20
12.721165
 30
0.0
 10
7.389505
 20
12.767732
 30
0.0
 10
7.391622
 20
12.820648
 30
0.0
 10
7.395855
 20
12.879915
 30
0.0
  0
SPLINE
  5
1c1
100
AcDbEntity
  8
Layer_1
 62
7
100
AcDbSpline
 70
8
 71
3
 72
8
 73
4
 74
0
 40
0
 40
0
 40
0
 40
0
 40
1
 40
1
 40
1
 40
1
 10
7.395855
 20
12.879915
 30
0.0
 10
7.400088
 20
12.941298
 30
0.0
 10
7.405380
 20
12.987865
 30
0.0
 10
7.411730
 20
13.019615
 30
0.0
  0
SPLINE
  5
1c2
100
AcDbEntity
  8
Layer_1
 62
7
100
AcDbSpline
 70
8
 71
3
 72
8
 73
4
 74
0
 40
0
 40
0
 40
0
 40
0
 40
1
 40
1
 40
1
 40
1
 10
7.411730
 20
13.019615
 30
0.0
 10
7.418080
 20
13.047132
 30
0.0
 10
7.432897
 20
13.060890
 30
0.0
 10
7.456180
 20
13.060890
 30
0.0
  0
SPLINE
  5
1c3
100
AcDbEntity
  8
Layer_1
 62
7
100
AcDbSpline
 70
8
 71
3
 72
8
 73
4
 74
0
 40
0
 40
0
 40
0
 40
0
 40
1
 40
1
 40
1
 40
1
 10
7.456180
 20
13.060890
 30
0.0
 10
7.485813
 20
13.060890
 30
0.0
 10
7.510155
 20
13.056657
 30
0.0
 10
7.529205
 20
13.048190
 30
0.0
  0
SPLINE
  5
1c4
100
AcDbEntity
  8
Layer_1
 62
7
100
AcDbSpline
 70
8
 71
3
 72
8
 73
4
 74
0
 40
0
 40
0
 40
0
 40
0
 40
1
 40
1
 40
1
 40
1
 10
7.529205
 20
13.048190
 30
0.0
 10
7.548255
 20
13.039723
 30
0.0
 10
7.562013
 20
13.032315
 30
0.0
 10
7.570480
 20
13.025965
 30
0.0
  0
SPLINE
  5
1c5
100
AcDbEntity
  8
Layer_1
 62
7
100
AcDbSpline
 70
8
 71
3
 72
8
 73
4
 74
0
 40
0
 40
0
 40
0
 40
0
 40
1
 40
1
 40
1
 40
1
 10
7.570480
 20
13.025965
 30
0.0
 10
7.581063
 20
13.015382
 30
0.0
 10
7.586355
 20
13.001623
 30
0.0
 10
7.586355
 20
12.984690
 30
0.0
  0
LWPOLYLINE
  5
1c6
100
AcDbEntity
  8
Layer_1
 62
7
100
AcDbPolyline
 90
2
 70
0
 10
7.446655
 20
12.616390
 30
0.0
 10
7.389505
 20
12.721165
 30
0.0
  0
LWPOLYLINE
  5
1c7
100
AcDbEntity
  8
Layer_1
 62
7
100
AcDbPolyline
 90
1
 70
1
 10
7.586355
 20
12.984690
 30
0.0
  0
SPLINE
  5
1c8
100
AcDbEntity
  8
Layer_1
 62
7
100
AcDbSpline
 70
8
 71
3
 72
8
 73
4
 74
0
 40
0
 40
0
 40
0
 40
0
 40
1
 40
1
 40
1
 40
1
 10
7.592705
 20
11.581340
 30
0.0
 10
7.592705
 20
11.479740
 30
0.0
 10
7.572597
 20
11.407773
 30
0.0
 10
7.532380
 20
11.365440
 30
0.0
  0
SPLINE
  5
1c9
100
AcDbEntity
  8
Layer_1
 62
7
100
AcDbSpline
 70
8
 71
3
 72
8
 73
4
 74
0
 40
0
 40
0
 40
0
 40
0
 40
1
 40
1
 40
1
 40
1
 10
7.532380
 20
11.365440
 30
0.0
 10
7.494280
 20
11.325223
 30
0.0
 10
7.431838
 20
11.305115
 30
0.0
 10
7.345055
 20
11.305115
 30
0.0
  0
LWPOLYLINE
  5
1ca
100
AcDbEntity
  8
Layer_1
 62
7
100
AcDbPolyline
 90
2
 70
0
 10
7.456180
 20
11.616265
 30
0.0
 10
7.592705
 20
11.581340
 30
0.0
  0
SPLINE
  5
1cb
100
AcDbEntity
  8
Layer_1
 62
7
100
AcDbSpline
 70
8
 71
3
 72
8
 73
4
 74
0
 40
0
 40
0
 40
0
 40
0
 40
1
 40
1
 40
1
 40
1
 10
7.373630
 20
11.536890
 30
0.0
 10
7.401147
 20
11.536890
 30
0.0
 10
7.421255
 20
11.542181
 30
0.0
 10
7.433955
 20
11.552765
 30
0.0
  0
SPLINE
  5
1cc
100
AcDbEntity
  8
Layer_1
 62
7
100
AcDbSpline
 70
8
 71
3
 72
8
 73
4
 74
0
 40
0
 40
0
 40
0
 40
0
 40
1
 40
1
 40
1
 40
1
 10
7.433955
 20
11.552765
 30
0.0
 10
7.448772
 20
11.565465
 30
0.0
 10
7.456180
 20
11.586631
 30
0.0
 10
7.456180
 20
11.616265
 30
0.0
  0
LWPOLYLINE
  5
1cd
100
AcDbEntity
  8
Layer_1
 62
7
100
AcDbPolyline
 90
4
 70
0
 10
7.345055
 20
11.305115
 30
0.0
 10
7.100580
 20
11.305115
 30
0.0
 10
7.100580
 20
11.536890
 30
0.0
 10
7.373630
 20
11.536890
 30
0.0
  0
LWPOLYLINE
  5
1ce
100
AcDbEntity
  8
Layer_1
 62
7
100
AcDbPolyline
 90
1
 70
1
 10
7.456180
 20
11.616265
 30
0.0
  0
SPLINE
  5
1cf
100
AcDbEntity
  8
Layer_1
 62
7
100
AcDbSpline
 70
8
 71
3
 72
8
 73
4
 74
0
 40
0
 40
0
 40
0
 40
0
 40
1
 40
1
 40
1
 40
1
 10
7.154555
 20
11.997265
 30
0.0
 10
7.112222
 20
11.993032
 30
0.0
 10
7.062480
 20
11.989857
 30
0.0
 10
7.005330
 20
11.987740
 30
0.0
  0
LWPOLYLINE
  5
1d0
100
AcDbEntity
  8
Layer_1
 62
7
100
AcDbPolyline
 90
2
 70
0
 10
7.154555
 20
12.136965
 30
0.0
 10
7.154555
 20
11.997265
 30
0.0
  0
SPLINE
  5
1d1
100
AcDbEntity
  8
Layer_1
 62
7
100
AcDbSpline
 70
8
 71
3
 72
8
 73
4
 74
0
 40
0
 40
0
 40
0
 40
0
 40
1
 40
1
 40
1
 40
1
 10
6.827530
 20
11.981390
 30
0.0
 10
6.766147
 20
11.979273
 30
0.0
 10
6.714288
 20
11.978215
 30
0.0
 10
6.671955
 20
11.978215
 30
0.0
  0
LWPOLYLINE
  5
1d2
100
AcDbEntity
  8
Layer_1
 62
7
100
AcDbPolyline
 90
2
 70
0
 10
7.005330
 20
11.987740
 30
0.0
 10
6.827530
 20
11.981390
 30
0.0
  0
SPLINE
  5
1d3
100
AcDbEntity
  8
Layer_1
 62
7
100
AcDbSpline
 70
8
 71
3
 72
8
 73
4
 74
0
 40
0
 40
0
 40
0
 40
0
 40
1
 40
1
 40
1
 40
1
 10
6.608455
 20
12.203640
 30
0.0
 10
6.657138
 20
12.203640
 30
0.0
 10
6.715347
 20
12.200465
 30
0.0
 10
6.783080
 20
12.194115
 30
0.0
  0
SPLINE
  5
1d4
100
AcDbEntity
  8
Layer_1
 62
7
100
AcDbSpline
 70
8
 71
3
 72
8
 73
4
 74
0
 40
0
 40
0
 40
0
 40
0
 40
1
 40
1
 40
1
 40
1
 10
6.783080
 20
12.194115
 30
0.0
 10
6.850813
 20
12.187765
 30
0.0
 10
6.917488
 20
12.179298
 30
0.0
 10
6.983105
 20
12.168715
 30
0.0
  0
SPLINE
  5
1d5
100
AcDbEntity
  8
Layer_1
 62
7
100
AcDbSpline
 70
8
 71
3
 72
8
 73
4
 74
0
 40
0
 40
0
 40
0
 40
0
 40
1
 40
1
 40
1
 40
1
 10
6.983105
 20
12.168715
 30
0.0
 10
7.048722
 20
12.160248
 30
0.0
 10
7.105872
 20
12.149665
 30
0.0
 10
7.154555
 20
12.136965
 30
0.0
  0
LWPOLYLINE
  5
1d6
100
AcDbEntity
  8
Layer_1
 62
7
100
AcDbPolyline
 90
4
 70
0
 10
6.671955
 20
11.978215
 30
0.0
 10
6.478280
 20
11.978215
 30
0.0
 10
6.478280
 20
12.203640
 30
0.0
 10
6.608455
 20
12.203640
 30
0.0
  0
LWPOLYLINE
  5
1d7
100
AcDbEntity
  8
Layer_1
 62
7
100
AcDbPolyline
 90
1
 70
1
 10
7.154555
 20
12.136965
 30
0.0
  0
SPLINE
  5
1d8
100
AcDbEntity
  8
Layer_1
 62
7
100
AcDbSpline
 70
8
 71
3
 72
8
 73
4
 74
0
 40
0
 40
0
 40
0
 40
0
 40
1
 40
1
 40
1
 40
1
 10
4.649480
 20
11.533715
 30
0.0
 10
4.664297
 20
11.637431
 30
0.0
 10
4.675938
 20
11.741148
 30
0.0
 10
4.684405
 20
11.844865
 30
0.0
  0
SPLINE
  5
1d9
100
AcDbEntity
  8
Layer_1
 62
7
100
AcDbSpline
 70
8
 71
3
 72
8
 73
4
 74
0
 40
0
 40
0
 40
0
 40
0
 40
1
 40
1
 40
1
 40
1
 10
4.684405
 20
11.844865
 30
0.0
 10
4.692872
 20
11.950698
 30
0.0
 10
4.699222
 20
12.052298
 30
0.0
 10
4.703455
 20
12.149665
 30
0.0
  0
SPLINE
  5
1da
100
AcDbEntity
  8
Layer_1
 62
7
100
AcDbSpline
 70
8
 71
3
 72
8
 73
4
 74
0
 40
0
 40
0
 40
0
 40
0
 40
1
 40
1
 40
1
 40
1
 10
4.703455
 20
12.149665
 30
0.0
 10
4.705572
 20
12.249148
 30
0.0
 10
4.705572
 20
12.339107
 30
0.0
 10
4.703455
 20
12.419540
 30
0.0
  0
SPLINE
  5
1db
100
AcDbEntity
  8
Layer_1
 62
7
100
AcDbSpline
 70
8
 71
3
 72
8
 73
4
 74
0
 40
0
 40
0
 40
0
 40
0
 40
1
 40
1
 40
1
 40
1
 10
4.703455
 20
12.419540
 30
0.0
 10
4.703455
 20
12.444940
 30
0.0
 10
4.712980
 20
12.460815
 30
0.0
 10
4.732030
 20
12.467165
 30
0.0
  0
SPLINE
  5
1dc
100
AcDbEntity
  8
Layer_1
 62
7
100
AcDbSpline
 70
8
 71
3
 72
8
 73
4
 74
0
 40
0
 40
0
 40
0
 40
0
 40
1
 40
1
 40
1
 40
1
 10
4.732030
 20
12.467165
 30
0.0
 10
4.740497
 20
12.471398
 30
0.0
 10
4.753197
 20
12.473515
 30
0.0
 10
4.770130
 20
12.473515
 30
0.0
  0
SPLINE
  5
1dd
100
AcDbEntity
  8
Layer_1
 62
7
100
AcDbSpline
 70
8
 71
3
 72
8
 73
4
 74
0
 40
0
 40
0
 40
0
 40
0
 40
1
 40
1
 40
1
 40
1
 10
4.770130
 20
12.473515
 30
0.0
 10
4.784947
 20
12.473515
 30
0.0
 10
4.799763
 20
12.472457
 30
0.0
 10
4.814580
 20
12.470340
 30
0.0
  0
SPLINE
  5
1de
100
AcDbEntity
  8
Layer_1
 62
7
100
AcDbSpline
 70
8
 71
3
 72
8
 73
4
 74
0
 40
0
 40
0
 40
0
 40
0
 40
1
 40
1
 40
1
 40
1
 10
4.814580
 20
12.470340
 30
0.0
 10
4.829397
 20
12.470340
 30
0.0
 10
4.839980
 20
12.467165
 30
0.0
 10
4.846330
 20
12.460815
 30
0.0
  0
SPLINE
  5
1df
100
AcDbEntity
  8
Layer_1
 62
7
100
AcDbSpline
 70
8
 71
3
 72
8
 73
4
 74
0
 40
0
 40
0
 40
0
 40
0
 40
1
 40
1
 40
1
 40
1
 10
4.846330
 20
12.460815
 30
0.0
 10
4.854797
 20
12.456582
 30
0.0
 10
4.861147
 20
12.450232
 30
0.0
 10
4.865380
 20
12.441765
 30
0.0
  0
SPLINE
  5
1e0
100
AcDbEntity
  8
Layer_1
 62
7
100
AcDbSpline
 70
8
 71
3
 72
8
 73
4
 74
0
 40
0
 40
0
 40
0
 40
0
 40
1
 40
1
 40
1
 40
1
 10
4.865380
 20
12.441765
 30
0.0
 10
4.867497
 20
12.433298
 30
0.0
 10
4.868555
 20
12.423773
 30
0.0
 10
4.868555
 20
12.413190
 30
0.0
  0
SPLINE
  5
1e1
100
AcDbEntity
  8
Layer_1
 62
7
100
AcDbSpline
 70
8
 71
3
 72
8
 73
4
 74
0
 40
0
 40
0
 40
0
 40
0
 40
1
 40
1
 40
1
 40
1
 10
4.868555
 20
12.413190
 30
0.0
 10
4.868555
 20
12.349690
 30
0.0
 10
4.869613
 20
12.278782
 30
0.0
 10
4.871730
 20
12.200465
 30
0.0
  0
SPLINE
  5
1e2
100
AcDbEntity
  8
Layer_1
 62
7
100
AcDbSpline
 70
8
 71
3
 72
8
 73
4
 74
0
 40
0
 40
0
 40
0
 40
0
 40
1
 40
1
 40
1
 40
1
 10
4.871730
 20
12.200465
 30
0.0
 10
4.873847
 20
12.124265
 30
0.0
 10
4.877022
 20
12.049123
 30
0.0
 10
4.881255
 20
11.975040
 30
0.0
  0
SPLINE
  5
1e3
100
AcDbEntity
  8
Layer_1
 62
7
100
AcDbSpline
 70
8
 71
3
 72
8
 73
4
 74
0
 40
0
 40
0
 40
0
 40
0
 40
1
 40
1
 40
1
 40
1
 10
4.881255
 20
11.975040
 30
0.0
 10
4.883372
 20
11.900957
 30
0.0
 10
4.886547
 20
11.838515
 30
0.0
 10
4.890780
 20
11.787715
 30
0.0
  0
SPLINE
  5
1e4
100
AcDbEntity
  8
Layer_1
 62
7
100
AcDbSpline
 70
8
 71
3
 72
8
 73
4
 74
0
 40
0
 40
0
 40
0
 40
0
 40
1
 40
1
 40
1
 40
1
 10
4.890780
 20
11.787715
 30
0.0
 10
4.890780
 20
11.760198
 30
0.0
 10
4.886547
 20
11.739031
 30
0.0
 10
4.878080
 20
11.724215
 30
0.0
  0
SPLINE
  5
1e5
100
AcDbEntity
  8
Layer_1
 62
7
100
AcDbSpline
 70
8
 71
3
 72
8
 73
4
 74
0
 40
0
 40
0
 40
0
 40
0
 40
1
 40
1
 40
1
 40
1
 10
4.878080
 20
11.724215
 30
0.0
 10
4.859030
 20
11.690348
 30
0.0
 10
4.833630
 20
11.654365
 30
0.0
 10
4.801880
 20
11.616265
 30
0.0
  0
SPLINE
  5
1e6
100
AcDbEntity
  8
Layer_1
 62
7
100
AcDbSpline
 70
8
 71
3
 72
8
 73
4
 74
0
 40
0
 40
0
 40
0
 40
0
 40
1
 40
1
 40
1
 40
1
 10
4.801880
 20
11.616265
 30
0.0
 10
4.770130
 20
11.578165
 30
0.0
 10
4.736263
 20
11.544298
 30
0.0
 10
4.700280
 20
11.514665
 30
0.0
  0
SPLINE
  5
1e7
100
AcDbEntity
  8
Layer_1
 62
7
100
AcDbSpline
 70
8
 71
3
 72
8
 73
4
 74
0
 40
0
 40
0
 40
0
 40
0
 40
1
 40
1
 40
1
 40
1
 10
4.700280
 20
11.514665
 30
0.0
 10
4.691813
 20
11.508315
 30
0.0
 10
4.683347
 20
11.507256
 30
0.0
 10
4.674880
 20
11.511490
 30
0.0
  0
LWPOLYLINE
  5
1e8
100
AcDbEntity
  8
Layer_1
 62
7
100
AcDbPolyline
 90
2
 70
0
 10
4.674880
 20
11.511490
 30
0.0
 10
4.649480
 20
11.533715
 30
0.0
  0
LWPOLYLINE
  5
1e9
100
AcDbEntity
  8
Layer_1
 62
7
100
AcDbPolyline
 90
1
 70
1
 10
4.674880
 20
11.511490
 30
0.0
  0
SPLINE
  5
1ea
100
AcDbEntity
  8
Layer_1
 62
7
100
AcDbSpline
 70
8
 71
3
 72
8
 73
4
 74
0
 40
0
 40
0
 40
0
 40
0
 40
1
 40
1
 40
1
 40
1
 10
6.348105
 20
13.121215
 30
0.0
 10
6.348105
 20
13.159315
 30
0.0
 10
6.351280
 20
13.200590
 30
0.0
 10
6.357630
 20
13.245040
 30
0.0
  0
SPLINE
  5
1eb
100
AcDbEntity
  8
Layer_1
 62
7
100
AcDbSpline
 70
8
 71
3
 72
8
 73
4
 74
0
 40
0
 40
0
 40
0
 40
0
 40
1
 40
1
 40
1
 40
1
 10
6.357630
 20
13.245040
 30
0.0
 10
6.361863
 20
13.291607
 30
0.0
 10
6.367155
 20
13.334998
 30
0.0
 10
6.373505
 20
13.375215
 30
0.0
  0
SPLINE
  5
1ec
100
AcDbEntity
  8
Layer_1
 62
7
100
AcDbSpline
 70
8
 71
3
 72
8
 73
4
 74
0
 40
0
 40
0
 40
0
 40
0
 40
1
 40
1
 40
1
 40
1
 10
6.373505
 20
13.375215
 30
0.0
 10
6.377738
 20
13.417548
 30
0.0
 10
6.385147
 20
13.451415
 30
0.0
 10
6.395730
 20
13.476815
 30
0.0
  0
SPLINE
  5
1ed
100
AcDbEntity
  8
Layer_1
 62
7
100
AcDbSpline
 70
8
 71
3
 72
8
 73
4
 74
0
 40
0
 40
0
 40
0
 40
0
 40
1
 40
1
 40
1
 40
1
 10
6.395730
 20
13.476815
 30
0.0
 10
6.404197
 20
13.504332
 30
0.0
 10
6.421130
 20
13.518090
 30
0.0
 10
6.446530
 20
13.518090
 30
0.0
  0
SPLINE
  5
1ee
100
AcDbEntity
  8
Layer_1
 62
7
100
AcDbSpline
 70
8
 71
3
 72
8
 73
4
 74
0
 40
0
 40
0
 40
0
 40
0
 40
1
 40
1
 40
1
 40
1
 10
6.446530
 20
13.518090
 30
0.0
 10
6.474047
 20
13.518090
 30
0.0
 10
6.498388
 20
13.510682
 30
0.0
 10
6.519555
 20
13.495865
 30
0.0
  0
SPLINE
  5
1ef
100
AcDbEntity
  8
Layer_1
 62
7
100
AcDbSpline
 70
8
 71
3
 72
8
 73
4
 74
0
 40
0
 40
0
 40
0
 40
0
 40
1
 40
1
 40
1
 40
1
 10
6.519555
 20
13.495865
 30
0.0
 10
6.540722
 20
13.481048
 30
0.0
 10
6.555538
 20
13.466232
 30
0.0
 10
6.564005
 20
13.451415
 30
0.0
  0
SPLINE
  5
1f0
100
AcDbEntity
  8
Layer_1
 62
7
100
AcDbSpline
 70
8
 71
3
 72
8
 73
4
 74
0
 40
0
 40
0
 40
0
 40
0
 40
1
 40
1
 40
1
 40
1
 10
6.564005
 20
13.451415
 30
0.0
 10
6.559772
 20
13.423898
 30
0.0
 10
6.556597
 20
13.386857
 30
0.0
 10
6.554480
 20
13.340290
 30
0.0
  0
SPLINE
  5
1f1
100
AcDbEntity
  8
Layer_1
 62
7
100
AcDbSpline
 70
8
 71
3
 72
8
 73
4
 74
0
 40
0
 40
0
 40
0
 40
0
 40
1
 40
1
 40
1
 40
1
 10
6.554480
 20
13.340290
 30
0.0
 10
6.552363
 20
13.293723
 30
0.0
 10
6.551305
 20
13.247157
 30
0.0
 10
6.551305
 20
13.200590
 30
0.0
  0
SPLINE
  5
1f2
100
AcDbEntity
  8
Layer_1
 62
7
100
AcDbSpline
 70
8
 71
3
 72
8
 73
4
 74
0
 40
0
 40
0
 40
0
 40
0
 40
1
 40
1
 40
1
 40
1
 10
6.551305
 20
13.200590
 30
0.0
 10
6.549188
 20
13.154023
 30
0.0
 10
6.548130
 20
13.114865
 30
0.0
 10
6.548130
 20
13.083115
 30
0.0
  0
LWPOLYLINE
  5
1f3
100
AcDbEntity
  8
Layer_1
 62
7
100
AcDbPolyline
 90
2
 70
0
 10
6.395730
 20
13.006915
 30
0.0
 10
6.348105
 20
13.121215
 30
0.0
  0
SPLINE
  5
1f4
100
AcDbEntity
  8
Layer_1
 62
7
100
AcDbSpline
 70
8
 71
3
 72
8
 73
4
 74
0
 40
0
 40
0
 40
0
 40
0
 40
1
 40
1
 40
1
 40
1
 10
6.548130
 20
12.883090
 30
0.0
 10
6.548130
 20
12.787840
 30
0.0
 10
6.549188
 20
12.674598
 30
0.0
 10
6.551305
 20
12.543365
 30
0.0
  0
SPLINE
  5
1f5
100
AcDbEntity
  8
Layer_1
 62
7
100
AcDbSpline
 70
8
 71
3
 72
8
 73
4
 74
0
 40
0
 40
0
 40
0
 40
0
 40
1
 40
1
 40
1
 40
1
 10
6.551305
 20
12.543365
 30
0.0
 10
6.553422
 20
12.414248
 30
0.0
 10
6.555538
 20
12.279840
 30
0.0
 10
6.557655
 20
12.140140
 30
0.0
  0
SPLINE
  5
1f6
100
AcDbEntity
  8
Layer_1
 62
7
100
AcDbSpline
 70
8
 71
3
 72
8
 73
4
 74
0
 40
0
 40
0
 40
0
 40
0
 40
1
 40
1
 40
1
 40
1
 10
6.557655
 20
12.140140
 30
0.0
 10
6.557655
 20
12.000440
 30
0.0
 10
6.558713
 20
11.867090
 30
0.0
 10
6.560830
 20
11.740090
 30
0.0
  0
SPLINE
  5
1f7
100
AcDbEntity
  8
Layer_1
 62
7
100
AcDbSpline
 70
8
 71
3
 72
8
 73
4
 74
0
 40
0
 40
0
 40
0
 40
0
 40
1
 40
1
 40
1
 40
1
 10
6.560830
 20
11.740090
 30
0.0
 10
6.562947
 20
11.613090
 30
0.0
 10
6.565063
 20
11.505140
 30
0.0
 10
6.567180
 20
11.416240
 30
0.0
  0
SPLINE
  5
1f8
100
AcDbEntity
  8
Layer_1
 62
7
100
AcDbSpline
 70
8
 71
3
 72
8
 73
4
 74
0
 40
0
 40
0
 40
0
 40
0
 40
1
 40
1
 40
1
 40
1
 10
6.567180
 20
11.416240
 30
0.0
 10
6.569297
 20
11.327340
 30
0.0
 10
6.571413
 20
11.268073
 30
0.0
 10
6.573530
 20
11.238440
 30
0.0
  0
SPLINE
  5
1f9
100
AcDbEntity
  8
Layer_1
 62
7
100
AcDbSpline
 70
8
 71
3
 72
8
 73
4
 74
0
 40
0
 40
0
 40
0
 40
0
 40
1
 40
1
 40
1
 40
1
 10
6.573530
 20
11.238440
 30
0.0
 10
6.575647
 20
11.213040
 30
0.0
 10
6.579880
 20
11.180231
 30
0.0
 10
6.586230
 20
11.140015
 30
0.0
  0
SPLINE
  5
1fa
100
AcDbEntity
  8
Layer_1
 62
7
100
AcDbSpline
 70
8
 71
3
 72
8
 73
4
 74
0
 40
0
 40
0
 40
0
 40
0
 40
1
 40
1
 40
1
 40
1
 10
6.586230
 20
11.140015
 30
0.0
 10
6.592580
 20
11.099798
 30
0.0
 10
6.599988
 20
11.059581
 30
0.0
 10
6.608455
 20
11.019365
 30
0.0
  0
SPLINE
  5
1fb
100
AcDbEntity
  8
Layer_1
 62
7
100
AcDbSpline
 70
8
 71
3
 72
8
 73
4
 74
0
 40
0
 40
0
 40
0
 40
0
 40
1
 40
1
 40
1
 40
1
 10
6.608455
 20
11.019365
 30
0.0
 10
6.616922
 20
10.981265
 30
0.0
 10
6.625388
 20
10.948456
 30
0.0
 10
6.633855
 20
10.920940
 30
0.0
  0
SPLINE
  5
1fc
100
AcDbEntity
  8
Layer_1
 62
7
100
AcDbSpline
 70
8
 71
3
 72
8
 73
4
 74
0
 40
0
 40
0
 40
0
 40
0
 40
1
 40
1
 40
1
 40
1
 10
6.633855
 20
10.920940
 30
0.0
 10
6.614805
 20
10.863790
 30
0.0
 10
6.590463
 20
10.807698
 30
0.0
 10
6.560830
 20
10.752665
 30
0.0
  0
SPLINE
  5
1fd
100
AcDbEntity
  8
Layer_1
 62
7
100
AcDbSpline
 70
8
 71
3
 72
8
 73
4
 74
0
 40
0
 40
0
 40
0
 40
0
 40
1
 40
1
 40
1
 40
1
 10
6.560830
 20
10.752665
 30
0.0
 10
6.531197
 20
10.697631
 30
0.0
 10
6.500505
 20
10.650006
 30
0.0
 10
6.468755
 20
10.609790
 30
0.0
  0
SPLINE
  5
1fe
100
AcDbEntity
  8
Layer_1
 62
7
100
AcDbSpline
 70
8
 71
3
 72
8
 73
4
 74
0
 40
0
 40
0
 40
0
 40
0
 40
1
 40
1
 40
1
 40
1
 10
6.468755
 20
10.609790
 30
0.0
 10
6.460288
 20
10.601323
 30
0.0
 10
6.450763
 20
10.598148
 30
0.0
 10
6.440180
 20
10.600265
 30
0.0
  0
LWPOLYLINE
  5
1ff
100
AcDbEntity
  8
Layer_1
 62
7
100
AcDbPolyline
 90
2
 70
0
 10
6.548130
 20
13.083115
 30
0.0
 10
6.548130
 20
12.883090
 30
0.0
  0
SPLINE
  5
200
100
AcDbEntity
  8
Layer_1
 62
7
100
AcDbSpline
 70
8
 71
3
 72
8
 73
4
 74
0
 40
0
 40
0
 40
0
 40
0
 40
1
 40
1
 40
1
 40
1
 10
6.395730
 20
10.622490
 30
0.0
 10
6.404197
 20
10.675406
 30
0.0
 10
6.411605
 20
10.734673
 30
0.0
 10
6.417955
 20
10.800290
 30
0.0
  0
SPLINE
  5
201
100
AcDbEntity
  8
Layer_1
 62
7
100
AcDbSpline
 70
8
 71
3
 72
8
 73
4
 74
0
 40
0
 40
0
 40
0
 40
0
 40
1
 40
1
 40
1
 40
1
 10
6.417955
 20
10.800290
 30
0.0
 10
6.424305
 20
10.865906
 30
0.0
 10
6.427480
 20
10.924115
 30
0.0
 10
6.427480
 20
10.974915
 30
0.0
  0
LWPOLYLINE
  5
202
100
AcDbEntity
  8
Layer_1
 62
7
100
AcDbPolyline
 90
2
 70
0
 10
6.440180
 20
10.600265
 30
0.0
 10
6.395730
 20
10.622490
 30
0.0
  0
SPLINE
  5
203
100
AcDbEntity
  8
Layer_1
 62
7
100
AcDbSpline
 70
8
 71
3
 72
8
 73
4
 74
0
 40
0
 40
0
 40
0
 40
0
 40
1
 40
1
 40
1
 40
1
 10
6.427480
 20
11.422590
 30
0.0
 10
6.425363
 20
11.536890
 30
0.0
 10
6.423247
 20
11.657540
 30
0.0
 10
6.421130
 20
11.784540
 30
0.0
  0
LWPOLYLINE
  5
204
100
AcDbEntity
  8
Layer_1
 62
7
100
AcDbPolyline
 90
3
 70
0
 10
6.427480
 20
10.974915
 30
0.0
 10
6.427480
 20
11.136840
 30
0.0
 10
6.427480
 20
11.422590
 30
0.0
  0
SPLINE
  5
205
100
AcDbEntity
  8
Layer_1
 62
7
100
AcDbSpline
 70
8
 71
3
 72
8
 73
4
 74
0
 40
0
 40
0
 40
0
 40
0
 40
1
 40
1
 40
1
 40
1
 10
6.414780
 20
12.171890
 30
0.0
 10
6.412663
 20
12.303123
 30
0.0
 10
6.410547
 20
12.425890
 30
0.0
 10
6.408430
 20
12.540190
 30
0.0
  0
SPLINE
  5
206
100
AcDbEntity
  8
Layer_1
 62
7
100
AcDbSpline
 70
8
 71
3
 72
8
 73
4
 74
0
 40
0
 40
0
 40
0
 40
0
 40
1
 40
1
 40
1
 40
1
 10
6.408430
 20
12.540190
 30
0.0
 10
6.406313
 20
12.654490
 30
0.0
 10
6.404197
 20
12.752915
 30
0.0
 10
6.402080
 20
12.835465
 30
0.0
  0
SPLINE
  5
207
100
AcDbEntity
  8
Layer_1
 62
7
100
AcDbSpline
 70
8
 71
3
 72
8
 73
4
 74
0
 40
0
 40
0
 40
0
 40
0
 40
1
 40
1
 40
1
 40
1
 10
6.402080
 20
12.835465
 30
0.0
 10
6.399963
 20
12.918015
 30
0.0
 10
6.397847
 20
12.975165
 30
0.0
 10
6.395730
 20
13.006915
 30
0.0
  0
LWPOLYLINE
  5
208
100
AcDbEntity
  8
Layer_1
 62
7
100
AcDbPolyline
 90
2
 70
0
 10
6.421130
 20
11.784540
 30
0.0
 10
6.414780
 20
12.171890
 30
0.0
  0
SPLINE
  5
209
100
AcDbEntity
  8
Layer_1
 62
7
100
AcDbSpline
 70
8
 71
3
 72
8
 73
4
 74
0
 40
0
 40
0
 40
0
 40
0
 40
1
 40
1
 40
1
 40
1
 10
5.786130
 20
12.727515
 30
0.0
 10
5.885613
 20
12.727515
 30
0.0
 10
5.971338
 20
12.696823
 30
0.0
 10
6.043305
 20
12.635440
 30
0.0
  0
SPLINE
  5
20a
100
AcDbEntity
  8
Layer_1
 62
7
100
AcDbSpline
 70
8
 71
3
 72
8
 73
4
 74
0
 40
0
 40
0
 40
0
 40
0
 40
1
 40
1
 40
1
 40
1
 10
6.043305
 20
12.635440
 30
0.0
 10
6.113155
 20
12.576173
 30
0.0
 10
6.168188
 20
12.494682
 30
0.0
 10
6.208405
 20
12.390965
 30
0.0
  0
SPLINE
  5
20b
100
AcDbEntity
  8
Layer_1
 62
7
100
AcDbSpline
 70
8
 71
3
 72
8
 73
4
 74
0
 40
0
 40
0
 40
0
 40
0
 40
1
 40
1
 40
1
 40
1
 10
6.208405
 20
12.390965
 30
0.0
 10
6.246505
 20
12.287248
 30
0.0
 10
6.265555
 20
12.172948
 30
0.0
 10
6.265555
 20
12.048065
 30
0.0
  0
SPLINE
  5
20c
100
AcDbEntity
  8
Layer_1
 62
7
100
AcDbSpline
 70
8
 71
3
 72
8
 73
4
 74
0
 40
0
 40
0
 40
0
 40
0
 40
1
 40
1
 40
1
 40
1
 10
6.265555
 20
12.048065
 30
0.0
 10
6.265555
 20
11.923182
 30
0.0
 10
6.246505
 20
11.808881
 30
0.0
 10
6.208405
 20
11.705165
 30
0.0
  0
SPLINE
  5
20d
100
AcDbEntity
  8
Layer_1
 62
7
100
AcDbSpline
 70
8
 71
3
 72
8
 73
4
 74
0
 40
0
 40
0
 40
0
 40
0
 40
1
 40
1
 40
1
 40
1
 10
6.208405
 20
11.705165
 30
0.0
 10
6.168188
 20
11.603565
 30
0.0
 10
6.113155
 20
11.522073
 30
0.0
 10
6.043305
 20
11.460690
 30
0.0
  0
SPLINE
  5
20e
100
AcDbEntity
  8
Layer_1
 62
7
100
AcDbSpline
 70
8
 71
3
 72
8
 73
4
 74
0
 40
0
 40
0
 40
0
 40
0
 40
1
 40
1
 40
1
 40
1
 10
6.043305
 20
11.460690
 30
0.0
 10
5.971338
 20
11.399306
 30
0.0
 10
5.885613
 20
11.368615
 30
0.0
 10
5.786130
 20
11.368615
 30
0.0
  0
SPLINE
  5
20f
100
AcDbEntity
  8
Layer_1
 62
7
100
AcDbSpline
 70
8
 71
3
 72
8
 73
4
 74
0
 40
0
 40
0
 40
0
 40
0
 40
1
 40
1
 40
1
 40
1
 10
5.786130
 20
11.368615
 30
0.0
 10
5.688763
 20
11.368615
 30
0.0
 10
5.605155
 20
11.399306
 30
0.0
 10
5.535305
 20
11.460690
 30
0.0
  0
SPLINE
  5
210
100
AcDbEntity
  8
Layer_1
 62
7
100
AcDbSpline
 70
8
 71
3
 72
8
 73
4
 74
0
 40
0
 40
0
 40
0
 40
0
 40
1
 40
1
 40
1
 40
1
 10
5.535305
 20
11.460690
 30
0.0
 10
5.463338
 20
11.522073
 30
0.0
 10
5.408305
 20
11.603565
 30
0.0
 10
5.370205
 20
11.705165
 30
0.0
  0
SPLINE
  5
211
100
AcDbEntity
  8
Layer_1
 62
7
100
AcDbSpline
 70
8
 71
3
 72
8
 73
4
 74
0
 40
0
 40
0
 40
0
 40
0
 40
1
 40
1
 40
1
 40
1
 10
5.370205
 20
11.705165
 30
0.0
 10
5.332105
 20
11.808881
 30
0.0
 10
5.313055
 20
11.923182
 30
0.0
 10
5.313055
 20
12.048065
 30
0.0
  0
SPLINE
  5
212
100
AcDbEntity
  8
Layer_1
 62
7
100
AcDbSpline
 70
8
 71
3
 72
8
 73
4
 74
0
 40
0
 40
0
 40
0
 40
0
 40
1
 40
1
 40
1
 40
1
 10
5.313055
 20
12.048065
 30
0.0
 10
5.313055
 20
12.172948
 30
0.0
 10
5.332105
 20
12.287248
 30
0.0
 10
5.370205
 20
12.390965
 30
0.0
  0
SPLINE
  5
213
100
AcDbEntity
  8
Layer_1
 62
7
100
AcDbSpline
 70
8
 71
3
 72
8
 73
4
 74
0
 40
0
 40
0
 40
0
 40
0
 40
1
 40
1
 40
1
 40
1
 10
5.370205
 20
12.390965
 30
0.0
 10
5.408305
 20
12.494682
 30
0.0
 10
5.463338
 20
12.576173
 30
0.0
 10
5.535305
 20
12.635440
 30
0.0
  0
SPLINE
  5
214
100
AcDbEntity
  8
Layer_1
 62
7
100
AcDbSpline
 70
8
 71
3
 72
8
 73
4
 74
0
 40
0
 40
0
 40
0
 40
0
 40
1
 40
1
 40
1
 40
1
 10
5.535305
 20
12.635440
 30
0.0
 10
5.605155
 20
12.696823
 30
0.0
 10
5.688763
 20
12.727515
 30
0.0
 10
5.786130
 20
12.727515
 30
0.0
  0
LWPOLYLINE
  5
215
100
AcDbEntity
  8
Layer_1
 62
7
100
AcDbPolyline
 90
1
 70
1
 10
6.395730
 20
13.006915
 30
0.0
  0
SPLINE
  5
216
100
AcDbEntity
  8
Layer_1
 62
7
100
AcDbSpline
 70
8
 71
3
 72
8
 73
4
 74
0
 40
0
 40
0
 40
0
 40
0
 40
1
 40
1
 40
1
 40
1
 10
5.786130
 20
12.502090
 30
0.0
 10
5.714163
 20
12.502090
 30
0.0
 10
5.653838
 20
12.480923
 30
0.0
 10
5.605155
 20
12.438590
 30
0.0
  0
SPLINE
  5
217
100
AcDbEntity
  8
Layer_1
 62
7
100
AcDbSpline
 70
8
 71
3
 72
8
 73
4
 74
0
 40
0
 40
0
 40
0
 40
0
 40
1
 40
1
 40
1
 40
1
 10
5.605155
 20
12.438590
 30
0.0
 10
5.556472
 20
12.398373
 30
0.0
 10
5.519430
 20
12.343340
 30
0.0
 10
5.494030
 20
12.273490
 30
0.0
  0
SPLINE
  5
218
100
AcDbEntity
  8
Layer_1
 62
7
100
AcDbSpline
 70
8
 71
3
 72
8
 73
4
 74
0
 40
0
 40
0
 40
0
 40
0
 40
1
 40
1
 40
1
 40
1
 10
5.494030
 20
12.273490
 30
0.0
 10
5.466513
 20
12.205757
 30
0.0
 10
5.452755
 20
12.130615
 30
0.0
 10
5.452755
 20
12.048065
 30
0.0
  0
SPLINE
  5
219
100
AcDbEntity
  8
Layer_1
 62
7
100
AcDbSpline
 70
8
 71
3
 72
8
 73
4
 74
0
 40
0
 40
0
 40
0
 40
0
 40
1
 40
1
 40
1
 40
1
 10
5.452755
 20
12.048065
 30
0.0
 10
5.452755
 20
11.967632
 30
0.0
 10
5.466513
 20
11.892490
 30
0.0
 10
5.494030
 20
11.822640
 30
0.0
  0
SPLINE
  5
21a
100
AcDbEntity
  8
Layer_1
 62
7
100
AcDbSpline
 70
8
 71
3
 72
8
 73
4
 74
0
 40
0
 40
0
 40
0
 40
0
 40
1
 40
1
 40
1
 40
1
 10
5.494030
 20
11.822640
 30
0.0
 10
5.519430
 20
11.752790
 30
0.0
 10
5.556472
 20
11.696698
 30
0.0
 10
5.605155
 20
11.654365
 30
0.0
  0
SPLINE
  5
21b
100
AcDbEntity
  8
Layer_1
 62
7
100
AcDbSpline
 70
8
 71
3
 72
8
 73
4
 74
0
 40
0
 40
0
 40
0
 40
0
 40
1
 40
1
 40
1
 40
1
 10
5.605155
 20
11.654365
 30
0.0
 10
5.653838
 20
11.614148
 30
0.0
 10
5.714163
 20
11.594040
 30
0.0
 10
5.786130
 20
11.594040
 30
0.0
  0
SPLINE
  5
21c
100
AcDbEntity
  8
Layer_1
 62
7
100
AcDbSpline
 70
8
 71
3
 72
8
 73
4
 74
0
 40
0
 40
0
 40
0
 40
0
 40
1
 40
1
 40
1
 40
1
 10
5.786130
 20
11.594040
 30
0.0
 10
5.860213
 20
11.594040
 30
0.0
 10
5.922655
 20
11.614148
 30
0.0
 10
5.973455
 20
11.654365
 30
0.0
  0
SPLINE
  5
21d
100
AcDbEntity
  8
Layer_1
 62
7
100
AcDbSpline
 70
8
 71
3
 72
8
 73
4
 74
0
 40
0
 40
0
 40
0
 40
0
 40
1
 40
1
 40
1
 40
1
 10
5.973455
 20
11.654365
 30
0.0
 10
6.022138
 20
11.696698
 30
0.0
 10
6.059180
 20
11.752790
 30
0.0
 10
6.084580
 20
11.822640
 30
0.0
  0
SPLINE
  5
21e
100
AcDbEntity
  8
Layer_1
 62
7
100
AcDbSpline
 70
8
 71
3
 72
8
 73
4
 74
0
 40
0
 40
0
 40
0
 40
0
 40
1
 40
1
 40
1
 40
1
 10
6.084580
 20
11.822640
 30
0.0
 10
6.109980
 20
11.892490
 30
0.0
 10
6.122680
 20
11.967632
 30
0.0
 10
6.122680
 20
12.048065
 30
0.0
  0
SPLINE
  5
21f
100
AcDbEntity
  8
Layer_1
 62
7
100
AcDbSpline
 70
8
 71
3
 72
8
 73
4
 74
0
 40
0
 40
0
 40
0
 40
0
 40
1
 40
1
 40
1
 40
1
 10
6.122680
 20
12.048065
 30
0.0
 10
6.122680
 20
12.130615
 30
0.0
 10
6.109980
 20
12.205757
 30
0.0
 10
6.084580
 20
12.273490
 30
0.0
  0
SPLINE
  5
220
100
AcDbEntity
  8
Layer_1
 62
7
100
AcDbSpline
 70
8
 71
3
 72
8
 73
4
 74
0
 40
0
 40
0
 40
0
 40
0
 40
1
 40
1
 40
1
 40
1
 10
6.084580
 20
12.273490
 30
0.0
 10
6.059180
 20
12.343340
 30
0.0
 10
6.022138
 20
12.398373
 30
0.0
 10
5.973455
 20
12.438590
 30
0.0
  0
SPLINE
  5
221
100
AcDbEntity
  8
Layer_1
 62
7
100
AcDbSpline
 70
8
 71
3
 72
8
 73
4
 74
0
 40
0
 40
0
 40
0
 40
0
 40
1
 40
1
 40
1
 40
1
 10
5.973455
 20
12.438590
 30
0.0
 10
5.922655
 20
12.480923
 30
0.0
 10
5.860213
 20
12.502090
 30
0.0
 10
5.786130
 20
12.502090
 30
0.0
  0
LWPOLYLINE
  5
222
100
AcDbEntity
  8
Layer_1
 62
7
100
AcDbPolyline
 90
1
 70
1
 10
5.786130
 20
12.727515
 30
0.0
  0
LWPOLYLINE
  5
223
100
AcDbEntity
  8
Layer_1
 62
7
100
AcDbPolyline
 90
1
 70
1
 10
5.786130
 20
12.502090
 30
0.0
  0
SPLINE
  5
224
100
AcDbEntity
  8
Layer_1
 62
7
100
AcDbSpline
 70
8
 71
3
 72
8
 73
4
 74
0
 40
0
 40
0
 40
0
 40
0
 40
1
 40
1
 40
1
 40
1
 10
5.008255
 20
12.803715
 30
0.0
 10
5.010372
 20
12.850282
 30
0.0
 10
5.015663
 20
12.903198
 30
0.0
 10
5.024130
 20
12.962465
 30
0.0
  0
SPLINE
  5
225
100
AcDbEntity
  8
Layer_1
 62
7
100
AcDbSpline
 70
8
 71
3
 72
8
 73
4
 74
0
 40
0
 40
0
 40
0
 40
0
 40
1
 40
1
 40
1
 40
1
 10
5.024130
 20
12.962465
 30
0.0
 10
5.030480
 20
13.023848
 30
0.0
 10
5.038947
 20
13.070415
 30
0.0
 10
5.049530
 20
13.102165
 30
0.0
  0
SPLINE
  5
226
100
AcDbEntity
  8
Layer_1
 62
7
100
AcDbSpline
 70
8
 71
3
 72
8
 73
4
 74
0
 40
0
 40
0
 40
0
 40
0
 40
1
 40
1
 40
1
 40
1
 10
5.049530
 20
13.102165
 30
0.0
 10
5.057997
 20
13.123332
 30
0.0
 10
5.071755
 20
13.133915
 30
0.0
 10
5.090805
 20
13.133915
 30
0.0
  0
SPLINE
  5
227
100
AcDbEntity
  8
Layer_1
 62
7
100
AcDbSpline
 70
8
 71
3
 72
8
 73
4
 74
0
 40
0
 40
0
 40
0
 40
0
 40
1
 40
1
 40
1
 40
1
 10
5.090805
 20
13.133915
 30
0.0
 10
5.116205
 20
13.133915
 30
0.0
 10
5.139488
 20
13.127565
 30
0.0
 10
5.160655
 20
13.114865
 30
0.0
  0
SPLINE
  5
228
100
AcDbEntity
  8
Layer_1
 62
7
100
AcDbSpline
 70
8
 71
3
 72
8
 73
4
 74
0
 40
0
 40
0
 40
0
 40
0
 40
1
 40
1
 40
1
 40
1
 10
5.160655
 20
13.114865
 30
0.0
 10
5.181822
 20
13.102165
 30
0.0
 10
5.195580
 20
13.089465
 30
0.0
 10
5.201930
 20
13.076765
 30
0.0
  0
SPLINE
  5
229
100
AcDbEntity
  8
Layer_1
 62
7
100
AcDbSpline
 70
8
 71
3
 72
8
 73
4
 74
0
 40
0
 40
0
 40
0
 40
0
 40
1
 40
1
 40
1
 40
1
 10
5.201930
 20
13.076765
 30
0.0
 10
5.197697
 20
13.055598
 30
0.0
 10
5.195580
 20
13.024907
 30
0.0
 10
5.195580
 20
12.984690
 30
0.0
  0
SPLINE
  5
22a
100
AcDbEntity
  8
Layer_1
 62
7
100
AcDbSpline
 70
8
 71
3
 72
8
 73
4
 74
0
 40
0
 40
0
 40
0
 40
0
 40
1
 40
1
 40
1
 40
1
 10
5.195580
 20
12.984690
 30
0.0
 10
5.193463
 20
12.946590
 30
0.0
 10
5.192405
 20
12.907432
 30
0.0
 10
5.192405
 20
12.867215
 30
0.0
  0
SPLINE
  5
22b
100
AcDbEntity
  8
Layer_1
 62
7
100
AcDbSpline
 70
8
 71
3
 72
8
 73
4
 74
0
 40
0
 40
0
 40
0
 40
0
 40
1
 40
1
 40
1
 40
1
 10
5.192405
 20
12.867215
 30
0.0
 10
5.190288
 20
12.826998
 30
0.0
 10
5.189230
 20
12.794190
 30
0.0
 10
5.189230
 20
12.768790
 30
0.0
  0
SPLINE
  5
22c
100
AcDbEntity
  8
Layer_1
 62
7
100
AcDbSpline
 70
8
 71
3
 72
8
 73
4
 74
0
 40
0
 40
0
 40
0
 40
0
 40
1
 40
1
 40
1
 40
1
 10
5.189230
 20
12.768790
 30
0.0
 10
5.189230
 20
12.741273
 30
0.0
 10
5.190288
 20
12.693648
 30
0.0
 10
5.192405
 20
12.625915
 30
0.0
  0
SPLINE
  5
22d
100
AcDbEntity
  8
Layer_1
 62
7
100
AcDbSpline
 70
8
 71
3
 72
8
 73
4
 74
0
 40
0
 40
0
 40
0
 40
0
 40
1
 40
1
 40
1
 40
1
 10
5.192405
 20
12.625915
 30
0.0
 10
5.192405
 20
12.560298
 30
0.0
 10
5.193463
 20
12.481982
 30
0.0
 10
5.195580
 20
12.390965
 30
0.0
  0
SPLINE
  5
22e
100
AcDbEntity
  8
Layer_1
 62
7
100
AcDbSpline
 70
8
 71
3
 72
8
 73
4
 74
0
 40
0
 40
0
 40
0
 40
0
 40
1
 40
1
 40
1
 40
1
 10
5.195580
 20
12.390965
 30
0.0
 10
5.195580
 20
12.299948
 30
0.0
 10
5.196638
 20
12.205757
 30
0.0
 10
5.198755
 20
12.108390
 30
0.0
  0
SPLINE
  5
22f
100
AcDbEntity
  8
Layer_1
 62
7
100
AcDbSpline
 70
8
 71
3
 72
8
 73
4
 74
0
 40
0
 40
0
 40
0
 40
0
 40
1
 40
1
 40
1
 40
1
 10
5.198755
 20
12.108390
 30
0.0
 10
5.198755
 20
12.011023
 30
0.0
 10
5.199813
 20
11.916832
 30
0.0
 10
5.201930
 20
11.825815
 30
0.0
  0
SPLINE
  5
230
100
AcDbEntity
  8
Layer_1
 62
7
100
AcDbSpline
 70
8
 71
3
 72
8
 73
4
 74
0
 40
0
 40
0
 40
0
 40
0
 40
1
 40
1
 40
1
 40
1
 10
5.201930
 20
11.825815
 30
0.0
 10
5.204047
 20
11.734798
 30
0.0
 10
5.206163
 20
11.656481
 30
0.0
 10
5.208280
 20
11.590865
 30
0.0
  0
SPLINE
  5
231
100
AcDbEntity
  8
Layer_1
 62
7
100
AcDbSpline
 70
8
 71
3
 72
8
 73
4
 74
0
 40
0
 40
0
 40
0
 40
0
 40
1
 40
1
 40
1
 40
1
 10
5.208280
 20
11.590865
 30
0.0
 10
5.208280
 20
11.525248
 30
0.0
 10
5.209338
 20
11.479740
 30
0.0
 10
5.211455
 20
11.454340
 30
0.0
  0
SPLINE
  5
232
100
AcDbEntity
  8
Layer_1
 62
7
100
AcDbSpline
 70
8
 71
3
 72
8
 73
4
 74
0
 40
0
 40
0
 40
0
 40
0
 40
1
 40
1
 40
1
 40
1
 10
5.211455
 20
11.454340
 30
0.0
 10
5.213572
 20
11.422590
 30
0.0
 10
5.219922
 20
11.380256
 30
0.0
 10
5.230505
 20
11.327340
 30
0.0
  0
SPLINE
  5
233
100
AcDbEntity
  8
Layer_1
 62
7
100
AcDbSpline
 70
8
 71
3
 72
8
 73
4
 74
0
 40
0
 40
0
 40
0
 40
0
 40
1
 40
1
 40
1
 40
1
 10
5.230505
 20
11.327340
 30
0.0
 10
5.241088
 20
11.276540
 30
0.0
 10
5.251672
 20
11.236323
 30
0.0
 10
5.262255
 20
11.206690
 30
0.0
  0
SPLINE
  5
234
100
AcDbEntity
  8
Layer_1
 62
7
100
AcDbSpline
 70
8
 71
3
 72
8
 73
4
 74
0
 40
0
 40
0
 40
0
 40
0
 40
1
 40
1
 40
1
 40
1
 10
5.262255
 20
11.206690
 30
0.0
 10
5.247438
 20
11.160123
 30
0.0
 10
5.226272
 20
11.111440
 30
0.0
 10
5.198755
 20
11.060640
 30
0.0
  0
SPLINE
  5
235
100
AcDbEntity
  8
Layer_1
 62
7
100
AcDbSpline
 70
8
 71
3
 72
8
 73
4
 74
0
 40
0
 40
0
 40
0
 40
0
 40
1
 40
1
 40
1
 40
1
 10
5.198755
 20
11.060640
 30
0.0
 10
5.171238
 20
11.009840
 30
0.0
 10
5.143722
 20
10.966448
 30
0.0
 10
5.116205
 20
10.930465
 30
0.0
  0
SPLINE
  5
236
100
AcDbEntity
  8
Layer_1
 62
7
100
AcDbSpline
 70
8
 71
3
 72
8
 73
4
 74
0
 40
0
 40
0
 40
0
 40
0
 40
1
 40
1
 40
1
 40
1
 10
5.116205
 20
10.930465
 30
0.0
 10
5.109855
 20
10.919881
 30
0.0
 10
5.101388
 20
10.917765
 30
0.0
 10
5.090805
 20
10.924115
 30
0.0
  0
LWPOLYLINE
  5
237
100
AcDbEntity
  8
Layer_1
 62
7
100
AcDbPolyline
 90
2
 70
0
 10
5.055880
 20
12.698940
 30
0.0
 10
5.008255
 20
12.803715
 30
0.0
  0
SPLINE
  5
238
100
AcDbEntity
  8
Layer_1
 62
7
100
AcDbSpline
 70
8
 71
3
 72
8
 73
4
 74
0
 40
0
 40
0
 40
0
 40
0
 40
1
 40
1
 40
1
 40
1
 10
5.052705
 20
10.943165
 30
0.0
 10
5.061172
 20
10.989731
 30
0.0
 10
5.068580
 20
11.043706
 30
0.0
 10
5.074930
 20
11.105090
 30
0.0
  0
SPLINE
  5
239
100
AcDbEntity
  8
Layer_1
 62
7
100
AcDbSpline
 70
8
 71
3
 72
8
 73
4
 74
0
 40
0
 40
0
 40
0
 40
0
 40
1
 40
1
 40
1
 40
1
 10
5.074930
 20
11.105090
 30
0.0
 10
5.079163
 20
11.166473
 30
0.0
 10
5.081280
 20
11.216215
 30
0.0
 10
5.081280
 20
11.254315
 30
0.0
  0
LWPOLYLINE
  5
23a
100
AcDbEntity
  8
Layer_1
 62
7
100
AcDbPolyline
 90
2
 70
0
 10
5.090805
 20
10.924115
 30
0.0
 10
5.052705
 20
10.943165
 30
0.0
  0
SPLINE
  5
23b
100
AcDbEntity
  8
Layer_1
 62
7
100
AcDbSpline
 70
8
 71
3
 72
8
 73
4
 74
0
 40
0
 40
0
 40
0
 40
0
 40
1
 40
1
 40
1
 40
1
 10
5.081280
 20
11.654365
 30
0.0
 10
5.079163
 20
11.753848
 30
0.0
 10
5.077047
 20
11.857565
 30
0.0
 10
5.074930
 20
11.965515
 30
0.0
  0
SPLINE
  5
23c
100
AcDbEntity
  8
Layer_1
 62
7
100
AcDbSpline
 70
8
 71
3
 72
8
 73
4
 74
0
 40
0
 40
0
 40
0
 40
0
 40
1
 40
1
 40
1
 40
1
 10
5.074930
 20
11.965515
 30
0.0
 10
5.072813
 20
12.075582
 30
0.0
 10
5.070697
 20
12.180357
 30
0.0
 10
5.068580
 20
12.279840
 30
0.0
  0
SPLINE
  5
23d
100
AcDbEntity
  8
Layer_1
 62
7
100
AcDbSpline
 70
8
 71
3
 72
8
 73
4
 74
0
 40
0
 40
0
 40
0
 40
0
 40
1
 40
1
 40
1
 40
1
 10
5.068580
 20
12.279840
 30
0.0
 10
5.066463
 20
12.381440
 30
0.0
 10
5.064347
 20
12.469282
 30
0.0
 10
5.062230
 20
12.543365
 30
0.0
  0
SPLINE
  5
23e
100
AcDbEntity
  8
Layer_1
 62
7
100
AcDbSpline
 70
8
 71
3
 72
8
 73
4
 74
0
 40
0
 40
0
 40
0
 40
0
 40
1
 40
1
 40
1
 40
1
 10
5.062230
 20
12.543365
 30
0.0
 10
5.060113
 20
12.619565
 30
0.0
 10
5.057997
 20
12.671423
 30
0.0
 10
5.055880
 20
12.698940
 30
0.0
  0
LWPOLYLINE
  5
23f
100
AcDbEntity
  8
Layer_1
 62
7
100
AcDbPolyline
 90
3
 70
0
 10
5.081280
 20
11.254315
 30
0.0
 10
5.081280
 20
11.400365
 30
0.0
 10
5.081280
 20
11.654365
 30
0.0
  0
LWPOLYLINE
  5
240
100
AcDbEntity
  8
Layer_1
 62
7
100
AcDbPolyline
 90
1
 70
1
 10
5.055880
 20
12.698940
 30
0.0
  0
SPLINE
  5
241
100
AcDbEntity
  8
Layer_1
 62
7
100
AcDbSpline
 70
8
 71
3
 72
8
 73
4
 74
0
 40
0
 40
0
 40
0
 40
0
 40
1
 40
1
 40
1
 40
1
 10
7.027555
 20
11.305115
 30
0.0
 10
7.008505
 20
11.277598
 30
0.0
 10
6.990513
 20
11.243731
 30
0.0
 10
6.973580
 20
11.203515
 30
0.0
  0
SPLINE
  5
242
100
AcDbEntity
  8
Layer_1
 62
7
100
AcDbSpline
 70
8
 71
3
 72
8
 73
4
 74
0
 40
0
 40
0
 40
0
 40
0
 40
1
 40
1
 40
1
 40
1
 10
6.973580
 20
11.203515
 30
0.0
 10
6.956647
 20
11.165415
 30
0.0
 10
6.942888
 20
11.125198
 30
0.0
 10
6.932305
 20
11.082865
 30
0.0
  0
LWPOLYLINE
  5
243
100
AcDbEntity
  8
Layer_1
 62
7
100
AcDbPolyline
 90
3
 70
0
 10
7.211705
 20
11.536890
 30
0.0
 10
7.211705
 20
11.305115
 30
0.0
 10
7.027555
 20
11.305115
 30
0.0
  0
SPLINE
  5
244
100
AcDbEntity
  8
Layer_1
 62
7
100
AcDbSpline
 70
8
 71
3
 72
8
 73
4
 74
0
 40
0
 40
0
 40
0
 40
0
 40
1
 40
1
 40
1
 40
1
 10
6.862455
 20
11.098740
 30
0.0
 10
6.849755
 20
11.100856
 30
0.0
 10
6.843405
 20
11.111440
 30
0.0
 10
6.843405
 20
11.130490
 30
0.0
  0
SPLINE
  5
245
100
AcDbEntity
  8
Layer_1
 62
7
100
AcDbSpline
 70
8
 71
3
 72
8
 73
4
 74
0
 40
0
 40
0
 40
0
 40
0
 40
1
 40
1
 40
1
 40
1
 10
6.843405
 20
11.130490
 30
0.0
 10
6.843405
 20
11.166473
 30
0.0
 10
6.845522
 20
11.207748
 30
0.0
 10
6.849755
 20
11.254315
 30
0.0
  0
SPLINE
  5
246
100
AcDbEntity
  8
Layer_1
 62
7
100
AcDbSpline
 70
8
 71
3
 72
8
 73
4
 74
0
 40
0
 40
0
 40
0
 40
0
 40
1
 40
1
 40
1
 40
1
 10
6.849755
 20
11.254315
 30
0.0
 10
6.851872
 20
11.300881
 30
0.0
 10
6.855047
 20
11.346390
 30
0.0
 10
6.859280
 20
11.390840
 30
0.0
  0
SPLINE
  5
247
100
AcDbEntity
  8
Layer_1
 62
7
100
AcDbSpline
 70
8
 71
3
 72
8
 73
4
 74
0
 40
0
 40
0
 40
0
 40
0
 40
1
 40
1
 40
1
 40
1
 10
6.859280
 20
11.390840
 30
0.0
 10
6.861397
 20
11.435290
 30
0.0
 10
6.865630
 20
11.470215
 30
0.0
 10
6.871980
 20
11.495615
 30
0.0
  0
SPLINE
  5
248
100
AcDbEntity
  8
Layer_1
 62
7
100
AcDbSpline
 70
8
 71
3
 72
8
 73
4
 74
0
 40
0
 40
0
 40
0
 40
0
 40
1
 40
1
 40
1
 40
1
 10
6.871980
 20
11.495615
 30
0.0
 10
6.880447
 20
11.527365
 30
0.0
 10
6.901613
 20
11.543240
 30
0.0
 10
6.935480
 20
11.543240
 30
0.0
  0
LWPOLYLINE
  5
249
100
AcDbEntity
  8
Layer_1
 62
7
100
AcDbPolyline
 90
2
 70
0
 10
6.932305
 20
11.082865
 30
0.0
 10
6.862455
 20
11.098740
 30
0.0
  0
LWPOLYLINE
  5
24a
100
AcDbEntity
  8
Layer_1
 62
7
100
AcDbPolyline
 90
3
 70
0
 10
6.935480
 20
11.543240
 30
0.0
 10
7.078355
 20
11.536890
 30
0.0
 10
7.211705
 20
11.536890
 30
0.0
  0
SPLINE
  5
24b
100
AcDbEntity
  8
Layer_1
 62
7
100
AcDbSpline
 70
8
 71
3
 72
8
 73
4
 74
0
 40
0
 40
0
 40
0
 40
0
 40
1
 40
1
 40
1
 40
1
 10
6.490980
 20
16.759763
 30
0.0
 10
6.465580
 20
16.757646
 30
0.0
 10
6.433830
 20
16.755529
 30
0.0
 10
6.395730
 20
16.753413
 30
0.0
  0
SPLINE
  5
24c
100
AcDbEntity
  8
Layer_1
 62
7
100
AcDbSpline
 70
8
 71
3
 72
8
 73
4
 74
0
 40
0
 40
0
 40
0
 40
0
 40
1
 40
1
 40
1
 40
1
 10
6.395730
 20
16.753413
 30
0.0
 10
6.355513
 20
16.751296
 30
0.0
 10
6.314238
 20
16.749179
 30
0.0
 10
6.271905
 20
16.747063
 30
0.0
  0
SPLINE
  5
24d
100
AcDbEntity
  8
Layer_1
 62
7
100
AcDbSpline
 70
8
 71
3
 72
8
 73
4
 74
0
 40
0
 40
0
 40
0
 40
0
 40
1
 40
1
 40
1
 40
1
 10
6.271905
 20
16.747063
 30
0.0
 10
6.229572
 20
16.744946
 30
0.0
 10
6.188297
 20
16.742829
 30
0.0
 10
6.148080
 20
16.740713
 30
0.0
  0
LWPOLYLINE
  5
24e
100
AcDbEntity
  8
Layer_1
 62
7
100
AcDbPolyline
 90
2
 70
0
 10
6.490980
 20
16.893113
 30
0.0
 10
6.490980
 20
16.759763
 30
0.0
  0
SPLINE
  5
24f
100
AcDbEntity
  8
Layer_1
 62
7
100
AcDbSpline
 70
8
 71
3
 72
8
 73
4
 74
0
 40
0
 40
0
 40
0
 40
0
 40
1
 40
1
 40
1
 40
1
 10
4.871730
 20
16.740713
 30
0.0
 10
4.839980
 20
16.713196
 30
0.0
 10
4.810347
 20
16.675096
 30
0.0
 10
4.782830
 20
16.626413
 30
0.0
  0
SPLINE
  5
250
100
AcDbEntity
  8
Layer_1
 62
7
100
AcDbSpline
 70
8
 71
3
 72
8
 73
4
 74
0
 40
0
 40
0
 40
0
 40
0
 40
1
 40
1
 40
1
 40
1
 10
4.782830
 20
16.626413
 30
0.0
 10
4.753197
 20
16.579846
 30
0.0
 10
4.728855
 20
16.529046
 30
0.0
 10
4.709805
 20
16.474013
 30
0.0
  0
LWPOLYLINE
  5
251
100
AcDbEntity
  8
Layer_1
 62
7
100
AcDbPolyline
 90
3
 70
0
 10
6.148080
 20
16.740713
 30
0.0
 10
6.043305
 20
16.740713
 30
0.0
 10
4.871730
 20
16.740713
 30
0.0
  0
SPLINE
  5
252
100
AcDbEntity
  8
Layer_1
 62
7
100
AcDbSpline
 70
8
 71
3
 72
8
 73
4
 74
0
 40
0
 40
0
 40
0
 40
0
 40
1
 40
1
 40
1
 40
1
 10
4.633605
 20
16.499413
 30
0.0
 10
4.623022
 20
16.501529
 30
0.0
 10
4.617730
 20
16.513171
 30
0.0
 10
4.617730
 20
16.534338
 30
0.0
  0
SPLINE
  5
253
100
AcDbEntity
  8
Layer_1
 62
7
100
AcDbSpline
 70
8
 71
3
 72
8
 73
4
 74
0
 40
0
 40
0
 40
0
 40
0
 40
1
 40
1
 40
1
 40
1
 10
4.617730
 20
16.534338
 30
0.0
 10
4.617730
 20
16.572438
 30
0.0
 10
4.623022
 20
16.616888
 30
0.0
 10
4.633605
 20
16.667688
 30
0.0
  0
SPLINE
  5
254
100
AcDbEntity
  8
Layer_1
 62
7
100
AcDbSpline
 70
8
 71
3
 72
8
 73
4
 74
0
 40
0
 40
0
 40
0
 40
0
 40
1
 40
1
 40
1
 40
1
 10
4.633605
 20
16.667688
 30
0.0
 10
4.642072
 20
16.720604
 30
0.0
 10
4.652655
 20
16.771404
 30
0.0
 10
4.665355
 20
16.820088
 30
0.0
  0
SPLINE
  5
255
100
AcDbEntity
  8
Layer_1
 62
7
100
AcDbSpline
 70
8
 71
3
 72
8
 73
4
 74
0
 40
0
 40
0
 40
0
 40
0
 40
1
 40
1
 40
1
 40
1
 10
4.665355
 20
16.820088
 30
0.0
 10
4.675938
 20
16.868771
 30
0.0
 10
4.687580
 20
16.907929
 30
0.0
 10
4.700280
 20
16.937563
 30
0.0
  0
SPLINE
  5
256
100
AcDbEntity
  8
Layer_1
 62
7
100
AcDbSpline
 70
8
 71
3
 72
8
 73
4
 74
0
 40
0
 40
0
 40
0
 40
0
 40
1
 40
1
 40
1
 40
1
 10
4.700280
 20
16.937563
 30
0.0
 10
4.708747
 20
16.962963
 30
0.0
 10
4.729913
 20
16.975663
 30
0.0
 10
4.763780
 20
16.975663
 30
0.0
  0
LWPOLYLINE
  5
257
100
AcDbEntity
  8
Layer_1
 62
7
100
AcDbPolyline
 90
2
 70
0
 10
4.709805
 20
16.474013
 30
0.0
 10
4.633605
 20
16.499413
 30
0.0
  0
SPLINE
  5
258
100
AcDbEntity
  8
Layer_1
 62
7
100
AcDbSpline
 70
8
 71
3
 72
8
 73
4
 74
0
 40
0
 40
0
 40
0
 40
0
 40
1
 40
1
 40
1
 40
1
 10
5.967105
 20
16.966138
 30
0.0
 10
6.030605
 20
16.966138
 30
0.0
 10
6.096222
 20
16.962963
 30
0.0
 10
6.163955
 20
16.956613
 30
0.0
  0
SPLINE
  5
259
100
AcDbEntity
  8
Layer_1
 62
7
100
AcDbSpline
 70
8
 71
3
 72
8
 73
4
 74
0
 40
0
 40
0
 40
0
 40
0
 40
1
 40
1
 40
1
 40
1
 10
6.163955
 20
16.956613
 30
0.0
 10
6.229572
 20
16.952379
 30
0.0
 10
6.290955
 20
16.943913
 30
0.0
 10
6.348105
 20
16.931213
 30
0.0
  0
SPLINE
  5
25a
100
AcDbEntity
  8
Layer_1
 62
7
100
AcDbSpline
 70
8
 71
3
 72
8
 73
4
 74
0
 40
0
 40
0
 40
0
 40
0
 40
1
 40
1
 40
1
 40
1
 10
6.348105
 20
16.931213
 30
0.0
 10
6.403138
 20
16.920629
 30
0.0
 10
6.450763
 20
16.907929
 30
0.0
 10
6.490980
 20
16.893113
 30
0.0
  0
LWPOLYLINE
  5
25b
100
AcDbEntity
  8
Layer_1
 62
7
100
AcDbPolyline
 90
3
 70
0
 10
4.763780
 20
16.975663
 30
0.0
 10
4.928880
 20
16.966138
 30
0.0
 10
5.967105
 20
16.966138
 30
0.0
  0
LWPOLYLINE
  5
25c
100
AcDbEntity
  8
Layer_1
 62
7
100
AcDbPolyline
 90
1
 70
1
 10
6.490980
 20
16.893113
 30
0.0
  0
SPLINE
  5
25d
100
AcDbEntity
  8
Layer_1
 62
7
100
AcDbSpline
 70
8
 71
3
 72
8
 73
4
 74
0
 40
0
 40
0
 40
0
 40
0
 40
1
 40
1
 40
1
 40
1
 10
5.573405
 20
17.293163
 30
0.0
 10
5.571288
 20
17.339729
 30
0.0
 10
5.572347
 20
17.390529
 30
0.0
 10
5.576580
 20
17.445563
 30
0.0
  0
SPLINE
  5
25e
100
AcDbEntity
  8
Layer_1
 62
7
100
AcDbSpline
 70
8
 71
3
 72
8
 73
4
 74
0
 40
0
 40
0
 40
0
 40
0
 40
1
 40
1
 40
1
 40
1
 10
5.576580
 20
17.445563
 30
0.0
 10
5.578697
 20
17.502713
 30
0.0
 10
5.582930
 20
17.545046
 30
0.0
 10
5.589280
 20
17.572563
 30
0.0
  0
SPLINE
  5
25f
100
AcDbEntity
  8
Layer_1
 62
7
100
AcDbSpline
 70
8
 71
3
 72
8
 73
4
 74
0
 40
0
 40
0
 40
0
 40
0
 40
1
 40
1
 40
1
 40
1
 10
5.589280
 20
17.572563
 30
0.0
 10
5.595630
 20
17.602196
 30
0.0
 10
5.612563
 20
17.617013
 30
0.0
 10
5.640080
 20
17.617013
 30
0.0
  0
SPLINE
  5
260
100
AcDbEntity
  8
Layer_1
 62
7
100
AcDbSpline
 70
8
 71
3
 72
8
 73
4
 74
0
 40
0
 40
0
 40
0
 40
0
 40
1
 40
1
 40
1
 40
1
 10
5.640080
 20
17.617013
 30
0.0
 10
5.669713
 20
17.619129
 30
0.0
 10
5.695113
 20
17.615954
 30
0.0
 10
5.716280
 20
17.607488
 30
0.0
  0
SPLINE
  5
261
100
AcDbEntity
  8
Layer_1
 62
7
100
AcDbSpline
 70
8
 71
3
 72
8
 73
4
 74
0
 40
0
 40
0
 40
0
 40
0
 40
1
 40
1
 40
1
 40
1
 10
5.716280
 20
17.607488
 30
0.0
 10
5.735330
 20
17.601138
 30
0.0
 10
5.748030
 20
17.591613
 30
0.0
 10
5.754380
 20
17.578913
 30
0.0
  0
SPLINE
  5
262
100
AcDbEntity
  8
Layer_1
 62
7
100
AcDbSpline
 70
8
 71
3
 72
8
 73
4
 74
0
 40
0
 40
0
 40
0
 40
0
 40
1
 40
1
 40
1
 40
1
 10
5.754380
 20
17.578913
 30
0.0
 10
5.758613
 20
17.572563
 30
0.0
 10
5.762847
 20
17.563038
 30
0.0
 10
5.767080
 20
17.550338
 30
0.0
  0
SPLINE
  5
263
100
AcDbEntity
  8
Layer_1
 62
7
100
AcDbSpline
 70
8
 71
3
 72
8
 73
4
 74
0
 40
0
 40
0
 40
0
 40
0
 40
1
 40
1
 40
1
 40
1
 10
5.767080
 20
17.550338
 30
0.0
 10
5.769197
 20
17.539754
 30
0.0
 10
5.770255
 20
17.529171
 30
0.0
 10
5.770255
 20
17.518588
 30
0.0
  0
LWPOLYLINE
  5
264
100
AcDbEntity
  8
Layer_1
 62
7
100
AcDbPolyline
 90
5
 70
0
 10
5.770255
 20
17.518588
 30
0.0
 10
5.779780
 20
16.921688
 30
0.0
 10
5.643255
 20
16.921688
 30
0.0
 10
5.633730
 20
17.191563
 30
0.0
 10
5.573405
 20
17.293163
 30
0.0
  0
LWPOLYLINE
  5
265
100
AcDbEntity
  8
Layer_1
 62
7
100
AcDbPolyline
 90
1
 70
1
 10
5.770255
 20
17.518588
 30
0.0
  0
SPLINE
  5
266
100
AcDbEntity
  8
Layer_1
 62
7
100
AcDbSpline
 70
8
 71
3
 72
8
 73
4
 74
0
 40
0
 40
0
 40
0
 40
0
 40
1
 40
1
 40
1
 40
1
 10
6.783080
 20
16.756588
 30
0.0
 10
6.783080
 20
16.712138
 30
0.0
 10
6.784138
 20
16.652871
 30
0.0
 10
6.786255
 20
16.578788
 30
0.0
  0
SPLINE
  5
267
100
AcDbEntity
  8
Layer_1
 62
7
100
AcDbSpline
 70
8
 71
3
 72
8
 73
4
 74
0
 40
0
 40
0
 40
0
 40
0
 40
1
 40
1
 40
1
 40
1
 10
6.786255
 20
16.578788
 30
0.0
 10
6.786255
 20
16.504704
 30
0.0
 10
6.787313
 20
16.424271
 30
0.0
 10
6.789430
 20
16.337488
 30
0.0
  0
SPLINE
  5
268
100
AcDbEntity
  8
Layer_1
 62
7
100
AcDbSpline
 70
8
 71
3
 72
8
 73
4
 74
0
 40
0
 40
0
 40
0
 40
0
 40
1
 40
1
 40
1
 40
1
 10
6.789430
 20
16.337488
 30
0.0
 10
6.789430
 20
16.250704
 30
0.0
 10
6.790488
 20
16.164979
 30
0.0
 10
6.792605
 20
16.080313
 30
0.0
  0
SPLINE
  5
269
100
AcDbEntity
  8
Layer_1
 62
7
100
AcDbSpline
 70
8
 71
3
 72
8
 73
4
 74
0
 40
0
 40
0
 40
0
 40
0
 40
1
 40
1
 40
1
 40
1
 10
6.792605
 20
16.080313
 30
0.0
 10
6.794722
 20
15.997763
 30
0.0
 10
6.796838
 20
15.923679
 30
0.0
 10
6.798955
 20
15.858063
 30
0.0
  0
SPLINE
  5
26a
100
AcDbEntity
  8
Layer_1
 62
7
100
AcDbSpline
 70
8
 71
3
 72
8
 73
4
 74
0
 40
0
 40
0
 40
0
 40
0
 40
1
 40
1
 40
1
 40
1
 10
6.798955
 20
15.858063
 30
0.0
 10
6.801072
 20
15.794563
 30
0.0
 10
6.803188
 20
15.750113
 30
0.0
 10
6.805305
 20
15.724713
 30
0.0
  0
SPLINE
  5
26b
100
AcDbEntity
  8
Layer_1
 62
7
100
AcDbSpline
 70
8
 71
3
 72
8
 73
4
 74
0
 40
0
 40
0
 40
0
 40
0
 40
1
 40
1
 40
1
 40
1
 10
6.805305
 20
15.724713
 30
0.0
 10
6.807422
 20
15.686613
 30
0.0
 10
6.813772
 20
15.638988
 30
0.0
 10
6.824355
 20
15.581838
 30
0.0
  0
SPLINE
  5
26c
100
AcDbEntity
  8
Layer_1
 62
7
100
AcDbSpline
 70
8
 71
3
 72
8
 73
4
 74
0
 40
0
 40
0
 40
0
 40
0
 40
1
 40
1
 40
1
 40
1
 10
6.824355
 20
15.581838
 30
0.0
 10
6.832822
 20
15.524688
 30
0.0
 10
6.843405
 20
15.478121
 30
0.0
 10
6.856105
 20
15.442138
 30
0.0
  0
SPLINE
  5
26d
100
AcDbEntity
  8
Layer_1
 62
7
100
AcDbSpline
 70
8
 71
3
 72
8
 73
4
 74
0
 40
0
 40
0
 40
0
 40
0
 40
1
 40
1
 40
1
 40
1
 10
6.856105
 20
15.442138
 30
0.0
 10
6.839172
 20
15.391338
 30
0.0
 10
6.818005
 20
15.341596
 30
0.0
 10
6.792605
 20
15.292913
 30
0.0
  0
SPLINE
  5
26e
100
AcDbEntity
  8
Layer_1
 62
7
100
AcDbSpline
 70
8
 71
3
 72
8
 73
4
 74
0
 40
0
 40
0
 40
0
 40
0
 40
1
 40
1
 40
1
 40
1
 10
6.792605
 20
15.292913
 30
0.0
 10
6.765088
 20
15.246346
 30
0.0
 10
6.737572
 20
15.204013
 30
0.0
 10
6.710055
 20
15.165913
 30
0.0
  0
SPLINE
  5
26f
100
AcDbEntity
  8
Layer_1
 62
7
100
AcDbSpline
 70
8
 71
3
 72
8
 73
4
 74
0
 40
0
 40
0
 40
0
 40
0
 40
1
 40
1
 40
1
 40
1
 10
6.710055
 20
15.165913
 30
0.0
 10
6.701588
 20
15.155329
 30
0.0
 10
6.691005
 20
15.152154
 30
0.0
 10
6.678305
 20
15.156388
 30
0.0
  0
LWPOLYLINE
  5
270
100
AcDbEntity
  8
Layer_1
 62
7
100
AcDbPolyline
 90
2
 70
0
 10
6.633855
 20
16.756588
 30
0.0
 10
6.783080
 20
16.756588
 30
0.0
  0
SPLINE
  5
271
100
AcDbEntity
  8
Layer_1
 62
7
100
AcDbSpline
 70
8
 71
3
 72
8
 73
4
 74
0
 40
0
 40
0
 40
0
 40
0
 40
1
 40
1
 40
1
 40
1
 10
6.637030
 20
15.178613
 30
0.0
 10
6.645497
 20
15.225179
 30
0.0
 10
6.652905
 20
15.277038
 30
0.0
 10
6.659255
 20
15.334188
 30
0.0
  0
SPLINE
  5
272
100
AcDbEntity
  8
Layer_1
 62
7
100
AcDbSpline
 70
8
 71
3
 72
8
 73
4
 74
0
 40
0
 40
0
 40
0
 40
0
 40
1
 40
1
 40
1
 40
1
 10
6.659255
 20
15.334188
 30
0.0
 10
6.663488
 20
15.393454
 30
0.0
 10
6.665605
 20
15.445313
 30
0.0
 10
6.665605
 20
15.489763
 30
0.0
  0
LWPOLYLINE
  5
273
100
AcDbEntity
  8
Layer_1
 62
7
100
AcDbPolyline
 90
2
 70
0
 10
6.678305
 20
15.156388
 30
0.0
 10
6.637030
 20
15.178613
 30
0.0
  0
SPLINE
  5
274
100
AcDbEntity
  8
Layer_1
 62
7
100
AcDbSpline
 70
8
 71
3
 72
8
 73
4
 74
0
 40
0
 40
0
 40
0
 40
0
 40
1
 40
1
 40
1
 40
1
 10
6.665605
 20
15.619938
 30
0.0
 10
6.663488
 20
15.683438
 30
0.0
 10
6.662430
 20
15.757521
 30
0.0
 10
6.662430
 20
15.842188
 30
0.0
  0
SPLINE
  5
275
100
AcDbEntity
  8
Layer_1
 62
7
100
AcDbSpline
 70
8
 71
3
 72
8
 73
4
 74
0
 40
0
 40
0
 40
0
 40
0
 40
1
 40
1
 40
1
 40
1
 10
6.662430
 20
15.842188
 30
0.0
 10
6.660313
 20
15.928971
 30
0.0
 10
6.658197
 20
16.018929
 30
0.0
 10
6.656080
 20
16.112063
 30
0.0
  0
SPLINE
  5
276
100
AcDbEntity
  8
Layer_1
 62
7
100
AcDbSpline
 70
8
 71
3
 72
8
 73
4
 74
0
 40
0
 40
0
 40
0
 40
0
 40
1
 40
1
 40
1
 40
1
 10
6.656080
 20
16.112063
 30
0.0
 10
6.653963
 20
16.205196
 30
0.0
 10
6.651847
 20
16.295154
 30
0.0
 10
6.649730
 20
16.381938
 30
0.0
  0
SPLINE
  5
277
100
AcDbEntity
  8
Layer_1
 62
7
100
AcDbSpline
 70
8
 71
3
 72
8
 73
4
 74
0
 40
0
 40
0
 40
0
 40
0
 40
1
 40
1
 40
1
 40
1
 10
6.649730
 20
16.381938
 30
0.0
 10
6.647613
 20
16.468721
 30
0.0
 10
6.645497
 20
16.544921
 30
0.0
 10
6.643380
 20
16.610538
 30
0.0
  0
SPLINE
  5
278
100
AcDbEntity
  8
Layer_1
 62
7
100
AcDbSpline
 70
8
 71
3
 72
8
 73
4
 74
0
 40
0
 40
0
 40
0
 40
0
 40
1
 40
1
 40
1
 40
1
 10
6.643380
 20
16.610538
 30
0.0
 10
6.639147
 20
16.678271
 30
0.0
 10
6.635972
 20
16.726954
 30
0.0
 10
6.633855
 20
16.756588
 30
0.0
  0
LWPOLYLINE
  5
279
100
AcDbEntity
  8
Layer_1
 62
7
100
AcDbPolyline
 90
2
 70
0
 10
6.665605
 20
15.489763
 30
0.0
 10
6.665605
 20
15.619938
 30
0.0
  0
LWPOLYLINE
  5
27a
100
AcDbEntity
  8
Layer_1
 62
7
100
AcDbPolyline
 90
1
 70
1
 10
6.633855
 20
16.756588
 30
0.0
  0
SPLINE
  5
27b
100
AcDbEntity
  8
Layer_1
 62
7
100
AcDbSpline
 70
8
 71
3
 72
8
 73
4
 74
0
 40
0
 40
0
 40
0
 40
0
 40
1
 40
1
 40
1
 40
1
 10
6.589405
 20
16.832788
 30
0.0
 10
6.580938
 20
16.849721
 30
0.0
 10
6.580938
 20
16.865596
 30
0.0
 10
6.589405
 20
16.880413
 30
0.0
  0
SPLINE
  5
27c
100
AcDbEntity
  8
Layer_1
 62
7
100
AcDbSpline
 70
8
 71
3
 72
8
 73
4
 74
0
 40
0
 40
0
 40
0
 40
0
 40
1
 40
1
 40
1
 40
1
 10
6.589405
 20
16.880413
 30
0.0
 10
6.599988
 20
16.897346
 30
0.0
 10
6.612688
 20
16.918513
 30
0.0
 10
6.627505
 20
16.943913
 30
0.0
  0
SPLINE
  5
27d
100
AcDbEntity
  8
Layer_1
 62
7
100
AcDbSpline
 70
8
 71
3
 72
8
 73
4
 74
0
 40
0
 40
0
 40
0
 40
0
 40
1
 40
1
 40
1
 40
1
 10
6.627505
 20
16.943913
 30
0.0
 10
6.642322
 20
16.971429
 30
0.0
 10
6.655022
 20
16.990479
 30
0.0
 10
6.665605
 20
17.001063
 30
0.0
  0
SPLINE
  5
27e
100
AcDbEntity
  8
Layer_1
 62
7
100
AcDbSpline
 70
8
 71
3
 72
8
 73
4
 74
0
 40
0
 40
0
 40
0
 40
0
 40
1
 40
1
 40
1
 40
1
 10
6.665605
 20
17.001063
 30
0.0
 10
6.674072
 20
17.011646
 30
0.0
 10
6.686772
 20
17.013763
 30
0.0
 10
6.703705
 20
17.007413
 30
0.0
  0
LWPOLYLINE
  5
27f
100
AcDbEntity
  8
Layer_1
 62
7
100
AcDbPolyline
 90
4
 70
0
 10
6.802130
 20
16.969313
 30
0.0
 10
6.783080
 20
16.737538
 30
0.0
 10
6.633855
 20
16.743888
 30
0.0
 10
6.589405
 20
16.832788
 30
0.0
  0
LWPOLYLINE
  5
280
100
AcDbEntity
  8
Layer_1
 62
7
100
AcDbPolyline
 90
2
 70
0
 10
6.703705
 20
17.007413
 30
0.0
 10
6.802130
 20
16.969313
 30
0.0
  0
SPLINE
  5
281
100
AcDbEntity
  8
Layer_1
 62
7
100
AcDbSpline
 70
8
 71
3
 72
8
 73
4
 74
0
 40
0
 40
0
 40
0
 40
0
 40
1
 40
1
 40
1
 40
1
 10
7.700655
 20
16.759763
 30
0.0
 10
7.664672
 20
16.755529
 30
0.0
 10
7.621280
 20
16.751296
 30
0.0
 10
7.570480
 20
16.747063
 30
0.0
  0
SPLINE
  5
282
100
AcDbEntity
  8
Layer_1
 62
7
100
AcDbSpline
 70
8
 71
3
 72
8
 73
4
 74
0
 40
0
 40
0
 40
0
 40
0
 40
1
 40
1
 40
1
 40
1
 10
7.570480
 20
16.747063
 30
0.0
 10
7.521797
 20
16.744946
 30
0.0
 10
7.472055
 20
16.742829
 30
0.0
 10
7.421255
 20
16.740713
 30
0.0
  0
SPLINE
  5
283
100
AcDbEntity
  8
Layer_1
 62
7
100
AcDbSpline
 70
8
 71
3
 72
8
 73
4
 74
0
 40
0
 40
0
 40
0
 40
0
 40
1
 40
1
 40
1
 40
1
 10
7.421255
 20
16.740713
 30
0.0
 10
7.370455
 20
16.738596
 30
0.0
 10
7.327063
 20
16.737538
 30
0.0
 10
7.291080
 20
16.737538
 30
0.0
  0
LWPOLYLINE
  5
284
100
AcDbEntity
  8
Layer_1
 62
7
100
AcDbPolyline
 90
2
 70
0
 10
7.700655
 20
16.899463
 30
0.0
 10
7.700655
 20
16.759763
 30
0.0
  0
SPLINE
  5
285
100
AcDbEntity
  8
Layer_1
 62
7
100
AcDbSpline
 70
8
 71
3
 72
8
 73
4
 74
0
 40
0
 40
0
 40
0
 40
0
 40
1
 40
1
 40
1
 40
1
 10
7.233930
 20
16.962963
 30
0.0
 10
7.278380
 20
16.962963
 30
0.0
 10
7.329180
 20
16.959788
 30
0.0
 10
7.386330
 20
16.953438
 30
0.0
  0
SPLINE
  5
286
100
AcDbEntity
  8
Layer_1
 62
7
100
AcDbSpline
 70
8
 71
3
 72
8
 73
4
 74
0
 40
0
 40
0
 40
0
 40
0
 40
1
 40
1
 40
1
 40
1
 10
7.386330
 20
16.953438
 30
0.0
 10
7.445597
 20
16.947088
 30
0.0
 10
7.502747
 20
16.939679
 30
0.0
 10
7.557780
 20
16.931213
 30
0.0
  0
SPLINE
  5
287
100
AcDbEntity
  8
Layer_1
 62
7
100
AcDbSpline
 70
8
 71
3
 72
8
 73
4
 74
0
 40
0
 40
0
 40
0
 40
0
 40
1
 40
1
 40
1
 40
1
 10
7.557780
 20
16.931213
 30
0.0
 10
7.612813
 20
16.922746
 30
0.0
 10
7.660438
 20
16.912163
 30
0.0
 10
7.700655
 20
16.899463
 30
0.0
  0
LWPOLYLINE
  5
288
100
AcDbEntity
  8
Layer_1
 62
7
100
AcDbPolyline
 90
4
 70
0
 10
7.291080
 20
16.737538
 30
0.0
 10
6.783080
 20
16.737538
 30
0.0
 10
6.783080
 20
16.969313
 30
0.0
 10
7.233930
 20
16.962963
 30
0.0
  0
LWPOLYLINE
  5
289
100
AcDbEntity
  8
Layer_1
 62
7
100
AcDbPolyline
 90
1
 70
1
 10
7.700655
 20
16.899463
 30
0.0
  0
SPLINE
  5
28a
100
AcDbEntity
  8
Layer_1
 62
7
100
AcDbSpline
 70
8
 71
3
 72
8
 73
4
 74
0
 40
0
 40
0
 40
0
 40
0
 40
1
 40
1
 40
1
 40
1
 10
5.055880
 20
16.000938
 30
0.0
 10
5.032597
 20
15.981888
 30
0.0
 10
5.009313
 20
15.955429
 30
0.0
 10
4.986030
 20
15.921563
 30
0.0
  0
SPLINE
  5
28b
100
AcDbEntity
  8
Layer_1
 62
7
100
AcDbSpline
 70
8
 71
3
 72
8
 73
4
 74
0
 40
0
 40
0
 40
0
 40
0
 40
1
 40
1
 40
1
 40
1
 10
4.986030
 20
15.921563
 30
0.0
 10
4.962747
 20
15.887696
 30
0.0
 10
4.943697
 20
15.851713
 30
0.0
 10
4.928880
 20
15.813613
 30
0.0
  0
LWPOLYLINE
  5
28c
100
AcDbEntity
  8
Layer_1
 62
7
100
AcDbPolyline
 90
2
 70
0
 10
5.087630
 20
16.229538
 30
0.0
 10
5.055880
 20
16.000938
 30
0.0
  0
SPLINE
  5
28d
100
AcDbEntity
  8
Layer_1
 62
7
100
AcDbSpline
 70
8
 71
3
 72
8
 73
4
 74
0
 40
0
 40
0
 40
0
 40
0
 40
1
 40
1
 40
1
 40
1
 10
4.855855
 20
15.839013
 30
0.0
 10
4.851622
 20
15.841129
 30
0.0
 10
4.848447
 20
15.844304
 30
0.0
 10
4.846330
 20
15.848538
 30
0.0
  0
SPLINE
  5
28e
100
AcDbEntity
  8
Layer_1
 62
7
100
AcDbSpline
 70
8
 71
3
 72
8
 73
4
 74
0
 40
0
 40
0
 40
0
 40
0
 40
1
 40
1
 40
1
 40
1
 10
4.846330
 20
15.848538
 30
0.0
 10
4.844213
 20
15.852771
 30
0.0
 10
4.843155
 20
15.860179
 30
0.0
 10
4.843155
 20
15.870763
 30
0.0
  0
SPLINE
  5
28f
100
AcDbEntity
  8
Layer_1
 62
7
100
AcDbSpline
 70
8
 71
3
 72
8
 73
4
 74
0
 40
0
 40
0
 40
0
 40
0
 40
1
 40
1
 40
1
 40
1
 10
4.843155
 20
15.870763
 30
0.0
 10
4.845272
 20
15.906746
 30
0.0
 10
4.849505
 20
15.944846
 30
0.0
 10
4.855855
 20
15.985063
 30
0.0
  0
SPLINE
  5
290
100
AcDbEntity
  8
Layer_1
 62
7
100
AcDbSpline
 70
8
 71
3
 72
8
 73
4
 74
0
 40
0
 40
0
 40
0
 40
0
 40
1
 40
1
 40
1
 40
1
 10
4.855855
 20
15.985063
 30
0.0
 10
4.862205
 20
16.027396
 30
0.0
 10
4.870672
 20
16.068671
 30
0.0
 10
4.881255
 20
16.108888
 30
0.0
  0
SPLINE
  5
291
100
AcDbEntity
  8
Layer_1
 62
7
100
AcDbSpline
 70
8
 71
3
 72
8
 73
4
 74
0
 40
0
 40
0
 40
0
 40
0
 40
1
 40
1
 40
1
 40
1
 10
4.881255
 20
16.108888
 30
0.0
 10
4.889722
 20
16.149104
 30
0.0
 10
4.899247
 20
16.180854
 30
0.0
 10
4.909830
 20
16.204138
 30
0.0
  0
SPLINE
  5
292
100
AcDbEntity
  8
Layer_1
 62
7
100
AcDbSpline
 70
8
 71
3
 72
8
 73
4
 74
0
 40
0
 40
0
 40
0
 40
0
 40
1
 40
1
 40
1
 40
1
 10
4.909830
 20
16.204138
 30
0.0
 10
4.918297
 20
16.227421
 30
0.0
 10
4.935230
 20
16.239063
 30
0.0
 10
4.960630
 20
16.239063
 30
0.0
  0
LWPOLYLINE
  5
293
100
AcDbEntity
  8
Layer_1
 62
7
100
AcDbPolyline
 90
2
 70
0
 10
4.928880
 20
15.813613
 30
0.0
 10
4.855855
 20
15.839013
 30
0.0
  0
LWPOLYLINE
  5
294
100
AcDbEntity
  8
Layer_1
 62
7
100
AcDbPolyline
 90
2
 70
0
 10
4.960630
 20
16.239063
 30
0.0
 10
5.087630
 20
16.229538
 30
0.0
  0
SPLINE
  5
295
100
AcDbEntity
  8
Layer_1
 62
7
100
AcDbSpline
 70
8
 71
3
 72
8
 73
4
 74
0
 40
0
 40
0
 40
0
 40
0
 40
1
 40
1
 40
1
 40
1
 10
5.198755
 20
14.934137
 30
0.0
 10
5.177588
 20
14.915087
 30
0.0
 10
5.157480
 20
14.887571
 30
0.0
 10
5.138430
 20
14.851587
 30
0.0
  0
SPLINE
  5
296
100
AcDbEntity
  8
Layer_1
 62
7
100
AcDbSpline
 70
8
 71
3
 72
8
 73
4
 74
0
 40
0
 40
0
 40
0
 40
0
 40
1
 40
1
 40
1
 40
1
 10
5.138430
 20
14.851587
 30
0.0
 10
5.119380
 20
14.815604
 30
0.0
 10
5.105622
 20
14.777504
 30
0.0
 10
5.097155
 20
14.737287
 30
0.0
  0
LWPOLYLINE
  5
297
100
AcDbEntity
  8
Layer_1
 62
7
100
AcDbPolyline
 90
2
 70
0
 10
5.227330
 20
15.169088
 30
0.0
 10
5.198755
 20
14.934137
 30
0.0
  0
SPLINE
  5
298
100
AcDbEntity
  8
Layer_1
 62
7
100
AcDbSpline
 70
8
 71
3
 72
8
 73
4
 74
0
 40
0
 40
0
 40
0
 40
0
 40
1
 40
1
 40
1
 40
1
 10
5.020955
 20
14.759512
 30
0.0
 10
5.016722
 20
14.761629
 30
0.0
 10
5.013547
 20
14.764804
 30
0.0
 10
5.011430
 20
14.769037
 30
0.0
  0
SPLINE
  5
299
100
AcDbEntity
  8
Layer_1
 62
7
100
AcDbSpline
 70
8
 71
3
 72
8
 73
4
 74
0
 40
0
 40
0
 40
0
 40
0
 40
1
 40
1
 40
1
 40
1
 10
5.011430
 20
14.769037
 30
0.0
 10
5.009313
 20
14.775387
 30
0.0
 10
5.008255
 20
14.784912
 30
0.0
 10
5.008255
 20
14.797612
 30
0.0
  0
SPLINE
  5
29a
100
AcDbEntity
  8
Layer_1
 62
7
100
AcDbSpline
 70
8
 71
3
 72
8
 73
4
 74
0
 40
0
 40
0
 40
0
 40
0
 40
1
 40
1
 40
1
 40
1
 10
5.008255
 20
14.797612
 30
0.0
 10
5.006138
 20
14.829362
 30
0.0
 10
5.007197
 20
14.867462
 30
0.0
 10
5.011430
 20
14.911912
 30
0.0
  0
SPLINE
  5
29b
100
AcDbEntity
  8
Layer_1
 62
7
100
AcDbSpline
 70
8
 71
3
 72
8
 73
4
 74
0
 40
0
 40
0
 40
0
 40
0
 40
1
 40
1
 40
1
 40
1
 10
5.011430
 20
14.911912
 30
0.0
 10
5.015663
 20
14.956362
 30
0.0
 10
5.020955
 20
14.998696
 30
0.0
 10
5.027305
 20
15.038913
 30
0.0
  0
SPLINE
  5
29c
100
AcDbEntity
  8
Layer_1
 62
7
100
AcDbSpline
 70
8
 71
3
 72
8
 73
4
 74
0
 40
0
 40
0
 40
0
 40
0
 40
1
 40
1
 40
1
 40
1
 10
5.027305
 20
15.038913
 30
0.0
 10
5.031538
 20
15.081246
 30
0.0
 10
5.037888
 20
15.115113
 30
0.0
 10
5.046355
 20
15.140513
 30
0.0
  0
SPLINE
  5
29d
100
AcDbEntity
  8
Layer_1
 62
7
100
AcDbSpline
 70
8
 71
3
 72
8
 73
4
 74
0
 40
0
 40
0
 40
0
 40
0
 40
1
 40
1
 40
1
 40
1
 10
5.046355
 20
15.140513
 30
0.0
 10
5.052705
 20
15.161679
 30
0.0
 10
5.069638
 20
15.172263
 30
0.0
 10
5.097155
 20
15.172263
 30
0.0
  0
LWPOLYLINE
  5
29e
100
AcDbEntity
  8
Layer_1
 62
7
100
AcDbPolyline
 90
2
 70
0
 10
5.097155
 20
14.737287
 30
0.0
 10
5.020955
 20
14.759512
 30
0.0
  0
LWPOLYLINE
  5
29f
100
AcDbEntity
  8
Layer_1
 62
7
100
AcDbPolyline
 90
2
 70
0
 10
5.097155
 20
15.172263
 30
0.0
 10
5.227330
 20
15.169088
 30
0.0
  0
SPLINE
  5
2a0
100
AcDbEntity
  8
Layer_1
 62
7
100
AcDbSpline
 70
8
 71
3
 72
8
 73
4
 74
0
 40
0
 40
0
 40
0
 40
0
 40
1
 40
1
 40
1
 40
1
 10
6.363980
 20
14.981763
 30
0.0
 10
6.336463
 20
14.973296
 30
0.0
 10
6.305772
 20
14.965888
 30
0.0
 10
6.271905
 20
14.959538
 30
0.0
  0
SPLINE
  5
2a1
100
AcDbEntity
  8
Layer_1
 62
7
100
AcDbSpline
 70
8
 71
3
 72
8
 73
4
 74
0
 40
0
 40
0
 40
0
 40
0
 40
1
 40
1
 40
1
 40
1
 10
6.271905
 20
14.959538
 30
0.0
 10
6.238038
 20
14.955304
 30
0.0
 10
6.206288
 20
14.953187
 30
0.0
 10
6.176655
 20
14.953187
 30
0.0
  0
LWPOLYLINE
  5
2a2
100
AcDbEntity
  8
Layer_1
 62
7
100
AcDbPolyline
 90
2
 70
0
 10
6.363980
 20
15.105588
 30
0.0
 10
6.363980
 20
14.981763
 30
0.0
  0
SPLINE
  5
2a3
100
AcDbEntity
  8
Layer_1
 62
7
100
AcDbSpline
 70
8
 71
3
 72
8
 73
4
 74
0
 40
0
 40
0
 40
0
 40
0
 40
1
 40
1
 40
1
 40
1
 10
6.141730
 20
15.165913
 30
0.0
 10
6.196763
 20
15.165913
 30
0.0
 10
6.243330
 20
15.159563
 30
0.0
 10
6.281430
 20
15.146863
 30
0.0
  0
SPLINE
  5
2a4
100
AcDbEntity
  8
Layer_1
 62
7
100
AcDbSpline
 70
8
 71
3
 72
8
 73
4
 74
0
 40
0
 40
0
 40
0
 40
0
 40
1
 40
1
 40
1
 40
1
 10
6.281430
 20
15.146863
 30
0.0
 10
6.317413
 20
15.134163
 30
0.0
 10
6.344930
 20
15.120404
 30
0.0
 10
6.363980
 20
15.105588
 30
0.0
  0
LWPOLYLINE
  5
2a5
100
AcDbEntity
  8
Layer_1
 62
7
100
AcDbPolyline
 90
4
 70
0
 10
6.176655
 20
14.953187
 30
0.0
 10
5.192405
 20
14.934137
 30
0.0
 10
5.214630
 20
15.169088
 30
0.0
 10
6.141730
 20
15.165913
 30
0.0
  0
LWPOLYLINE
  5
2a6
100
AcDbEntity
  8
Layer_1
 62
7
100
AcDbPolyline
 90
1
 70
1
 10
6.363980
 20
15.105588
 30
0.0
  0
SPLINE
  5
2a7
100
AcDbEntity
  8
Layer_1
 62
7
100
AcDbSpline
 70
8
 71
3
 72
8
 73
4
 74
0
 40
0
 40
0
 40
0
 40
0
 40
1
 40
1
 40
1
 40
1
 10
5.798830
 20
16.220013
 30
0.0
 10
5.847513
 20
16.220013
 30
0.0
 10
5.899372
 20
16.216838
 30
0.0
 10
5.954405
 20
16.210488
 30
0.0
  0
SPLINE
  5
2a8
100
AcDbEntity
  8
Layer_1
 62
7
100
AcDbSpline
 70
8
 71
3
 72
8
 73
4
 74
0
 40
0
 40
0
 40
0
 40
0
 40
1
 40
1
 40
1
 40
1
 10
5.954405
 20
16.210488
 30
0.0
 10
6.009438
 20
16.204138
 30
0.0
 10
6.056005
 20
16.195671
 30
0.0
 10
6.094105
 20
16.185088
 30
0.0
  0
LWPOLYLINE
  5
2a9
100
AcDbEntity
  8
Layer_1
 62
7
100
AcDbPolyline
 90
5
 70
0
 10
6.094105
 20
16.185088
 30
0.0
 10
6.094105
 20
16.000938
 30
0.0
 10
5.052705
 20
16.000938
 30
0.0
 10
5.078105
 20
16.229538
 30
0.0
 10
5.798830
 20
16.220013
 30
0.0
  0
LWPOLYLINE
  5
2aa
100
AcDbEntity
  8
Layer_1
 62
7
100
AcDbPolyline
 90
1
 70
1
 10
6.094105
 20
16.185088
 30
0.0
  0
LWPOLYLINE
  5
2ab
100
AcDbEntity
  8
Layer_1
 62
7
100
AcDbPolyline
 90
4
 70
1
 10
5.586105
 20
16.035863
 30
0.0
 10
5.595630
 20
15.130988
 30
0.0
 10
5.459105
 20
15.130988
 30
0.0
 10
5.446405
 20
16.035863
 30
0.0
  0
SPLINE
  5
2ac
100
AcDbEntity
  8
Layer_1
 62
7
100
AcDbSpline
 70
8
 71
3
 72
8
 73
4
 74
0
 40
0
 40
0
 40
0
 40
0
 40
1
 40
1
 40
1
 40
1
 10
6.106805
 20
16.251763
 30
0.0
 10
6.111038
 20
16.266579
 30
0.0
 10
6.120563
 20
16.273988
 30
0.0
 10
6.135380
 20
16.273988
 30
0.0
  0
SPLINE
  5
2ad
100
AcDbEntity
  8
Layer_1
 62
7
100
AcDbSpline
 70
8
 71
3
 72
8
 73
4
 74
0
 40
0
 40
0
 40
0
 40
0
 40
1
 40
1
 40
1
 40
1
 10
6.135380
 20
16.273988
 30
0.0
 10
6.152313
 20
16.273988
 30
0.0
 10
6.169247
 20
16.270813
 30
0.0
 10
6.186180
 20
16.264463
 30
0.0
  0
SPLINE
  5
2ae
100
AcDbEntity
  8
Layer_1
 62
7
100
AcDbSpline
 70
8
 71
3
 72
8
 73
4
 74
0
 40
0
 40
0
 40
0
 40
0
 40
1
 40
1
 40
1
 40
1
 10
6.186180
 20
16.264463
 30
0.0
 10
6.203113
 20
16.260229
 30
0.0
 10
6.214755
 20
16.254938
 30
0.0
 10
6.221105
 20
16.248588
 30
0.0
  0
SPLINE
  5
2af
100
AcDbEntity
  8
Layer_1
 62
7
100
AcDbSpline
 70
8
 71
3
 72
8
 73
4
 74
0
 40
0
 40
0
 40
0
 40
0
 40
1
 40
1
 40
1
 40
1
 10
6.221105
 20
16.248588
 30
0.0
 10
6.221105
 20
16.202021
 30
0.0
 10
6.222163
 20
16.141696
 30
0.0
 10
6.224280
 20
16.067613
 30
0.0
  0
SPLINE
  5
2b0
100
AcDbEntity
  8
Layer_1
 62
7
100
AcDbSpline
 70
8
 71
3
 72
8
 73
4
 74
0
 40
0
 40
0
 40
0
 40
0
 40
1
 40
1
 40
1
 40
1
 10
6.224280
 20
16.067613
 30
0.0
 10
6.224280
 20
15.993529
 30
0.0
 10
6.225338
 20
15.912038
 30
0.0
 10
6.227455
 20
15.823138
 30
0.0
  0
SPLINE
  5
2b1
100
AcDbEntity
  8
Layer_1
 62
7
100
AcDbSpline
 70
8
 71
3
 72
8
 73
4
 74
0
 40
0
 40
0
 40
0
 40
0
 40
1
 40
1
 40
1
 40
1
 10
6.227455
 20
15.823138
 30
0.0
 10
6.227455
 20
15.736354
 30
0.0
 10
6.228513
 20
15.648513
 30
0.0
 10
6.230630
 20
15.559613
 30
0.0
  0
SPLINE
  5
2b2
100
AcDbEntity
  8
Layer_1
 62
7
100
AcDbSpline
 70
8
 71
3
 72
8
 73
4
 74
0
 40
0
 40
0
 40
0
 40
0
 40
1
 40
1
 40
1
 40
1
 10
6.230630
 20
15.559613
 30
0.0
 10
6.230630
 20
15.472829
 30
0.0
 10
6.231688
 20
15.393454
 30
0.0
 10
6.233805
 20
15.321488
 30
0.0
  0
LWPOLYLINE
  5
2b3
100
AcDbEntity
  8
Layer_1
 62
7
100
AcDbPolyline
 90
2
 70
0
 10
6.078230
 20
16.156513
 30
0.0
 10
6.106805
 20
16.251763
 30
0.0
  0
LWPOLYLINE
  5
2b4
100
AcDbEntity
  8
Layer_1
 62
7
100
AcDbPolyline
 90
5
 70
0
 10
6.233805
 20
15.321488
 30
0.0
 10
6.233805
 20
15.146863
 30
0.0
 10
6.094105
 20
15.153213
 30
0.0
 10
6.084580
 20
16.019988
 30
0.0
 10
6.078230
 20
16.156513
 30
0.0
  0
SPLINE
  5
2b5
100
AcDbEntity
  8
Layer_1
 62
7
100
AcDbSpline
 70
8
 71
3
 72
8
 73
4
 74
0
 40
0
 40
0
 40
0
 40
0
 40
1
 40
1
 40
1
 40
1
 10
5.278130
 20
18.620313
 30
0.0
 10
5.248497
 20
18.605496
 30
0.0
 10
5.217805
 20
18.579038
 30
0.0
 10
5.186055
 20
18.540938
 30
0.0
  0
SPLINE
  5
2b6
100
AcDbEntity
  8
Layer_1
 62
7
100
AcDbSpline
 70
8
 71
3
 72
8
 73
4
 74
0
 40
0
 40
0
 40
0
 40
0
 40
1
 40
1
 40
1
 40
1
 10
5.186055
 20
18.540938
 30
0.0
 10
5.152188
 20
18.504955
 30
0.0
 10
5.123613
 20
18.465796
 30
0.0
 10
5.100330
 20
18.423463
 30
0.0
  0
LWPOLYLINE
  5
2b7
100
AcDbEntity
  8
Layer_1
 62
7
100
AcDbPolyline
 90
2
 70
0
 10
5.214630
 20
18.890188
 30
0.0
 10
5.278130
 20
18.620313
 30
0.0
  0
SPLINE
  5
2b8
100
AcDbEntity
  8
Layer_1
 62
7
100
AcDbSpline
 70
8
 71
3
 72
8
 73
4
 74
0
 40
0
 40
0
 40
0
 40
0
 40
1
 40
1
 40
1
 40
1
 10
5.036830
 20
18.461563
 30
0.0
 10
5.026247
 20
18.467913
 30
0.0
 10
5.022013
 20
18.479555
 30
0.0
 10
5.024130
 20
18.496488
 30
0.0
  0
SPLINE
  5
2b9
100
AcDbEntity
  8
Layer_1
 62
7
100
AcDbSpline
 70
8
 71
3
 72
8
 73
4
 74
0
 40
0
 40
0
 40
0
 40
0
 40
1
 40
1
 40
1
 40
1
 10
5.024130
 20
18.496488
 30
0.0
 10
5.030480
 20
18.534588
 30
0.0
 10
5.041063
 20
18.576921
 30
0.0
 10
5.055880
 20
18.623488
 30
0.0
  0
SPLINE
  5
2ba
100
AcDbEntity
  8
Layer_1
 62
7
100
AcDbSpline
 70
8
 71
3
 72
8
 73
4
 74
0
 40
0
 40
0
 40
0
 40
0
 40
1
 40
1
 40
1
 40
1
 10
5.055880
 20
18.623488
 30
0.0
 10
5.070697
 20
18.670055
 30
0.0
 10
5.086572
 20
18.714505
 30
0.0
 10
5.103505
 20
18.756838
 30
0.0
  0
SPLINE
  5
2bb
100
AcDbEntity
  8
Layer_1
 62
7
100
AcDbSpline
 70
8
 71
3
 72
8
 73
4
 74
0
 40
0
 40
0
 40
0
 40
0
 40
1
 40
1
 40
1
 40
1
 10
5.103505
 20
18.756838
 30
0.0
 10
5.120438
 20
18.799171
 30
0.0
 10
5.136313
 20
18.831980
 30
0.0
 10
5.151130
 20
18.855263
 30
0.0
  0
SPLINE
  5
2bc
100
AcDbEntity
  8
Layer_1
 62
7
100
AcDbSpline
 70
8
 71
3
 72
8
 73
4
 74
0
 40
0
 40
0
 40
0
 40
0
 40
1
 40
1
 40
1
 40
1
 10
5.151130
 20
18.855263
 30
0.0
 10
5.165947
 20
18.878546
 30
0.0
 10
5.187113
 20
18.890188
 30
0.0
 10
5.214630
 20
18.890188
 30
0.0
  0
LWPOLYLINE
  5
2bd
100
AcDbEntity
  8
Layer_1
 62
7
100
AcDbPolyline
 90
2
 70
0
 10
5.100330
 20
18.423463
 30
0.0
 10
5.036830
 20
18.461563
 30
0.0
  0
LWPOLYLINE
  5
2be
100
AcDbEntity
  8
Layer_1
 62
7
100
AcDbPolyline
 90
1
 70
1
 10
5.214630
 20
18.890188
 30
0.0
  0
SPLINE
  5
2bf
100
AcDbEntity
  8
Layer_1
 62
7
100
AcDbSpline
 70
8
 71
3
 72
8
 73
4
 74
0
 40
0
 40
0
 40
0
 40
0
 40
1
 40
1
 40
1
 40
1
 10
6.754505
 20
17.718613
 30
0.0
 10
6.748155
 20
17.712263
 30
0.0
 10
6.738630
 20
17.714379
 30
0.0
 10
6.725930
 20
17.724963
 30
0.0
  0
SPLINE
  5
2c0
100
AcDbEntity
  8
Layer_1
 62
7
100
AcDbSpline
 70
8
 71
3
 72
8
 73
4
 74
0
 40
0
 40
0
 40
0
 40
0
 40
1
 40
1
 40
1
 40
1
 10
6.725930
 20
17.724963
 30
0.0
 10
6.579880
 20
17.877363
 30
0.0
 10
6.424305
 20
18.013888
 30
0.0
 10
6.259205
 20
18.134538
 30
0.0
  0
SPLINE
  5
2c1
100
AcDbEntity
  8
Layer_1
 62
7
100
AcDbSpline
 70
8
 71
3
 72
8
 73
4
 74
0
 40
0
 40
0
 40
0
 40
0
 40
1
 40
1
 40
1
 40
1
 10
6.259205
 20
18.134538
 30
0.0
 10
6.094105
 20
18.257304
 30
0.0
 10
5.927947
 20
18.359963
 30
0.0
 10
5.760730
 20
18.442513
 30
0.0
  0
SPLINE
  5
2c2
100
AcDbEntity
  8
Layer_1
 62
7
100
AcDbSpline
 70
8
 71
3
 72
8
 73
4
 74
0
 40
0
 40
0
 40
0
 40
0
 40
1
 40
1
 40
1
 40
1
 10
5.760730
 20
18.442513
 30
0.0
 10
5.591397
 20
18.525063
 30
0.0
 10
5.430530
 20
18.584330
 30
0.0
 10
5.278130
 20
18.620313
 30
0.0
  0
LWPOLYLINE
  5
2c3
100
AcDbEntity
  8
Layer_1
 62
7
100
AcDbPolyline
 90
2
 70
0
 10
6.789430
 20
17.759888
 30
0.0
 10
6.754505
 20
17.718613
 30
0.0
  0
SPLINE
  5
2c4
100
AcDbEntity
  8
Layer_1
 62
7
100
AcDbSpline
 70
8
 71
3
 72
8
 73
4
 74
0
 40
0
 40
0
 40
0
 40
0
 40
1
 40
1
 40
1
 40
1
 10
5.214630
 20
18.890188
 30
0.0
 10
5.237913
 20
18.890188
 30
0.0
 10
5.260138
 20
18.888071
 30
0.0
 10
5.281305
 20
18.883838
 30
0.0
  0
SPLINE
  5
2c5
100
AcDbEntity
  8
Layer_1
 62
7
100
AcDbSpline
 70
8
 71
3
 72
8
 73
4
 74
0
 40
0
 40
0
 40
0
 40
0
 40
1
 40
1
 40
1
 40
1
 10
5.281305
 20
18.883838
 30
0.0
 10
5.452755
 20
18.847855
 30
0.0
 10
5.627380
 20
18.780121
 30
0.0
 10
5.805180
 20
18.680638
 30
0.0
  0
SPLINE
  5
2c6
100
AcDbEntity
  8
Layer_1
 62
7
100
AcDbSpline
 70
8
 71
3
 72
8
 73
4
 74
0
 40
0
 40
0
 40
0
 40
0
 40
1
 40
1
 40
1
 40
1
 10
5.805180
 20
18.680638
 30
0.0
 10
5.982980
 20
18.583271
 30
0.0
 10
6.155488
 20
18.459446
 30
0.0
 10
6.322705
 20
18.309163
 30
0.0
  0
SPLINE
  5
2c7
100
AcDbEntity
  8
Layer_1
 62
7
100
AcDbSpline
 70
8
 71
3
 72
8
 73
4
 74
0
 40
0
 40
0
 40
0
 40
0
 40
1
 40
1
 40
1
 40
1
 10
6.322705
 20
18.309163
 30
0.0
 10
6.489922
 20
18.158879
 30
0.0
 10
6.645497
 20
17.986371
 30
0.0
 10
6.789430
 20
17.791638
 30
0.0
  0
SPLINE
  5
2c8
100
AcDbEntity
  8
Layer_1
 62
7
100
AcDbSpline
 70
8
 71
3
 72
8
 73
4
 74
0
 40
0
 40
0
 40
0
 40
0
 40
1
 40
1
 40
1
 40
1
 10
6.789430
 20
17.791638
 30
0.0
 10
6.795780
 20
17.781054
 30
0.0
 10
6.795780
 20
17.770471
 30
0.0
 10
6.789430
 20
17.759888
 30
0.0
  0
LWPOLYLINE
  5
2c9
100
AcDbEntity
  8
Layer_1
 62
7
100
AcDbPolyline
 90
2
 70
0
 10
5.278130
 20
18.620313
 30
0.0
 10
5.214630
 20
18.890188
 30
0.0
  0
LWPOLYLINE
  5
2ca
100
AcDbEntity
  8
Layer_1
 62
7
100
AcDbPolyline
 90
1
 70
1
 10
6.789430
 20
17.759888
 30
0.0
  0
SPLINE
  5
2cb
100
AcDbEntity
  8
Layer_1
 62
7
100
AcDbSpline
 70
8
 71
3
 72
8
 73
4
 74
0
 40
0
 40
0
 40
0
 40
0
 40
1
 40
1
 40
1
 40
1
 10
6.300480
 20
19.236263
 30
0.0
 10
6.336463
 20
19.263780
 30
0.0
 10
6.379855
 20
19.291296
 30
0.0
 10
6.430655
 20
19.318813
 30
0.0
  0
SPLINE
  5
2cc
100
AcDbEntity
  8
Layer_1
 62
7
100
AcDbSpline
 70
8
 71
3
 72
8
 73
4
 74
0
 40
0
 40
0
 40
0
 40
0
 40
1
 40
1
 40
1
 40
1
 10
6.430655
 20
19.318813
 30
0.0
 10
6.481455
 20
19.348446
 30
0.0
 10
6.522730
 20
19.370671
 30
0.0
 10
6.554480
 20
19.385488
 30
0.0
  0
SPLINE
  5
2cd
100
AcDbEntity
  8
Layer_1
 62
7
100
AcDbSpline
 70
8
 71
3
 72
8
 73
4
 74
0
 40
0
 40
0
 40
0
 40
0
 40
1
 40
1
 40
1
 40
1
 10
6.554480
 20
19.385488
 30
0.0
 10
6.577763
 20
19.398188
 30
0.0
 10
6.597872
 20
19.404538
 30
0.0
 10
6.614805
 20
19.404538
 30
0.0
  0
SPLINE
  5
2ce
100
AcDbEntity
  8
Layer_1
 62
7
100
AcDbSpline
 70
8
 71
3
 72
8
 73
4
 74
0
 40
0
 40
0
 40
0
 40
0
 40
1
 40
1
 40
1
 40
1
 10
6.614805
 20
19.404538
 30
0.0
 10
6.629622
 20
19.406655
 30
0.0
 10
6.642322
 20
19.405596
 30
0.0
 10
6.652905
 20
19.401363
 30
0.0
  0
SPLINE
  5
2cf
100
AcDbEntity
  8
Layer_1
 62
7
100
AcDbSpline
 70
8
 71
3
 72
8
 73
4
 74
0
 40
0
 40
0
 40
0
 40
0
 40
1
 40
1
 40
1
 40
1
 10
6.652905
 20
19.401363
 30
0.0
 10
6.671955
 20
19.390780
 30
0.0
 10
6.686772
 20
19.372788
 30
0.0
 10
6.697355
 20
19.347388
 30
0.0
  0
SPLINE
  5
2d0
100
AcDbEntity
  8
Layer_1
 62
7
100
AcDbSpline
 70
8
 71
3
 72
8
 73
4
 74
0
 40
0
 40
0
 40
0
 40
0
 40
1
 40
1
 40
1
 40
1
 10
6.697355
 20
19.347388
 30
0.0
 10
6.705822
 20
19.324105
 30
0.0
 10
6.705822
 20
19.303996
 30
0.0
 10
6.697355
 20
19.287063
 30
0.0
  0
SPLINE
  5
2d1
100
AcDbEntity
  8
Layer_1
 62
7
100
AcDbSpline
 70
8
 71
3
 72
8
 73
4
 74
0
 40
0
 40
0
 40
0
 40
0
 40
1
 40
1
 40
1
 40
1
 10
6.697355
 20
19.287063
 30
0.0
 10
6.695238
 20
19.276480
 30
0.0
 10
6.687830
 20
19.263780
 30
0.0
 10
6.675130
 20
19.248963
 30
0.0
  0
SPLINE
  5
2d2
100
AcDbEntity
  8
Layer_1
 62
7
100
AcDbSpline
 70
8
 71
3
 72
8
 73
4
 74
0
 40
0
 40
0
 40
0
 40
0
 40
1
 40
1
 40
1
 40
1
 10
6.675130
 20
19.248963
 30
0.0
 10
6.662430
 20
19.236263
 30
0.0
 10
6.648672
 20
19.223563
 30
0.0
 10
6.633855
 20
19.210863
 30
0.0
  0
LWPOLYLINE
  5
2d3
100
AcDbEntity
  8
Layer_1
 62
7
100
AcDbPolyline
 90
4
 70
0
 10
6.633855
 20
19.210863
 30
0.0
 10
5.875030
 20
18.534588
 30
0.0
 10
6.221105
 20
19.080688
 30
0.0
 10
6.300480
 20
19.236263
 30
0.0
  0
LWPOLYLINE
  5
2d4
100
AcDbEntity
  8
Layer_1
 62
7
100
AcDbPolyline
 90
1
 70
1
 10
6.633855
 20
19.210863
 30
0.0
  0
LWPOLYLINE
  5
2d5
100
AcDbEntity
  8
Layer_1
 62
7
100
AcDbPolyline
 90
4
 70
1
 10
6.221105
 20
19.080688
 30
0.0
 10
6.236980
 20
19.064813
 30
0.0
 10
5.875030
 20
18.534588
 30
0.0
 10
5.735330
 20
18.613963
 30
0.0
  0
SPLINE
  5
2d6
100
AcDbEntity
  8
Layer_1
 62
7
100
AcDbSpline
 70
8
 71
3
 72
8
 73
4
 74
0
 40
0
 40
0
 40
0
 40
0
 40
1
 40
1
 40
1
 40
1
 10
5.868680
 20
20.360213
 30
0.0
 10
5.866563
 20
20.406780
 30
0.0
 10
5.867622
 20
20.457580
 30
0.0
 10
5.871855
 20
20.512613
 30
0.0
  0
SPLINE
  5
2d7
100
AcDbEntity
  8
Layer_1
 62
7
100
AcDbSpline
 70
8
 71
3
 72
8
 73
4
 74
0
 40
0
 40
0
 40
0
 40
0
 40
1
 40
1
 40
1
 40
1
 10
5.871855
 20
20.512613
 30
0.0
 10
5.873972
 20
20.569763
 30
0.0
 10
5.878205
 20
20.612096
 30
0.0
 10
5.884555
 20
20.639613
 30
0.0
  0
SPLINE
  5
2d8
100
AcDbEntity
  8
Layer_1
 62
7
100
AcDbSpline
 70
8
 71
3
 72
8
 73
4
 74
0
 40
0
 40
0
 40
0
 40
0
 40
1
 40
1
 40
1
 40
1
 10
5.884555
 20
20.639613
 30
0.0
 10
5.893022
 20
20.669246
 30
0.0
 10
5.911013
 20
20.684063
 30
0.0
 10
5.938530
 20
20.684063
 30
0.0
  0
SPLINE
  5
2d9
100
AcDbEntity
  8
Layer_1
 62
7
100
AcDbSpline
 70
8
 71
3
 72
8
 73
4
 74
0
 40
0
 40
0
 40
0
 40
0
 40
1
 40
1
 40
1
 40
1
 10
5.938530
 20
20.684063
 30
0.0
 10
5.966047
 20
20.686180
 30
0.0
 10
5.990388
 20
20.683005
 30
0.0
 10
6.011555
 20
20.674538
 30
0.0
  0
SPLINE
  5
2da
100
AcDbEntity
  8
Layer_1
 62
7
100
AcDbSpline
 70
8
 71
3
 72
8
 73
4
 74
0
 40
0
 40
0
 40
0
 40
0
 40
1
 40
1
 40
1
 40
1
 10
6.011555
 20
20.674538
 30
0.0
 10
6.030605
 20
20.668188
 30
0.0
 10
6.044363
 20
20.658663
 30
0.0
 10
6.052830
 20
20.645963
 30
0.0
  0
SPLINE
  5
2db
100
AcDbEntity
  8
Layer_1
 62
7
100
AcDbSpline
 70
8
 71
3
 72
8
 73
4
 74
0
 40
0
 40
0
 40
0
 40
0
 40
1
 40
1
 40
1
 40
1
 10
6.052830
 20
20.645963
 30
0.0
 10
6.057063
 20
20.639613
 30
0.0
 10
6.061297
 20
20.630088
 30
0.0
 10
6.065530
 20
20.617388
 30
0.0
  0
SPLINE
  5
2dc
100
AcDbEntity
  8
Layer_1
 62
7
100
AcDbSpline
 70
8
 71
3
 72
8
 73
4
 74
0
 40
0
 40
0
 40
0
 40
0
 40
1
 40
1
 40
1
 40
1
 10
6.065530
 20
20.617388
 30
0.0
 10
6.067647
 20
20.606805
 30
0.0
 10
6.068705
 20
20.596221
 30
0.0
 10
6.068705
 20
20.585638
 30
0.0
  0
LWPOLYLINE
  5
2dd
100
AcDbEntity
  8
Layer_1
 62
7
100
AcDbPolyline
 90
5
 70
0
 10
6.068705
 20
20.585638
 30
0.0
 10
6.078230
 20
19.988738
 30
0.0
 10
5.941705
 20
19.988738
 30
0.0
 10
5.929005
 20
20.258613
 30
0.0
 10
5.868680
 20
20.360213
 30
0.0
  0
LWPOLYLINE
  5
2de
100
AcDbEntity
  8
Layer_1
 62
7
100
AcDbPolyline
 90
1
 70
1
 10
6.068705
 20
20.585638
 30
0.0
  0
SPLINE
  5
2df
100
AcDbEntity
  8
Layer_1
 62
7
100
AcDbSpline
 70
8
 71
3
 72
8
 73
4
 74
0
 40
0
 40
0
 40
0
 40
0
 40
1
 40
1
 40
1
 40
1
 10
7.668905
 20
19.826813
 30
0.0
 10
7.635038
 20
19.824696
 30
0.0
 10
7.592705
 20
19.822580
 30
0.0
 10
7.541905
 20
19.820463
 30
0.0
  0
SPLINE
  5
2e0
100
AcDbEntity
  8
Layer_1
 62
7
100
AcDbSpline
 70
8
 71
3
 72
8
 73
4
 74
0
 40
0
 40
0
 40
0
 40
0
 40
1
 40
1
 40
1
 40
1
 10
7.541905
 20
19.820463
 30
0.0
 10
7.491105
 20
19.818346
 30
0.0
 10
7.437130
 20
19.816230
 30
0.0
 10
7.379980
 20
19.814113
 30
0.0
  0
SPLINE
  5
2e1
100
AcDbEntity
  8
Layer_1
 62
7
100
AcDbSpline
 70
8
 71
3
 72
8
 73
4
 74
0
 40
0
 40
0
 40
0
 40
0
 40
1
 40
1
 40
1
 40
1
 10
7.379980
 20
19.814113
 30
0.0
 10
7.322830
 20
19.811996
 30
0.0
 10
7.267797
 20
19.809880
 30
0.0
 10
7.214880
 20
19.807763
 30
0.0
  0
LWPOLYLINE
  5
2e2
100
AcDbEntity
  8
Layer_1
 62
7
100
AcDbPolyline
 90
2
 70
0
 10
7.668905
 20
19.960163
 30
0.0
 10
7.668905
 20
19.826813
 30
0.0
  0
SPLINE
  5
2e3
100
AcDbEntity
  8
Layer_1
 62
7
100
AcDbSpline
 70
8
 71
3
 72
8
 73
4
 74
0
 40
0
 40
0
 40
0
 40
0
 40
1
 40
1
 40
1
 40
1
 10
4.871730
 20
19.807763
 30
0.0
 10
4.839980
 20
19.780246
 30
0.0
 10
4.810347
 20
19.742146
 30
0.0
 10
4.782830
 20
19.693463
 30
0.0
  0
SPLINE
  5
2e4
100
AcDbEntity
  8
Layer_1
 62
7
100
AcDbSpline
 70
8
 71
3
 72
8
 73
4
 74
0
 40
0
 40
0
 40
0
 40
0
 40
1
 40
1
 40
1
 40
1
 10
4.782830
 20
19.693463
 30
0.0
 10
4.753197
 20
19.646896
 30
0.0
 10
4.728855
 20
19.595038
 30
0.0
 10
4.709805
 20
19.537888
 30
0.0
  0
LWPOLYLINE
  5
2e5
100
AcDbEntity
  8
Layer_1
 62
7
100
AcDbPolyline
 90
3
 70
0
 10
7.214880
 20
19.807763
 30
0.0
 10
7.084705
 20
19.807763
 30
0.0
 10
4.871730
 20
19.807763
 30
0.0
  0
SPLINE
  5
2e6
100
AcDbEntity
  8
Layer_1
 62
7
100
AcDbSpline
 70
8
 71
3
 72
8
 73
4
 74
0
 40
0
 40
0
 40
0
 40
0
 40
1
 40
1
 40
1
 40
1
 10
4.633605
 20
19.563288
 30
0.0
 10
4.629372
 20
19.565405
 30
0.0
 10
4.626197
 20
19.568580
 30
0.0
 10
4.624080
 20
19.572813
 30
0.0
  0
SPLINE
  5
2e7
100
AcDbEntity
  8
Layer_1
 62
7
100
AcDbSpline
 70
8
 71
3
 72
8
 73
4
 74
0
 40
0
 40
0
 40
0
 40
0
 40
1
 40
1
 40
1
 40
1
 10
4.624080
 20
19.572813
 30
0.0
 10
4.619847
 20
19.577046
 30
0.0
 10
4.617730
 20
19.585513
 30
0.0
 10
4.617730
 20
19.598213
 30
0.0
  0
SPLINE
  5
2e8
100
AcDbEntity
  8
Layer_1
 62
7
100
AcDbSpline
 70
8
 71
3
 72
8
 73
4
 74
0
 40
0
 40
0
 40
0
 40
0
 40
1
 40
1
 40
1
 40
1
 10
4.617730
 20
19.598213
 30
0.0
 10
4.617730
 20
19.636313
 30
0.0
 10
4.623022
 20
19.680763
 30
0.0
 10
4.633605
 20
19.731563
 30
0.0
  0
SPLINE
  5
2e9
100
AcDbEntity
  8
Layer_1
 62
7
100
AcDbSpline
 70
8
 71
3
 72
8
 73
4
 74
0
 40
0
 40
0
 40
0
 40
0
 40
1
 40
1
 40
1
 40
1
 10
4.633605
 20
19.731563
 30
0.0
 10
4.642072
 20
19.784480
 30
0.0
 10
4.652655
 20
19.835280
 30
0.0
 10
4.665355
 20
19.883963
 30
0.0
  0
SPLINE
  5
2ea
100
AcDbEntity
  8
Layer_1
 62
7
100
AcDbSpline
 70
8
 71
3
 72
8
 73
4
 74
0
 40
0
 40
0
 40
0
 40
0
 40
1
 40
1
 40
1
 40
1
 10
4.665355
 20
19.883963
 30
0.0
 10
4.675938
 20
19.934763
 30
0.0
 10
4.687580
 20
19.974980
 30
0.0
 10
4.700280
 20
20.004613
 30
0.0
  0
SPLINE
  5
2eb
100
AcDbEntity
  8
Layer_1
 62
7
100
AcDbSpline
 70
8
 71
3
 72
8
 73
4
 74
0
 40
0
 40
0
 40
0
 40
0
 40
1
 40
1
 40
1
 40
1
 10
4.700280
 20
20.004613
 30
0.0
 10
4.708747
 20
20.030013
 30
0.0
 10
4.729913
 20
20.042713
 30
0.0
 10
4.763780
 20
20.042713
 30
0.0
  0
LWPOLYLINE
  5
2ec
100
AcDbEntity
  8
Layer_1
 62
7
100
AcDbPolyline
 90
2
 70
0
 10
4.709805
 20
19.537888
 30
0.0
 10
4.633605
 20
19.563288
 30
0.0
  0
SPLINE
  5
2ed
100
AcDbEntity
  8
Layer_1
 62
7
100
AcDbSpline
 70
8
 71
3
 72
8
 73
4
 74
0
 40
0
 40
0
 40
0
 40
0
 40
1
 40
1
 40
1
 40
1
 10
7.005330
 20
20.033188
 30
0.0
 10
7.051897
 20
20.033188
 30
0.0
 10
7.103755
 20
20.031071
 30
0.0
 10
7.160905
 20
20.026838
 30
0.0
  0
SPLINE
  5
2ee
100
AcDbEntity
  8
Layer_1
 62
7
100
AcDbSpline
 70
8
 71
3
 72
8
 73
4
 74
0
 40
0
 40
0
 40
0
 40
0
 40
1
 40
1
 40
1
 40
1
 10
7.160905
 20
20.026838
 30
0.0
 10
7.218055
 20
20.024721
 30
0.0
 10
7.277322
 20
20.020488
 30
0.0
 10
7.338705
 20
20.014138
 30
0.0
  0
SPLINE
  5
2ef
100
AcDbEntity
  8
Layer_1
 62
7
100
AcDbSpline
 70
8
 71
3
 72
8
 73
4
 74
0
 40
0
 40
0
 40
0
 40
0
 40
1
 40
1
 40
1
 40
1
 10
7.338705
 20
20.014138
 30
0.0
 10
7.400088
 20
20.007788
 30
0.0
 10
7.458297
 20
19.999321
 30
0.0
 10
7.513330
 20
19.988738
 30
0.0
  0
SPLINE
  5
2f0
100
AcDbEntity
  8
Layer_1
 62
7
100
AcDbSpline
 70
8
 71
3
 72
8
 73
4
 74
0
 40
0
 40
0
 40
0
 40
0
 40
1
 40
1
 40
1
 40
1
 10
7.513330
 20
19.988738
 30
0.0
 10
7.570480
 20
19.980271
 30
0.0
 10
7.622338
 20
19.970746
 30
0.0
 10
7.668905
 20
19.960163
 30
0.0
  0
LWPOLYLINE
  5
2f1
100
AcDbEntity
  8
Layer_1
 62
7
100
AcDbPolyline
 90
3
 70
0
 10
4.763780
 20
20.042713
 30
0.0
 10
4.932055
 20
20.033188
 30
0.0
 10
7.005330
 20
20.033188
 30
0.0
  0
LWPOLYLINE
  5
2f2
100
AcDbEntity
  8
Layer_1
 62
7
100
AcDbPolyline
 90
1
 70
1
 10
7.668905
 20
19.960163
 30
0.0
  0
ENDSEC
  0
SECTION
  2
OBJECTS
  0
DICTIONARY
  5
C
330
0
100
AcDbDictionary
  3
ACAD_GROUP
350
D
  3
ACAD_MLINESTYLE
350
17
  0
DICTIONARY
  5
D
330
C
100
AcDbDictionary
  0
DICTIONARY
  5
1A
330
C
100
AcDbDictionary
  0
DICTIONARY
  5
17
330
C
100
AcDbDictionary
  3
STANDARD
350
18
  0
DICTIONARY
  5
19
330
C
100
AcDbDictionary
  0
ENDSEC
  0
EOF
