  0
SECTION
  2
HEADER
  9
$ACADVER
  1
AC1006
  9
$EXTMIN
 10
0.000000
 20
0.000000
 30
0.000000
  9
$EXTMAX
 10
351.000000
 20
349.000000
 30
0.000000
  0
ENDSEC
  0
SECTION
  2
ENTITIES
  0
POLYLINE
  8
0
 66
1
 70
1
  0
VERTEX
  8
0
 10
150.099843
 20
329.750000
 42
-0.002299
  0
VERTEX
  8
0
 10
148.805667
 20
322.224762
 42
-0.003267
  0
VERTEX
  8
0
 10
147.580623
 20
315.547371
 42
-0.001847
  0
VERTEX
  8
0
 10
146.489383
 20
309.923956
 42
-0.047213
  0
VERTEX
  8
0
 10
146.044779
 20
308.432540
 42
-0.114020
  0
VERTEX
  8
0
 10
145.320003
 20
307.398051
 42
-0.067016
  0
VERTEX
  8
0
 10
144.066148
 20
306.542510
 42
-0.045353
  0
VERTEX
  8
0
 10
142.157410
 20
305.792743
 42
-0.016760
  0
VERTEX
  8
0
 10
139.354610
 20
305.076684
 42
0.026126
  0
VERTEX
  8
0
 10
132.687057
 20
303.239618
 42
0.012137
  0
VERTEX
  8
0
 10
124.237380
 20
300.199544
 42
0.012103
  0
VERTEX
  8
0
 10
115.659254
 20
296.634852
 42
0.019012
  0
VERTEX
  8
0
 10
108.493734
 20
293.119712
 42
0.000000
  0
VERTEX
  8
0
 10
101.487469
 20
289.345771
 42
0.000000
  0
VERTEX
  8
0
 10
85.493734
 20
300.718908
 42
0.001390
  0
VERTEX
  8
0
 10
79.267317
 20
305.120508
 42
0.002081
  0
VERTEX
  8
0
 10
73.803150
 20
308.926647
 42
0.000851
  0
VERTEX
  8
0
 10
69.102059
 20
312.160477
 42
0.045741
  0
VERTEX
  8
0
 10
68.155286
 20
312.689357
 42
0.286581
  0
VERTEX
  8
0
 10
67.134782
 20
312.545350
 42
0.006109
  0
VERTEX
  8
0
 10
63.121700
 20
309.091754
 42
0.010808
  0
VERTEX
  8
0
 10
58.053462
 20
304.422575
 42
0.004641
  0
VERTEX
  8
0
 10
51.483582
 20
297.983607
 42
0.000000
  0
VERTEX
  8
0
 10
36.156591
 20
282.680547
 42
0.000000
  0
VERTEX
  8
0
 10
43.188139
 20
272.590273
 42
-0.000924
  0
VERTEX
  8
0
 10
46.206557
 20
268.241740
 42
-0.000725
  0
VERTEX
  8
0
 10
49.463081
 20
263.516989
 42
-0.000733
  0
VERTEX
  8
0
 10
52.478289
 20
259.114928
 42
-0.001806
  0
VERTEX
  8
0
 10
54.675556
 20
255.871819
 42
0.000000
  0
VERTEX
  8
0
 10
59.131424
 20
249.243637
 42
0.000000
  0
VERTEX
  8
0
 10
56.077052
 20
244.279649
 42
0.020872
  0
VERTEX
  8
0
 10
52.153939
 20
237.263766
 42
0.011875
  0
VERTEX
  8
0
 10
47.973939
 20
228.484774
 42
0.011878
  0
VERTEX
  8
0
 10
44.270403
 20
219.648138
 42
0.024024
  0
VERTEX
  8
0
 10
41.861220
 20
212.500000
 42
-0.001898
  0
VERTEX
  8
0
 10
40.968062
 20
209.403706
 42
-0.002905
  0
VERTEX
  8
0
 10
40.168066
 20
206.727176
 42
-0.001008
  0
VERTEX
  8
0
 10
39.459960
 20
204.423922
 42
-0.078559
  0
VERTEX
  8
0
 10
39.291736
 20
204.081875
 42
-0.195369
  0
VERTEX
  8
0
 10
38.975374
 20
203.878630
 42
-0.000478
  0
VERTEX
  8
0
 10
33.576253
 20
202.872638
 42
-0.002908
  0
VERTEX
  8
0
 10
27.457610
 20
201.775401
 42
-0.001794
  0
VERTEX
  8
0
 10
20.248542
 20
200.552480
 42
0.000000
  0
VERTEX
  8
0
 10
1.500000
 20
197.441210
 42
0.000000
  0
VERTEX
  8
0
 10
0.872536
 20
186.970605
 42
0.004065
  0
VERTEX
  8
0
 10
0.623067
 20
182.151954
 42
0.002263
  0
VERTEX
  8
0
 10
0.393395
 20
176.276649
 42
0.002256
  0
VERTEX
  8
0
 10
0.214716
 20
170.329037
 42
0.003653
  0
VERTEX
  8
0
 10
0.122536
 20
165.269052
 42
0.003230
  0
VERTEX
  8
0
 10
0.090627
 20
158.098103
 42
0.044189
  0
VERTEX
  8
0
 10
0.325605
 20
155.503871
 42
0.147753
  0
VERTEX
  8
0
 10
0.982066
 20
154.218022
 42
0.142298
  0
VERTEX
  8
0
 10
2.250000
 20
153.487529
 42
0.011838
  0
VERTEX
  8
0
 10
3.801969
 20
153.146488
 42
0.000585
  0
VERTEX
  8
0
 10
8.939584
 20
152.150620
 42
0.000946
  0
VERTEX
  8
0
 10
15.048219
 20
150.985927
 42
0.000683
  0
VERTEX
  8
0
 10
21.863479
 20
149.709497
 42
0.000000
  0
VERTEX
  8
0
 10
39.226958
 20
146.482040
 42
0.000000
  0
VERTEX
  8
0
 10
41.677625
 20
137.993442
 42
0.016283
  0
VERTEX
  8
0
 10
44.272844
 20
129.991527
 42
0.015752
  0
VERTEX
  8
0
 10
47.409519
 20
122.085192
 42
0.016011
  0
VERTEX
  8
0
 10
50.977762
 20
114.529362
 42
0.018487
  0
VERTEX
  8
0
 10
54.867012
 20
107.579429
 42
-0.010781
  0
VERTEX
  8
0
 10
56.450450
 20
104.849467
 42
-0.015749
  0
VERTEX
  8
0
 10
57.715482
 20
102.374693
 42
-0.011150
  0
VERTEX
  8
0
 10
58.640013
 20
100.297440
 42
-0.198331
  0
VERTEX
  8
0
 10
58.643509
 20
99.579429
 42
-0.050610
  0
VERTEX
  8
0
 10
58.233959
 20
98.807597
 42
-0.000673
  0
VERTEX
  8
0
 10
55.218740
 20
94.307428
 42
-0.001920
  0
VERTEX
  8
0
 10
51.696966
 20
89.109720
 42
-0.001259
  0
VERTEX
  8
0
 10
47.601975
 20
83.147985
 42
0.001881
  0
VERTEX
  8
0
 10
43.537743
 20
77.215239
 42
0.003003
  0
VERTEX
  8
0
 10
40.114330
 20
72.111725
 42
0.000636
  0
VERTEX
  8
0
 10
37.142248
 20
67.610570
 42
0.146613
  0
VERTEX
  8
0
 10
37.000000
 20
67.135885
 42
0.193393
  0
VERTEX
  8
0
 10
37.180184
 20
66.687458
 42
0.000612
  0
VERTEX
  8
0
 10
41.479687
 20
62.212112
 42
0.003286
  0
VERTEX
  8
0
 10
46.403582
 20
57.166171
 42
0.002036
  0
VERTEX
  8
0
 10
52.250000
 20
51.301033
 42
0.000000
  0
VERTEX
  8
0
 10
67.500000
 20
36.126266
 42
0.000000
  0
VERTEX
  8
0
 10
78.000000
 20
43.564282
 42
-0.000634
  0
VERTEX
  8
0
 10
82.505097
 20
46.747048
 42
-0.000509
  0
VERTEX
  8
0
 10
87.360683
 20
50.160827
 42
-0.000514
  0
VERTEX
  8
0
 10
91.855695
 20
53.307383
 42
-0.001312
  0
VERTEX
  8
0
 10
95.121475
 20
55.575734
 42
0.000000
  0
VERTEX
  8
0
 10
101.742950
 20
60.149170
 42
0.000000
  0
VERTEX
  8
0
 10
110.902702
 20
55.548866
 42
0.009170
  0
VERTEX
  8
0
 10
118.493797
 20
51.909155
 42
0.014721
  0
VERTEX
  8
0
 10
125.109030
 20
49.117656
 42
0.015904
  0
VERTEX
  8
0
 10
131.485845
 20
46.875820
 42
0.013624
  0
VERTEX
  8
0
 10
138.328466
 20
44.915511
 42
-0.004049
  0
VERTEX
  8
0
 10
140.985072
 20
44.209184
 42
-0.006058
  0
VERTEX
  8
0
 10
143.292993
 20
43.545341
 42
-0.002790
  0
VERTEX
  8
0
 10
145.241939
 20
42.947221
 42
-0.121099
  0
VERTEX
  8
0
 10
145.607298
 20
42.726036
 42
-0.152817
  0
VERTEX
  8
0
 10
145.959321
 20
42.053334
 42
-0.000118
  0
VERTEX
  8
0
 10
149.438830
 20
22.777614
 42
-0.000388
  0
VERTEX
  8
0
 10
152.760755
 20
4.267865
 42
-0.042235
  0
VERTEX
  8
0
 10
152.994027
 20
1.750000
 42
0.400624
  0
VERTEX
  8
0
 10
153.290121
 20
1.444676
 42
0.001139
  0
VERTEX
  8
0
 10
159.455149
 20
1.220313
 42
0.005327
  0
VERTEX
  8
0
 10
166.552019
 20
1.053903
 42
0.003197
  0
VERTEX
  8
0
 10
174.980948
 20
1.000000
 42
0.001285
  0
VERTEX
  8
0
 10
189.635594
 20
1.037653
 42
0.023658
  0
VERTEX
  8
0
 10
194.276515
 20
1.281274
 42
0.095560
  0
VERTEX
  8
0
 10
196.449630
 20
1.930456
 42
0.221360
  0
VERTEX
  8
0
 10
197.461666
 20
3.250000
 42
0.007608
  0
VERTEX
  8
0
 10
197.778554
 20
4.786748
 42
0.000406
  0
VERTEX
  8
0
 10
198.707206
 20
9.685938
 42
0.000637
  0
VERTEX
  8
0
 10
199.799653
 20
15.515659
 42
0.000464
  0
VERTEX
  8
0
 10
201.000000
 20
22.000000
 42
-0.000451
  0
VERTEX
  8
0
 10
202.199701
 20
28.481781
 42
-0.000621
  0
VERTEX
  8
0
 10
203.290151
 20
34.303536
 42
-0.000392
  0
VERTEX
  8
0
 10
204.217139
 20
39.197779
 42
-0.007539
  0
VERTEX
  8
0
 10
204.529340
 20
40.714164
 42
-0.097022
  0
VERTEX
  8
0
 10
205.005527
 20
41.805106
 42
-0.089700
  0
VERTEX
  8
0
 10
205.868931
 20
42.671061
 42
-0.064472
  0
VERTEX
  8
0
 10
207.233130
 20
43.379868
 42
-0.025377
  0
VERTEX
  8
0
 10
209.260058
 20
44.006156
 42
0.013941
  0
VERTEX
  8
0
 10
216.913659
 20
46.180624
 42
0.012738
  0
VERTEX
  8
0
 10
224.670573
 20
48.839045
 42
0.012793
  0
VERTEX
  8
0
 10
232.245170
 20
51.875243
 42
0.014433
  0
VERTEX
  8
0
 10
239.351370
 20
55.183263
 42
0.000000
  0
VERTEX
  8
0
 10
249.202740
 20
60.119975
 42
0.000000
  0
VERTEX
  8
0
 10
262.851370
 20
50.859051
 42
-0.000706
  0
VERTEX
  8
0
 10
268.366542
 20
47.105495
 42
-0.000797
  0
VERTEX
  8
0
 10
273.651372
 20
43.485418
 42
-0.000727
  0
VERTEX
  8
0
 10
278.136131
 20
40.393263
 42
-0.004370
  0
VERTEX
  8
0
 10
280.451173
 20
38.762022
 42
0.000000
  0
VERTEX
  8
0
 10
284.402345
 20
35.925917
 42
0.000000
  0
VERTEX
  8
0
 10
299.701173
 20
51.200859
 42
0.001638
  0
VERTEX
  8
0
 10
305.564992
 20
57.094020
 42
0.002667
  0
VERTEX
  8
0
 10
310.499336
 20
62.139215
 42
0.000388
  0
VERTEX
  8
0
 10
314.844563
 20
66.636718
 42
0.205698
  0
VERTEX
  8
0
 10
314.977418
 20
66.987900
 42
0.140976
  0
VERTEX
  8
0
 10
314.852894
 20
67.358473
 42
0.000361
  0
VERTEX
  8
0
 10
311.710533
 20
71.902696
 42
0.002212
  0
VERTEX
  8
0
 10
308.132201
 20
77.020873
 42
0.001372
  0
VERTEX
  8
0
 10
303.887819
 20
83.000000
 42
-0.001271
  0
VERTEX
  8
0
 10
299.613675
 20
89.018490
 42
-0.001941
  0
VERTEX
  8
0
 10
295.938982
 20
94.263957
 42
-0.000671
  0
VERTEX
  8
0
 10
292.790362
 20
98.808830
 42
-0.052052
  0
VERTEX
  8
0
 10
292.368867
 20
99.579429
 42
-0.198483
  0
VERTEX
  8
0
 10
292.365555
 20
100.294278
 42
-0.011958
  0
VERTEX
  8
0
 10
293.241875
 20
102.304156
 42
-0.016426
  0
VERTEX
  8
0
 10
294.453315
 20
104.701382
 42
-0.011291
  0
VERTEX
  8
0
 10
295.975442
 20
107.339303
 42
0.014298
  0
VERTEX
  8
0
 10
299.724854
 20
113.928418
 42
0.017663
  0
VERTEX
  8
0
 10
302.819284
 20
120.278832
 42
0.016463
  0
VERTEX
  8
0
 10
305.619941
 20
127.186778
 42
0.010073
  0
VERTEX
  8
0
 10
308.487015
 20
135.500000
 42
0.000000
  0
VERTEX
  8
0
 10
311.711941
 20
145.500000
 42
0.000000
  0
VERTEX
  8
0
 10
330.710612
 20
148.972708
 42
0.000000
  0
VERTEX
  8
0
 10
349.709282
 20
152.445416
 42
0.000000
  0
VERTEX
  8
0
 10
350.407715
 20
173.836300
 42
0.001967
  0
VERTEX
  8
0
 10
350.644085
 20
182.068501
 42
0.003185
  0
VERTEX
  8
0
 10
350.772963
 20
189.071633
 42
0.000559
  0
VERTEX
  8
0
 10
350.840358
 20
195.246768
 42
0.201459
  0
VERTEX
  8
0
 10
350.670333
 20
195.663000
 42
0.149436
  0
VERTEX
  8
0
 10
350.262247
 20
195.879999
 42
0.000633
  0
VERTEX
  8
0
 10
345.260906
 20
196.845902
 42
0.003019
  0
VERTEX
  8
0
 10
339.556399
 20
197.904448
 42
0.001889
  0
VERTEX
  8
0
 10
332.867259
 20
199.077905
 42
-0.002312
  0
VERTEX
  8
0
 10
326.077419
 20
200.274943
 42
-0.003282
  0
VERTEX
  8
0
 10
320.051192
 20
201.407008
 42
-0.001863
  0
VERTEX
  8
0
 10
314.977328
 20
202.414316
 42
-0.047166
  0
VERTEX
  8
0
 10
313.626160
 20
202.823367
 42
-0.149736
  0
VERTEX
  8
0
 10
312.642288
 20
203.627962
 42
-0.037966
  0
VERTEX
  8
0
 10
311.619036
 20
205.448116
 42
-0.028188
  0
VERTEX
  8
0
 10
310.530130
 20
208.175269
 42
-0.011047
  0
VERTEX
  8
0
 10
309.327038
 20
212.044870
 42
0.026654
  0
VERTEX
  8
0
 10
306.892903
 20
219.090639
 42
0.009525
  0
VERTEX
  8
0
 10
302.701162
 20
228.868897
 42
0.009705
  0
VERTEX
  8
0
 10
298.031276
 20
238.700393
 42
0.020282
  0
VERTEX
  8
0
 10
293.944471
 20
246.120969
 42
0.000000
  0
VERTEX
  8
0
 10
291.754369
 20
249.741937
 42
0.000000
  0
VERTEX
  8
0
 10
303.372602
 20
266.120969
 42
0.000000
  0
VERTEX
  8
0
 10
314.990835
 20
282.500000
 42
0.000000
  0
VERTEX
  8
0
 10
299.542236
 20
297.949213
 42
0.000000
  0
VERTEX
  8
0
 10
284.093638
 20
313.398426
 42
0.000000
  0
VERTEX
  8
0
 10
268.043570
 20
302.449213
 42
-0.000082
  0
VERTEX
  8
0
 10
261.792554
 20
298.186335
 42
-0.000121
  0
VERTEX
  8
0
 10
256.299283
 20
294.443477
 42
-0.000055
  0
VERTEX
  8
0
 10
251.612682
 20
291.252668
 42
-0.002309
  0
VERTEX
  8
0
 10
250.601413
 20
290.571134
 42
-0.185005
  0
VERTEX
  8
0
 10
249.589941
 20
290.342260
 42
-0.043299
  0
VERTEX
  8
0
 10
247.867364
 20
290.745383
 42
-0.030748
  0
VERTEX
  8
0
 10
245.482943
 20
291.691965
 42
-0.011112
  0
VERTEX
  8
0
 10
242.217896
 20
293.316159
 42
0.017418
  0
VERTEX
  8
0
 10
234.983451
 20
296.801824
 42
0.011627
  0
VERTEX
  8
0
 10
226.480474
 20
300.306037
 42
0.011673
  0
VERTEX
  8
0
 10
218.189839
 20
303.278987
 42
0.026108
  0
VERTEX
  8
0
 10
211.738184
 20
305.055918
 42
-0.013914
  0
VERTEX
  8
0
 10
209.472461
 20
305.620910
 42
-0.017995
  0
VERTEX
  8
0
 10
207.430787
 20
306.270848
 42
-0.015882
  0
VERTEX
  8
0
 10
205.789006
 20
306.918882
 42
-0.131468
  0
VERTEX
  8
0
 10
205.165766
 20
307.411774
 42
-0.105835
  0
VERTEX
  8
0
 10
204.756810
 20
308.305054
 42
-0.001900
  0
VERTEX
  8
0
 10
203.631289
 20
313.467834
 42
-0.004647
  0
VERTEX
  8
0
 10
202.394021
 20
319.523075
 42
-0.003074
  0
VERTEX
  8
0
 10
201.080307
 20
326.500000
 42
0.000508
  0
VERTEX
  8
0
 10
199.788570
 20
333.559227
 42
0.000707
  0
VERTEX
  8
0
 10
198.617294
 20
339.873437
 42
0.000427
  0
VERTEX
  8
0
 10
197.618571
 20
345.190155
 42
0.009211
  0
VERTEX
  8
0
 10
197.294317
 20
346.750000
 42
0.219129
  0
VERTEX
  8
0
 10
196.281917
 20
348.068515
 42
0.096228
  0
VERTEX
  8
0
 10
194.125742
 20
348.718236
 42
0.023902
  0
VERTEX
  8
0
 10
189.528543
 20
348.962196
 42
0.001306
  0
VERTEX
  8
0
 10
175.051266
 20
349.000000
 42
0.000000
  0
VERTEX
  8
0
 10
153.319348
 20
349.000000
 42
0.000000
  0
SEQEND
  0
POLYLINE
  8
0
 66
1
 70
1
  0
VERTEX
  8
0
 10
191.875466
 20
334.250000
 42
0.000811
  0
VERTEX
  8
0
 10
192.514007
 20
330.752862
 42
0.000251
  0
VERTEX
  8
0
 10
193.486359
 20
325.490798
 42
0.000251
  0
VERTEX
  8
0
 10
194.579491
 20
319.608156
 42
0.000276
  0
VERTEX
  8
0
 10
195.644523
 20
313.910163
 42
0.000000
  0
VERTEX
  8
0
 10
198.192411
 20
300.320326
 42
0.000000
  0
VERTEX
  8
0
 10
205.846206
 20
298.532765
 42
-0.017503
  0
VERTEX
  8
0
 10
214.280022
 20
296.249017
 42
-0.016677
  0
VERTEX
  8
0
 10
222.672565
 20
293.348112
 42
-0.016247
  0
VERTEX
  8
0
 10
231.065360
 20
289.813162
 42
-0.014702
  0
VERTEX
  8
0
 10
239.500000
 20
285.628646
 42
0.000000
  0
VERTEX
  8
0
 10
249.500000
 20
280.295615
 42
0.000000
  0
VERTEX
  8
0
 10
266.356455
 20
291.785797
 42
0.000000
  0
VERTEX
  8
0
 10
283.212910
 20
303.275978
 42
0.000000
  0
VERTEX
  8
0
 10
294.029404
 20
292.387989
 42
0.000000
  0
VERTEX
  8
0
 10
304.845897
 20
281.500000
 42
0.000000
  0
VERTEX
  8
0
 10
293.414170
 20
265.587871
 42
0.000000
  0
VERTEX
  8
0
 10
281.982443
 20
249.675741
 42
0.000000
  0
VERTEX
  8
0
 10
283.708467
 20
247.087871
 42
-0.017068
  0
VERTEX
  8
0
 10
290.445795
 20
236.198898
 42
-0.022555
  0
VERTEX
  8
0
 10
295.778629
 20
225.825216
 42
-0.023649
  0
VERTEX
  8
0
 10
299.958532
 20
215.434138
 42
-0.022358
  0
VERTEX
  8
0
 10
303.226821
 20
204.500000
 42
0.001181
  0
VERTEX
  8
0
 10
304.007160
 20
201.419618
 42
0.001893
  0
VERTEX
  8
0
 10
304.689278
 20
198.794849
 42
0.000336
  0
VERTEX
  8
0
 10
305.302051
 20
196.479363
 42
0.107640
  0
VERTEX
  8
0
 10
305.387748
 20
196.312250
 42
0.177397
  0
VERTEX
  8
0
 10
305.547163
 20
196.218554
 42
0.000102
  0
VERTEX
  8
0
 10
310.998425
 20
195.226483
 42
0.001285
  0
VERTEX
  8
0
 10
317.079024
 20
194.137296
 42
0.000782
  0
VERTEX
  8
0
 10
324.271083
 20
192.879671
 42
0.000000
  0
VERTEX
  8
0
 10
343.000000
 20
189.634842
 42
0.000000
  0
VERTEX
  8
0
 10
343.000000
 20
174.396876
 42
0.000000
  0
VERTEX
  8
0
 10
343.000000
 20
159.158911
 42
0.000000
  0
VERTEX
  8
0
 10
340.250000
 20
158.600684
 42
-0.004671
  0
VERTEX
  8
0
 10
338.485973
 20
158.259729
 42
-0.000418
  0
VERTEX
  8
0
 10
334.048438
 20
157.448795
 42
-0.000545
  0
VERTEX
  8
0
 10
328.753901
 20
156.491781
 42
-0.000425
  0
VERTEX
  8
0
 10
323.000000
 20
155.463252
 42
0.002072
  0
VERTEX
  8
0
 10
310.295875
 20
153.149145
 42
0.050992
  0
VERTEX
  8
0
 10
306.870134
 20
152.140957
 42
0.168943
  0
VERTEX
  8
0
 10
305.164777
 20
150.636660
 42
0.066578
  0
VERTEX
  8
0
 10
303.986782
 20
147.689692
 42
-0.020221
  0
VERTEX
  8
0
 10
300.751215
 20
136.757466
 42
-0.019796
  0
VERTEX
  8
0
 10
296.622877
 20
126.043013
 42
-0.020227
  0
VERTEX
  8
0
 10
291.766494
 20
115.933033
 42
-0.023906
  0
VERTEX
  8
0
 10
286.349168
 20
106.814288
 42
0.000000
  0
VERTEX
  8
0
 10
281.931886
 20
100.128576
 42
0.000000
  0
VERTEX
  8
0
 10
293.361494
 20
84.193109
 42
0.000000
  0
VERTEX
  8
0
 10
304.791102
 20
68.257641
 42
0.000000
  0
VERTEX
  8
0
 10
293.917272
 20
57.417529
 42
0.000000
  0
VERTEX
  8
0
 10
283.043443
 20
46.577417
 42
0.000000
  0
VERTEX
  8
0
 10
266.589770
 20
57.788708
 42
0.002531
  0
VERTEX
  8
0
 10
260.213785
 20
62.086120
 42
0.003977
  0
VERTEX
  8
0
 10
254.688199
 20
65.706683
 42
0.001119
  0
VERTEX
  8
0
 10
249.857343
 20
68.802122
 42
0.142864
  0
VERTEX
  8
0
 10
249.178940
 20
69.000000
 42
0.114290
  0
VERTEX
  8
0
 10
248.548877
 20
68.854074
 42
0.004839
  0
VERTEX
  8
0
 10
246.487560
 20
67.820279
 42
0.008104
  0
VERTEX
  8
0
 10
244.059019
 20
66.522584
 42
0.005656
  0
VERTEX
  8
0
 10
241.360891
 20
64.983928
 42
-0.025218
  0
VERTEX
  8
0
 10
233.857096
 20
61.085393
 42
-0.014457
  0
VERTEX
  8
0
 10
224.459155
 20
57.113986
 42
-0.014429
  0
VERTEX
  8
0
 10
214.778057
 20
53.667041
 42
-0.023663
  0
VERTEX
  8
0
 10
206.383941
 20
51.381075
 42
0.000000
  0
VERTEX
  8
0
 10
198.267882
 20
49.578387
 42
0.000000
  0
VERTEX
  8
0
 10
194.573357
 20
29.595674
 42
-0.001580
  0
VERTEX
  8
0
 10
193.121241
 20
21.878037
 42
-0.002470
  0
VERTEX
  8
0
 10
191.817683
 20
15.245980
 42
-0.000671
  0
VERTEX
  8
0
 10
190.645761
 20
9.475441
 42
-0.088195
  0
VERTEX
  8
0
 10
190.380399
 20
8.806481
 42
-0.260638
  0
VERTEX
  8
0
 10
188.651447
 20
7.845515
 42
-0.002959
  0
VERTEX
  8
0
 10
174.936852
 20
7.962866
 42
-0.002747
  0
VERTEX
  8
0
 10
161.166980
 20
8.237865
 42
-0.304826
  0
VERTEX
  8
0
 10
159.740873
 20
9.250000
 42
-0.044658
  0
VERTEX
  8
0
 10
159.472733
 20
10.209281
 42
-0.000684
  0
VERTEX
  8
0
 10
158.430157
 20
15.876196
 42
-0.001829
  0
VERTEX
  8
0
 10
157.251549
 20
22.468496
 42
-0.001208
  0
VERTEX
  8
0
 10
155.943222
 20
30.051942
 42
0.000000
  0
VERTEX
  8
0
 10
152.618676
 20
49.603885
 42
0.000000
  0
VERTEX
  8
0
 10
144.559338
 20
51.393824
 42
-0.023917
  0
VERTEX
  8
0
 10
136.012283
 20
53.725956
 42
-0.015127
  0
VERTEX
  8
0
 10
126.284242
 20
57.215930
 42
-0.015136
  0
VERTEX
  8
0
 10
116.799272
 20
61.281853
 42
-0.024222
  0
VERTEX
  8
0
 10
109.000000
 20
65.378801
 42
0.000000
  0
VERTEX
  8
0
 10
101.500000
 20
69.794528
 42
0.000000
  0
VERTEX
  8
0
 10
97.000000
 20
66.591555
 42
-0.001310
  0
VERTEX
  8
0
 10
84.906389
 20
58.031306
 42
-0.003444
  0
VERTEX
  8
0
 10
76.176433
 20
51.975717
 42
-0.001119
  0
VERTEX
  8
0
 10
69.292646
 20
47.293192
 42
-0.149881
  0
VERTEX
  8
0
 10
68.336535
 20
47.000000
 42
-0.186728
  0
VERTEX
  8
0
 10
67.763089
 20
47.221894
 42
-0.002107
  0
VERTEX
  8
0
 10
64.668004
 20
50.062914
 42
-0.006143
  0
VERTEX
  8
0
 10
61.118869
 20
53.430283
 42
-0.003923
  0
VERTEX
  8
0
 10
57.072809
 20
57.426942
 42
0.000000
  0
VERTEX
  8
0
 10
46.681353
 20
67.853884
 42
0.000000
  0
VERTEX
  8
0
 10
52.865243
 20
76.882606
 42
-0.000176
  0
VERTEX
  8
0
 10
55.590823
 20
80.859056
 42
-0.000122
  0
VERTEX
  8
0
 10
58.673644
 20
85.350954
 42
-0.000123
  0
VERTEX
  8
0
 10
61.635793
 20
89.662488
 42
-0.000254
  0
VERTEX
  8
0
 10
63.954760
 20
93.032393
 42
0.000000
  0
VERTEX
  8
0
 10
68.860385
 20
100.153458
 42
0.000000
  0
VERTEX
  8
0
 10
64.556842
 20
106.826729
 42
-0.023863
  0
VERTEX
  8
0
 10
58.782363
 20
116.794768
 42
-0.019869
  0
VERTEX
  8
0
 10
53.592272
 20
127.887926
 42
-0.020125
  0
VERTEX
  8
0
 10
49.377795
 20
139.165513
 42
-0.027150
  0
VERTEX
  8
0
 10
46.545493
 20
149.680922
 42
0.127358
  0
VERTEX
  8
0
 10
45.451379
 20
151.877255
 42
0.136494
  0
VERTEX
  8
0
 10
43.453790
 20
153.197349
 42
0.030466
  0
VERTEX
  8
0
 10
39.078350
 20
154.322675
 42
0.001118
  0
VERTEX
  8
0
 10
22.250000
 20
157.534451
 42
0.000000
  0
VERTEX
  8
0
 10
8.000000
 20
160.221138
 42
0.000000
  0
VERTEX
  8
0
 10
8.000000
 20
175.445820
 42
0.000000
  0
VERTEX
  8
0
 10
8.000000
 20
190.670501
 42
0.000000
  0
VERTEX
  8
0
 10
26.739530
 20
193.908114
 42
0.000756
  0
VERTEX
  8
0
 10
33.933542
 20
195.162226
 42
0.001246
  0
VERTEX
  8
0
 10
40.010574
 20
196.246712
 42
0.000088
  0
VERTEX
  8
0
 10
45.466161
 20
197.235329
 42
0.198257
  0
VERTEX
  8
0
 10
45.602464
 20
197.322864
 42
0.081262
  0
VERTEX
  8
0
 10
45.675961
 20
197.476458
 42
0.000148
  0
VERTEX
  8
0
 10
46.470996
 20
200.201766
 42
0.001092
  0
VERTEX
  8
0
 10
47.357206
 20
203.267869
 42
0.000676
  0
VERTEX
  8
0
 10
48.385880
 20
206.874638
 42
-0.014465
  0
VERTEX
  8
0
 10
51.338519
 20
216.240051
 42
-0.019577
  0
VERTEX
  8
0
 10
54.576203
 20
224.502040
 42
-0.020154
  0
VERTEX
  8
0
 10
58.368240
 20
232.293649
 42
-0.016917
  0
VERTEX
  8
0
 10
62.989532
 20
240.234160
 42
0.003743
  0
VERTEX
  8
0
 10
66.742625
 20
246.308949
 42
0.053395
  0
VERTEX
  8
0
 10
67.824397
 20
248.611316
 42
0.150756
  0
VERTEX
  8
0
 10
67.877791
 20
250.214533
 42
0.085664
  0
VERTEX
  8
0
 10
67.049297
 20
251.988718
 42
-0.000103
  0
VERTEX
  8
0
 10
65.928031
 20
253.601292
 42
-0.000009
  0
VERTEX
  8
0
 10
63.088311
 20
257.687246
 42
-0.000012
  0
VERTEX
  8
0
 10
59.701372
 20
262.561006
 42
-0.000009
  0
VERTEX
  8
0
 10
56.018223
 20
267.861483
 42
0.000000
  0
VERTEX
  8
0
 10
46.734076
 20
281.222965
 42
0.000000
  0
VERTEX
  8
0
 10
57.621775
 20
292.110664
 42
0.000000
  0
VERTEX
  8
0
 10
68.509474
 20
302.998363
 42
0.000000
  0
VERTEX
  8
0
 10
84.839049
 20
291.461346
 42
0.000000
  0
VERTEX
  8
0
 10
101.168624
 20
279.924329
 42
0.000000
  0
VERTEX
  8
0
 10
107.834312
 20
283.766165
 42
-0.018734
  0
VERTEX
  8
0
 10
115.802828
 20
287.969435
 42
-0.015664
  0
VERTEX
  8
0
 10
124.549010
 20
291.839682
 42
-0.015596
  0
VERTEX
  8
0
 10
133.566298
 20
295.173114
 42
-0.018038
  0
VERTEX
  8
0
 10
142.350140
 20
297.764020
 42
0.000000
  0
VERTEX
  8
0
 10
152.754435
 20
300.429067
 42
0.000000
  0
VERTEX
  8
0
 10
155.951348
 20
319.464534
 42
-0.000880
  0
VERTEX
  8
0
 10
157.205063
 20
326.850003
 42
-0.001329
  0
VERTEX
  8
0
 10
158.325047
 20
333.275519
 42
-0.000500
  0
VERTEX
  8
0
 10
159.308868
 20
338.800306
 42
-0.032128
  0
VERTEX
  8
0
 10
159.542746
 20
339.750000
 42
-0.286035
  0
VERTEX
  8
0
 10
160.278980
 20
340.380143
 42
-0.017885
  0
VERTEX
  8
0
 10
163.250489
 20
340.723232
 42
-0.015832
  0
VERTEX
  8
0
 10
167.823896
 20
340.940738
 42
-0.003966
  0
VERTEX
  8
0
 10
175.295763
 20
341.000000
 42
0.000000
  0
VERTEX
  8
0
 10
190.654296
 20
341.000000
 42
0.000000
  0
SEQEND
  0
POLYLINE
  8
0
 66
1
 70
1
  0
VERTEX
  8
0
 10
168.885071
 20
284.620380
 42
0.066068
  0
VERTEX
  8
0
 10
163.193167
 20
281.692035
 42
0.066924
  0
VERTEX
  8
0
 10
158.490019
 20
277.391132
 42
0.066817
  0
VERTEX
  8
0
 10
155.083972
 20
271.993938
 42
0.065499
  0
VERTEX
  8
0
 10
153.193095
 20
265.853235
 42
0.000000
  0
VERTEX
  8
0
 10
152.455235
 20
261.500000
 42
0.000000
  0
VERTEX
  8
0
 10
133.477618
 20
249.314929
 42
-0.001150
  0
VERTEX
  8
0
 10
126.158034
 20
244.638942
 42
-0.001849
  0
VERTEX
  8
0
 10
119.894271
 20
240.690150
 42
-0.000307
  0
VERTEX
  8
0
 10
114.337195
 20
237.220253
 42
-0.113542
  0
VERTEX
  8
0
 10
113.885858
 20
237.064929
 42
-0.291018
  0
VERTEX
  8
0
 10
113.573894
 20
237.219903
 42
-0.013645
  0
VERTEX
  8
0
 10
112.966666
 20
238.290216
 42
-0.018921
  0
VERTEX
  8
0
 10
112.296909
 20
239.673431
 42
-0.012072
  0
VERTEX
  8
0
 10
111.619106
 20
241.327296
 42
0.076247
  0
VERTEX
  8
0
 10
108.124664
 20
247.473013
 42
0.082070
  0
VERTEX
  8
0
 10
103.022928
 20
252.110935
 42
0.079155
  0
VERTEX
  8
0
 10
96.534655
 20
254.977804
 42
0.064663
  0
VERTEX
  8
0
 10
89.000000
 20
255.954679
 42
0.054100
  0
VERTEX
  8
0
 10
83.149847
 20
255.318559
 42
0.062503
  0
VERTEX
  8
0
 10
77.868174
 20
253.442816
 42
0.063733
  0
VERTEX
  8
0
 10
73.296414
 20
250.359308
 42
0.059838
  0
VERTEX
  8
0
 10
69.537407
 20
246.163858
 42
0.027369
  0
VERTEX
  8
0
 10
67.814198
 20
243.392742
 42
0.068124
  0
VERTEX
  8
0
 10
66.962767
 20
241.168362
 42
0.048610
  0
VERTEX
  8
0
 10
66.591991
 20
238.383999
 42
0.008810
  0
VERTEX
  8
0
 10
66.500000
 20
233.163858
 42
0.008906
  0
VERTEX
  8
0
 10
66.594181
 20
227.877041
 42
0.050627
  0
VERTEX
  8
0
 10
66.977375
 20
225.093278
 42
0.068341
  0
VERTEX
  8
0
 10
67.869269
 20
222.823660
 42
0.024028
  0
VERTEX
  8
0
 10
69.729455
 20
219.849686
 42
0.095518
  0
VERTEX
  8
0
 10
75.445662
 20
214.269702
 42
0.080388
  0
VERTEX
  8
0
 10
83.174848
 20
210.795321
 42
0.079961
  0
VERTEX
  8
0
 10
91.644954
 20
209.924619
 42
0.092820
  0
VERTEX
  8
0
 10
99.500000
 20
211.865662
 42
0.061854
  0
VERTEX
  8
0
 10
102.835078
 20
213.914619
 42
0.025957
  0
VERTEX
  8
0
 10
106.780284
 20
217.419537
 42
0.020946
  0
VERTEX
  8
0
 10
110.227555
 20
221.115178
 42
0.179067
  0
VERTEX
  8
0
 10
111.000000
 20
223.202881
 42
-0.661414
  0
VERTEX
  8
0
 10
111.539163
 20
223.432160
 42
-0.103014
  0
VERTEX
  8
0
 10
112.473739
 20
222.062750
 42
-0.020377
  0
VERTEX
  8
0
 10
114.182300
 20
217.422623
 42
-0.005552
  0
VERTEX
  8
0
 10
116.498192
 20
209.961241
 42
0.000000
  0
VERTEX
  8
0
 10
120.237902
 20
197.422481
 42
0.000000
  0
VERTEX
  8
0
 10
116.503713
 20
190.007373
 42
0.000000
  0
VERTEX
  8
0
 10
112.769524
 20
182.592265
 42
0.000000
  0
VERTEX
  8
0
 10
111.268148
 20
185.546132
 42
0.027901
  0
VERTEX
  8
0
 10
110.472391
 20
186.916707
 42
0.012622
  0
VERTEX
  8
0
 10
109.287369
 20
188.622859
 42
0.012453
  0
VERTEX
  8
0
 10
107.943036
 20
190.365020
 42
0.016652
  0
VERTEX
  8
0
 10
106.633386
 20
191.872112
 42
0.118348
  0
VERTEX
  8
0
 10
98.108802
 20
197.536400
 42
0.106524
  0
VERTEX
  8
0
 10
87.593915
 20
199.003466
 42
0.106261
  0
VERTEX
  8
0
 10
77.387023
 20
196.009237
 42
0.117213
  0
VERTEX
  8
0
 10
69.729455
 20
189.150314
 42
0.024028
  0
VERTEX
  8
0
 10
67.869269
 20
186.176340
 42
0.068341
  0
VERTEX
  8
0
 10
66.977375
 20
183.906722
 42
0.050627
  0
VERTEX
  8
0
 10
66.594181
 20
181.122959
 42
0.008906
  0
VERTEX
  8
0
 10
66.500000
 20
175.836142
 42
0.008810
  0
VERTEX
  8
0
 10
66.591991
 20
170.616001
 42
0.048610
  0
VERTEX
  8
0
 10
66.962767
 20
167.831638
 42
0.068124
  0
VERTEX
  8
0
 10
67.814198
 20
165.607258
 42
0.027369
  0
VERTEX
  8
0
 10
69.537407
 20
162.836142
 42
0.134549
  0
VERTEX
  8
0
 10
78.732619
 20
155.212107
 42
0.122263
  0
VERTEX
  8
0
 10
90.884782
 20
152.982650
 42
0.122829
  0
VERTEX
  8
0
 10
102.625585
 20
156.695804
 42
0.136541
  0
VERTEX
  8
0
 10
110.699747
 20
165.386267
 42
0.000000
  0
VERTEX
  8
0
 10
112.213790
 20
168.314104
 42
0.000000
  0
VERTEX
  8
0
 10
116.169956
 20
161.181048
 42
0.000000
  0
VERTEX
  8
0
 10
120.126122
 20
154.047992
 42
0.000000
  0
VERTEX
  8
0
 10
116.510994
 20
142.273996
 42
-0.000320
  0
VERTEX
  8
0
 10
115.091489
 20
137.661389
 42
-0.000450
  0
VERTEX
  8
0
 10
113.818224
 20
133.546537
 42
-0.000263
  0
VERTEX
  8
0
 10
112.739304
 20
130.077271
 42
-0.006143
  0
VERTEX
  8
0
 10
112.420680
 20
129.097193
 42
-0.382115
  0
VERTEX
  8
0
 10
112.005363
 20
128.862586
 42
-0.132387
  0
VERTEX
  8
0
 10
111.340650
 20
129.207825
 42
-0.050372
  0
VERTEX
  8
0
 10
110.379394
 20
130.286583
 42
-0.015379
  0
VERTEX
  8
0
 10
109.150103
 20
132.097193
 42
0.035433
  0
VERTEX
  8
0
 10
107.603911
 20
134.189004
 42
0.032433
  0
VERTEX
  8
0
 10
105.734455
 20
136.108433
 42
0.031244
  0
VERTEX
  8
0
 10
103.560229
 20
137.835488
 42
0.027801
  0
VERTEX
  8
0
 10
101.103633
 20
139.352537
 42
0.021078
  0
VERTEX
  8
0
 10
97.888520
 20
140.927401
 42
0.055895
  0
VERTEX
  8
0
 10
95.448437
 20
141.686636
 42
0.047173
  0
VERTEX
  8
0
 10
92.672217
 20
141.953148
 42
0.011723
  0
VERTEX
  8
0
 10
88.103156
 20
141.852537
 42
0.012878
  0
VERTEX
  8
0
 10
83.861138
 20
141.549929
 42
0.039615
  0
VERTEX
  8
0
 10
81.029621
 20
141.045908
 42
0.050150
  0
VERTEX
  8
0
 10
78.694745
 20
140.178862
 42
0.032220
  0
VERTEX
  8
0
 10
76.185417
 20
138.741462
 42
0.050924
  0
VERTEX
  8
0
 10
71.769461
 20
135.123658
 42
0.072841
  0
VERTEX
  8
0
 10
68.761192
 20
131.059864
 42
0.069872
  0
VERTEX
  8
0
 10
66.964599
 20
126.172960
 42
0.042809
  0
VERTEX
  8
0
 10
66.184393
 20
120.073121
 42
0.011927
  0
VERTEX
  8
0
 10
66.102320
 20
115.462187
 42
0.055117
  0
VERTEX
  8
0
 10
66.411124
 20
112.816118
 42
0.062214
  0
VERTEX
  8
0
 10
67.275101
 20
110.453398
 42
0.017797
  0
VERTEX
  8
0
 10
69.184393
 20
107.043440
 42
0.084263
  0
VERTEX
  8
0
 10
74.278829
 20
101.165895
 42
0.086206
  0
VERTEX
  8
0
 10
80.989719
 20
97.354311
 42
0.083047
  0
VERTEX
  8
0
 10
88.812527
 20
95.940203
 42
0.071135
  0
VERTEX
  8
0
 10
97.122668
 20
97.017423
 42
0.078752
  0
VERTEX
  8
0
 10
101.182189
 20
98.869972
 42
0.041671
  0
VERTEX
  8
0
 10
105.535412
 20
102.308877
 42
0.041514
  0
VERTEX
  8
0
 10
109.297964
 20
106.463416
 42
0.072159
  0
VERTEX
  8
0
 10
111.560160
 20
110.518355
 42
-0.009427
  0
VERTEX
  8
0
 10
112.253557
 20
112.236103
 42
-0.014748
  0
VERTEX
  8
0
 10
112.920896
 20
113.683517
 42
-0.008827
  0
VERTEX
  8
0
 10
113.522409
 20
114.841291
 42
-0.275139
  0
VERTEX
  8
0
 10
113.788992
 20
115.000000
 42
-0.139002
  0
VERTEX
  8
0
 10
114.171328
 20
114.891615
 42
-0.000256
  0
VERTEX
  8
0
 10
119.810102
 20
111.411301
 42
-0.001844
  0
VERTEX
  8
0
 10
126.141219
 20
107.466864
 42
-0.001138
  0
VERTEX
  8
0
 10
133.560001
 20
102.783153
 42
-0.002151
  0
VERTEX
  8
0
 10
145.643395
 20
95.042923
 42
-0.025215
  0
VERTEX
  8
0
 10
150.179749
 20
91.773898
 42
-0.071206
  0
VERTEX
  8
0
 10
152.374172
 20
89.436071
 42
-0.113745
  0
VERTEX
  8
0
 10
153.398644
 20
86.908478
 42
0.074773
  0
VERTEX
  8
0
 10
154.807423
 20
82.477514
 42
0.048390
  0
VERTEX
  8
0
 10
157.642436
 20
77.892745
 42
0.047682
  0
VERTEX
  8
0
 10
161.374866
 20
73.852396
 42
0.064390
  0
VERTEX
  8
0
 10
165.473306
 20
71.041895
 42
0.063300
  0
VERTEX
  8
0
 10
170.752369
 20
69.138407
 42
0.051407
  0
VERTEX
  8
0
 10
176.731415
 20
68.436204
 42
0.052267
  0
VERTEX
  8
0
 10
182.612097
 20
68.968406
 42
0.072525
  0
VERTEX
  8
0
 10
187.594680
 20
70.728074
 42
0.048597
  0
VERTEX
  8
0
 10
191.324421
 20
73.179177
 42
0.043168
  0
VERTEX
  8
0
 10
194.675285
 20
76.394799
 42
0.042825
  0
VERTEX
  8
0
 10
197.449337
 20
80.166818
 42
0.045958
  0
VERTEX
  8
0
 10
199.465648
 20
84.270878
 42
-0.071547
  0
VERTEX
  8
0
 10
201.129196
 20
87.261303
 42
-0.047220
  0
VERTEX
  8
0
 10
203.800181
 20
90.157989
 42
-0.021688
  0
VERTEX
  8
0
 10
208.616896
 20
94.118641
 42
-0.002899
  0
VERTEX
  8
0
 10
219.170888
 20
101.960292
 42
-0.001907
  0
VERTEX
  8
0
 10
226.092933
 20
107.000849
 42
-0.003169
  0
VERTEX
  8
0
 10
231.970867
 20
111.190441
 42
-0.000407
  0
VERTEX
  8
0
 10
237.202138
 20
114.862969
 42
-0.373639
  0
VERTEX
  8
0
 10
237.477287
 20
114.834284
 42
-0.076890
  0
VERTEX
  8
0
 10
237.654168
 20
114.574785
 42
-0.003293
  0
VERTEX
  8
0
 10
238.124988
 20
113.570071
 42
-0.005570
  0
VERTEX
  8
0
 10
238.663774
 20
112.365182
 42
-0.003932
  0
VERTEX
  8
0
 10
239.243366
 20
111.000000
 42
0.118251
  0
VERTEX
  8
0
 10
245.849887
 20
101.920616
 42
0.117233
  0
VERTEX
  8
0
 10
255.876129
 20
96.790342
 42
0.117793
  0
VERTEX
  8
0
 10
267.099448
 20
96.733711
 42
0.120195
  0
VERTEX
  8
0
 10
277.042068
 20
101.768004
 42
0.044484
  0
VERTEX
  8
0
 10
280.705085
 20
105.515925
 42
0.063979
  0
VERTEX
  8
0
 10
283.156072
 20
109.449314
 42
0.063736
  0
VERTEX
  8
0
 10
284.539084
 20
113.886178
 42
0.043744
  0
VERTEX
  8
0
 10
285.000000
 20
119.144438
 42
0.071874
  0
VERTEX
  8
0
 10
283.877567
 20
126.912486
 42
0.089441
  0
VERTEX
  8
0
 10
280.608433
 20
133.422070
 42
0.089353
  0
VERTEX
  8
0
 10
275.268399
 20
138.384352
 42
0.071579
  0
VERTEX
  8
0
 10
268.113502
 20
141.644992
 42
0.082883
  0
VERTEX
  8
0
 10
260.701130
 20
142.533513
 42
0.073259
  0
VERTEX
  8
0
 10
253.058952
 20
141.045191
 42
0.075588
  0
VERTEX
  8
0
 10
246.387961
 20
137.491328
 42
0.099671
  0
VERTEX
  8
0
 10
241.794600
 20
132.376446
 42
-0.024967
  0
VERTEX
  8
0
 10
240.947101
 20
131.091228
 42
-0.044482
  0
VERTEX
  8
0
 10
240.110588
 20
130.140921
 42
-0.062432
  0
VERTEX
  8
0
 10
239.402287
 20
129.618618
 42
-0.344901
  0
VERTEX
  8
0
 10
238.964775
 20
129.686338
 42
-0.117775
  0
VERTEX
  8
0
 10
238.087111
 20
131.224515
 42
-0.001690
  0
VERTEX
  8
0
 10
235.139679
 20
141.449042
 42
-0.002660
  0
VERTEX
  8
0
 10
232.374572
 20
151.364372
 42
-0.066759
  0
VERTEX
  8
0
 10
232.000000
 20
154.157257
 42
-0.080321
  0
VERTEX
  8
0
 10
232.154437
 20
155.112426
 42
-0.008248
  0
VERTEX
  8
0
 10
232.913079
 20
157.277075
 42
-0.010114
  0
VERTEX
  8
0
 10
233.918005
 20
159.838964
 42
-0.007913
  0
VERTEX
  8
0
 10
235.108352
 20
162.578694
 42
0.000000
  0
VERTEX
  8
0
 10
238.216705
 20
169.434018
 42
0.000000
  0
VERTEX
  8
0
 10
239.724966
 20
166.467009
 42
0.065113
  0
VERTEX
  8
0
 10
243.598077
 20
160.809855
 42
0.072122
  0
VERTEX
  8
0
 10
248.678560
 20
156.561642
 42
0.072322
  0
VERTEX
  8
0
 10
254.743711
 20
153.939727
 42
0.066005
  0
VERTEX
  8
0
 10
261.500000
 20
153.043924
 42
0.060467
  0
VERTEX
  8
0
 10
268.369212
 20
153.877701
 42
0.075524
  0
VERTEX
  8
0
 10
274.298693
 20
156.331263
 42
0.076213
  0
VERTEX
  8
0
 10
279.192045
 20
160.413144
 42
0.063006
  0
VERTEX
  8
0
 10
283.016529
 20
166.032400
 42
0.031172
  0
VERTEX
  8
0
 10
284.117892
 20
168.570448
 42
0.047813
  0
VERTEX
  8
0
 10
284.714004
 20
170.890092
 42
0.038445
  0
VERTEX
  8
0
 10
284.930734
 20
173.623042
 42
0.013186
  0
VERTEX
  8
0
 10
284.835035
 20
177.595679
 42
0.014319
  0
VERTEX
  8
0
 10
284.514370
 20
181.641587
 42
0.044202
  0
VERTEX
  8
0
 10
283.980438
 20
184.329699
 42
0.053145
  0
VERTEX
  8
0
 10
283.043926
 20
186.604051
 42
0.028568
  0
VERTEX
  8
0
 10
281.446342
 20
189.186980
 42
0.060050
  0
VERTEX
  8
0
 10
277.632738
 20
193.439816
 42
0.066210
  0
VERTEX
  8
0
 10
273.032917
 20
196.503771
 42
0.063644
  0
VERTEX
  8
0
 10
267.633085
 20
198.342903
 42
0.049499
  0
VERTEX
  8
0
 10
261.455763
 20
198.976641
 42
0.015391
  0
VERTEX
  8
0
 10
257.380052
 20
198.864679
 42
0.048770
  0
VERTEX
  8
0
 10
254.687193
 20
198.441960
 42
0.052140
  0
VERTEX
  8
0
 10
252.224296
 20
197.522343
 42
0.019507
  0
VERTEX
  8
0
 10
248.984297
 20
195.750000
 42
0.024215
  0
VERTEX
  8
0
 10
246.100678
 20
193.827678
 42
0.047070
  0
VERTEX
  8
0
 10
244.041335
 20
191.982986
 42
0.046154
  0
VERTEX
  8
0
 10
242.338195
 20
189.761175
 42
0.022390
  0
VERTEX
  8
0
 10
240.567700
 20
186.647289
 42
0.000000
  0
VERTEX
  8
0
 10
237.578333
 20
180.794578
 42
0.000000
  0
VERTEX
  8
0
 10
234.219756
 20
188.147289
 42
0.000000
  0
VERTEX
  8
0
 10
230.861179
 20
195.500000
 42
0.000000
  0
VERTEX
  8
0
 10
234.592220
 20
209.290876
 42
-0.004030
  0
VERTEX
  8
0
 10
236.077662
 20
214.610977
 42
-0.006271
  0
VERTEX
  8
0
 10
237.452389
 20
219.169815
 42
-0.002268
  0
VERTEX
  8
0
 10
238.696873
 20
223.055405
 42
-0.177512
  0
VERTEX
  8
0
 10
239.089634
 20
223.555397
 42
-0.244843
  0
VERTEX
  8
0
 10
239.430739
 20
223.580457
 42
-0.104551
  0
VERTEX
  8
0
 10
239.815383
 20
223.308607
 42
-0.069490
  0
VERTEX
  8
0
 10
240.187804
 20
222.773988
 42
-0.040612
  0
VERTEX
  8
0
 10
240.484085
 20
222.050142
 42
0.117787
  0
VERTEX
  8
0
 10
242.057963
 20
219.435353
 42
0.027490
  0
VERTEX
  8
0
 10
245.867335
 20
215.960470
 42
0.029214
  0
VERTEX
  8
0
 10
250.197838
 20
212.828606
 42
0.069267
  0
VERTEX
  8
0
 10
253.806843
 20
211.176017
 42
0.081842
  0
VERTEX
  8
0
 10
262.502488
 20
210.058833
 42
0.088376
  0
VERTEX
  8
0
 10
270.851642
 20
211.854443
 42
0.089895
  0
VERTEX
  8
0
 10
277.956506
 20
216.382825
 42
0.088304
  0
VERTEX
  8
0
 10
283.072417
 20
223.141948
 42
0.075204
  0
VERTEX
  8
0
 10
284.627068
 20
227.807965
 42
0.047665
  0
VERTEX
  8
0
 10
285.064462
 20
233.534332
 42
0.047333
  0
VERTEX
  8
0
 10
284.406495
 20
239.300397
 42
0.069468
  0
VERTEX
  8
0
 10
282.673828
 20
244.092716
 42
0.085894
  0
VERTEX
  8
0
 10
278.077954
 20
250.051160
 42
0.079400
  0
VERTEX
  8
0
 10
271.629325
 20
254.312629
 42
0.078671
  0
VERTEX
  8
0
 10
264.117195
 20
256.379274
 42
0.081918
  0
VERTEX
  8
0
 10
256.442991
 20
255.979675
 42
0.050105
  0
VERTEX
  8
0
 10
251.257280
 20
254.286348
 42
0.063925
  0
VERTEX
  8
0
 10
246.956653
 20
251.688372
 42
0.062815
  0
VERTEX
  8
0
 10
243.396520
 20
248.047834
 42
0.046199
  0
VERTEX
  8
0
 10
240.413024
 20
243.251179
 42
0.000000
  0
VERTEX
  8
0
 10
237.326048
 20
237.084267
 42
0.000000
  0
VERTEX
  8
0
 10
219.269532
 20
249.175336
 42
-0.002174
  0
VERTEX
  8
0
 10
207.660734
 20
257.022190
 42
-0.028338
  0
VERTEX
  8
0
 10
203.533694
 20
260.194928
 42
-0.081616
  0
VERTEX
  8
0
 10
201.559683
 20
262.558347
 42
-0.093881
  0
VERTEX
  8
0
 10
200.564839
 20
265.319885
 42
0.106746
  0
VERTEX
  8
0
 10
196.701543
 20
275.243544
 42
0.110364
  0
VERTEX
  8
0
 10
189.122529
 20
282.549015
 42
0.111757
  0
VERTEX
  8
0
 10
179.238049
 20
285.875104
 42
0.111767
  0
SEQEND
  0
POLYLINE
  8
0
 66
1
 70
1
  0
VERTEX
  8
0
 10
186.092716
 20
279.673227
 42
-0.037951
  0
VERTEX
  8
0
 10
187.998475
 20
278.474124
 42
-0.022399
  0
VERTEX
  8
0
 10
190.086610
 20
276.777670
 42
-0.022329
  0
VERTEX
  8
0
 10
192.031189
 20
274.885599
 42
-0.035318
  0
VERTEX
  8
0
 10
193.500000
 20
273.083395
 42
-0.025802
  0
VERTEX
  8
0
 10
195.093800
 20
270.550401
 42
-0.058507
  0
VERTEX
  8
0
 10
195.959592
 20
268.462860
 42
-0.052431
  0
VERTEX
  8
0
 10
196.369992
 20
266.093419
 42
-0.017361
  0
VERTEX
  8
0
 10
196.483123
 20
262.561635
 42
-0.054099
  0
VERTEX
  8
0
 10
195.910596
 20
257.415062
 42
-0.068571
  0
VERTEX
  8
0
 10
194.245722
 20
252.935077
 42
-0.070329
  0
VERTEX
  8
0
 10
191.473565
 20
249.158146
 42
-0.060983
  0
VERTEX
  8
0
 10
187.636262
 20
246.084215
 42
-0.133384
  0
VERTEX
  8
0
 10
177.641019
 20
243.119224
 42
-0.129483
  0
VERTEX
  8
0
 10
167.393336
 20
245.565879
 42
-0.131587
  0
VERTEX
  8
0
 10
159.796120
 20
252.694231
 42
-0.139789
  0
VERTEX
  8
0
 10
157.000000
 20
262.500000
 42
-0.132261
  0
VERTEX
  8
0
 10
159.577193
 20
272.072376
 42
-0.128590
  0
VERTEX
  8
0
 10
166.631208
 20
279.177782
 42
-0.127435
  0
VERTEX
  8
0
 10
176.315564
 20
281.959919
 42
-0.128702
  0
SEQEND
  0
POLYLINE
  8
0
 66
1
 70
1
  0
VERTEX
  8
0
 10
235.965961
 20
232.933566
 42
-0.258516
  0
VERTEX
  8
0
 10
235.600172
 20
232.168399
 42
-0.001396
  0
VERTEX
  8
0
 10
228.677078
 20
227.266450
 42
-0.003144
  0
VERTEX
  8
0
 10
222.062155
 20
222.672305
 42
-0.086626
  0
VERTEX
  8
0
 10
220.146074
 20
221.798360
 42
-0.354767
  0
VERTEX
  8
0
 10
219.250987
 20
222.205326
 42
-0.000693
  0
VERTEX
  8
0
 10
211.754279
 20
237.304095
 42
-0.001487
  0
VERTEX
  8
0
 10
204.581740
 20
251.909480
 42
-0.113868
  0
VERTEX
  8
0
 10
204.000000
 20
254.430807
 42
-0.600109
  0
VERTEX
  8
0
 10
204.349107
 20
254.616925
 42
-0.000207
  0
VERTEX
  8
0
 10
219.969507
 20
244.121548
 42
-0.000216
  0
VERTEX
  8
0
 10
235.575976
 20
233.616334
 42
-0.233584
  0
SEQEND
  0
POLYLINE
  8
0
 66
1
 70
1
  0
VERTEX
  8
0
 10
148.821704
 20
253.250000
 42
-0.010974
  0
VERTEX
  8
0
 10
145.370605
 20
246.160866
 42
-0.002826
  0
VERTEX
  8
0
 10
139.485498
 20
234.874379
 42
-0.000297
  0
VERTEX
  8
0
 10
132.841855
 20
222.324999
 42
-0.277650
  0
VERTEX
  8
0
 10
132.301705
 20
222.000000
 42
-0.149051
  0
VERTEX
  8
0
 10
130.552861
 20
222.533180
 42
-0.003742
  0
VERTEX
  8
0
 10
123.613305
 20
227.273991
 42
-0.002326
  0
VERTEX
  8
0
 10
116.521244
 20
232.246289
 42
-0.330398
  0
VERTEX
  8
0
 10
116.221025
 20
233.163076
 42
-0.169752
  0
VERTEX
  8
0
 10
117.065431
 20
234.255474
 42
-0.000535
  0
VERTEX
  8
0
 10
131.905507
 20
243.880501
 42
-0.000687
  0
VERTEX
  8
0
 10
146.619209
 20
253.372538
 42
-0.126121
  0
VERTEX
  8
0
 10
148.333333
 20
253.941802
 42
-0.095523
  0
VERTEX
  8
0
 10
148.624754
 20
253.906443
 42
-0.162632
  0
VERTEX
  8
0
 10
148.820542
 20
253.762592
 42
-0.164740
  0
VERTEX
  8
0
 10
148.889032
 20
253.531524
 42
-0.098493
  0
SEQEND
  0
POLYLINE
  8
0
 66
1
 70
1
  0
VERTEX
  8
0
 10
160.204347
 20
245.879585
 42
0.084355
  0
VERTEX
  8
0
 10
166.084339
 20
241.885642
 42
0.069932
  0
VERTEX
  8
0
 10
173.347482
 20
239.728430
 42
0.070232
  0
VERTEX
  8
0
 10
180.892443
 20
239.661750
 42
0.086621
  0
VERTEX
  8
0
 10
187.594680
 20
241.765933
 42
0.049525
  0
VERTEX
  8
0
 10
190.869935
 20
243.893040
 42
0.028379
  0
VERTEX
  8
0
 10
194.378787
 20
247.043927
 42
0.024062
  0
VERTEX
  8
0
 10
197.303194
 20
250.283976
 42
0.173233
  0
VERTEX
  8
0
 10
198.000000
 20
252.234796
 42
-0.067043
  0
VERTEX
  8
0
 10
198.057545
 20
252.662035
 42
-0.273304
  0
VERTEX
  8
0
 10
198.238285
 20
252.837098
 42
-0.218760
  0
VERTEX
  8
0
 10
198.516979
 20
252.782093
 42
-0.047380
  0
VERTEX
  8
0
 10
198.895399
 20
252.450000
 42
-0.117193
  0
VERTEX
  8
0
 10
199.649812
 20
251.139991
 42
-0.000428
  0
VERTEX
  8
0
 10
204.726761
 20
234.021965
 42
-0.000672
  0
VERTEX
  8
0
 10
209.662506
 20
217.244688
 42
-0.071314
  0
VERTEX
  8
0
 10
210.000000
 20
214.890483
 42
-0.235902
  0
VERTEX
  8
0
 10
209.652059
 20
214.194052
 42
-0.003066
  0
VERTEX
  8
0
 10
205.621053
 20
211.205304
 42
-0.004056
  0
VERTEX
  8
0
 10
201.625999
 20
208.330479
 42
-0.155138
  0
VERTEX
  8
0
 10
200.586522
 20
208.000000
 42
-0.276781
  0
VERTEX
  8
0
 10
200.360343
 20
208.135592
 42
-0.052731
  0
VERTEX
  8
0
 10
200.172291
 20
208.599202
 42
-0.042827
  0
VERTEX
  8
0
 10
200.042552
 20
209.258230
 42
-0.027201
  0
VERTEX
  8
0
 10
200.000000
 20
210.039838
 42
0.093474
  0
VERTEX
  8
0
 10
199.514765
 20
212.612730
 42
0.032609
  0
VERTEX
  8
0
 10
197.909572
 20
216.040093
 42
0.032535
  0
VERTEX
  8
0
 10
195.722881
 20
219.464831
 42
0.047447
  0
VERTEX
  8
0
 10
193.341583
 20
222.135838
 42
0.038320
  0
VERTEX
  8
0
 10
189.626645
 20
225.086585
 42
0.056455
  0
VERTEX
  8
0
 10
185.938146
 20
227.015578
 42
0.055598
  0
VERTEX
  8
0
 10
181.868939
 20
228.089305
 42
0.035817
  0
VERTEX
  8
0
 10
177.000000
 20
228.456629
 42
0.072367
  0
VERTEX
  8
0
 10
169.058127
 20
227.331070
 42
0.085210
  0
VERTEX
  8
0
 10
162.243935
 20
223.994959
 42
0.087916
  0
VERTEX
  8
0
 10
157.089212
 20
218.680330
 42
0.083118
  0
VERTEX
  8
0
 10
153.950655
 20
211.816748
 42
0.000000
  0
VERTEX
  8
0
 10
152.907222
 20
207.941733
 42
0.000000
  0
VERTEX
  8
0
 10
150.137557
 20
209.577815
 42
-0.008187
  0
VERTEX
  8
0
 10
148.908285
 20
210.331383
 42
-0.005188
  0
VERTEX
  8
0
 10
147.499453
 20
211.247751
 42
-0.005210
  0
VERTEX
  8
0
 10
146.134253
 20
212.176702
 42
-0.009587
  0
VERTEX
  8
0
 10
145.046097
 20
212.965229
 42
0.000000
  0
VERTEX
  8
0
 10
142.724303
 20
214.716562
 42
0.000000
  0
VERTEX
  8
0
 10
148.591076
 20
233.956323
 42
-0.001645
  0
VERTEX
  8
0
 10
152.354720
 20
246.154970
 42
-0.027285
  0
VERTEX
  8
0
 10
153.840015
 20
250.135850
 42
-0.192435
  0
VERTEX
  8
0
 10
154.897182
 20
251.179381
 42
-0.364594
  0
VERTEX
  8
0
 10
155.966237
 20
250.848042
 42
0.023147
  0
VERTEX
  8
0
 10
156.736764
 20
249.762552
 42
0.010662
  0
VERTEX
  8
0
 10
157.833392
 20
248.419990
 42
0.010535
  0
VERTEX
  8
0
 10
159.048821
 20
247.054451
 42
0.014365
  0
SEQEND
  0
POLYLINE
  8
0
 66
1
 70
1
  0
VERTEX
  8
0
 10
142.327332
 20
226.401718
 42
-0.001944
  0
VERTEX
  8
0
 10
141.267226
 20
222.958167
 42
-0.002986
  0
VERTEX
  8
0
 10
140.319890
 20
219.985490
 42
-0.001008
  0
VERTEX
  8
0
 10
139.481388
 20
217.425210
 42
-0.083548
  0
VERTEX
  8
0
 10
139.288575
 20
217.059524
 42
-0.328282
  0
VERTEX
  8
0
 10
139.056259
 20
216.991594
 42
-0.047312
  0
VERTEX
  8
0
 10
138.582216
 20
217.217359
 42
-0.038611
  0
VERTEX
  8
0
 10
137.992249
 20
217.635175
 42
-0.023005
  0
VERTEX
  8
0
 10
137.356051
 20
218.215378
 42
-0.134649
  0
VERTEX
  8
0
 10
136.667684
 20
219.424044
 42
-0.131479
  0
VERTEX
  8
0
 10
136.683724
 20
220.826676
 42
-0.048929
  0
VERTEX
  8
0
 10
137.540193
 20
223.030442
 42
-0.005276
  0
VERTEX
  8
0
 10
140.063447
 20
227.888934
 42
-0.004594
  0
VERTEX
  8
0
 10
141.737695
 20
230.962773
 42
-0.007826
  0
VERTEX
  8
0
 10
143.200291
 20
233.496137
 42
-0.002560
  0
VERTEX
  8
0
 10
144.479239
 20
235.608810
 42
-0.485128
  0
VERTEX
  8
0
 10
144.698535
 20
235.634798
 42
-0.263002
  0
VERTEX
  8
0
 10
144.782125
 20
235.333987
 42
-0.002017
  0
VERTEX
  8
0
 10
144.138681
 20
232.785894
 42
-0.006685
  0
VERTEX
  8
0
 10
143.339500
 20
229.838163
 42
-0.004159
  0
SEQEND
  0
POLYLINE
  8
0
 66
1
 70
1
  0
VERTEX
  8
0
 10
215.431915
 20
217.889836
 42
-0.206295
  0
VERTEX
  8
0
 10
214.565434
 20
217.283797
 42
-0.304397
  0
VERTEX
  8
0
 10
213.734694
 20
217.622862
 42
-0.072486
  0
VERTEX
  8
0
 10
212.854711
 20
219.455810
 42
-0.010616
  0
VERTEX
  8
0
 10
211.705569
 20
223.427478
 42
0.000590
  0
VERTEX
  8
0
 10
211.010967
 20
226.021922
 42
0.000674
  0
VERTEX
  8
0
 10
210.340194
 20
228.502251
 42
0.000608
  0
VERTEX
  8
0
 10
209.765473
 20
230.605980
 42
0.003821
  0
VERTEX
  8
0
 10
209.462523
 20
231.677478
 42
-0.858877
  0
VERTEX
  8
0
 10
209.568258
 20
231.726578
 42
-0.022645
  0
VERTEX
  8
0
 10
210.123378
 20
230.802586
 42
-0.008753
  0
VERTEX
  8
0
 10
211.137120
 20
228.846823
 42
-0.003517
  0
VERTEX
  8
0
 10
212.457011
 20
226.139836
 42
-0.010072
  0
VERTEX
  8
0
 10
213.767833
 20
223.254971
 42
-0.015067
  0
VERTEX
  8
0
 10
214.784891
 20
220.680331
 42
-0.009954
  0
VERTEX
  8
0
 10
215.511687
 20
218.531670
 42
-0.218333
  0
SEQEND
  0
POLYLINE
  8
0
 66
1
 70
1
  0
VERTEX
  8
0
 10
129.979193
 20
217.154292
 42
-0.111906
  0
VERTEX
  8
0
 10
129.664204
 20
215.657553
 42
-0.018610
  0
VERTEX
  8
0
 10
128.329805
 20
213.014415
 42
-0.013343
  0
VERTEX
  8
0
 10
126.811688
 20
210.431850
 42
-0.265739
  0
VERTEX
  8
0
 10
126.034392
 20
210.014036
 42
-0.265338
  0
VERTEX
  8
0
 10
125.436927
 20
210.376232
 42
-0.000961
  0
VERTEX
  8
0
 10
121.305737
 20
217.846276
 42
-0.001679
  0
VERTEX
  8
0
 10
117.328568
 20
225.128355
 42
-0.124774
  0
VERTEX
  8
0
 10
117.000000
 20
226.424508
 42
-0.567476
  0
VERTEX
  8
0
 10
117.187996
 20
226.536808
 42
-0.005324
  0
VERTEX
  8
0
 10
118.903263
 20
225.589717
 42
-0.010568
  0
VERTEX
  8
0
 10
120.993753
 20
224.347167
 42
-0.005956
  0
VERTEX
  8
0
 10
123.479193
 20
222.756440
 42
-0.013383
  0
VERTEX
  8
0
 10
125.962861
 20
221.027933
 42
-0.019147
  0
VERTEX
  8
0
 10
128.061235
 20
219.355028
 42
-0.015367
  0
VERTEX
  8
0
 10
129.664416
 20
217.885066
 42
-0.198167
  0
SEQEND
  0
POLYLINE
  8
0
 66
1
 70
1
  0
VERTEX
  8
0
 10
186.092716
 20
222.673227
 42
-0.092883
  0
VERTEX
  8
0
 10
192.112396
 20
217.894475
 42
-0.097622
  0
VERTEX
  8
0
 10
195.866289
 20
211.337425
 42
-0.100413
  0
VERTEX
  8
0
 10
196.789109
 20
204.003419
 42
-0.104382
  0
VERTEX
  8
0
 10
194.752516
 20
197.000000
 42
-0.164890
  0
VERTEX
  8
0
 10
185.236941
 20
188.082718
 42
-0.163322
  0
VERTEX
  8
0
 10
172.218885
 20
186.745947
 42
-0.167680
  0
VERTEX
  8
0
 10
161.272470
 20
193.513503
 42
-0.172893
  0
VERTEX
  8
0
 10
157.000000
 20
205.500000
 42
-0.132990
  0
VERTEX
  8
0
 10
159.582997
 20
215.039506
 42
-0.127862
  0
VERTEX
  8
0
 10
166.653473
 20
222.141130
 42
-0.126722
  0
VERTEX
  8
0
 10
176.342262
 20
224.939256
 42
-0.129415
  0
SEQEND
  0
POLYLINE
  8
0
 66
1
 70
1
  0
VERTEX
  8
0
 10
233.000000
 20
224.603792
 42
-0.115104
  0
VERTEX
  8
0
 10
232.673597
 20
223.204720
 42
-0.002134
  0
VERTEX
  8
0
 10
229.275479
 20
216.391806
 42
-0.001107
  0
VERTEX
  8
0
 10
225.707042
 20
209.352046
 42
-0.286296
  0
VERTEX
  8
0
 10
225.138975
 20
209.010171
 42
-0.250763
  0
VERTEX
  8
0
 10
224.811553
 20
209.192162
 42
-0.013253
  0
VERTEX
  8
0
 10
224.169955
 20
210.249067
 42
-0.018264
  0
VERTEX
  8
0
 10
223.459185
 20
211.605834
 42
-0.012030
  0
VERTEX
  8
0
 10
222.737469
 20
213.213406
 42
-0.013427
  0
VERTEX
  8
0
 10
221.897268
 20
215.372785
 42
-0.060744
  0
VERTEX
  8
0
 10
221.599002
 20
216.688805
 42
-0.124338
  0
VERTEX
  8
0
 10
221.724193
 20
217.540951
 42
-0.167197
  0
VERTEX
  8
0
 10
222.237469
 20
218.120763
 42
0.021833
  0
VERTEX
  8
0
 10
222.955594
 20
218.569515
 42
0.003549
  0
VERTEX
  8
0
 10
224.304131
 20
219.510592
 42
0.003908
  0
VERTEX
  8
0
 10
225.875998
 20
220.642747
 42
0.003431
  0
VERTEX
  8
0
 10
227.500000
 20
221.849046
 42
-0.009699
  0
VERTEX
  8
0
 10
229.983486
 20
223.645899
 42
-0.035666
  0
VERTEX
  8
0
 10
231.649998
 20
224.635001
 42
-0.085470
  0
VERTEX
  8
0
 10
232.629370
 20
224.931329
 42
-0.450802
  0
SEQEND
  0
POLYLINE
  8
0
 66
1
 70
1
  0
VERTEX
  8
0
 10
136.899501
 20
213.621093
 42
-0.161225
  0
VERTEX
  8
0
 10
137.327314
 20
212.527914
 42
-0.051440
  0
VERTEX
  8
0
 10
137.239818
 20
210.760469
 42
-0.030577
  0
VERTEX
  8
0
 10
136.664206
 20
208.104029
 42
-0.007865
  0
VERTEX
  8
0
 10
135.407245
 20
203.895723
 42
0.000000
  0
VERTEX
  8
0
 10
132.770599
 20
195.549259
 42
0.000000
  0
VERTEX
  8
0
 10
130.503414
 20
199.993307
 42
0.000000
  0
VERTEX
  8
0
 10
128.236230
 20
204.437356
 42
0.000000
  0
VERTEX
  8
0
 10
130.826433
 20
209.718678
 42
-0.020525
  0
VERTEX
  8
0
 10
132.676573
 20
213.129455
 42
-0.115913
  0
VERTEX
  8
0
 10
134.106112
 20
214.607075
 42
-0.251671
  0
VERTEX
  8
0
 10
135.453626
 20
214.712446
 42
-0.116272
  0
SEQEND
  0
POLYLINE
  8
0
 66
1
 70
1
  0
VERTEX
  8
0
 10
221.441904
 20
200.077810
 42
0.000000
  0
VERTEX
  8
0
 10
219.677607
 20
196.500000
 42
0.000000
  0
VERTEX
  8
0
 10
217.267573
 20
204.311709
 42
-0.007544
  0
VERTEX
  8
0
 10
216.047475
 20
208.489164
 42
-0.036732
  0
VERTEX
  8
0
 10
215.568436
 20
210.906359
 42
-0.070470
  0
VERTEX
  8
0
 10
215.597774
 20
212.492563
 42
-0.134178
  0
VERTEX
  8
0
 10
216.121101
 20
213.645917
 42
-0.177653
  0
VERTEX
  8
0
 10
216.912990
 20
214.106115
 42
-0.246647
  0
VERTEX
  8
0
 10
217.680473
 20
213.861249
 42
-0.069749
  0
VERTEX
  8
0
 10
218.624406
 20
212.590908
 42
-0.007902
  0
VERTEX
  8
0
 10
220.295432
 20
209.412018
 42
-0.008300
  0
VERTEX
  8
0
 10
222.119157
 20
205.651656
 42
-0.078348
  0
VERTEX
  8
0
 10
222.610705
 20
203.933122
 42
-0.117755
  0
VERTEX
  8
0
 10
222.440703
 20
202.424549
 42
-0.027878
  0
SEQEND
  0
POLYLINE
  8
0
 66
1
 70
1
  0
VERTEX
  8
0
 10
146.368132
 20
207.395816
 42
0.000000
  0
VERTEX
  8
0
 10
150.200532
 20
204.791633
 42
0.000000
  0
VERTEX
  8
0
 10
145.350266
 20
201.318407
 42
-0.004664
  0
VERTEX
  8
0
 10
140.640433
 20
198.011769
 42
-0.037608
  0
VERTEX
  8
0
 10
138.357776
 20
196.681653
 42
-0.267314
  0
VERTEX
  8
0
 10
137.546746
 20
196.738509
 42
-0.349468
  0
VERTEX
  8
0
 10
137.331216
 20
197.420751
 42
0.013510
  0
VERTEX
  8
0
 10
137.670122
 20
198.380689
 42
0.002412
  0
VERTEX
  8
0
 10
138.245822
 20
200.193209
 42
0.002605
  0
VERTEX
  8
0
 10
138.899260
 20
202.324354
 42
0.002348
  0
VERTEX
  8
0
 10
139.553804
 20
204.537085
 42
-0.011016
  0
VERTEX
  8
0
 10
140.212868
 20
206.630949
 42
-0.017299
  0
VERTEX
  8
0
 10
140.880125
 20
208.395269
 42
-0.011632
  0
VERTEX
  8
0
 10
141.500109
 20
209.785725
 42
-0.289750
  0
VERTEX
  8
0
 10
141.838824
 20
210.000000
 42
-0.123478
  0
VERTEX
  8
0
 10
142.275664
 20
209.890450
 42
-0.007596
  0
VERTEX
  8
0
 10
143.456782
 20
209.235021
 42
-0.010914
  0
VERTEX
  8
0
 10
144.849319
 20
208.393400
 42
-0.007847
  0
SEQEND
  0
POLYLINE
  8
0
 66
1
 70
1
  0
VERTEX
  8
0
 10
213.801291
 20
202.295315
 42
-0.003178
  0
VERTEX
  8
0
 10
214.599181
 20
199.325618
 42
-0.005146
  0
VERTEX
  8
0
 10
215.235616
 20
196.789069
 42
-0.001220
  0
VERTEX
  8
0
 10
215.761464
 20
194.574195
 42
-0.259623
  0
VERTEX
  8
0
 10
215.703326
 20
194.369992
 42
-0.377986
  0
VERTEX
  8
0
 10
215.003340
 20
194.326097
 42
-0.002179
  0
VERTEX
  8
0
 10
209.423898
 20
198.696736
 42
-0.002714
  0
VERTEX
  8
0
 10
203.951127
 20
203.070912
 42
-0.226529
  0
VERTEX
  8
0
 10
203.500000
 20
204.015552
 42
-0.218808
  0
VERTEX
  8
0
 10
203.936001
 20
204.964163
 42
-0.009462
  0
VERTEX
  8
0
 10
206.830611
 20
207.354267
 42
-0.011180
  0
VERTEX
  8
0
 10
209.785564
 20
209.595691
 42
-0.157939
  0
VERTEX
  8
0
 10
211.033588
 20
210.000000
 42
-0.310349
  0
VERTEX
  8
0
 10
211.352617
 20
209.780875
 42
-0.005559
  0
VERTEX
  8
0
 10
212.112675
 20
207.736749
 42
-0.011721
  0
VERTEX
  8
0
 10
212.941050
 20
205.248934
 42
-0.007288
  0
SEQEND
  0
POLYLINE
  8
0
 66
1
 70
1
  0
VERTEX
  8
0
 10
123.312128
 20
203.696017
 42
-0.125596
  0
VERTEX
  8
0
 10
122.863335
 20
203.263147
 42
-0.407718
  0
VERTEX
  8
0
 10
122.501338
 20
203.358218
 42
-0.075765
  0
VERTEX
  8
0
 10
122.162161
 20
204.187024
 42
-0.006053
  0
VERTEX
  8
0
 10
121.632546
 20
206.500000
 42
0.000000
  0
VERTEX
  8
0
 10
120.983738
 20
209.500000
 42
0.000000
  0
VERTEX
  8
0
 10
122.404133
 20
207.012549
 42
-0.027758
  0
VERTEX
  8
0
 10
122.910303
 20
205.999427
 42
-0.035166
  0
VERTEX
  8
0
 10
123.256770
 20
205.012244
 42
-0.037834
  0
VERTEX
  8
0
 10
123.418925
 20
204.176296
 42
-0.168966
  0
SEQEND
  0
POLYLINE
  8
0
 66
1
 70
1
  0
VERTEX
  8
0
 10
229.091947
 20
203.914318
 42
-0.013073
  0
VERTEX
  8
0
 10
228.650271
 20
202.888170
 42
-0.128357
  0
VERTEX
  8
0
 10
228.353692
 20
202.527298
 42
-0.522639
  0
VERTEX
  8
0
 10
228.152557
 20
202.597459
 42
-0.058568
  0
VERTEX
  8
0
 10
228.063386
 20
203.168213
 42
-0.056598
  0
VERTEX
  8
0
 10
228.190314
 20
204.855210
 42
-0.046597
  0
VERTEX
  8
0
 10
228.691737
 20
206.590470
 42
-0.103016
  0
VERTEX
  8
0
 10
229.266844
 20
207.468779
 42
-0.557653
  0
VERTEX
  8
0
 10
229.712081
 20
207.363756
 42
-0.098350
  0
VERTEX
  8
0
 10
229.782456
 20
206.806763
 42
-0.026879
  0
VERTEX
  8
0
 10
229.672246
 20
205.923496
 42
-0.026089
  0
VERTEX
  8
0
 10
229.435968
 20
204.914575
 42
-0.024530
  0
SEQEND
  0
POLYLINE
  8
0
 66
1
 70
1
  0
VERTEX
  8
0
 10
129.056226
 20
190.567748
 42
-0.098899
  0
VERTEX
  8
0
 10
127.857679
 20
189.596715
 42
-0.322414
  0
VERTEX
  8
0
 10
126.902705
 20
189.731316
 42
-0.138692
  0
VERTEX
  8
0
 10
126.134700
 20
191.038002
 42
-0.022096
  0
VERTEX
  8
0
 10
125.505315
 20
193.968542
 42
-0.023852
  0
VERTEX
  8
0
 10
125.048269
 20
197.769425
 42
-0.246752
  0
VERTEX
  8
0
 10
125.659541
 20
199.168706
 42
-0.437609
  0
VERTEX
  8
0
 10
126.744617
 20
199.004815
 42
-0.036229
  0
VERTEX
  8
0
 10
128.341064
 20
196.238789
 42
-0.014884
  0
VERTEX
  8
0
 10
129.346569
 20
193.994809
 42
-0.066611
  0
VERTEX
  8
0
 10
129.714039
 20
192.604908
 42
-0.113348
  0
VERTEX
  8
0
 10
129.608558
 20
191.556644
 42
-0.091934
  0
SEQEND
  0
POLYLINE
  8
0
 66
1
 70
1
  0
VERTEX
  8
0
 10
163.681310
 20
185.987153
 42
0.098724
  0
VERTEX
  8
0
 10
172.369359
 20
182.633720
 42
0.094323
  0
VERTEX
  8
0
 10
181.828079
 20
182.790141
 42
0.095041
  0
VERTEX
  8
0
 10
190.509606
 20
186.400787
 42
0.102078
  0
VERTEX
  8
0
 10
196.985469
 20
192.898751
 42
0.000000
  0
VERTEX
  8
0
 10
199.279712
 20
196.398656
 42
0.000000
  0
VERTEX
  8
0
 10
204.089059
 20
186.949328
 42
-0.005468
  0
VERTEX
  8
0
 10
205.935892
 20
183.220377
 42
-0.007577
  0
VERTEX
  8
0
 10
207.503899
 20
179.835115
 42
-0.005002
  0
VERTEX
  8
0
 10
208.742718
 20
176.973937
 42
-0.089547
  0
VERTEX
  8
0
 10
208.960495
 20
176.000000
 42
-0.113981
  0
VERTEX
  8
0
 10
208.539688
 20
173.758993
 42
-0.003699
  0
VERTEX
  8
0
 10
204.778873
 20
165.337363
 42
-0.001977
  0
VERTEX
  8
0
 10
200.760986
 20
156.607595
 42
-0.285007
  0
VERTEX
  8
0
 10
199.858408
 20
156.015989
 42
-0.241862
  0
VERTEX
  8
0
 10
199.573769
 20
156.153378
 42
-0.039562
  0
VERTEX
  8
0
 10
199.234268
 20
156.686077
 42
-0.036028
  0
VERTEX
  8
0
 10
198.904368
 20
157.432212
 42
-0.024598
  0
VERTEX
  8
0
 10
198.634635
 20
158.319594
 42
0.102604
  0
VERTEX
  8
0
 10
197.415029
 20
160.841818
 42
0.027289
  0
VERTEX
  8
0
 10
194.489795
 20
164.248891
 42
0.028483
  0
VERTEX
  8
0
 10
190.991455
 20
167.506810
 42
0.049361
  0
VERTEX
  8
0
 10
187.703398
 20
169.728568
 42
0.051959
  0
VERTEX
  8
0
 10
185.809980
 20
170.510781
 42
0.031734
  0
VERTEX
  8
0
 10
183.450362
 20
171.049591
 42
0.025738
  0
VERTEX
  8
0
 10
180.534824
 20
171.370378
 42
0.013877
  0
VERTEX
  8
0
 10
176.921580
 20
171.480149
 42
0.012688
  0
VERTEX
  8
0
 10
172.528832
 20
171.380175
 42
0.047188
  0
VERTEX
  8
0
 10
169.792401
 20
170.987754
 42
0.056049
  0
VERTEX
  8
0
 10
167.422780
 20
170.126203
 42
0.023261
  0
VERTEX
  8
0
 10
164.440444
 20
168.468883
 42
0.028232
  0
VERTEX
  8
0
 10
161.469812
 20
166.391847
 42
0.042064
  0
VERTEX
  8
0
 10
159.152278
 20
164.229769
 42
0.035628
  0
VERTEX
  8
0
 10
156.975359
 20
161.452374
 42
0.014267
  0
VERTEX
  8
0
 10
154.387616
 20
157.370583
 42
-0.316705
  0
VERTEX
  8
0
 10
153.548060
 20
156.994773
 42
-0.186198
  0
VERTEX
  8
0
 10
152.574805
 20
157.605931
 42
-0.040044
  0
VERTEX
  8
0
 10
151.107212
 20
159.937174
 42
-0.004116
  0
VERTEX
  8
0
 10
148.137616
 20
165.731831
 42
-0.003342
  0
VERTEX
  8
0
 10
146.168804
 20
169.719060
 42
-0.005017
  0
VERTEX
  8
0
 10
144.509175
 20
173.226650
 42
-0.002181
  0
VERTEX
  8
0
 10
143.137867
 20
176.236187
 42
-0.106193
  0
VERTEX
  8
0
 10
143.000000
 20
176.878002
 42
-0.100059
  0
VERTEX
  8
0
 10
143.131018
 20
177.526151
 42
-0.001911
  0
VERTEX
  8
0
 10
144.482665
 20
180.698929
 42
-0.004554
  0
VERTEX
  8
0
 10
146.113112
 20
184.392947
 42
-0.003025
  0
VERTEX
  8
0
 10
148.047371
 20
188.601447
 42
0.000000
  0
VERTEX
  8
0
 10
153.094743
 20
199.410554
 42
0.000000
  0
VERTEX
  8
0
 10
156.098808
 20
194.150633
 42
0.027986
  0
VERTEX
  8
0
 10
157.683198
 20
191.705080
 42
0.029430
  0
VERTEX
  8
0
 10
159.506364
 20
189.494616
 42
0.030274
  0
VERTEX
  8
0
 10
161.521964
 20
187.572163
 42
0.034025
  0
SEQEND
  0
POLYLINE
  8
0
 66
1
 70
1
  0
VERTEX
  8
0
 10
144.187659
 20
189.375054
 42
0.000000
  0
VERTEX
  8
0
 10
140.247636
 20
181.544455
 42
0.000000
  0
VERTEX
  8
0
 10
138.127556
 20
185.022228
 42
-0.011931
  0
VERTEX
  8
0
 10
137.316465
 20
186.427095
 42
-0.014823
  0
VERTEX
  8
0
 10
136.633071
 20
187.772154
 42
-0.013140
  0
VERTEX
  8
0
 10
136.127818
 20
188.921522
 42
-0.099701
  0
VERTEX
  8
0
 10
136.017081
 20
189.500000
 42
-0.239574
  0
VERTEX
  8
0
 10
136.581167
 20
190.583798
 42
-0.005071
  0
VERTEX
  8
0
 10
141.672585
 20
194.145918
 42
-0.004330
  0
VERTEX
  8
0
 10
146.879281
 20
197.644751
 42
-0.356106
  0
VERTEX
  8
0
 10
147.780044
 20
197.553290
 42
-0.306149
  0
VERTEX
  8
0
 10
147.838715
 20
197.250213
 42
-0.002733
  0
VERTEX
  8
0
 10
146.868181
 20
195.007533
 42
-0.008084
  0
VERTEX
  8
0
 10
145.673131
 20
192.402174
 42
-0.004987
  0
SEQEND
  0
POLYLINE
  8
0
 66
1
 70
1
  0
VERTEX
  8
0
 10
209.996553
 20
193.502652
 42
0.000000
  0
VERTEX
  8
0
 10
215.841193
 20
189.005305
 42
0.000000
  0
VERTEX
  8
0
 10
214.268907
 20
185.002652
 42
-0.016947
  0
VERTEX
  8
0
 10
213.605695
 20
183.469126
 42
-0.024951
  0
VERTEX
  8
0
 10
212.912567
 20
182.175779
 42
-0.022486
  0
VERTEX
  8
0
 10
212.268814
 20
181.207677
 42
-0.239162
  0
VERTEX
  8
0
 10
211.859471
 20
181.000000
 42
-0.274241
  0
VERTEX
  8
0
 10
211.098890
 20
181.451090
 42
-0.001709
  0
VERTEX
  8
0
 10
207.154653
 20
188.727274
 42
-0.003035
  0
VERTEX
  8
0
 10
203.415568
 20
195.783980
 42
-0.120879
  0
VERTEX
  8
0
 10
203.000000
 20
197.477803
 42
-0.442785
  0
VERTEX
  8
0
 10
203.406715
 20
197.847029
 42
-0.105419
  0
VERTEX
  8
0
 10
204.391887
 20
197.535124
 42
-0.030273
  0
VERTEX
  8
0
 10
206.314737
 20
196.283000
 42
-0.004530
  0
SEQEND
  0
POLYLINE
  8
0
 66
1
 70
1
  0
VERTEX
  8
0
 10
226.237039
 20
196.250000
 42
-0.091396
  0
VERTEX
  8
0
 10
226.288837
 20
194.706632
 42
-0.019002
  0
VERTEX
  8
0
 10
225.783181
 20
192.030288
 42
-0.018577
  0
VERTEX
  8
0
 10
225.079347
 20
189.404409
 42
-0.099362
  0
VERTEX
  8
0
 10
224.375709
 20
188.107499
 42
-0.282597
  0
VERTEX
  8
0
 10
224.155889
 20
188.033484
 42
-0.049686
  0
VERTEX
  8
0
 10
223.724222
 20
188.179094
 42
-0.041069
  0
VERTEX
  8
0
 10
223.189581
 20
188.475852
 42
-0.025984
  0
VERTEX
  8
0
 10
222.617603
 20
188.902398
 42
-0.089616
  0
VERTEX
  8
0
 10
221.941215
 20
189.706546
 42
-0.142079
  0
VERTEX
  8
0
 10
221.730230
 20
190.575117
 42
-0.075715
  0
VERTEX
  8
0
 10
221.972865
 20
191.802843
 42
-0.012827
  0
VERTEX
  8
0
 10
222.843437
 20
194.034728
 42
-0.016093
  0
VERTEX
  8
0
 10
224.094186
 20
196.763753
 42
-0.133418
  0
VERTEX
  8
0
 10
224.991763
 20
197.772395
 42
-0.425202
  0
VERTEX
  8
0
 10
225.696120
 20
197.610623
 42
-0.081460
  0
SEQEND
  0
POLYLINE
  8
0
 66
1
 70
1
  0
VERTEX
  8
0
 10
271.088382
 20
193.454296
 42
-0.066553
  0
VERTEX
  8
0
 10
274.079645
 20
191.362932
 42
-0.038410
  0
VERTEX
  8
0
 10
277.081742
 20
188.146486
 42
-0.038350
  0
VERTEX
  8
0
 10
279.566097
 20
184.495537
 42
-0.064540
  0
VERTEX
  8
0
 10
280.979696
 20
181.075403
 42
-0.158907
  0
VERTEX
  8
0
 10
280.387382
 20
169.726810
 42
-0.149503
  0
VERTEX
  8
0
 10
273.226624
 20
160.578551
 42
-0.145836
  0
VERTEX
  8
0
 10
262.016994
 20
156.860957
 42
-0.150054
  0
VERTEX
  8
0
 10
250.742435
 20
159.948389
 42
-0.120184
  0
VERTEX
  8
0
 10
244.565713
 20
166.364364
 42
-0.115219
  0
VERTEX
  8
0
 10
241.914142
 20
175.004886
 42
-0.116586
  0
VERTEX
  8
0
 10
243.375217
 20
183.844963
 42
-0.125216
  0
VERTEX
  8
0
 10
248.629275
 20
190.827707
 42
-0.072846
  0
VERTEX
  8
0
 10
253.754569
 20
193.838759
 42
-0.067430
  0
VERTEX
  8
0
 10
259.665259
 20
195.354795
 42
-0.068531
  0
VERTEX
  8
0
 10
265.674329
 20
195.232026
 42
-0.080164
  0
SEQEND
  0
POLYLINE
  8
0
 66
1
 70
1
  0
VERTEX
  8
0
 10
99.635564
 20
192.473422
 42
-0.128843
  0
VERTEX
  8
0
 10
106.280834
 20
185.815279
 42
-0.121393
  0
VERTEX
  8
0
 10
108.995942
 20
176.600969
 42
-0.122931
  0
VERTEX
  8
0
 10
107.107689
 20
167.270852
 42
-0.134167
  0
VERTEX
  8
0
 10
101.083734
 20
160.277445
 42
-0.067493
  0
VERTEX
  8
0
 10
95.292177
 20
157.420905
 42
-0.079796
  0
VERTEX
  8
0
 10
89.273674
 20
156.423827
 42
-0.081963
  0
VERTEX
  8
0
 10
83.376076
 20
157.367330
 42
-0.076327
  0
VERTEX
  8
0
 10
77.933037
 20
160.163468
 42
-0.117770
  0
VERTEX
  8
0
 10
71.341620
 20
167.841047
 42
-0.134280
  0
VERTEX
  8
0
 10
69.346318
 20
177.295050
 42
-0.135917
  0
VERTEX
  8
0
 10
72.443685
 20
186.363196
 42
-0.121938
  0
VERTEX
  8
0
 10
79.871046
 20
192.994014
 42
-0.074563
  0
VERTEX
  8
0
 10
84.411872
 20
194.586336
 42
-0.053740
  0
VERTEX
  8
0
 10
89.771526
 20
195.021651
 42
-0.053569
  0
VERTEX
  8
0
 10
95.121704
 20
194.303840
 42
-0.072548
  0
SEQEND
  0
POLYLINE
  8
0
 66
1
 70
1
  0
VERTEX
  8
0
 10
122.984687
 20
187.806704
 42
-0.165356
  0
VERTEX
  8
0
 10
122.546937
 20
186.479992
 42
-0.044448
  0
VERTEX
  8
0
 10
121.037832
 20
184.811524
 42
-0.044849
  0
VERTEX
  8
0
 10
119.235589
 20
183.421338
 42
-0.142809
  0
VERTEX
  8
0
 10
117.790491
 20
183.000000
 42
-0.477764
  0
VERTEX
  8
0
 10
117.603526
 20
183.231489
 42
-0.023444
  0
VERTEX
  8
0
 10
117.891710
 20
184.319671
 42
-0.023663
  0
VERTEX
  8
0
 10
118.425808
 20
185.768945
 42
-0.012964
  0
VERTEX
  8
0
 10
119.208617
 20
187.492497
 42
-0.029654
  0
VERTEX
  8
0
 10
120.700662
 20
190.150273
 42
-0.233337
  0
VERTEX
  8
0
 10
121.878348
 20
190.858600
 42
-0.378508
  0
VERTEX
  8
0
 10
122.722678
 20
190.229084
 42
-0.049390
  0
SEQEND
  0
POLYLINE
  8
0
 66
1
 70
1
  0
VERTEX
  8
0
 10
232.822302
 20
181.491715
 42
-0.320496
  0
VERTEX
  8
0
 10
232.587256
 20
181.453587
 42
-0.018650
  0
VERTEX
  8
0
 10
231.911337
 20
181.820031
 42
-0.022654
  0
VERTEX
  8
0
 10
231.088699
 20
182.358275
 42
-0.014142
  0
VERTEX
  8
0
 10
230.173740
 20
183.058124
 42
-0.038810
  0
VERTEX
  8
0
 10
229.099308
 20
184.076928
 42
-0.089864
  0
VERTEX
  8
0
 10
228.515604
 20
185.018087
 42
-0.104804
  0
VERTEX
  8
0
 10
228.348563
 20
186.008737
 42
-0.066481
  0
VERTEX
  8
0
 10
228.552621
 20
187.165796
 42
-0.035831
  0
VERTEX
  8
0
 10
229.026245
 20
188.355178
 42
-0.438885
  0
VERTEX
  8
0
 10
229.444464
 20
188.481374
 42
-0.135622
  0
VERTEX
  8
0
 10
229.964268
 20
187.942203
 42
-0.005874
  0
VERTEX
  8
0
 10
231.201184
 20
185.599386
 42
-0.009514
  0
VERTEX
  8
0
 10
231.922828
 20
184.124306
 42
-0.015019
  0
VERTEX
  8
0
 10
232.479048
 20
182.830160
 42
-0.008992
  0
VERTEX
  8
0
 10
232.882014
 20
181.752755
 42
-0.290154
  0
SEQEND
  0
POLYLINE
  8
0
 66
1
 70
1
  0
VERTEX
  8
0
 10
136.416493
 20
180.185185
 42
-0.019218
  0
VERTEX
  8
0
 10
137.434664
 20
177.674018
 42
-0.101332
  0
VERTEX
  8
0
 10
137.648065
 20
176.210530
 42
-0.090310
  0
VERTEX
  8
0
 10
137.283543
 20
174.703407
 42
-0.013613
  0
VERTEX
  8
0
 10
135.941491
 20
171.886875
 42
0.000000
  0
VERTEX
  8
0
 10
133.702677
 20
167.500000
 42
0.000000
  0
VERTEX
  8
0
 10
132.320505
 20
171.490264
 42
-0.027354
  0
VERTEX
  8
0
 10
131.676279
 20
173.741155
 42
-0.051030
  0
VERTEX
  8
0
 10
131.445558
 20
175.621487
 42
-0.047363
  0
VERTEX
  8
0
 10
131.593353
 20
177.600725
 42
-0.020428
  0
VERTEX
  8
0
 10
132.145423
 20
180.190349
 42
-0.014128
  0
VERTEX
  8
0
 10
132.654957
 20
181.968024
 42
-0.024911
  0
VERTEX
  8
0
 10
133.188893
 20
183.398638
 42
-0.023980
  0
VERTEX
  8
0
 10
133.686191
 20
184.415189
 42
-0.429128
  0
VERTEX
  8
0
 10
134.002597
 20
184.498395
 42
-0.117755
  0
VERTEX
  8
0
 10
134.340327
 20
184.158900
 42
-0.009535
  0
VERTEX
  8
0
 10
134.979839
 20
183.065658
 42
-0.012424
  0
VERTEX
  8
0
 10
135.693512
 20
181.712633
 42
-0.009225
  0
SEQEND
  0
POLYLINE
  8
0
 66
1
 70
1
  0
VERTEX
  8
0
 10
220.526900
 20
173.500000
 42
-0.015739
  0
VERTEX
  8
0
 10
219.748974
 20
169.144885
 42
-0.217999
  0
VERTEX
  8
0
 10
218.820508
 20
167.891373
 42
-0.386464
  0
VERTEX
  8
0
 10
217.685170
 20
168.161483
 42
-0.031990
  0
VERTEX
  8
0
 10
215.998648
 20
171.002650
 42
0.000000
  0
VERTEX
  8
0
 10
213.802307
 20
175.307834
 42
0.000000
  0
VERTEX
  8
0
 10
216.109456
 20
180.233693
 42
0.000000
  0
VERTEX
  8
0
 10
218.416605
 20
185.159552
 42
0.000000
  0
VERTEX
  8
0
 10
219.764383
 20
181.329776
 42
-0.035163
  0
VERTEX
  8
0
 10
220.260419
 20
179.524047
 42
-0.025183
  0
VERTEX
  8
0
 10
220.568133
 20
177.452093
 42
-0.025198
  0
VERTEX
  8
0
 10
220.665821
 20
175.361602
 42
-0.035414
  0
SEQEND
  0
POLYLINE
  8
0
 66
1
 70
1
  0
VERTEX
  8
0
 10
126.123958
 20
178.628896
 42
-0.049466
  0
VERTEX
  8
0
 10
126.330968
 20
177.366006
 42
-0.028782
  0
VERTEX
  8
0
 10
126.340302
 20
175.828804
 42
-0.028544
  0
VERTEX
  8
0
 10
126.170676
 20
174.272287
 42
-0.042477
  0
VERTEX
  8
0
 10
125.831131
 20
172.945427
 42
0.000000
  0
VERTEX
  8
0
 10
124.805306
 20
170.002742
 42
0.000000
  0
VERTEX
  8
0
 10
120.652653
 20
172.479086
 42
-0.016602
  0
VERTEX
  8
0
 10
119.061982
 20
173.500714
 42
-0.023324
  0
VERTEX
  8
0
 10
117.719842
 20
174.522620
 42
-0.020879
  0
VERTEX
  8
0
 10
116.717716
 20
175.436089
 42
-0.200081
  0
VERTEX
  8
0
 10
116.500000
 20
175.958378
 42
-0.224388
  0
VERTEX
  8
0
 10
117.066309
 20
177.156741
 42
-0.016928
  0
VERTEX
  8
0
 10
119.995371
 20
179.402051
 42
-0.017389
  0
VERTEX
  8
0
 10
123.068355
 20
181.439132
 42
-0.208428
  0
VERTEX
  8
0
 10
124.445480
 20
181.632700
 42
-0.162028
  0
VERTEX
  8
0
 10
124.858030
 20
181.354924
 42
-0.036861
  0
VERTEX
  8
0
 10
125.328543
 20
180.641837
 42
-0.034456
  0
VERTEX
  8
0
 10
125.773933
 20
179.697431
 42
-0.027624
  0
SEQEND
  0
POLYLINE
  8
0
 66
1
 70
1
  0
VERTEX
  8
0
 10
230.681287
 20
177.750000
 42
-0.009724
  0
VERTEX
  8
0
 10
231.947358
 20
176.851567
 42
-0.014554
  0
VERTEX
  8
0
 10
233.013847
 20
176.014062
 42
-0.009421
  0
VERTEX
  8
0
 10
233.855620
 20
175.285171
 42
-0.215599
  0
VERTEX
  8
0
 10
233.980788
 20
175.000000
 42
-0.216302
  0
VERTEX
  8
0
 10
233.848723
 20
174.717376
 42
-0.009235
  0
VERTEX
  8
0
 10
232.978322
 20
174.000241
 42
-0.014399
  0
VERTEX
  8
0
 10
231.878936
 20
173.178470
 42
-0.009606
  0
VERTEX
  8
0
 10
230.575925
 20
172.298692
 42
-0.041978
  0
VERTEX
  8
0
 10
228.108896
 20
170.980397
 42
-0.298197
  0
VERTEX
  8
0
 10
226.836756
 20
171.202374
 42
-0.188326
  0
VERTEX
  8
0
 10
226.145343
 20
172.647892
 42
-0.018467
  0
VERTEX
  8
0
 10
226.000000
 20
176.581787
 42
-0.024909
  0
VERTEX
  8
0
 10
226.125849
 20
179.106340
 42
-0.316644
  0
VERTEX
  8
0
 10
226.714005
 20
179.786577
 42
-0.201713
  0
VERTEX
  8
0
 10
227.794519
 20
179.619369
 42
-0.011524
  0
SEQEND
  0
POLYLINE
  8
0
 66
1
 70
1
  0
VERTEX
  8
0
 10
146.489268
 20
161.021178
 42
-0.009475
  0
VERTEX
  8
0
 10
147.419916
 20
159.094961
 42
-0.016982
  0
VERTEX
  8
0
 10
148.099432
 20
157.474971
 42
-0.012598
  0
VERTEX
  8
0
 10
148.546148
 20
156.204093
 42
-0.509103
  0
VERTEX
  8
0
 10
148.397657
 20
156.000000
 42
-0.136012
  0
VERTEX
  8
0
 10
147.260315
 20
156.315216
 42
-0.002481
  0
VERTEX
  8
0
 10
141.856871
 20
159.596157
 42
-0.001570
  0
VERTEX
  8
0
 10
136.333699
 20
163.011347
 42
-0.259037
  0
VERTEX
  8
0
 10
136.000000
 20
163.612242
 42
-0.104389
  0
VERTEX
  8
0
 10
136.067229
 20
163.930743
 42
-0.003316
  0
VERTEX
  8
0
 10
136.612307
 20
165.142589
 42
-0.006296
  0
VERTEX
  8
0
 10
137.285770
 20
166.566070
 42
-0.004312
  0
VERTEX
  8
0
 10
138.084451
 20
168.165537
 42
0.000000
  0
VERTEX
  8
0
 10
140.168901
 20
172.251398
 42
0.000000
  0
VERTEX
  8
0
 10
142.056873
 20
169.146877
 42
-0.008372
  0
VERTEX
  8
0
 10
142.957927
 20
167.607744
 42
-0.003382
  0
VERTEX
  8
0
 10
144.137677
 20
165.479338
 42
-0.003345
  0
VERTEX
  8
0
 10
145.376874
 20
163.170973
 42
-0.004240
  0
SEQEND
  0
POLYLINE
  8
0
 66
1
 70
1
  0
VERTEX
  8
0
 10
123.406482
 20
166.149339
 42
-0.174441
  0
VERTEX
  8
0
 10
123.494267
 20
165.730930
 42
-0.022097
  0
VERTEX
  8
0
 10
123.323941
 20
164.809493
 42
-0.023777
  0
VERTEX
  8
0
 10
123.010449
 20
163.696354
 42
-0.017680
  0
VERTEX
  8
0
 10
122.563657
 20
162.500000
 42
0.000000
  0
VERTEX
  8
0
 10
121.320740
 20
159.500000
 42
0.000000
  0
VERTEX
  8
0
 10
118.660370
 20
164.716756
 42
-0.003613
  0
VERTEX
  8
0
 10
117.640912
 20
166.752029
 42
-0.005387
  0
VERTEX
  8
0
 10
116.781484
 20
168.547824
 42
-0.002471
  0
VERTEX
  8
0
 10
116.075149
 20
170.085323
 42
-0.106830
  0
VERTEX
  8
0
 10
116.000000
 20
170.433031
 42
-0.570505
  0
VERTEX
  8
0
 10
116.345849
 20
170.637484
 42
-0.005340
  0
VERTEX
  8
0
 10
119.488328
 20
168.864482
 42
-0.008325
  0
VERTEX
  8
0
 10
122.514170
 20
167.046529
 42
-0.115743
  0
SEQEND
  0
POLYLINE
  8
0
 66
1
 70
1
  0
VERTEX
  8
0
 10
214.357648
 20
166.376194
 42
-0.008062
  0
VERTEX
  8
0
 10
214.999074
 20
164.973332
 42
-0.013159
  0
VERTEX
  8
0
 10
215.492072
 20
163.761624
 42
-0.006788
  0
VERTEX
  8
0
 10
215.857271
 20
162.750229
 42
-0.346100
  0
VERTEX
  8
0
 10
215.792860
 20
162.564280
 42
0.012193
  0
VERTEX
  8
0
 10
215.573391
 20
162.415631
 42
0.000129
  0
VERTEX
  8
0
 10
214.077922
 20
161.348053
 42
0.000411
  0
VERTEX
  8
0
 10
212.354881
 20
160.115207
 42
0.000267
  0
VERTEX
  8
0
 10
210.366023
 20
158.688086
 42
-0.005230
  0
VERTEX
  8
0
 10
208.354659
 20
157.274843
 42
-0.007768
  0
VERTEX
  8
0
 10
206.561600
 20
156.083375
 42
-0.003956
  0
VERTEX
  8
0
 10
205.027084
 20
155.114788
 42
-0.139681
  0
VERTEX
  8
0
 10
204.624209
 20
155.000000
 42
-0.527899
  0
VERTEX
  8
0
 10
204.482729
 20
155.207084
 42
-0.005062
  0
VERTEX
  8
0
 10
205.285060
 20
157.203125
 42
-0.010681
  0
VERTEX
  8
0
 10
206.347545
 20
159.623284
 42
-0.006112
  0
VERTEX
  8
0
 10
207.727472
 20
162.500000
 42
-0.005968
  0
VERTEX
  8
0
 10
209.193010
 20
165.374950
 42
-0.009470
  0
VERTEX
  8
0
 10
210.523364
 20
167.796875
 42
-0.003927
  0
VERTEX
  8
0
 10
211.700749
 20
169.810511
 42
-0.264374
  0
VERTEX
  8
0
 10
212.034073
 20
170.000000
 42
-0.240579
  0
VERTEX
  8
0
 10
212.344865
 20
169.841273
 42
-0.014067
  0
VERTEX
  8
0
 10
212.962268
 20
168.935507
 42
-0.018787
  0
VERTEX
  8
0
 10
213.652292
 20
167.764794
 42
-0.012514
  0
SEQEND
  0
POLYLINE
  8
0
 66
1
 70
1
  0
VERTEX
  8
0
 10
231.890852
 20
164.846905
 42
-0.004352
  0
VERTEX
  8
0
 10
230.403834
 20
162.032650
 42
-0.129513
  0
VERTEX
  8
0
 10
229.858103
 20
161.449654
 42
-0.465853
  0
VERTEX
  8
0
 10
229.432703
 20
161.586441
 42
-0.029451
  0
VERTEX
  8
0
 10
228.950282
 20
163.000000
 42
-0.058609
  0
VERTEX
  8
0
 10
228.743242
 20
164.343366
 42
-0.104811
  0
VERTEX
  8
0
 10
228.934766
 20
165.439203
 42
-0.088165
  0
VERTEX
  8
0
 10
229.588303
 20
166.486815
 42
-0.032545
  0
VERTEX
  8
0
 10
230.840111
 20
167.705746
 42
-0.013988
  0
VERTEX
  8
0
 10
231.855662
 20
168.525389
 42
-0.022571
  0
VERTEX
  8
0
 10
232.768867
 20
169.158145
 42
-0.018539
  0
VERTEX
  8
0
 10
233.519908
 20
169.591895
 42
-0.329187
  0
VERTEX
  8
0
 10
233.780682
 20
169.552652
 42
-0.291090
  0
VERTEX
  8
0
 10
233.845927
 20
169.259329
 42
-0.008559
  0
VERTEX
  8
0
 10
233.373566
 20
168.022317
 42
-0.014627
  0
VERTEX
  8
0
 10
232.726875
 20
166.539024
 42
-0.009252
  0
SEQEND
  0
POLYLINE
  8
0
 66
1
 70
1
  0
VERTEX
  8
0
 10
185.541370
 20
166.120336
 42
-0.079080
  0
VERTEX
  8
0
 10
190.651408
 20
162.741614
 42
-0.080813
  0
VERTEX
  8
0
 10
194.415608
 20
157.965733
 42
-0.080997
  0
VERTEX
  8
0
 10
196.465842
 20
152.252941
 42
-0.079955
  0
VERTEX
  8
0
 10
196.608210
 20
146.158232
 42
-0.058383
  0
VERTEX
  8
0
 10
195.399691
 20
141.480939
 42
-0.069400
  0
VERTEX
  8
0
 10
193.183020
 20
137.499972
 42
-0.067192
  0
VERTEX
  8
0
 10
189.894719
 20
134.181444
 42
-0.050236
  0
VERTEX
  8
0
 10
185.514890
 20
131.463483
 42
-0.057532
  0
VERTEX
  8
0
 10
180.281833
 20
129.611900
 42
-0.072763
  0
VERTEX
  8
0
 10
175.171758
 20
129.202881
 42
-0.074174
  0
VERTEX
  8
0
 10
170.235853
 20
130.272876
 42
-0.062850
  0
VERTEX
  8
0
 10
165.514911
 20
132.773324
 42
-0.051736
  0
VERTEX
  8
0
 10
161.544752
 20
136.227421
 42
-0.074564
  0
VERTEX
  8
0
 10
158.910185
 20
140.057235
 42
-0.074768
  0
VERTEX
  8
0
 10
157.519435
 20
144.483205
 42
-0.052337
  0
VERTEX
  8
0
 10
157.254489
 20
149.712809
 42
-0.018164
  0
VERTEX
  8
0
 10
157.562855
 20
153.119108
 42
-0.050002
  0
VERTEX
  8
0
 10
158.103880
 20
155.466467
 42
-0.057396
  0
VERTEX
  8
0
 10
159.050621
 20
157.471671
 42
-0.030564
  0
VERTEX
  8
0
 10
160.640089
 20
159.712809
 42
-0.074564
  0
VERTEX
  8
0
 10
165.929971
 20
164.581351
 42
-0.086021
  0
VERTEX
  8
0
 10
172.172524
 20
167.395148
 42
-0.087903
  0
VERTEX
  8
0
 10
178.885254
 20
167.909659
 42
-0.082062
  0
SEQEND
  0
POLYLINE
  8
0
 66
1
 70
1
  0
VERTEX
  8
0
 10
128.403928
 20
156.810410
 42
-0.027148
  0
VERTEX
  8
0
 10
126.289722
 20
153.146019
 42
-0.432324
  0
VERTEX
  8
0
 10
125.022109
 20
152.919157
 42
-0.292272
  0
VERTEX
  8
0
 10
124.443425
 20
154.442365
 42
-0.022267
  0
VERTEX
  8
0
 10
125.583887
 20
158.905771
 42
0.001409
  0
VERTEX
  8
0
 10
126.119110
 20
160.687175
 42
0.002159
  0
VERTEX
  8
0
 10
126.571907
 20
162.234218
 42
0.000726
  0
VERTEX
  8
0
 10
126.955493
 20
163.573406
 42
0.059965
  0
VERTEX
  8
0
 10
126.989176
 20
163.785184
 42
-0.496106
  0
VERTEX
  8
0
 10
127.082010
 20
163.850317
 42
-0.015745
  0
VERTEX
  8
0
 10
127.584093
 20
163.672296
 42
-0.019155
  0
VERTEX
  8
0
 10
128.231500
 20
163.390505
 42
-0.010641
  0
VERTEX
  8
0
 10
128.999227
 20
163.000414
 42
-0.067202
  0
VERTEX
  8
0
 10
130.099544
 20
162.205551
 42
-0.230684
  0
VERTEX
  8
0
 10
130.399590
 20
161.402471
 42
-0.087791
  0
VERTEX
  8
0
 10
130.055627
 20
160.164504
 42
-0.005720
  0
SEQEND
  0
POLYLINE
  8
0
 66
1
 70
1
  0
VERTEX
  8
0
 10
226.095654
 20
159.075070
 42
-0.026515
  0
VERTEX
  8
0
 10
226.492825
 20
157.438481
 42
-0.026414
  0
VERTEX
  8
0
 10
226.715173
 20
155.766974
 42
-0.027376
  0
VERTEX
  8
0
 10
226.751626
 20
154.290904
 42
-0.086436
  0
VERTEX
  8
0
 10
226.553336
 20
153.325070
 42
-0.138958
  0
VERTEX
  8
0
 10
226.068479
 20
152.688702
 42
-0.355148
  0
VERTEX
  8
0
 10
225.528207
 20
152.709750
 42
-0.084574
  0
VERTEX
  8
0
 10
224.801388
 20
153.607436
 42
-0.008842
  0
VERTEX
  8
0
 10
223.512368
 20
156.000000
 42
-0.016808
  0
VERTEX
  8
0
 10
222.491316
 20
158.152755
 42
-0.046966
  0
VERTEX
  8
0
 10
221.973545
 20
159.739586
 42
-0.072970
  0
VERTEX
  8
0
 10
221.884303
 20
160.913795
 42
-0.155803
  0
VERTEX
  8
0
 10
222.217273
 20
161.750000
 42
-0.084446
  0
VERTEX
  8
0
 10
223.386000
 20
162.763195
 42
-0.295563
  0
VERTEX
  8
0
 10
224.336309
 20
162.735611
 42
-0.147429
  0
VERTEX
  8
0
 10
225.188915
 20
161.668815
 42
-0.022609
  0
SEQEND
  0
POLYLINE
  8
0
 66
1
 70
1
  0
VERTEX
  8
0
 10
146.248212
 20
152.445931
 42
-0.009953
  0
VERTEX
  8
0
 10
148.067855
 20
151.266173
 42
-0.014949
  0
VERTEX
  8
0
 10
149.602162
 20
150.159167
 42
-0.009752
  0
VERTEX
  8
0
 10
150.813450
 20
149.190791
 42
-0.222133
  0
VERTEX
  8
0
 10
150.998212
 20
148.798041
 42
-0.239522
  0
VERTEX
  8
0
 10
150.563442
 20
147.937109
 42
-0.004734
  0
VERTEX
  8
0
 10
146.446512
 20
144.976168
 42
-0.003987
  0
VERTEX
  8
0
 10
142.238075
 20
142.059415
 42
-0.387129
  0
VERTEX
  8
0
 10
141.572721
 20
142.153609
 42
-0.095272
  0
VERTEX
  8
0
 10
140.931212
 20
143.323796
 42
-0.002265
  0
VERTEX
  8
0
 10
139.040737
 20
149.287639
 42
-0.002787
  0
VERTEX
  8
0
 10
137.239673
 20
155.175260
 42
-0.072952
  0
VERTEX
  8
0
 10
137.000000
 20
156.809182
 42
-0.069556
  0
VERTEX
  8
0
 10
137.097134
 20
157.504045
 42
-0.334788
  0
VERTEX
  8
0
 10
137.396203
 20
157.729939
 42
-0.130012
  0
VERTEX
  8
0
 10
137.966222
 20
157.579649
 42
-0.011582
  0
VERTEX
  8
0
 10
139.250000
 20
156.810941
 42
0.000965
  0
VERTEX
  8
0
 10
140.427899
 20
156.071212
 42
0.000285
  0
VERTEX
  8
0
 10
142.233850
 20
154.943349
 42
0.000287
  0
VERTEX
  8
0
 10
144.265314
 20
153.677876
 42
0.000309
  0
SEQEND
  0
POLYLINE
  8
0
 66
1
 70
1
  0
VERTEX
  8
0
 10
214.123652
 20
149.959718
 42
-0.003113
  0
VERTEX
  8
0
 10
213.315511
 20
147.170410
 42
-0.004752
  0
VERTEX
  8
0
 10
212.576318
 20
144.761495
 42
-0.001818
  0
VERTEX
  8
0
 10
211.915539
 20
142.704869
 42
-0.118269
  0
VERTEX
  8
0
 10
211.721207
 20
142.387874
 42
-0.334686
  0
VERTEX
  8
0
 10
211.434872
 20
142.347680
 42
-0.008301
  0
VERTEX
  8
0
 10
210.218485
 20
143.049110
 42
-0.014600
  0
VERTEX
  8
0
 10
208.767584
 20
143.976787
 42
-0.009006
  0
VERTEX
  8
0
 10
207.114126
 20
145.147459
 42
-0.020271
  0
VERTEX
  8
0
 10
205.545270
 20
146.402265
 42
-0.034431
  0
VERTEX
  8
0
 10
204.355675
 20
147.588546
 42
-0.039832
  0
VERTEX
  8
0
 10
203.625816
 20
148.572233
 42
-0.351144
  0
VERTEX
  8
0
 10
203.684604
 20
149.073810
 42
-0.038090
  0
VERTEX
  8
0
 10
205.728594
 20
150.804519
 42
-0.005205
  0
VERTEX
  8
0
 10
210.296919
 20
154.038655
 42
-0.001231
  0
VERTEX
  8
0
 10
215.355695
 20
157.523129
 42
-0.353999
  0
VERTEX
  8
0
 10
215.831967
 20
157.485061
 42
-0.261245
  0
VERTEX
  8
0
 10
215.920677
 20
157.197780
 42
-0.002915
  0
VERTEX
  8
0
 10
215.467086
 20
155.144281
 42
-0.008076
  0
VERTEX
  8
0
 10
214.881830
 20
152.746250
 42
-0.005063
  0
SEQEND
  0
POLYLINE
  8
0
 66
1
 70
1
  0
VERTEX
  8
0
 10
135.599155
 20
147.456369
 42
-0.003989
  0
VERTEX
  8
0
 10
137.262386
 20
141.968097
 42
-0.052036
  0
VERTEX
  8
0
 10
137.648108
 20
139.875704
 42
-0.150200
  0
VERTEX
  8
0
 10
137.364979
 20
138.608696
 42
-0.101524
  0
VERTEX
  8
0
 10
136.381461
 20
137.488172
 42
-0.011775
  0
VERTEX
  8
0
 10
135.621370
 20
136.940335
 42
-0.014950
  0
VERTEX
  8
0
 10
134.893560
 20
136.472731
 42
-0.012963
  0
VERTEX
  8
0
 10
134.269212
 20
136.119181
 42
-0.108088
  0
VERTEX
  8
0
 10
133.958318
 20
136.031803
 42
-0.274128
  0
VERTEX
  8
0
 10
133.659683
 20
136.185936
 42
-0.006102
  0
VERTEX
  8
0
 10
132.783693
 20
137.624326
 42
-0.012064
  0
VERTEX
  8
0
 10
131.792917
 20
139.392748
 42
-0.007646
  0
VERTEX
  8
0
 10
130.720254
 20
141.497817
 42
0.000000
  0
VERTEX
  8
0
 10
128.023872
 20
146.995633
 42
0.000000
  0
VERTEX
  8
0
 10
130.211202
 20
151.497817
 42
-0.004515
  0
VERTEX
  8
0
 10
131.069085
 20
153.223771
 42
-0.007259
  0
VERTEX
  8
0
 10
131.834854
 20
154.677484
 42
-0.002329
  0
VERTEX
  8
0
 10
132.515029
 20
155.910764
 42
-0.271955
  0
VERTEX
  8
0
 10
132.666959
 20
156.000000
 42
-0.319477
  0
VERTEX
  8
0
 10
132.807622
 20
155.899907
 42
-0.000819
  0
VERTEX
  8
0
 10
133.639018
 20
153.490308
 42
-0.004411
  0
VERTEX
  8
0
 10
134.558513
 20
150.732127
 42
-0.002682
  0
SEQEND
  0
POLYLINE
  8
0
 66
1
 70
1
  0
VERTEX
  8
0
 10
221.474320
 20
152.049660
 42
-0.047373
  0
VERTEX
  8
0
 10
222.595884
 20
149.262473
 42
-0.083511
  0
VERTEX
  8
0
 10
222.895281
 20
146.805579
 42
-0.074924
  0
VERTEX
  8
0
 10
222.382236
 20
144.207213
 42
-0.031819
  0
VERTEX
  8
0
 10
220.969935
 20
140.941068
 42
-0.013968
  0
VERTEX
  8
0
 10
219.743112
 20
138.693660
 42
-0.107328
  0
VERTEX
  8
0
 10
218.936946
 20
137.813323
 42
-0.205523
  0
VERTEX
  8
0
 10
218.084291
 20
137.631486
 42
-0.074162
  0
VERTEX
  8
0
 10
216.892376
 20
138.057599
 42
-0.056041
  0
VERTEX
  8
0
 10
216.074059
 20
138.621488
 42
-0.090317
  0
VERTEX
  8
0
 10
215.546348
 20
139.280339
 42
-0.107253
  0
VERTEX
  8
0
 10
215.339323
 20
139.996272
 42
-0.108980
  0
VERTEX
  8
0
 10
215.449569
 20
140.729175
 42
0.021003
  0
VERTEX
  8
0
 10
215.772003
 20
141.687978
 42
0.002917
  0
VERTEX
  8
0
 10
216.344998
 20
143.706660
 42
0.003336
  0
VERTEX
  8
0
 10
216.993915
 20
146.106686
 42
0.002823
  0
VERTEX
  8
0
 10
217.648702
 20
148.652483
 42
-0.004896
  0
VERTEX
  8
0
 10
218.285399
 20
151.086080
 42
-0.007992
  0
VERTEX
  8
0
 10
218.878398
 20
153.135417
 42
-0.002619
  0
VERTEX
  8
0
 10
219.421164
 20
154.872245
 42
-0.326588
  0
VERTEX
  8
0
 10
219.595893
 20
155.000000
 42
-0.247957
  0
VERTEX
  8
0
 10
219.789313
 20
154.897797
 42
-0.007905
  0
VERTEX
  8
0
 10
220.293189
 20
154.133338
 42
-0.013607
  0
VERTEX
  8
0
 10
220.864075
 20
153.180401
 42
-0.008820
  0
SEQEND
  0
POLYLINE
  8
0
 66
1
 70
1
  0
VERTEX
  8
0
 10
123.000000
 20
146.191130
 42
-0.062471
  0
VERTEX
  8
0
 10
122.895616
 20
145.358927
 42
-0.030889
  0
VERTEX
  8
0
 10
122.568842
 20
144.343408
 42
-0.030077
  0
VERTEX
  8
0
 10
122.094126
 20
143.317028
 42
-0.038537
  0
VERTEX
  8
0
 10
121.532227
 20
142.441130
 42
-0.009727
  0
VERTEX
  8
0
 10
120.649817
 20
141.320153
 42
-0.593887
  0
VERTEX
  8
0
 10
120.449071
 20
141.358211
 42
-0.143613
  0
VERTEX
  8
0
 10
120.437476
 20
141.798318
 42
-0.002829
  0
VERTEX
  8
0
 10
121.032227
 20
143.993398
 42
0.001763
  0
VERTEX
  8
0
 10
121.403103
 20
145.350742
 42
0.002660
  0
VERTEX
  8
0
 10
121.715717
 20
146.535987
 42
0.001038
  0
VERTEX
  8
0
 10
121.976516
 20
147.555296
 42
0.062182
  0
VERTEX
  8
0
 10
122.000000
 20
147.743398
 42
-0.187018
  0
VERTEX
  8
0
 10
122.037973
 20
147.841368
 42
-0.089516
  0
VERTEX
  8
0
 10
122.146875
 20
147.924623
 42
-0.069342
  0
VERTEX
  8
0
 10
122.308661
 20
147.981070
 42
-0.049347
  0
VERTEX
  8
0
 10
122.500000
 20
148.000000
 42
-0.282334
  0
VERTEX
  8
0
 10
122.693016
 20
147.881569
 42
-0.050149
  0
VERTEX
  8
0
 10
122.853125
 20
147.468644
 42
-0.041319
  0
VERTEX
  8
0
 10
122.963750
 20
146.884273
 42
-0.026131
  0
SEQEND
  0
POLYLINE
  8
0
 66
1
 70
1
  0
VERTEX
  8
0
 10
230.000000
 20
146.581787
 42
0.029597
  0
VERTEX
  8
0
 10
230.039886
 20
145.908569
 42
0.013747
  0
VERTEX
  8
0
 10
230.167164
 20
145.042087
 42
0.013564
  0
VERTEX
  8
0
 10
230.351110
 20
144.136835
 42
0.018406
  0
VERTEX
  8
0
 10
230.569070
 20
143.331787
 42
-0.061946
  0
VERTEX
  8
0
 10
230.655833
 20
142.848063
 42
-0.623609
  0
VERTEX
  8
0
 10
230.520470
 20
142.772463
 42
-0.091704
  0
VERTEX
  8
0
 10
230.172844
 20
143.122425
 42
-0.012226
  0
VERTEX
  8
0
 10
229.604505
 20
144.000000
 42
-0.015875
  0
VERTEX
  8
0
 10
228.493546
 20
145.947069
 42
-0.084391
  0
VERTEX
  8
0
 10
228.111197
 20
147.107154
 42
-0.245163
  0
VERTEX
  8
0
 10
228.325448
 20
147.730926
 42
-0.192087
  0
VERTEX
  8
0
 10
229.000000
 20
148.000000
 42
-0.140509
  0
VERTEX
  8
0
 10
229.381338
 20
147.890679
 42
-0.099897
  0
VERTEX
  8
0
 10
229.706250
 20
147.583400
 42
-0.085072
  0
VERTEX
  8
0
 10
229.925082
 20
147.123848
 42
-0.068778
  0
SEQEND
  0
POLYLINE
  8
0
 66
1
 70
1
  0
VERTEX
  8
0
 10
154.000000
 20
142.136764
 42
0.127622
  0
VERTEX
  8
0
 10
154.818040
 20
138.984037
 42
0.044017
  0
VERTEX
  8
0
 10
157.480848
 20
135.055865
 42
0.042642
  0
VERTEX
  8
0
 10
161.119911
 20
131.294948
 42
0.054649
  0
VERTEX
  8
0
 10
165.072644
 20
128.547342
 42
0.109401
  0
VERTEX
  8
0
 10
175.549141
 20
125.531202
 42
0.112730
  0
VERTEX
  8
0
 10
186.196683
 20
127.272788
 42
0.114844
  0
VERTEX
  8
0
 10
194.886981
 20
133.415796
 42
0.116892
  0
VERTEX
  8
0
 10
199.902505
 20
142.727845
 42
-0.058894
  0
VERTEX
  8
0
 10
200.402488
 20
143.983363
 42
-0.325552
  0
VERTEX
  8
0
 10
201.021074
 20
144.278144
 42
-0.099791
  0
VERTEX
  8
0
 10
202.055743
 20
143.860462
 42
-0.004614
  0
VERTEX
  8
0
 10
205.218647
 20
141.734319
 42
-0.022983
  0
VERTEX
  8
0
 10
207.026937
 20
140.368142
 42
-0.029011
  0
VERTEX
  8
0
 10
208.559403
 20
138.937693
 42
-0.029539
  0
VERTEX
  8
0
 10
209.667366
 20
137.629587
 42
-0.157586
  0
VERTEX
  8
0
 10
209.967754
 20
136.755701
 42
-0.071464
  0
VERTEX
  8
0
 10
209.628244
 20
134.036238
 42
-0.000940
  0
VERTEX
  8
0
 10
205.084810
 20
117.540560
 42
-0.000556
  0
VERTEX
  8
0
 10
200.367921
 20
100.613065
 42
-0.128838
  0
VERTEX
  8
0
 10
199.553300
 20
99.219966
 42
-0.228702
  0
VERTEX
  8
0
 10
199.345426
 20
99.147431
 42
-0.234604
  0
VERTEX
  8
0
 10
199.162532
 20
99.265907
 42
-0.098547
  0
VERTEX
  8
0
 10
199.038023
 20
99.619408
 42
-0.035562
  0
VERTEX
  8
0
 10
199.000000
 20
100.153335
 42
0.165683
  0
VERTEX
  8
0
 10
198.221590
 20
102.437947
 42
0.024237
  0
VERTEX
  8
0
 10
195.001018
 20
106.221218
 42
0.028337
  0
VERTEX
  8
0
 10
191.157398
 20
109.877646
 42
0.054621
  0
VERTEX
  8
0
 10
187.642554
 20
112.254792
 42
0.073923
  0
VERTEX
  8
0
 10
182.343660
 20
114.116956
 42
0.054091
  0
VERTEX
  8
0
 10
176.120687
 20
114.630209
 42
0.053975
  0
VERTEX
  8
0
 10
169.916473
 20
113.796160
 42
0.072607
  0
VERTEX
  8
0
 10
164.672404
 20
111.662372
 42
0.032183
  0
VERTEX
  8
0
 10
162.523845
 20
110.205864
 42
0.025425
  0
VERTEX
  8
0
 10
160.395333
 20
108.372935
 42
0.025650
  0
VERTEX
  8
0
 10
158.488407
 20
106.357528
 42
0.035336
  0
VERTEX
  8
0
 10
157.008727
 20
104.352709
 42
-0.009280
  0
VERTEX
  8
0
 10
155.493882
 20
102.059291
 42
-0.075063
  0
VERTEX
  8
0
 10
154.634843
 20
101.141121
 42
-0.320838
  0
VERTEX
  8
0
 10
154.070850
 20
101.114093
 42
-0.179778
  0
VERTEX
  8
0
 10
153.640017
 20
101.690338
 42
0.002406
  0
VERTEX
  8
0
 10
153.256798
 20
102.969603
 42
0.000085
  0
VERTEX
  8
0
 10
151.750376
 20
107.908734
 42
0.000157
  0
VERTEX
  8
0
 10
149.967805
 20
113.743166
 42
0.000110
  0
VERTEX
  8
0
 10
147.955146
 20
120.318120
 42
-0.002314
  0
VERTEX
  8
0
 10
146.004859
 20
126.791121
 42
-0.003783
  0
VERTEX
  8
0
 10
144.418763
 20
132.297580
 42
-0.000650
  0
VERTEX
  8
0
 10
143.065360
 20
137.157815
 42
-0.271175
  0
VERTEX
  8
0
 10
143.151453
 20
137.482324
 42
-0.034317
  0
VERTEX
  8
0
 10
145.398219
 20
139.426202
 42
-0.012229
  0
VERTEX
  8
0
 10
148.853025
 20
141.893577
 42
-0.004748
  0
VERTEX
  8
0
 10
152.495772
 20
144.312765
 42
-0.285717
  0
VERTEX
  8
0
 10
153.250000
 20
144.327950
 42
-0.129525
  0
VERTEX
  8
0
 10
153.538201
 20
144.034695
 42
-0.047363
  0
VERTEX
  8
0
 10
153.779687
 20
143.500321
 42
-0.043008
  0
VERTEX
  8
0
 10
153.944579
 20
142.837482
 42
-0.039484
  0
SEQEND
  0
POLYLINE
  8
0
 66
1
 70
1
  0
VERTEX
  8
0
 10
129.078148
 20
136.811333
 42
-0.034020
  0
VERTEX
  8
0
 10
129.739178
 20
134.847468
 42
-0.160581
  0
VERTEX
  8
0
 10
129.666770
 20
133.676795
 42
-0.111060
  0
VERTEX
  8
0
 10
128.893224
 20
132.549568
 42
-0.012440
  0
VERTEX
  8
0
 10
126.547011
 20
130.478150
 42
-0.009304
  0
VERTEX
  8
0
 10
124.872105
 20
129.124305
 42
-0.007211
  0
VERTEX
  8
0
 10
123.000560
 20
127.711097
 42
-0.007299
  0
VERTEX
  8
0
 10
121.215445
 20
126.442767
 42
-0.017397
  0
VERTEX
  8
0
 10
119.844501
 20
125.567216
 42
0.000000
  0
VERTEX
  8
0
 10
116.966449
 20
123.867109
 42
0.000000
  0
VERTEX
  8
0
 10
119.348499
 20
129.183554
 42
-0.005033
  0
VERTEX
  8
0
 10
123.683612
 20
138.603742
 42
-0.116660
  0
VERTEX
  8
0
 10
125.513473
 20
140.896264
 42
-0.442731
  0
VERTEX
  8
0
 10
127.088160
 20
140.628075
 42
-0.043983
  0
SEQEND
  0
POLYLINE
  8
0
 66
1
 70
1
  0
VERTEX
  8
0
 10
230.055690
 20
133.889238
 42
0.000000
  0
VERTEX
  8
0
 10
234.133702
 20
125.778475
 42
0.000000
  0
VERTEX
  8
0
 10
228.171608
 20
129.960645
 42
0.000000
  0
VERTEX
  8
0
 10
222.209515
 20
134.142816
 42
0.000000
  0
VERTEX
  8
0
 10
223.854758
 20
138.061237
 42
-0.004764
  0
VERTEX
  8
0
 10
224.502690
 20
139.564123
 42
-0.007651
  0
VERTEX
  8
0
 10
225.086869
 20
140.831610
 42
-0.002568
  0
VERTEX
  8
0
 10
225.608288
 20
141.904678
 42
-0.274280
  0
VERTEX
  8
0
 10
225.738839
 20
141.989829
 42
-0.287914
  0
VERTEX
  8
0
 10
225.878473
 20
141.910231
 42
-0.000600
  0
VERTEX
  8
0
 10
227.105436
 20
139.614476
 42
-0.003688
  0
VERTEX
  8
0
 10
228.474956
 20
136.998247
 42
-0.002248
  0
SEQEND
  0
POLYLINE
  8
0
 66
1
 70
1
  0
VERTEX
  8
0
 10
94.500000
 20
137.896221
 42
-0.178578
  0
VERTEX
  8
0
 10
105.672539
 20
129.918679
 42
-0.183337
  0
VERTEX
  8
0
 10
108.833070
 20
116.697007
 42
-0.184504
  0
VERTEX
  8
0
 10
102.425572
 20
104.767957
 42
-0.180157
  0
VERTEX
  8
0
 10
89.622304
 20
100.000000
 42
-0.134526
  0
VERTEX
  8
0
 10
78.455306
 20
103.059869
 42
-0.152270
  0
VERTEX
  8
0
 10
71.038239
 20
111.286636
 42
-0.156020
  0
VERTEX
  8
0
 10
69.712390
 20
122.107326
 42
-0.142265
  0
VERTEX
  8
0
 10
74.818845
 20
132.153670
 42
-0.048844
  0
VERTEX
  8
0
 10
77.791342
 20
134.762306
 42
-0.040421
  0
VERTEX
  8
0
 10
81.402055
 20
136.935947
 42
-0.041753
  0
VERTEX
  8
0
 10
85.144664
 20
138.420523
 42
-0.068863
  0
VERTEX
  8
0
 10
88.500000
 20
138.950530
 42
-0.037046
  0
VERTEX
  8
0
 10
89.534219
 20
138.893693
 42
-0.011246
  0
VERTEX
  8
0
 10
91.087500
 20
138.656632
 42
-0.011196
  0
VERTEX
  8
0
 10
92.821871
 20
138.311673
 42
-0.011982
  0
SEQEND
  0
POLYLINE
  8
0
 66
1
 70
1
  0
VERTEX
  8
0
 10
269.508577
 20
137.135018
 42
-0.082352
  0
VERTEX
  8
0
 10
274.849669
 20
133.553068
 42
-0.072123
  0
VERTEX
  8
0
 10
279.036650
 20
128.286804
 42
-0.075595
  0
VERTEX
  8
0
 10
281.401124
 20
122.311858
 42
-0.110042
  0
VERTEX
  8
0
 10
281.439039
 20
116.666321
 42
-0.043634
  0
VERTEX
  8
0
 10
280.179484
 20
112.590190
 42
-0.046293
  0
VERTEX
  8
0
 10
278.250227
 20
108.879306
 42
-0.048068
  0
VERTEX
  8
0
 10
275.751742
 20
105.712783
 42
-0.055585
  0
VERTEX
  8
0
 10
272.803274
 20
103.251115
 42
-0.029518
  0
VERTEX
  8
0
 10
270.289170
 20
101.792932
 42
-0.057079
  0
VERTEX
  8
0
 10
268.110119
 20
100.991262
 42
-0.046126
  0
VERTEX
  8
0
 10
265.516459
 20
100.609055
 42
-0.013532
  0
VERTEX
  8
0
 10
261.487530
 20
100.500000
 42
-0.013137
  0
VERTEX
  8
0
 10
257.433817
 20
100.606523
 42
-0.047661
  0
VERTEX
  8
0
 10
254.886286
 20
100.985797
 42
-0.060234
  0
VERTEX
  8
0
 10
252.774861
 20
101.788669
 42
-0.030590
  0
VERTEX
  8
0
 10
250.340917
 20
103.263744
 42
-0.055293
  0
VERTEX
  8
0
 10
246.768129
 20
106.375182
 42
-0.063007
  0
VERTEX
  8
0
 10
244.141464
 20
110.070148
 42
-0.063870
  0
VERTEX
  8
0
 10
242.543308
 20
114.257811
 42
-0.059321
  0
VERTEX
  8
0
 10
242.000000
 20
118.821055
 42
-0.031425
  0
VERTEX
  8
0
 10
242.266354
 20
123.054844
 42
-0.053944
  0
VERTEX
  8
0
 10
243.083501
 20
126.491459
 42
-0.058295
  0
VERTEX
  8
0
 10
244.559472
 20
129.487940
 42
-0.044319
  0
VERTEX
  8
0
 10
246.813618
 20
132.376099
 42
-0.076812
  0
VERTEX
  8
0
 10
251.695065
 20
136.213096
 42
-0.076687
  0
VERTEX
  8
0
 10
257.509712
 20
138.400224
 42
-0.077507
  0
VERTEX
  8
0
 10
263.657594
 20
138.720144
 42
-0.081102
  0
SEQEND
  0
POLYLINE
  8
0
 66
1
 70
1
  0
VERTEX
  8
0
 10
144.301210
 20
119.250000
 42
-0.007141
  0
VERTEX
  8
0
 10
144.880122
 20
117.236527
 42
-0.012288
  0
VERTEX
  8
0
 10
145.296753
 20
115.542187
 42
-0.006228
  0
VERTEX
  8
0
 10
145.583870
 20
114.154897
 42
-0.471521
  0
VERTEX
  8
0
 10
145.456136
 20
114.000000
 42
-0.271994
  0
VERTEX
  8
0
 10
145.204995
 20
114.147532
 42
-0.001478
  0
VERTEX
  8
0
 10
143.792763
 20
116.698768
 42
-0.005746
  0
VERTEX
  8
0
 10
142.206304
 20
119.665094
 42
-0.003548
  0
VERTEX
  8
0
 10
140.405935
 20
123.187295
 42
-0.003878
  0
VERTEX
  8
0
 10
137.557936
 20
128.969377
 42
-0.048512
  0
VERTEX
  8
0
 10
136.715378
 20
131.256450
 42
-0.157247
  0
VERTEX
  8
0
 10
136.791434
 20
132.615224
 42
-0.143809
  0
VERTEX
  8
0
 10
137.645899
 20
133.731053
 42
-0.172937
  0
VERTEX
  8
0
 10
138.887902
 20
134.100514
 42
-0.278548
  0
VERTEX
  8
0
 10
139.773584
 20
133.498900
 42
-0.033382
  0
VERTEX
  8
0
 10
140.700547
 20
131.066205
 42
-0.000767
  0
SEQEND
  0
POLYLINE
  8
0
 66
1
 70
1
  0
VERTEX
  8
0
 10
217.015028
 20
133.143011
 42
-0.112096
  0
VERTEX
  8
0
 10
216.748472
 20
131.827333
 42
-0.001160
  0
VERTEX
  8
0
 10
212.841837
 20
123.206357
 42
-0.000553
  0
VERTEX
  8
0
 10
208.782121
 20
114.328563
 42
-0.522579
  0
VERTEX
  8
0
 10
208.405705
 20
114.260962
 42
-0.266325
  0
VERTEX
  8
0
 10
208.297565
 20
114.659707
 42
-0.000414
  0
VERTEX
  8
0
 10
210.249502
 20
122.100018
 42
-0.003478
  0
VERTEX
  8
0
 10
212.093156
 20
128.911127
 42
-0.009282
  0
VERTEX
  8
0
 10
213.531413
 20
133.733141
 42
-0.261828
  0
VERTEX
  8
0
 10
214.165400
 20
134.324003
 42
-0.101813
  0
VERTEX
  8
0
 10
215.405938
 20
134.367586
 42
-0.099977
  0
VERTEX
  8
0
 10
216.578250
 20
133.916795
 42
-0.250298
  0
SEQEND
  0
POLYLINE
  8
0
 66
1
 70
1
  0
VERTEX
  8
0
 10
144.080296
 20
107.750000
 42
-0.003412
  0
VERTEX
  8
0
 10
145.942129
 20
104.010707
 42
-0.005849
  0
VERTEX
  8
0
 10
147.436798
 20
100.864063
 42
-0.001540
  0
VERTEX
  8
0
 10
148.673889
 20
98.157186
 42
-0.545132
  0
VERTEX
  8
0
 10
148.572560
 20
98.000000
 42
-0.143011
  0
VERTEX
  8
0
 10
147.649516
 20
98.269522
 42
-0.000246
  0
VERTEX
  8
0
 10
133.680390
 20
107.197343
 42
-0.000687
  0
VERTEX
  8
0
 10
120.343583
 20
115.756131
 42
-0.046407
  0
VERTEX
  8
0
 10
118.223410
 20
117.417529
 42
-0.301401
  0
VERTEX
  8
0
 10
118.015633
 20
118.313412
 42
-0.100993
  0
VERTEX
  8
0
 10
118.763800
 20
119.509703
 42
-0.039290
  0
VERTEX
  8
0
 10
120.722825
 20
121.270158
 42
-0.006889
  0
VERTEX
  8
0
 10
124.702143
 20
124.231355
 42
0.000000
  0
VERTEX
  8
0
 10
132.457465
 20
129.838102
 42
0.000000
  0
VERTEX
  8
0
 10
135.799911
 20
123.669051
 42
-0.003013
  0
VERTEX
  8
0
 10
137.424622
 20
120.626746
 42
-0.001210
  0
VERTEX
  8
0
 10
139.611033
 20
116.448096
 42
-0.001197
  0
VERTEX
  8
0
 10
141.944982
 20
111.934714
 42
-0.001514
  0
SEQEND
  0
POLYLINE
  8
0
 66
1
 70
1
  0
VERTEX
  8
0
 10
228.521413
 20
124.914219
 42
-0.000678
  0
VERTEX
  8
0
 10
231.217544
 20
122.943757
 42
-0.001054
  0
VERTEX
  8
0
 10
233.536701
 20
121.236445
 42
-0.000294
  0
VERTEX
  8
0
 10
235.553085
 20
119.743630
 42
-0.035854
  0
VERTEX
  8
0
 10
235.795017
 20
119.535869
 42
-0.458985
  0
VERTEX
  8
0
 10
235.769222
 20
119.173373
 42
-0.000135
  0
VERTEX
  8
0
 10
222.207508
 20
109.099500
 42
-0.001064
  0
VERTEX
  8
0
 10
209.786809
 20
99.919331
 42
-0.027489
  0
VERTEX
  8
0
 10
206.289810
 20
97.631222
 42
-0.677194
  0
VERTEX
  8
0
 10
205.875532
 20
97.956800
 42
-0.024450
  0
VERTEX
  8
0
 10
206.790347
 20
100.587357
 42
-0.011109
  0
VERTEX
  8
0
 10
208.924064
 20
105.553723
 42
-0.001632
  0
VERTEX
  8
0
 10
213.500930
 20
115.500000
 42
0.000933
  0
VERTEX
  8
0
 10
215.025584
 20
118.801172
 42
0.000936
  0
VERTEX
  8
0
 10
216.536358
 20
122.104688
 42
0.000914
  0
VERTEX
  8
0
 10
217.843618
 20
124.991384
 42
0.003743
  0
VERTEX
  8
0
 10
218.620363
 20
126.750000
 42
-0.018357
  0
VERTEX
  8
0
 10
219.214320
 20
127.995008
 42
-0.026428
  0
VERTEX
  8
0
 10
219.836348
 20
129.045312
 42
-0.024811
  0
VERTEX
  8
0
 10
220.412523
 20
129.823804
 42
-0.224680
  0
VERTEX
  8
0
 10
220.784833
 20
130.000000
 42
-0.142914
  0
VERTEX
  8
0
 10
221.291435
 20
129.852179
 42
-0.003431
  0
VERTEX
  8
0
 10
223.370126
 20
128.506052
 42
-0.007237
  0
VERTEX
  8
0
 10
225.792218
 20
126.863153
 42
-0.004822
  0
SEQEND
  0
POLYLINE
  8
0
 66
1
 70
1
  0
VERTEX
  8
0
 10
186.092716
 20
108.673227
 42
-0.092883
  0
VERTEX
  8
0
 10
192.112396
 20
103.894475
 42
-0.097622
  0
VERTEX
  8
0
 10
195.866289
 20
97.337425
 42
-0.100413
  0
VERTEX
  8
0
 10
196.789109
 20
90.003419
 42
-0.104382
  0
VERTEX
  8
0
 10
194.752516
 20
83.000000
 42
-0.164890
  0
VERTEX
  8
0
 10
185.236941
 20
74.082718
 42
-0.163322
  0
VERTEX
  8
0
 10
172.218885
 20
72.745947
 42
-0.167680
  0
VERTEX
  8
0
 10
161.272470
 20
79.513503
 42
-0.172893
  0
VERTEX
  8
0
 10
157.000000
 20
91.500000
 42
-0.132990
  0
VERTEX
  8
0
 10
159.582997
 20
101.039506
 42
-0.127862
  0
VERTEX
  8
0
 10
166.653473
 20
108.141130
 42
-0.126722
  0
VERTEX
  8
0
 10
176.342262
 20
110.939256
 42
-0.129415
  0
SEQEND
  0
POLYLINE
  8
0
 66
1
 70
1
  0
VERTEX
  8
0
 10
259.287892
 20
187.631765
 42
0.021875
  0
VERTEX
  8
0
 10
255.320704
 20
186.586748
 42
0.115698
  0
VERTEX
  8
0
 10
253.396218
 20
185.454818
 42
0.106833
  0
VERTEX
  8
0
 10
252.100119
 20
183.543502
 42
0.017346
  0
VERTEX
  8
0
 10
250.559857
 20
179.302094
 42
0.032464
  0
VERTEX
  8
0
 10
249.574378
 20
175.422375
 42
0.121641
  0
VERTEX
  8
0
 10
249.719640
 20
172.931382
 42
0.105305
  0
VERTEX
  8
0
 10
251.024329
 20
170.599875
 42
0.021208
  0
VERTEX
  8
0
 10
254.325527
 20
167.143387
 42
0.000000
  0
VERTEX
  8
0
 10
257.815208
 20
163.786774
 42
0.000000
  0
VERTEX
  8
0
 10
264.101255
 20
165.143387
 42
0.000000
  0
VERTEX
  8
0
 10
270.387301
 20
166.500000
 42
0.000000
  0
VERTEX
  8
0
 10
272.378283
 20
172.725268
 42
0.000000
  0
VERTEX
  8
0
 10
274.369264
 20
178.950537
 42
0.000000
  0
VERTEX
  8
0
 10
270.376489
 20
183.661316
 42
0.008901
  0
VERTEX
  8
0
 10
268.778411
 20
185.480116
 42
0.012392
  0
VERTEX
  8
0
 10
267.279921
 20
187.045796
 42
0.008879
  0
VERTEX
  8
0
 10
265.986263
 20
188.287183
 42
0.136371
  0
VERTEX
  8
0
 10
265.441857
 20
188.567813
 42
0.082351
  0
VERTEX
  8
0
 10
264.830237
 20
188.592630
 42
0.006793
  0
VERTEX
  8
0
 10
263.245614
 20
188.373582
 42
0.008945
  0
VERTEX
  8
0
 10
261.352847
 20
188.050942
 42
0.006774
  0
SEQEND
  0
POLYLINE
  8
0
 66
1
 70
1
  0
VERTEX
  8
0
 10
267.388057
 20
181.116843
 42
-0.022526
  0
VERTEX
  8
0
 10
268.997447
 20
179.277941
 42
-0.114883
  0
VERTEX
  8
0
 10
269.578648
 20
178.059650
 42
-0.108317
  0
VERTEX
  8
0
 10
269.579442
 20
176.674962
 42
-0.018972
  0
VERTEX
  8
0
 10
268.922539
 20
174.135794
 42
-0.035031
  0
VERTEX
  8
0
 10
267.949952
 20
171.560718
 42
-0.126069
  0
VERTEX
  8
0
 10
266.852113
 20
170.208591
 42
-0.099650
  0
VERTEX
  8
0
 10
265.093636
 20
169.382104
 42
-0.017521
  0
VERTEX
  8
0
 10
261.500000
 20
168.632364
 42
-0.051006
  0
VERTEX
  8
0
 10
259.825507
 20
168.517115
 42
-0.104798
  0
VERTEX
  8
0
 10
258.555326
 20
168.830695
 42
-0.083551
  0
VERTEX
  8
0
 10
257.343711
 20
169.691271
 42
-0.024146
  0
VERTEX
  8
0
 10
255.793656
 20
171.394975
 42
-0.020890
  0
VERTEX
  8
0
 10
254.261830
 20
173.417733
 42
-0.097806
  0
VERTEX
  8
0
 10
253.680702
 20
174.749729
 42
-0.103856
  0
VERTEX
  8
0
 10
253.667379
 20
176.162856
 42
-0.025065
  0
VERTEX
  8
0
 10
254.244082
 20
178.443634
 42
-0.120596
  0
VERTEX
  8
0
 10
256.385669
 20
182.034103
 42
-0.149168
  0
VERTEX
  8
0
 10
259.793687
 20
183.881755
 42
-0.143773
  0
VERTEX
  8
0
 10
263.751507
 20
183.544741
 42
-0.109504
  0
SEQEND
  0
POLYLINE
  8
0
 66
1
 70
1
  0
VERTEX
  8
0
 10
82.243460
 20
186.750000
 42
0.045318
  0
VERTEX
  8
0
 10
80.829249
 20
184.614186
 42
0.012369
  0
VERTEX
  8
0
 10
78.997676
 20
181.004486
 42
0.009069
  0
VERTEX
  8
0
 10
77.325481
 20
177.326153
 42
0.106214
  0
VERTEX
  8
0
 10
77.019000
 20
175.789838
 42
0.099991
  0
VERTEX
  8
0
 10
77.182865
 20
175.036020
 42
0.011971
  0
VERTEX
  8
0
 10
77.908627
 20
173.483577
 42
0.013878
  0
VERTEX
  8
0
 10
78.877235
 20
171.663262
 42
0.010993
  0
VERTEX
  8
0
 10
80.020837
 20
169.750000
 42
0.000000
  0
VERTEX
  8
0
 10
83.003673
 20
165.000000
 42
0.000000
  0
VERTEX
  8
0
 10
89.751837
 20
165.011865
 42
0.000000
  0
VERTEX
  8
0
 10
96.500000
 20
165.023730
 42
0.000000
  0
VERTEX
  8
0
 10
99.667689
 20
170.792512
 42
0.000000
  0
VERTEX
  8
0
 10
102.835379
 20
176.561294
 42
0.000000
  0
VERTEX
  8
0
 10
99.337283
 20
182.280647
 42
0.000000
  0
VERTEX
  8
0
 10
95.839188
 20
188.000000
 42
0.000000
  0
VERTEX
  8
0
 10
89.542039
 20
188.000000
 42
0.015597
  0
VERTEX
  8
0
 10
86.883353
 20
187.917046
 42
0.026816
  0
VERTEX
  8
0
 10
84.682711
 20
187.660617
 42
0.029842
  0
VERTEX
  8
0
 10
83.020427
 20
187.272653
 42
0.152773
  0
SEQEND
  0
POLYLINE
  8
0
 66
1
 70
1
  0
VERTEX
  8
0
 10
96.201164
 20
179.846674
 42
0.000000
  0
VERTEX
  8
0
 10
98.282615
 20
176.193348
 42
0.000000
  0
VERTEX
  8
0
 10
96.059748
 20
172.596674
 42
-0.026885
  0
VERTEX
  8
0
 10
94.655533
 20
170.576084
 42
-0.102400
  0
VERTEX
  8
0
 10
93.492761
 20
169.585468
 42
-0.100411
  0
VERTEX
  8
0
 10
92.020009
 20
169.127661
 42
-0.025313
  0
VERTEX
  8
0
 10
89.500000
 20
169.000000
 42
-0.024953
  0
VERTEX
  8
0
 10
87.000401
 20
169.124822
 42
-0.097759
  0
VERTEX
  8
0
 10
85.529147
 20
169.571389
 42
-0.102973
  0
VERTEX
  8
0
 10
84.378223
 20
170.530637
 42
-0.029305
  0
VERTEX
  8
0
 10
83.033545
 20
172.445723
 42
0.000000
  0
VERTEX
  8
0
 10
80.903972
 20
175.891445
 42
0.000000
  0
VERTEX
  8
0
 10
82.999277
 20
179.998582
 42
-0.018885
  0
VERTEX
  8
0
 10
84.404342
 20
182.513397
 42
-0.125946
  0
VERTEX
  8
0
 10
85.422843
 20
183.506846
 42
-0.128202
  0
VERTEX
  8
0
 10
86.785165
 20
183.880013
 42
-0.019843
  0
VERTEX
  8
0
 10
89.607148
 20
183.802860
 42
-0.024503
  0
VERTEX
  8
0
 10
92.198887
 20
183.500832
 42
-0.094123
  0
VERTEX
  8
0
 10
93.715299
 20
182.942652
 42
-0.099401
  0
VERTEX
  8
0
 10
94.877905
 20
181.884187
 42
-0.029065
  0
SEQEND
  0
POLYLINE
  8
0
 66
1
 70
1
  0
VERTEX
  8
0
 10
90.480389
 20
132.541373
 42
-0.014242
  0
VERTEX
  8
0
 10
88.359228
 20
130.098154
 42
-0.063700
  0
VERTEX
  8
0
 10
86.911933
 20
128.878793
 42
-0.106751
  0
VERTEX
  8
0
 10
85.602015
 20
128.385428
 42
-0.085709
  0
VERTEX
  8
0
 10
84.092734
 20
128.420887
 42
0.002483
  0
VERTEX
  8
0
 10
82.824937
 20
128.664084
 42
0.001028
  0
VERTEX
  8
0
 10
81.108057
 20
128.980946
 42
0.001017
  0
VERTEX
  8
0
 10
79.266309
 20
129.313072
 42
0.001311
  0
VERTEX
  8
0
 10
77.572992
 20
129.610299
 42
0.000000
  0
VERTEX
  8
0
 10
73.645984
 20
130.288996
 42
0.000000
  0
VERTEX
  8
0
 10
76.778099
 20
124.739193
 42
0.000000
  0
VERTEX
  8
0
 10
79.910213
 20
119.189390
 42
0.000000
  0
VERTEX
  8
0
 10
76.821011
 20
113.485787
 42
0.000000
  0
VERTEX
  8
0
 10
73.731808
 20
107.782185
 42
0.000000
  0
VERTEX
  8
0
 10
76.615904
 20
108.356893
 42
-0.006912
  0
VERTEX
  8
0
 10
83.134280
 20
109.562362
 42
-0.083597
  0
VERTEX
  8
0
 10
85.673275
 20
109.568043
 42
-0.132931
  0
VERTEX
  8
0
 10
87.617196
 20
108.679150
 42
-0.026365
  0
VERTEX
  8
0
 10
90.452948
 20
106.058951
 42
0.009383
  0
VERTEX
  8
0
 10
92.025332
 20
104.503879
 42
0.013498
  0
VERTEX
  8
0
 10
93.478851
 20
103.192317
 42
0.009227
  0
VERTEX
  8
0
 10
94.725413
 20
102.166295
 42
0.169137
  0
VERTEX
  8
0
 10
95.202948
 20
102.000000
 42
0.281922
  0
VERTEX
  8
0
 10
95.510611
 20
102.188452
 42
0.050341
  0
VERTEX
  8
0
 10
95.765866
 20
102.844531
 42
0.041430
  0
VERTEX
  8
0
 10
95.942210
 20
103.773329
 42
0.026210
  0
VERTEX
  8
0
 10
96.000000
 20
104.875000
 42
-0.029253
  0
VERTEX
  8
0
 10
96.268795
 20
109.465397
 42
-0.104555
  0
VERTEX
  8
0
 10
97.203558
 20
112.236572
 42
-0.110795
  0
VERTEX
  8
0
 10
99.147104
 20
114.304616
 42
-0.034954
  0
VERTEX
  8
0
 10
102.837108
 20
116.446150
 42
0.000000
  0
VERTEX
  8
0
 10
108.489417
 20
119.218302
 42
0.000000
  0
VERTEX
  8
0
 10
103.056045
 20
121.971600
 42
-0.027680
  0
VERTEX
  8
0
 10
99.474347
 20
124.043173
 42
-0.089590
  0
VERTEX
  8
0
 10
97.487793
 20
125.925322
 42
-0.105102
  0
VERTEX
  8
0
 10
96.457741
 20
128.205875
 42
-0.046604
  0
VERTEX
  8
0
 10
96.054972
 20
131.500000
 42
0.032156
  0
VERTEX
  8
0
 10
95.725220
 20
135.042627
 42
0.317302
  0
VERTEX
  8
0
 10
94.737836
 20
136.057621
 42
0.249185
  0
VERTEX
  8
0
 10
93.213569
 20
135.579850
 42
0.023043
  0
SEQEND
  0
POLYLINE
  8
0
 66
1
 70
1
  0
VERTEX
  8
0
 10
93.000000
 20
125.181427
 42
0.057236
  0
VERTEX
  8
0
 10
93.167850
 20
123.719919
 42
0.103085
  0
VERTEX
  8
0
 10
93.673111
 20
122.630144
 42
0.088505
  0
VERTEX
  8
0
 10
94.633026
 20
121.727486
 42
0.033968
  0
VERTEX
  8
0
 10
96.237174
 20
120.829754
 42
0.000000
  0
VERTEX
  8
0
 10
99.474348
 20
119.296655
 42
0.000000
  0
VERTEX
  8
0
 10
96.237174
 20
117.622647
 42
0.033541
  0
VERTEX
  8
0
 10
94.587713
 20
116.624232
 42
0.092328
  0
VERTEX
  8
0
 10
93.639945
 20
115.657126
 42
0.101793
  0
VERTEX
  8
0
 10
93.155508
 20
114.472811
 42
0.046381
  0
VERTEX
  8
0
 10
93.000000
 20
112.800006
 42
0.000000
  0
VERTEX
  8
0
 10
93.000000
 20
109.651372
 42
0.000000
  0
VERTEX
  8
0
 10
90.555987
 20
111.947403
 42
0.040273
  0
VERTEX
  8
0
 10
89.229309
 20
113.006453
 42
0.068834
  0
VERTEX
  8
0
 10
87.958992
 20
113.629096
 42
0.070850
  0
VERTEX
  8
0
 10
86.593666
 20
113.873062
 42
0.045303
  0
VERTEX
  8
0
 10
84.981800
 20
113.784021
 42
-0.014217
  0
VERTEX
  8
0
 10
83.153563
 20
113.568587
 42
-0.170944
  0
VERTEX
  8
0
 10
82.476508
 20
113.741288
 42
-0.293318
  0
VERTEX
  8
0
 10
82.256780
 20
114.244357
 42
-0.040080
  0
VERTEX
  8
0
 10
82.541290
 20
115.412304
 42
0.037275
  0
VERTEX
  8
0
 10
83.067782
 20
117.522158
 42
0.041994
  0
VERTEX
  8
0
 10
83.247434
 20
119.603781
 42
0.044950
  0
VERTEX
  8
0
 10
83.076555
 20
121.547491
 42
0.059415
  0
VERTEX
  8
0
 10
82.558142
 20
123.246098
 42
-0.049150
  0
VERTEX
  8
0
 10
82.256671
 20
124.166002
 42
-0.332137
  0
VERTEX
  8
0
 10
82.441558
 20
124.576837
 42
-0.163362
  0
VERTEX
  8
0
 10
83.060373
 20
124.691175
 42
-0.014061
  0
VERTEX
  8
0
 10
84.667488
 20
124.416502
 42
0.044638
  0
VERTEX
  8
0
 10
86.135367
 20
124.257086
 42
0.081418
  0
VERTEX
  8
0
 10
87.325214
 20
124.429029
 42
0.083474
  0
VERTEX
  8
0
 10
88.378201
 20
124.967299
 42
0.049068
  0
VERTEX
  8
0
 10
89.427967
 20
125.920404
 42
-0.029573
  0
VERTEX
  8
0
 10
91.133489
 20
127.594513
 42
-0.234401
  0
VERTEX
  8
0
 10
92.172267
 20
127.866947
 42
-0.307175
  0
VERTEX
  8
0
 10
92.823564
 20
127.196274
 42
-0.043700
  0
SEQEND
  0
POLYLINE
  8
0
 66
1
 70
1
  0
VERTEX
  8
0
 10
254.505833
 20
131.050259
 42
0.000000
  0
VERTEX
  8
0
 10
253.791985
 20
124.899703
 42
0.000000
  0
VERTEX
  8
0
 10
248.355121
 20
121.831326
 42
0.000000
  0
VERTEX
  8
0
 10
242.918256
 20
118.762950
 42
0.000000
  0
VERTEX
  8
0
 10
248.186898
 20
116.321952
 42
-0.017471
  0
VERTEX
  8
0
 10
252.112056
 20
114.334013
 42
-0.102960
  0
VERTEX
  8
0
 10
253.853449
 20
112.840449
 42
-0.109491
  0
VERTEX
  8
0
 10
254.802415
 20
110.817101
 42
-0.020942
  0
VERTEX
  8
0
 10
255.527806
 20
106.797824
 42
0.013326
  0
VERTEX
  8
0
 10
255.830878
 20
104.958755
 42
0.021286
  0
VERTEX
  8
0
 10
256.197819
 20
103.409361
 42
0.016691
  0
VERTEX
  8
0
 10
256.578721
 20
102.214043
 42
0.317279
  0
VERTEX
  8
0
 10
256.882075
 20
102.000000
 42
0.191123
  0
VERTEX
  8
0
 10
257.294863
 20
102.163769
 42
0.008107
  0
VERTEX
  8
0
 10
258.442887
 20
103.280532
 42
0.012940
  0
VERTEX
  8
0
 10
259.773744
 20
104.688898
 42
0.008746
  0
VERTEX
  8
0
 10
261.220362
 20
106.359257
 42
0.000000
  0
VERTEX
  8
0
 10
264.864249
 20
110.718513
 42
0.000000
  0
VERTEX
  8
0
 10
270.564207
 20
109.824672
 42
0.007648
  0
VERTEX
  8
0
 10
272.778546
 20
109.512054
 42
0.011633
  0
VERTEX
  8
0
 10
274.711242
 20
109.314837
 42
0.006377
  0
VERTEX
  8
0
 10
276.324313
 20
109.208753
 42
0.212702
  0
VERTEX
  8
0
 10
276.677579
 20
109.344246
 42
0.305809
  0
VERTEX
  8
0
 10
276.742483
 20
109.678405
 42
0.008659
  0
VERTEX
  8
0
 10
276.117978
 20
111.080496
 42
0.014813
  0
VERTEX
  8
0
 10
275.273439
 20
112.759811
 42
0.009290
  0
VERTEX
  8
0
 10
274.192014
 20
114.674343
 42
0.000000
  0
VERTEX
  8
0
 10
271.293035
 20
119.591025
 42
0.000000
  0
VERTEX
  8
0
 10
273.658282
 20
124.950414
 42
0.006960
  0
VERTEX
  8
0
 10
274.541118
 20
127.028670
 42
0.011078
  0
VERTEX
  8
0
 10
275.231697
 20
128.832524
 42
0.005132
  0
VERTEX
  8
0
 10
275.759636
 20
130.357884
 42
0.284400
  0
VERTEX
  8
0
 10
275.693178
 20
130.640156
 42
0.231463
  0
VERTEX
  8
0
 10
275.403073
 20
130.739680
 42
0.004473
  0
VERTEX
  8
0
 10
273.790514
 20
130.523317
 42
0.009811
  0
VERTEX
  8
0
 10
271.881972
 20
130.211510
 42
0.006298
  0
VERTEX
  8
0
 10
269.679924
 20
129.778507
 42
0.000000
  0
VERTEX
  8
0
 10
263.997023
 20
128.586506
 42
0.000000
  0
VERTEX
  8
0
 10
259.608352
 20
132.893661
 42
0.000000
  0
VERTEX
  8
0
 10
255.219681
 20
137.200815
 42
0.000000
  0
SEQEND
  0
POLYLINE
  8
0
 66
1
 70
1
  0
VERTEX
  8
0
 10
261.417907
 20
126.090712
 42
0.050527
  0
VERTEX
  8
0
 10
262.423800
 20
125.182767
 42
0.102203
  0
VERTEX
  8
0
 10
263.389613
 20
124.740297
 42
0.091609
  0
VERTEX
  8
0
 10
264.522230
 20
124.691351
 42
0.034959
  0
VERTEX
  8
0
 10
266.072895
 20
125.020906
 42
-0.033526
  0
VERTEX
  8
0
 10
268.072539
 20
125.451870
 42
-0.314191
  0
VERTEX
  8
0
 10
268.818192
 20
125.079084
 42
-0.216228
  0
VERTEX
  8
0
 10
268.890228
 20
124.086476
 42
-0.018520
  0
VERTEX
  8
0
 10
267.895867
 20
121.670797
 42
0.047771
  0
VERTEX
  8
0
 10
267.427377
 20
120.312164
 42
0.093942
  0
VERTEX
  8
0
 10
267.371316
 20
119.174820
 42
0.081465
  0
VERTEX
  8
0
 10
267.738161
 20
117.991654
 42
0.029212
  0
VERTEX
  8
0
 10
268.620492
 20
116.456450
 42
0.000000
  0
VERTEX
  8
0
 10
270.449250
 20
113.665412
 42
0.000000
  0
VERTEX
  8
0
 10
266.745134
 20
114.266507
 42
0.027518
  0
VERTEX
  8
0
 10
264.671464
 20
114.486833
 42
0.095704
  0
VERTEX
  8
0
 10
263.343157
 20
114.299648
 42
0.105891
  0
VERTEX
  8
0
 10
262.254067
 20
113.644116
 42
0.037884
  0
VERTEX
  8
0
 10
261.022080
 20
112.300941
 42
0.000000
  0
VERTEX
  8
0
 10
259.003144
 20
109.734280
 42
0.000000
  0
VERTEX
  8
0
 10
258.367881
 20
112.910594
 42
0.051833
  0
VERTEX
  8
0
 10
257.901631
 20
114.412696
 42
0.062551
  0
VERTEX
  8
0
 10
257.156046
 20
115.686715
 42
0.061633
  0
VERTEX
  8
0
 10
256.108369
 20
116.751002
 42
0.048263
  0
VERTEX
  8
0
 10
254.746148
 20
117.631272
 42
0.000000
  0
VERTEX
  8
0
 10
251.759677
 20
119.175636
 42
0.000000
  0
VERTEX
  8
0
 10
254.879838
 20
121.073120
 42
0.036674
  0
VERTEX
  8
0
 10
256.287703
 20
122.077560
 42
0.065660
  0
VERTEX
  8
0
 10
257.251168
 20
123.118733
 42
0.077582
  0
VERTEX
  8
0
 10
257.808291
 20
124.241327
 42
0.076603
  0
VERTEX
  8
0
 10
258.000000
 20
125.485302
 42
-0.052406
  0
VERTEX
  8
0
 10
258.186982
 20
127.264383
 42
-0.305520
  0
VERTEX
  8
0
 10
258.830099
 20
127.885923
 42
-0.223216
  0
VERTEX
  8
0
 10
259.847550
 20
127.610982
 42
-0.033032
  0
SEQEND
  0
ENDSEC
  0
EOF
