<?xml version="1.0" encoding="UTF-8"?><svg id="Seal" xmlns="http://www.w3.org/2000/svg" viewBox="0 0 143.99 143.99"><defs><style>.cls-1,.cls-2{fill:#6d6e71;}.cls-2{fill-rule:evenodd;}</style></defs><path class="cls-2" d="M70.21,78.69l-2.92-1.73-11.18,7.03c.59,.83,1.24,1.61,1.95,2.34l12.15-7.64Zm15.79-19.41l-12.16,7.65,2.92,1.74,11.16-7.02c-.59-.83-1.22-1.64-1.92-2.37Zm2.22,24.28l-11.35-6.73-2.88,1.81,12.34,7.32c.69-.75,1.32-1.55,1.89-2.4Zm-32.39-21.5l11.34,6.73,2.88-1.81-12.35-7.33c-.69,.75-1.3,1.56-1.86,2.41Zm45.83,11.14c0-7.39,2.17-14.27,5.9-20.05,.56-.87,1.16-1.71,1.79-2.53l-19.88,9.82c.29,.4,.56,.81,.82,1.24,2.02,3.29,3.18,7.15,3.18,11.29,0,10.72-7.8,19.61-18.03,21.32v-2.31l.03-.03c3.57-.64,6.79-2.26,9.4-4.56l-12.76-7.57-12.57,7.91c2.55,2.13,5.64,3.62,9.05,4.23v2.33c-10.23-1.71-18.03-10.6-18.03-21.32,0-4.14,1.16-8.01,3.18-11.29,.26-.42,.54-.84,.82-1.24l-19.88-9.82c.63,.82,1.23,1.66,1.79,2.53,3.73,5.78,5.9,12.66,5.9,20.05s-1.98,13.67-5.42,19.29c-.31,.51-.64,1.02-.98,1.52,.6-.03,1.2-.05,1.81-.05h.1c14.67,0,27.34,8.53,33.33,20.91,.29,.6,.56,1.2,.82,1.82,.26-.61,.53-1.22,.82-1.82,5.99-12.37,18.66-20.91,33.33-20.91h.1c.61,0,1.21,.02,1.81,.05-.34-.5-.67-1-.98-1.52-3.44-5.62-5.42-12.22-5.42-19.29Zm-29.64,36.7v-.02s0,.02,0,.02c-6.42-10.53-17.72-17.8-30.71-18.74,2.76-5.32,4.33-11.36,4.33-17.77,0-5.28-1.06-10.31-2.98-14.89l7.2,3.55c-1.64,3.31-2.57,7.04-2.57,10.98s.87,7.46,2.43,10.7l-4.48,5.26,6.85-1.32c4.06,5.53,10.37,9.3,17.58,9.99l2.36,6.72h0l2.36-6.72c7.2-.68,13.5-4.45,17.56-9.96l6.74,1.3-4.4-5.17c1.58-3.26,2.47-6.92,2.47-10.79s-.93-7.67-2.57-10.98l7.2-3.55c-1.92,4.58-2.98,9.61-2.98,14.89,0,6.41,1.57,12.45,4.33,17.77-13,.94-24.29,8.21-30.71,18.74ZM43.1,45.18c4.98,0,9.45,2.23,12.47,5.74,.43,.5,.82,1.01,1.19,1.56,1.15,1.71,1.98,3.64,2.42,5.71,0,0-.02,.02-.03,.02l12.77,7.57,12.57-7.91s-.03-.03-.05-.04c.5-2.09,1.39-4.02,2.6-5.72,.38-.54,.79-1.06,1.24-1.55,3.01-3.31,7.35-5.39,12.16-5.39,.4,0,.8,.02,1.19,.05,.67,.05,1.32,.13,1.96,.26-.17-.68-.43-1.33-.76-1.94-1.51-2.84-4.5-4.79-7.94-4.79-.4,0-.8,.03-1.18,.08l-2.71-4.74s-6.6,.41-7.46,.47c-.5-.68-3.81-5.24-3.81-5.24,0,0-7.15,2.68-7.73,2.9-.58-.22-7.72-2.9-7.72-2.9,0,0-3.32,4.56-3.81,5.24-.86-.05-7.47-.47-7.47-.47l-2.71,4.74c-.39-.05-.78-.08-1.18-.08-3.41,0-6.39,1.91-7.91,4.72-.33,.6-.58,1.25-.77,1.92,.64-.1,1.29-.17,1.95-.2,.24-.01,.47-.02,.71-.02Zm39.16,.35l.17-.3v.02c2.86-4.98,6.64-7.59,6.64-7.59,0,0-.37,4.57-3.25,9.55l-.16,.28c-2.87,4.98-6.65,7.58-6.65,7.58,0,0,.37-4.57,3.25-9.55Zm-7.82-2.21l.08-.34v.02c1.29-5.6,4.14-9.2,4.14-9.2,0,0,.98,4.48-.31,10.08l-.07,.32c-1.29,5.6-4.14,9.2-4.14,9.2,0,0-.98-4.48,.31-10.08Zm-9.06-9.51s2.85,3.6,4.14,9.2v-.02s.07,.34,.07,.34c1.29,5.6,.31,10.08,.31,10.08,0,0-2.85-3.6-4.14-9.2l-.07-.32c-1.29-5.6-.31-10.08-.31-10.08Zm-3.78,11.41v-.02s.17,.3,.17,.3c2.96,4.93,3.41,9.49,3.41,9.49,0,0-3.82-2.54-6.78-7.47l-.17-.28c-2.96-4.93-3.41-9.49-3.41-9.49,0,0,3.82,2.54,6.78,7.47Zm17.07,24.56l2.92,1.73,8.67-5.45c-.36-.96-.8-1.88-1.29-2.76l-10.3,6.48Zm-3.71,5.91l-2.92-1.73-2.88,1.81,2.92,1.74,2.88-1.81Zm-9.59,.13l-2.93-1.74-8.68,5.46c.36,.96,.79,1.88,1.29,2.76l10.32-6.49Zm26.11-3.02c0-1.65-.22-3.25-.61-4.78l-7.37,4.63,7.48,4.44c.31-1.38,.5-2.81,.5-4.29Zm-1.05,6.26l-8.81-5.23-2.88,1.81,10.48,6.22c.47-.9,.88-1.83,1.21-2.8Zm-37.87-6.26c0,1.65,.22,3.25,.61,4.79l7.37-4.64-7.5-4.45c-.31,1.38-.48,2.82-.48,4.3Zm1.03-6.26l8.82,5.23,2.88-1.81-10.47-6.21c-.47,.89-.9,1.82-1.23,2.79Zm15.49,3.37l2.93,1.74,2.88-1.81-2.93-1.74-2.88,1.81Zm-4.76,2.99l2.93,1.74,2.88-1.81-2.93-1.74-2.88,1.81Zm12.51,1.61l2.88-1.81-2.92-1.73-2.88,1.81,2.92,1.73Z"/><path class="cls-1" d="M72,140.16C34.41,140.16,3.83,109.58,3.83,72S34.41,3.83,72,3.83s68.16,30.58,68.16,68.16-30.58,68.16-68.16,68.16Zm0-135.83C34.68,4.33,4.33,34.68,4.33,72s30.36,67.67,67.67,67.67,67.67-30.36,67.67-67.67S109.31,4.33,72,4.33Z"/><path class="cls-1" d="M72,122.48c-27.84,0-50.48-22.65-50.48-50.48S44.16,21.51,72,21.51s50.48,22.65,50.48,50.48-22.65,50.48-50.48,50.48Zm0-100.47c-27.56,0-49.99,22.42-49.99,49.99s22.42,49.99,49.99,49.99,49.99-22.43,49.99-49.99-22.43-49.99-49.99-49.99Z"/><path class="cls-1" d="M72,120.08c-26.51,0-48.08-21.57-48.08-48.08S45.48,23.91,72,23.91s48.08,22.02,48.08,48.08-21.57,48.08-48.08,48.08Zm0-94.79c-25.75,0-46.7,20.95-46.7,46.7s20.95,46.7,46.7,46.7,46.7-20.95,46.7-46.7-21.39-46.7-46.7-46.7Z"/><path class="cls-1" d="M72,143.99C32.3,143.99,0,111.69,0,72S32.3,0,72,0s72,32.3,72,72-32.3,72-72,72ZM72,1.72C33.24,1.72,1.72,33.24,1.72,72s31.53,70.28,70.28,70.28,70.28-31.53,70.28-70.28S110.75,1.72,72,1.72Z"/><g><g><path class="cls-1" d="M13.43,85.29l-.1-.45-1.96,.45-.23-1.02,5.32-1.21,.36,1.56c.28,1.22-.12,2.08-1.19,2.32-1.15,.26-1.91-.42-2.19-1.64Zm2.55-.55l-.11-.49-1.72,.39,.1,.45c.15,.65,.51,.98,1.12,.84,.55-.13,.76-.54,.61-1.19Z"/><path class="cls-1" d="M12.74,90.47l5.19-1.67,.32,1-5.19,1.67-.32-1Z"/><path class="cls-1" d="M19.06,94.5l-4.2,1.74-.4-.96,4.2-1.74-.63-1.52,.84-.35,1.62,3.91-.78,.49-.65-1.57Z"/><path class="cls-1" d="M21.55,99.64l-4,2.15-.49-.92,4-2.15-.78-1.45,.8-.43,2.01,3.73-.73,.56-.8-1.5Z"/><path class="cls-1" d="M20.31,106.46c-.37-.55-.56-1.11-.64-1.64l.88-.4c.03,.53,.17,1.12,.47,1.58,.27,.4,.64,.55,1,.31,.34-.22,.37-.47,.21-1.32-.23-1.12-.18-1.67,.53-2.14,.8-.54,1.68-.23,2.25,.62,.34,.51,.48,.94,.52,1.38l-.88,.4c0-.47-.12-.95-.36-1.31-.29-.43-.63-.48-.9-.3-.29,.19-.33,.43-.17,1.24,.24,1.19,.15,1.75-.55,2.22-.89,.59-1.78,.25-2.37-.62Z"/><path class="cls-1" d="M24.09,111.44l-1-1.21,4.2-3.48,1.01,1.22c.78,.94,.73,1.75,.06,2.3-.44,.36-.93,.36-1.38,.12,.24,.59,.19,1.15-.37,1.62-.83,.69-1.72,.42-2.53-.57Zm1.89-1.58l-.35-.42-1.29,1.06,.36,.43c.42,.51,.88,.63,1.3,.29,.43-.35,.41-.83-.03-1.36Zm1.68-1.41l-.34-.41-1.11,.92,.31,.37c.39,.48,.81,.55,1.17,.25,.33-.28,.38-.65-.03-1.14Z"/><path class="cls-1" d="M28.8,116.68c-.95-.92-1.02-2.08-.04-3.1l2.32-2.4,.75,.73-2.29,2.36c-.58,.6-.67,1.24-.11,1.77,.56,.54,1.18,.45,1.76-.15l2.3-2.38,.76,.73-2.31,2.39c-1.01,1.04-2.2,.98-3.15,.06Z"/><path class="cls-1" d="M35.09,121.97l.17-2.57-.36-.27-1.27,1.65-.83-.64,3.32-4.32,1.34,1.03c.96,.74,1.2,1.65,.55,2.49-.49,.63-1.13,.77-1.81,.54l-.14,2.59-.97-.5Zm1.8-4.51l-.46-.35-1.06,1.37,.42,.32c.51,.39,1.02,.4,1.37-.05,.33-.43,.24-.89-.28-1.29Z"/><path class="cls-1" d="M40.18,125.4c-1.48-.9-1.71-2.36-.83-3.8,.87-1.45,2.33-1.91,3.75-1.05,.6,.36,.96,.78,1.2,1.23l-.63,.76c-.2-.46-.51-.91-1.02-1.22-.91-.55-1.77-.17-2.37,.83-.6,1-.53,1.95,.41,2.52,.32,.2,.6,.27,.9,.29l.63-1.03-.95-.57,.32-.78,1.87,1.13-1.34,2.23c-.61,.02-1.3-.14-1.92-.52Z"/><path class="cls-1" d="M47.65,129.1l.97-2.16-2.11-.95-.97,2.16-.96-.43,2.24-4.97,.96,.43-.88,1.96,2.11,.95,.88-1.96,.96,.43-2.24,4.97-.96-.43Z"/><path class="cls-1" d="M57,130.15l-.45-.12-.5,1.95-1.01-.26,1.35-5.28,1.55,.39c1.21,.31,1.79,1.05,1.52,2.12-.29,1.14-1.25,1.51-2.46,1.2Zm.68-2.52l-.48-.12-.44,1.71,.44,.11c.65,.17,1.1,0,1.26-.61,.14-.55-.13-.92-.78-1.09Z"/><path class="cls-1" d="M61.24,133.13l.81-5.39,3.13,.47-.13,.88-2.11-.32-.19,1.28,1.63,.24v.89s-1.76-.27-1.76-.27l-.22,1.49,2.19,.33-.13,.87-3.21-.48Z"/><path class="cls-1" d="M70.78,134.05l-2.42-3.85-.15,3.75-.97-.04,.22-5.45,.99,.04,2.3,3.67,.14-3.57,.97,.04-.22,5.45-.87-.04Z"/><path class="cls-1" d="M78.32,133.74l-2.86-3.54,.3,3.74-.97,.08-.43-5.44,.98-.08,2.73,3.37-.28-3.56,.97-.08,.43,5.44-.87,.07Z"/><path class="cls-1" d="M83.76,133c-.65,.13-1.24,.08-1.76-.05l-.03-.97c.5,.18,1.1,.28,1.64,.18,.47-.09,.76-.38,.67-.81-.08-.4-.29-.52-1.13-.71-1.12-.23-1.61-.49-1.77-1.32-.18-.95,.44-1.64,1.44-1.83,.61-.12,1.05-.07,1.47,.05l.02,.96c-.44-.18-.93-.26-1.35-.18-.51,.1-.69,.39-.63,.72,.07,.34,.27,.47,1.07,.64,1.19,.24,1.67,.54,1.82,1.37,.2,1.05-.46,1.74-1.49,1.94Z"/><path class="cls-1" d="M89.95,129.23l.61,2-1,.3-.6-1.99-2.78-2.56,.99-.48,2.04,1.96,.59-2.7,1.07-.32-.91,3.8Z"/><path class="cls-1" d="M94.9,129.7l-2.12-5.02,.97-.41,1.76,4.17,1.68-.71,.49,.8-2.77,1.17Z"/><path class="cls-1" d="M101.84,126.44l-.9,.49-4.3-3.75,.88-.69,3.26,2.99-.7-4.31,.96-.52,.8,5.79Z"/><path class="cls-1" d="M103.61,118.93l.92-.63,4.68,3.27-.75,.75-1.25-.89-1.71,1.17,.38,1.42-.85,.59-1.42-5.67Zm1.64,2.8l1.23-.85-1.81-1.32,.58,2.16Z"/><path class="cls-1" d="M114.06,117.63l-4.41-1.11,2.49,2.81-.73,.64-3.61-4.09,.74-.65,4.2,1.05-2.37-2.68,.73-.64,3.61,4.09-.65,.58Z"/><path class="cls-1" d="M116.92,114.8l-3.98-3.73,.72-.77,3.98,3.73-.72,.77Z"/><path class="cls-1" d="M116.43,107.02l.68-.88,5.45,1.69-.49,.94-1.46-.47-1.27,1.64,.79,1.23-.63,.82-3.08-4.97Zm2.42,2.17l.91-1.18-2.12-.7,1.21,1.89Z"/><path class="cls-1" d="M126.43,101.81l-3.83-2.09-.15,1.16-.75-.28,.1-1.45,.43-.78,4.7,2.56-.48,.89Z"/><path class="cls-1" d="M126.92,95.48c.07,.45,.04,.89-.16,1.33-.39,.88-1.18,1.23-2.17,.79-1.01-.45-1.35-1.49-.91-2.49,.48-1.07,1.53-1.5,2.88-.9,1.72,.77,2.17,2.36,1.76,4.14l-.82-.23c.24-1.06,.15-2.01-.58-2.64Zm-.66-.38h-.03c-.9-.42-1.57-.24-1.83,.34-.23,.51-.05,1,.53,1.26,.56,.25,.98,.11,1.24-.47,.16-.35,.18-.72,.09-1.13Z"/><path class="cls-1" d="M130.94,91.77c-.41,1.21-1.62,1.71-3.31,1.14-1.69-.57-2.36-1.69-1.95-2.91,.4-1.21,1.62-1.7,3.31-1.13,1.69,.57,2.36,1.69,1.95,2.9Zm-4.49-1.51c-.23,.68,.3,1.29,1.5,1.69,1.2,.4,1.99,.24,2.22-.44,.23-.68-.31-1.27-1.51-1.67-1.2-.4-1.98-.26-2.21,.43Z"/><path class="cls-1" d="M132.6,85.84c-.28,1.25-1.44,1.86-3.18,1.47-1.73-.39-2.52-1.45-2.23-2.7,.28-1.24,1.44-1.85,3.18-1.46,1.73,.39,2.52,1.45,2.23,2.69Zm-4.62-1.05c-.16,.7,.43,1.25,1.66,1.53,1.23,.28,2,.04,2.16-.66,.16-.7-.43-1.23-1.67-1.51-1.23-.28-2-.06-2.16,.64Z"/></g><g><path class="cls-1" d="M17.18,65.75c-.22,2.24-1.94,3.48-4.32,3.24-2.38-.24-3.84-1.86-3.62-4.02,.09-.89,.37-1.56,.77-2.09l1.37,.35c-.43,.46-.79,1.05-.87,1.8-.14,1.36,.81,2.29,2.48,2.46,1.69,.17,2.78-.62,2.92-1.98,.07-.71-.12-1.38-.45-2.01l1.29-.07c.33,.65,.52,1.46,.43,2.32Z"/><path class="cls-1" d="M10.5,58.05l.37-1.53,8.01-1-.08,1.5-2.15,.25-.68,2.85,1.74,1.13-.34,1.42-6.86-4.61Zm4.38,1.39l.49-2.05-3.15,.33,2.66,1.73Z"/><path class="cls-1" d="M21.12,50.43l-3.56,.8-.23,.59,2.75,1.07-.54,1.37-7.19-2.8,.87-2.23c.62-1.6,1.76-2.28,3.16-1.73,1.05,.41,1.49,1.23,1.45,2.24l3.58-.84-.29,1.52Zm-6.83-.66l-.3,.76,2.28,.89,.27-.7c.33-.85,.13-1.54-.62-1.84-.72-.28-1.3,.02-1.64,.89Z"/><path class="cls-1" d="M24.66,43.33l-6.41,.57,4.63,2.6-.67,1.2-6.73-3.77,.68-1.22,6.1-.55-4.41-2.47,.67-1.2,6.73,3.77-.6,1.07Z"/><path class="cls-1" d="M26.46,40.54l-6.17-4.62,2.69-3.59,1,.75-1.81,2.42,1.47,1.1,1.39-1.86,1.11,.58-1.51,2.02,1.71,1.28,1.88-2.5,1,.75-2.75,3.68Z"/><path class="cls-1" d="M32.72,33.28c-1.7,1.76-3.79,1.6-5.5-.06-1.72-1.67-1.89-3.81-.26-5.5,.68-.71,1.38-1.07,2.08-1.26l.84,1.11c-.7,.13-1.41,.41-2,1.02-1.05,1.08-.79,2.39,.39,3.54,1.19,1.15,2.52,1.35,3.6,.24,.37-.39,.56-.74,.68-1.15l-1.23-1.19-1.09,1.12-.98-.7,2.16-2.22,2.64,2.56c-.17,.85-.61,1.75-1.32,2.49Z"/><path class="cls-1" d="M36.06,29.96l-4.94-5.93,1.14-.95,4.93,5.93-1.14,.95Z"/><path class="cls-1" d="M38.87,27.66l-4.39-6.34,3.69-2.55,.71,1.03-2.48,1.72,1.04,1.51,1.91-1.32,.87,.91-2.08,1.44,1.21,1.76,2.57-1.78,.71,1.03-3.78,2.61Z"/><path class="cls-1" d="M53.05,19.94l-2.59-5.02,.43,5.96-1.19,.51-4.01-4.44,1.85,5.34-1.22,.52-2.48-7.33,1.73-.74,4.08,4.59-.49-6.12,1.7-.72,3.57,6.86-1.36,.58Z"/><path class="cls-1" d="M56.22,18.94l-1.91-7.47,4.34-1.11,.31,1.21-2.92,.75,.45,1.78,2.25-.58,.5,1.15-2.45,.63,.53,2.07,3.03-.78,.31,1.21-4.45,1.14Z"/><path class="cls-1" d="M62.3,17.51l-1.09-7.63,1.47-.21,.9,6.34,2.54-.36,.38,1.27-4.22,.6Z"/><path class="cls-1" d="M68.03,16.81l-.29-7.71,1.49-.06,.24,6.4,2.57-.1,.25,1.3-4.26,.16Z"/><path class="cls-1" d="M76.51,17.02c-2.18-.18-3.47-1.9-3.27-4.27,.19-2.38,1.75-3.88,3.95-3.71,2.21,.18,3.47,1.9,3.28,4.27-.19,2.37-1.74,3.88-3.95,3.71Zm.56-6.75c-1.31-.11-2.19,.91-2.33,2.59-.14,1.68,.57,2.83,1.88,2.93,1.33,.11,2.2-.91,2.34-2.59,.14-1.68-.58-2.83-1.89-2.93Z"/><path class="cls-1" d="M86.57,18.61l-2.32-6-1.22,5.17-1.34-.32,1.77-7.51,1.36,.32,2.21,5.71,1.16-4.92,1.34,.32-1.77,7.51-1.2-.28Z"/><path class="cls-1" d="M95.1,21.89c-1.69-.78-2.34-2.3-1.49-4.13l1.98-4.29,1.34,.62-1.95,4.22c-.49,1.07-.31,1.96,.67,2.41,.99,.46,1.78,.06,2.28-1.02l1.97-4.25,1.35,.62-1.97,4.26c-.86,1.86-2.48,2.33-4.17,1.54Z"/><path class="cls-1" d="M103.84,26.74l-.13-6.43-2.91,4.44-1.15-.75,4.23-6.45,1.17,.77,.13,6.12,2.77-4.23,1.15,.75-4.22,6.45-1.03-.67Z"/><path class="cls-1" d="M106.52,28.79l4.9-5.96,1.15,.94-4.9,5.96-1.15-.94Z"/><path class="cls-1" d="M111.74,33.59l-1.02-1.03,3.37-7.33,1.29,.92-2.75,5.62,5.57-2.67,1.09,1.1-7.54,3.4Z"/><path class="cls-1" d="M114.64,36.73l6.12-4.69,2.73,3.56-.99,.76-1.84-2.4-1.46,1.12,1.41,1.84-.86,.91-1.54-2-1.69,1.3,1.9,2.48-.99,.76-2.79-3.65Z"/><path class="cls-1" d="M120.4,45.35l1.57-3.29-.32-.55-2.54,1.5-.75-1.27,6.64-3.93,1.22,2.06c.88,1.48,.7,2.79-.59,3.55-.97,.57-1.88,.41-2.66-.24l-1.55,3.33-1.01-1.17Zm4.74-4.97l-.41-.7-2.11,1.25,.38,.64c.47,.79,1.13,1.06,1.82,.65,.66-.39,.79-1.04,.32-1.84Z"/><path class="cls-1" d="M122.59,49.87c-.38-.86-.5-1.68-.48-2.44l1.33-.34c-.09,.75-.04,1.6,.26,2.31,.27,.62,.76,.92,1.32,.68,.52-.23,.63-.57,.62-1.78-.04-1.62,.17-2.37,1.27-2.85,1.25-.55,2.4,.1,2.97,1.42,.35,.8,.43,1.42,.38,2.05l-1.32,.33c.11-.66,.07-1.36-.18-1.91-.3-.68-.75-.83-1.18-.64-.45,.2-.57,.52-.55,1.68,.04,1.71-.23,2.47-1.32,2.94-1.38,.6-2.54-.1-3.14-1.46Z"/><path class="cls-1" d="M124.26,53.88l7.32-2.43,.47,1.41-7.32,2.43-.47-1.41Z"/><path class="cls-1" d="M132.28,58.65l-6.26,1.46-.34-1.44,6.26-1.46-.53-2.26,1.25-.29,1.36,5.83-1.2,.5-.55-2.34Z"/><path class="cls-1" d="M129.98,66.4l-2.93,.32-.16-1.47,2.92-.32,4.29-3.18,.41,1.51-3.26,2.32,3.59,1.52,.17,1.57-5.03-2.27Z"/></g></g></svg>