  0
SECTION
  2
HEADER
  9
$ACADVER
  1
AC1015
  9
$ACADMAINTVER
 70
     6
  9
$DWGCODEPAGE
  3
ANSI_1252
  9
$INSBASE
 10
0.0
 20
0.0
 30
0.0
  9
$EXTMIN
 10
0.0
 20
1.0
 30
0.0
  9
$EXTMAX
 10
349.0
 20
349.0
 30
0.0
  9
$LIMMIN
 10
0.0
 20
0.0
  9
$LIMMAX
 10
420.0
 20
297.0
  9
$ORTHOMODE
 70
     0
  9
$REGENMODE
 70
     1
  9
$FILLMODE
 70
     1
  9
$QTEXTMODE
 70
     0
  9
$MIRRTEXT
 70
     1
  9
$LTSCALE
 40
1.0
  9
$ATTMODE
 70
     1
  9
$TEXTSIZE
 40
3.5
  9
$TRACEWID
 40
1.0
  9
$TEXTSTYLE
  7
Standard
  9
$CLAYER
  8
0
  9
$CELTYPE
  6
ByLayer
  9
$CECOLOR
 62
   256
  9
$CELTSCALE
 40
1.0
  9
$DISPSILH
 70
     0
  9
$DIMSCALE
 40
1.0
  9
$DIMASZ
 40
3.556
  9
$DIMEXO
 40
0.0
  9
$DIMDLI
 40
3.75
  9
$DIMRND
 40
0.0
  9
$DIMDLE
 40
0.0
  9
$DIMEXE
 40
1.0
  9
$DIMTP
 40
0.0
  9
$DIMTM
 40
0.0
  9
$DIMTXT
 40
3.5
  9
$DIMCEN
 40
2.5
  9
$DIMTSZ
 40
0.0
  9
$DIMTOL
 70
     0
  9
$DIMLIM
 70
     0
  9
$DIMTIH
 70
     1
  9
$DIMTOH
 70
     1
  9
$DIMSE1
 70
     0
  9
$DIMSE2
 70
     0
  9
$DIMTAD
 70
     1
  9
$DIMZIN
 70
     1
  9
$DIMBLK
  1

  9
$DIMASO
 70
     1
  9
$DIMSHO
 70
     1
  9
$DIMPOST
  1

  9
$DIMAPOST
  1

  9
$DIMALT
 70
     0
  9
$DIMALTD
 70
     3
  9
$DIMALTF
 40
0.0393700787
  9
$DIMLFAC
 40
1.0
  9
$DIMTOFL
 70
     1
  9
$DIMTVP
 40
0.0
  9
$DIMTIX
 70
     0
  9
$DIMSOXD
 70
     0
  9
$DIMSAH
 70
     0
  9
$DIMBLK1
  1

  9
$DIMBLK2
  1

  9
$DIMSTYLE
  2
ISO-25
  9
$DIMCLRD
 70
     0
  9
$DIMCLRE
 70
     0
  9
$DIMCLRT
 70
     0
  9
$DIMTFAC
 40
1.0
  9
$DIMGAP
 40
1.524
  9
$DIMJUST
 70
     0
  9
$DIMSD1
 70
     0
  9
$DIMSD2
 70
     0
  9
$DIMTOLJ
 70
     0
  9
$DIMTZIN
 70
     1
  9
$DIMALTZ
 70
     0
  9
$DIMALTTZ
 70
     0
  9
$DIMUPT
 70
     0
  9
$DIMDEC
 70
     2
  9
$DIMTDEC
 70
     2
  9
$DIMALTU
 70
     2
  9
$DIMALTTD
 70
     3
  9
$DIMTXSTY
  7
Standard
  9
$DIMAUNIT
 70
     0
  9
$DIMADEC
 70
     2
  9
$DIMALTRND
 40
0.0
  9
$DIMAZIN
 70
     0
  9
$DIMDSEP
 70
    44
  9
$DIMATFIT
 70
     3
  9
$DIMFRAC
 70
     0
  9
$DIMLDRBLK
  1

  9
$DIMLUNIT
 70
     2
  9
$DIMLWD
 70
    -2
  9
$DIMLWE
 70
    -2
  9
$DIMTMOVE
 70
     0
  9
$LUNITS
 70
     2
  9
$LUPREC
 70
     6
  9
$SKETCHINC
 40
1.0
  9
$FILLETRAD
 40
0.0
  9
$AUNITS
 70
     0
  9
$AUPREC
 70
     2
  9
$MENU
  1
.
  9
$ELEVATION
 40
0.0
  9
$PELEVATION
 40
0.0
  9
$THICKNESS
 40
0.0
  9
$LIMCHECK
 70
     0
  9
$CHAMFERA
 40
0.0
  9
$CHAMFERB
 40
0.0
  9
$CHAMFERC
 40
0.0
  9
$CHAMFERD
 40
0.0
  9
$SKPOLY
 70
     0
  9
$TDCREATE
 40
2460541.901922049
  9
$TDUCREATE
 40
2460542.068588715
  9
$TDUPDATE
 40
2460541.901976354
  9
$TDUUPDATE
 40
2460542.068643021
  9
$TDINDWG
 40
0.0000000116
  9
$TDUSRTIMER
 40
0.0000000116
  9
$USRTIMER
 70
     1
  9
$ANGBASE
 50
0.0
  9
$ANGDIR
 70
     0
  9
$PDMODE
 70
     0
  9
$PDSIZE
 40
-1.0
  9
$PLINEWID
 40
0.0
  9
$SPLFRAME
 70
     0
  9
$SPLINETYPE
 70
     6
  9
$SPLINESEGS
 70
     8
  9
$HANDSEED
  5
288
  9
$SURFTAB1
 70
     6
  9
$SURFTAB2
 70
     6
  9
$SURFTYPE
 70
     6
  9
$SURFU
 70
     6
  9
$SURFV
 70
     6
  9
$UCSBASE
  2

  9
$UCSNAME
  2

  9
$UCSORG
 10
0.0
 20
0.0
 30
0.0
  9
$UCSXDIR
 10
1.0
 20
0.0
 30
0.0
  9
$UCSYDIR
 10
0.0
 20
1.0
 30
0.0
  9
$UCSORTHOREF
  2

  9
$UCSORTHOVIEW
 70
     0
  9
$UCSORGTOP
 10
0.0
 20
0.0
 30
0.0
  9
$UCSORGBOTTOM
 10
0.0
 20
0.0
 30
0.0
  9
$UCSORGLEFT
 10
0.0
 20
0.0
 30
0.0
  9
$UCSORGRIGHT
 10
0.0
 20
0.0
 30
0.0
  9
$UCSORGFRONT
 10
0.0
 20
0.0
 30
0.0
  9
$UCSORGBACK
 10
0.0
 20
0.0
 30
0.0
  9
$PUCSBASE
  2

  9
$PUCSNAME
  2

  9
$PUCSORG
 10
0.0
 20
0.0
 30
0.0
  9
$PUCSXDIR
 10
1.0
 20
0.0
 30
0.0
  9
$PUCSYDIR
 10
0.0
 20
1.0
 30
0.0
  9
$PUCSORTHOREF
  2

  9
$PUCSORTHOVIEW
 70
     0
  9
$PUCSORGTOP
 10
0.0
 20
0.0
 30
0.0
  9
$PUCSORGBOTTOM
 10
0.0
 20
0.0
 30
0.0
  9
$PUCSORGLEFT
 10
0.0
 20
0.0
 30
0.0
  9
$PUCSORGRIGHT
 10
0.0
 20
0.0
 30
0.0
  9
$PUCSORGFRONT
 10
0.0
 20
0.0
 30
0.0
  9
$PUCSORGBACK
 10
0.0
 20
0.0
 30
0.0
  9
$USERI1
 70
     0
  9
$USERI2
 70
     0
  9
$USERI3
 70
     0
  9
$USERI4
 70
     0
  9
$USERI5
 70
     0
  9
$USERR1
 40
0.0
  9
$USERR2
 40
0.0
  9
$USERR3
 40
0.0
  9
$USERR4
 40
0.0
  9
$USERR5
 40
0.0
  9
$WORLDVIEW
 70
     1
  9
$SHADEDGE
 70
     3
  9
$SHADEDIF
 70
    70
  9
$TILEMODE
 70
     1
  9
$MAXACTVP
 70
    64
  9
$PINSBASE
 10
0.0
 20
0.0
 30
0.0
  9
$PLIMCHECK
 70
     0
  9
$PEXTMIN
 10
1.0000000000E+20
 20
1.0000000000E+20
 30
1.0000000000E+20
  9
$PEXTMAX
 10
-1.0000000000E+20
 20
-1.0000000000E+20
 30
-1.0000000000E+20
  9
$PLIMMIN
 10
0.0
 20
0.0
  9
$PLIMMAX
 10
420.0
 20
297.0
  9
$UNITMODE
 70
     0
  9
$VISRETAIN
 70
     1
  9
$PLINEGEN
 70
     0
  9
$PSLTSCALE
 70
     1
  9
$TREEDEPTH
 70
  3020
  9
$CMLSTYLE
  2
Standard
  9
$CMLJUST
 70
     0
  9
$CMLSCALE
 40
20.0
  9
$PROXYGRAPHICS
 70
     1
  9
$MEASUREMENT
 70
     1
  9
$CELWEIGHT
370
    -1
  9
$ENDCAPS
280
     0
  9
$JOINSTYLE
280
     0
  9
$LWDISPLAY
290
     1
  9
$INSUNITS
 70
     4
  9
$HYPERLINKBASE
  1

  9
$STYLESHEET
  1

  9
$XEDIT
290
     1
  9
$CEPSNTYPE
380
     0
  9
$PSTYLEMODE
290
     1
  9
$FINGERPRINTGUID
  2
{2c2558bf-387c-4b4c-8bce-9a85f28a4fa4}
  9
$VERSIONGUID
  2
{FAEB1C32-E019-11D5-929B-00C0DF256EC4}
  9
$EXTNAMES
290
     1
  9
$PSVPSCALE
 40
0.0
  9
$OLESTARTUP
290
     0
  0
ENDSEC
  0
SECTION
  2
CLASSES
  0
CLASS
  1
ACDBDICTIONARYWDFLT
  2
AcDbDictionaryWithDefault
  3
ObjectDBX Classes
 90
        0
280
     0
281
     0
  0
CLASS
  1
VISUALSTYLE
  2
AcDbVisualStyle
  3
ObjectDBX Classes
 90
     4095
280
     0
281
     0
  0
CLASS
  1
MATERIAL
  2
AcDbMaterial
  3
ObjectDBX Classes
 90
     1153
280
     0
281
     0
  0
CLASS
  1
SCALE
  2
AcDbScale
  3
ObjectDBX Classes
 90
     1153
280
     0
281
     0
  0
CLASS
  1
TABLESTYLE
  2
AcDbTableStyle
  3
ObjectDBX Classes
 90
     4095
280
     0
281
     0
  0
CLASS
  1
MLEADERSTYLE
  2
AcDbMLeaderStyle
  3
ACDB_MLEADERSTYLE_CLASS
 90
     4095
280
     0
281
     0
  0
CLASS
  1
SUN
  2
AcDbSun
  3
SCENEOE
 90
     1153
280
     0
281
     0
  0
CLASS
  1
ACDBPLACEHOLDER
  2
AcDbPlaceHolder
  3
ObjectDBX Classes
 90
        0
280
     0
281
     0
  0
CLASS
  1
LAYOUT
  2
AcDbLayout
  3
ObjectDBX Classes
 90
        0
280
     0
281
     0
  0
ENDSEC
  0
SECTION
  2
TABLES
  0
TABLE
  2
VPORT
  5
8
330
0
100
AcDbSymbolTable
 70
     1
  0
VPORT
  5
29
330
8
100
AcDbSymbolTableRecord
100
AcDbViewportTableRecord
  2
*Active
 70
     0
 10
0.0
 20
0.0
 11
1.0
 21
1.0
 12
174.5
 22
175.0
 13
0.0
 23
0.0
 14
10.0
 24
10.0
 15
10.0
 25
10.0
 16
0.0
 26
0.0
 36
1.0
 17
0.0
 27
0.0
 37
0.0
 40
354.96
 41
1.0028735632
 42
50.0
 43
0.0
 44
0.0
 50
0.0
 51
0.0
 71
     0
 72
   100
 73
     1
 74
     3
 75
     0
 76
     0
 77
     0
 78
     0
281
     0
 65
     1
110
0.0
120
0.0
130
0.0
111
1.0
121
0.0
131
0.0
112
0.0
122
1.0
132
0.0
 79
     0
146
0.0
  0
ENDTAB
  0
TABLE
  2
LTYPE
  5
5
330
0
100
AcDbSymbolTable
 70
     6
  0
LTYPE
  5
14
330
5
100
AcDbSymbolTableRecord
100
AcDbLinetypeTableRecord
  2
ByBlock
 70
     0
  3

 72
    65
 73
     0
 40
0.0
  0
LTYPE
  5
15
330
5
100
AcDbSymbolTableRecord
100
AcDbLinetypeTableRecord
  2
ByLayer
 70
     0
  3

 72
    65
 73
     0
 40
0.0
  0
LTYPE
  5
16
330
5
100
AcDbSymbolTableRecord
100
AcDbLinetypeTableRecord
  2
Continuous
 70
     0
  3
Solid line
 72
    65
 73
     0
 40
0.0
  0
LTYPE
  5
5E
330
5
100
AcDbSymbolTableRecord
100
AcDbLinetypeTableRecord
  2
HIDDEN
 70
     0
  3
Hidden __ __ __ __ __ __ __ __ __ __ __ __ __ __
 72
    65
 73
     2
 40
1.905
 49
1.27
 74
     0
 49
-0.635
 74
     0
  0
LTYPE
  5
5F
330
5
100
AcDbSymbolTableRecord
100
AcDbLinetypeTableRecord
  2
PHANTOM
 70
     0
  3
Phantom ______  __  __  ______  __  __  ______
 72
    65
 73
     6
 40
12.7
 49
6.35
 74
     0
 49
-1.27
 74
     0
 49
1.27
 74
     0
 49
-1.27
 74
     0
 49
1.27
 74
     0
 49
-1.27
 74
     0
  0
LTYPE
  5
60
330
5
100
AcDbSymbolTableRecord
100
AcDbLinetypeTableRecord
  2
CENTER
 70
     0
  3
Center ____ _ ____ _ ____ _ ____ _ ____ _ ____
 72
    65
 73
     4
 40
10.16
 49
6.35
 74
     0
 49
-1.27
 74
     0
 49
1.27
 74
     0
 49
-1.27
 74
     0
  0
LTYPE
  5
61
330
5
100
AcDbSymbolTableRecord
100
AcDbLinetypeTableRecord
  2
CENTERX2
 70
     0
  3
Center (2x) ________  __  ________  __  _____
 72
    65
 73
     4
 40
20.32
 49
12.7
 74
     0
 49
-2.54
 74
     0
 49
2.54
 74
     0
 49
-2.54
 74
     0
  0
LTYPE
  5
62
330
5
100
AcDbSymbolTableRecord
100
AcDbLinetypeTableRecord
  2
DOT2
 70
     0
  3
Dot (.5x) ........................................
 72
    65
 73
     2
 40
0.635
 49
0.0
 74
     0
 49
-0.635
 74
     0
  0
ENDTAB
  0
TABLE
  2
LAYER
  5
2
330
0
100
AcDbSymbolTable
 70
     1
  0
LAYER
  5
10
330
2
100
AcDbSymbolTableRecord
100
AcDbLayerTableRecord
  2
0
 70
     0
 62
     7
  6
Continuous
370
    -3
390
F
  0
ENDTAB
  0
TABLE
  2
STYLE
  5
3
330
0
100
AcDbSymbolTable
 70
     2
  0
STYLE
  5
11
330
3
100
AcDbSymbolTableRecord
100
AcDbTextStyleTableRecord
  2
Standard
 70
     0
 40
0.0
 41
1.0
 50
0.0
 71
     0
 42
3.5
  3
txt
  4

  0
STYLE
  5
284
330
3
100
AcDbSymbolTableRecord
100
AcDbTextStyleTableRecord
  2
SLDTEXTSTYLE0
 70
     0
 40
0.0
 41
0.7
 50
0.0
 71
     0
 42
3.5
  3
TXT
  4

  0
ENDTAB
  0
TABLE
  2
VIEW
  5
6
330
0
100
AcDbSymbolTable
 70
     0
  0
ENDTAB
  0
TABLE
  2
UCS
  5
7
330
0
100
AcDbSymbolTable
 70
     0
  0
ENDTAB
  0
TABLE
  2
APPID
  5
9
330
0
100
AcDbSymbolTable
 70
     1
  0
APPID
  5
12
330
9
100
AcDbSymbolTableRecord
100
AcDbRegAppTableRecord
  2
ACAD
 70
     0
  0
ENDTAB
  0
TABLE
  2
DIMSTYLE
  5
A
330
0
100
AcDbSymbolTable
 70
     1
100
AcDbDimStyleTable
  0
DIMSTYLE
105
27
330
A
100
AcDbSymbolTableRecord
100
AcDbDimStyleTableRecord
  2
ISO-25
 70
     0
 41
2.5
 42
0.625
 43
3.75
 44
1.25
 73
     0
 74
     0
 77
     1
 78
     8
140
2.5
141
2.5
143
0.0393700787
147
0.625
171
     3
172
     1
178
     0
271
     2
272
     2
274
     3
278
    44
283
     0
284
     8
340
11
  0
ENDTAB
  0
TABLE
  2
BLOCK_RECORD
  5
1
330
0
100
AcDbSymbolTable
 70
     1
  0
BLOCK_RECORD
  5
1F
330
1
100
AcDbSymbolTableRecord
100
AcDbBlockTableRecord
  2
*Model_Space
340
22
  0
BLOCK_RECORD
  5
1B
330
1
100
AcDbSymbolTableRecord
100
AcDbBlockTableRecord
  2
*Paper_Space
340
1E
  0
BLOCK_RECORD
  5
23
330
1
100
AcDbSymbolTableRecord
100
AcDbBlockTableRecord
  2
*Paper_Space0
340
26
  0
ENDTAB
  0
ENDSEC
  0
SECTION
  2
BLOCKS
  0
BLOCK
  5
20
330
1F
100
AcDbEntity
  8
0
100
AcDbBlockBegin
  2
*Model_Space
 70
     0
 10
0.0
 20
0.0
 30
0.0
  3
*Model_Space
  1

  0
ENDBLK
  5
21
330
1F
100
AcDbEntity
  8
0
100
AcDbBlockEnd
  0
BLOCK
  5
1C
330
1B
100
AcDbEntity
 67
     1
  8
0
100
AcDbBlockBegin
  2
*Paper_Space
 70
     0
 10
0.0
 20
0.0
 30
0.0
  3
*Paper_Space
  1

  0
ENDBLK
  5
1D
330
1B
100
AcDbEntity
 67
     1
  8
0
100
AcDbBlockEnd
  0
BLOCK
  5
24
330
23
100
AcDbEntity
  8
0
100
AcDbBlockBegin
  2
*Paper_Space0
 70
     0
 10
0.0
 20
0.0
 30
0.0
  3
*Paper_Space0
  1

  0
ENDBLK
  5
25
330
23
100
AcDbEntity
  8
0
100
AcDbBlockEnd
  0
ENDSEC
  0
SECTION
  2
ENTITIES
  0
CIRCLE
  5
C5
330
1F
100
AcDbEntity
  8
0
  6
Continuous
 62
     7
370
    25
100
AcDbCircle
 10
261.2448866301
 20
233.8135625396
 30
0.0
 40
19.22261135699523
  0
CIRCLE
  5
C6
330
1F
100
AcDbEntity
  8
0
  6
Continuous
 62
     7
370
    25
100
AcDbCircle
 10
88.6533843155
 20
176.0
 30
0.0
 40
19.48395244337516
  0
CIRCLE
  5
C7
330
1F
100
AcDbEntity
  8
0
  6
Continuous
 62
     7
370
    25
100
AcDbCircle
 10
261.0603683944
 20
176.7057767127
 30
0.0
 40
19.42242112975023
  0
CIRCLE
  5
C8
330
1F
100
AcDbEntity
  8
0
  6
Continuous
 62
     7
370
    25
100
AcDbCircle
 10
89.807533952
 20
118.3605916961
 30
0.0
 40
20.15333042958758
  0
CIRCLE
  5
C9
330
1F
100
AcDbEntity
  8
0
  6
Continuous
 62
     7
370
    25
100
AcDbCircle
 10
88.8466211472
 20
233.0004441055
 30
0.0
 40
19.88227552962323
  0
CIRCLE
  5
CA
330
1F
100
AcDbEntity
  8
0
  6
Continuous
 62
     7
370
    25
100
AcDbCircle
 10
261.0603683944
 20
120.0004441055
 30
0.0
 40
19.23744380967784
  0
LWPOLYLINE
  5
CB
330
1F
100
AcDbEntity
  8
0
  6
Continuous
 62
     7
370
    25
100
AcDbPolyline
 90
       48
 70
   128
 43
0.0
 10
195.8890543714
 20
260.9451560408
 10
196.0045607162
 20
263.5078077079
 10
195.7702362654
 20
266.0643068015
 10
195.1902625443
 20
268.5690325348
 10
194.2749891978
 20
270.9772880177
 10
193.0407493004
 20
273.246097874
 10
191.5095678924
 20
275.3349751382
 10
189.7087689421
 20
277.2066437459
 10
187.6704877496
 20
278.8277037266
 10
185.4310974909
 20
280.1692272264
 10
183.0305601384
 20
281.2072747267
 10
180.511713338
 20
281.9233222453
 10
177.9195059704
 20
282.3045918972
 10
175.3001960376
 20
282.3442799165
 10
172.7005251874
 20
282.0416780696
 10
170.1668846076
 20
281.4021862935
 10
167.7444871745
 20
280.4372163341
 10
165.4765606276
 20
279.1639881034
 10
163.4035761699
 20
277.605222389
 10
161.5625262582
 20
275.7887354023
 10
159.9862644717
 20
273.7469423965
 10
158.7029192393
 20
271.5162792161
 10
157.7353918871
 20
269.1365520985
 10
157.1009479637
 20
266.6502273304
 10
156.8109091359
 20
264.1016734362
 10
156.8704511535
 20
261.5363694206
 10
157.2785114877
 20
259.0000931945
 10
158.0278082922
 20
256.5381046672
 10
159.1049703477
 20
254.1943380823
 10
160.4907756719
 20
252.0106180101
 10
162.160494536
 20
250.0259129869
 10
164.0843307672
 20
248.275640121
 10
166.2279534625
 20
246.7910330731
 10
168.553109624
 20
245.598584691
 10
171.0183067849
 20
244.7195742446
 10
173.5795534436
 20
244.1696876959
 10
176.1911440927
 20
243.9587377835
 10
178.8064748352
 20
244.0904889136
 10
181.378875032
 20
244.5625899841
 10
183.8624401408
 20
245.3666163403
 10
186.2128508833
 20
246.4882201127
 10
188.3881641241
 20
247.9073862555
 10
190.3495613469
 20
249.5987897152
 10
192.0620413718
 20
251.5322473571
 10
193.4950449521
 20
253.6732565837
 10
194.6230001052
 20
255.9836110346
 10
195.4257784444
 20
258.4220823799
 10
195.8890543714
 20
260.9451560408
  0
LWPOLYLINE
  5
CC
330
1F
100
AcDbEntity
  8
0
  6
Continuous
 62
     7
370
    25
100
AcDbPolyline
 90
       48
 70
   128
 43
0.0
 10
196.0395492221
 20
205.3541540633
 10
195.9567227788
 20
207.9228145961
 10
195.5251378994
 20
210.4582522697
 10
194.7524962265
 20
212.9152221388
 10
193.6525855688
 20
215.2498795179
 10
192.2450338583
 20
217.4205623907
 10
190.5549588884
 20
219.3885348699
 10
188.6125200871
 20
221.11867844
 10
186.4523803209
 20
222.5801186481
 10
184.1130873349
 20
223.746776059
 10
181.636385868
 20
224.5978316435
 10
179.0664727165
 20
225.1180982947
 10
176.4492080415
 20
225.2982918416
 10
173.8312969931
 20
225.1351967264
 10
171.2594562559
 20
224.6317233851
 10
168.779580389
 20
223.7968563115
 10
166.4359228358
 20
222.6454937282
 10
164.270306221
 20
221.1981817279
 10
162.3213760242
 20
219.4807476274
 10
160.6239109511
 20
217.5238390791
 10
159.2082023062
 20
215.3623771622
 10
158.0995134436
 20
213.0349332159
 10
157.3176289424
 20
210.5830405326
 10
156.8765015501
 20
208.0504531952
 10
156.7840031955
 20
205.4823652849
 10
157.0417845138
 20
202.9246043912
 10
157.6452453913
 20
200.4228138178
 10
158.5836170545
 20
198.0216380769
 10
159.8401542386
 20
195.7639262063
 10
161.3924340079
 20
193.6899671279
 10
163.2127558932
 20
191.8367706907
 10
165.2686362073
 20
190.2374072288
 10
167.5233877172
 20
188.9204174212
 10
169.9367743289
 20
187.9093029823
 10
172.465729101
 20
187.222107273
 10
175.0651227759
 20
186.8710933172
 10
177.6885691117
 20
186.8625249671
 10
180.2892526464
 20
187.1965551253
 10
182.8207641209
 20
187.8672230156
 10
185.2379286527
 20
188.8625605535
 10
187.4976118837
 20
190.1648059173
 10
189.5594897129
 20
191.7507205075
 10
191.3867678818
 20
193.5920036406
 10
192.946838568
 20
195.6557975756
 10
194.2118622732
 20
197.9052738607
 10
195.1592646195
 20
200.3002905385
 10
195.7721391896
 20
202.7981084795
 10
196.0395492221
 20
205.3541540633
  0
LWPOLYLINE
  5
CD
330
1F
100
AcDbEntity
  8
0
  6
Continuous
 62
     7
370
    25
100
AcDbPolyline
 90
       48
 70
   128
 43
0.0
 10
195.9447452185
 20
147.9480869996
 10
195.932061467
 20
150.5165064073
 10
195.5698787894
 20
153.0612709302
 10
194.864660344
 20
155.5369691849
 10
193.8289907708
 20
157.8994222775
 10
192.4813516178
 20
160.1064721767
 10
190.8457915376
 20
162.1187340245
 10
188.9514971387
 20
163.9002989608
 10
186.8322721493
 20
165.419374917
 10
184.5259341898
 20
166.6488539467
 10
182.0736399156
 20
167.5667959674
 10
179.5191505761
 20
168.1568202822
 10
176.9080510941
 20
168.408397893
 10
174.2869366017
 20
168.3170393915
 10
171.7025809492
 20
167.8843750723
 10
169.2011020243
 20
167.1181258404
 10
166.8271387778
 20
166.0319654315
 10
164.62305464
 20
164.6452764039
 10
162.6281815445
 20
162.982804256
 10
160.8781180491
 20
161.0742158428
 10
159.4040940783
 20
158.9535699697
 10
158.2324136247
 20
156.6587096126
 10
157.3839853538
 20
154.2305866089
 10
156.8739494882
 20
151.712530871
 10
156.71140763
 20
149.1494771634
 10
156.8992603425
 20
146.5871632401
 10
157.4341553896
 20
144.0713136539
 10
158.3065475565
 20
141.6468238001
 10
159.5008689843
 20
139.3569587576
 10
160.9958069789
 20
137.2425812224
 10
162.7646843363
 20
135.3414223118
 10
164.7759353982
 20
133.6874082514
 10
166.9936693417
 20
132.3100549614
 10
169.378310652
 20
131.2339413438
 10
171.8873053486
 20
130.4782706717
 10
174.4758803615
 20
130.0565279062
 10
177.0978425084
 20
129.9762390568
 10
179.7064028127
 20
130.23883688
 10
182.2550114538
 20
130.8396353113
 10
184.6981884503
 20
131.7679130887
 10
186.9923352507
 20
133.007105073
 10
189.0965127511
 20
134.5350978541
 10
190.9731718541
 20
136.3246243645
 10
192.5888235335
 20
138.3437504613
 10
193.9146364468
 20
140.5564447914
 10
194.9269514313
 20
142.9232217721
 10
195.607703702
 20
145.4018462121
 10
195.9447452185
 20
147.9480869996
  0
LWPOLYLINE
  5
CE
330
1F
100
AcDbEntity
  8
0
  6
Continuous
 62
     7
370
    25
100
AcDbPolyline
 90
       49
 70
   128
 43
0.0
 10
195.6350808886
 20
88.199423025
 10
195.9720998949
 20
90.7004944429
 10
195.9736194734
 20
93.2258379347
 10
195.6396136238
 20
95.732244173
 10
194.9757972788
 20
98.1768278521
 10
193.9935285201
 20
100.5177614677
 10
192.7096142384
 20
102.7149909964
 10
191.1460225631
 20
104.7309212319
 10
189.3295069812
 20
106.5310590488
 10
187.2911485781
 20
108.0846035901
 10
185.0658242311
 20
109.364973278
 10
182.6916098567
 20
110.350260632
 10
180.2091289213
 20
111.0236071125
 10
177.6608573617
 20
111.3734915743
 10
175.0903968111
 20
111.3939273974
 10
172.541728562
 20
111.0845649192
 10
170.0584610347
 20
110.4506974174
 10
167.6830836253
 20
109.5031705408
 10
165.4562396997
 20
108.2581967369
 10
163.416031175
 20
106.7370778526
 10
161.5973665845
 20
104.9658406539
 10
160.0313637838
 20
102.9747915002
 10
158.7448175148
 20
100.7979977946
 10
157.759740941
 20
98.4727050809
 10
157.0929889956
 20
96.0386997622
 10
156.7559699893
 20
93.5376283443
 10
156.7544504108
 20
91.0122848525
 10
157.0884562603
 20
88.5058786142
 10
157.7522726054
 20
86.061294935
 10
158.7345413641
 20
83.7203613195
 10
160.0184556458
 20
81.5231317907
 10
161.5820473211
 20
79.5072015553
 10
163.3985629029
 20
77.7070637383
 10
165.4369213061
 20
76.153519197
 10
167.6622456531
 20
74.8731495091
 10
170.0364600274
 20
73.8878621551
 10
172.5189409629
 20
73.2145156747
 10
175.0672125224
 20
72.8646312128
 10
177.6376730731
 20
72.8441953897
 10
180.1863413222
 20
73.1535578679
 10
182.6696088494
 20
73.7874253697
 10
185.0449862588
 20
74.7349522463
 10
187.2718301844
 20
75.9799260502
 10
189.3120387092
 20
77.5010449345
 10
191.1307032996
 20
79.2722821333
 10
192.6967061004
 20
81.2633312869
 10
193.9832523694
 20
83.4401249925
 10
194.9683289432
 20
85.7654177062
 10
195.6350808886
 20
88.199423025
  0
SPLINE
  5
D1
330
1F
100
AcDbEntity
  8
0
  6
Continuous
 62
     7
370
    25
100
AcDbSpline
210
0.0
220
0.0
230
1.0
 70
     8
 71
     3
 72
    17
 73
    13
 74
     0
 42
0.00000001
 43
0.00000001
 40
0.0
 40
0.0
 40
0.0
 40
0.0
 40
1.0
 40
1.0
 40
1.0
 40
2.0
 40
2.0
 40
2.0
 40
3.0
 40
3.0
 40
3.0
 40
4.0
 40
4.0
 40
4.0
 40
4.0
 10
152.0
 20
144.0
 30
0.0
 10
152.6666666666667
 20
141.3333333333333
 30
0.0
 10
152.8625645016365
 20
138.5023580963998
 30
0.0
 10
154.0
 20
136.0
 30
0.0
 10
156.9277150067792
 20
129.5590269850858
 30
0.0
 10
167.54880649305
 20
125.0
 30
0.0
 10
174.0000000000001
 20
125.0
 30
0.0
 10
179.3808379913258
 20
125.0
 30
0.0
 10
187.3222852819029
 20
124.7900567537125
 30
0.0
 10
192.0000000000001
 20
129.0
 30
0.0
 10
198.2284479099405
 20
134.6056031189464
 30
0.0
 10
197.9654117739021
 20
135.9192941391047
 30
0.0
 10
201.0000000000001
 20
143.0
 30
0.0
  0
SPLINE
  5
D8
330
1F
100
AcDbEntity
  8
0
  6
Continuous
 62
     7
370
    25
100
AcDbSpline
210
0.0
220
0.0
230
1.0
 70
     8
 71
     3
 72
    14
 73
    10
 74
     0
 42
0.00000001
 43
0.00000001
 40
0.0
 40
0.0
 40
0.0
 40
0.0
 40
1.0
 40
1.0
 40
1.0
 40
2.0
 40
2.0
 40
2.0
 40
3.0
 40
3.0
 40
3.0
 40
3.0
 10
154.0
 20
251.0
 30
0.0
 10
158.1738813695353
 20
244.739177945697
 30
0.0
 10
163.7929214619704
 20
239.6839232115025
 30
0.0
 10
172.0
 20
239.0
 30
0.0
 10
177.2022018159592
 20
238.5664831820034
 30
0.0
 10
187.0120392109353
 20
238.5108352898418
 30
0.0
 10
192.0000000000001
 20
243.0
 30
0.0
 10
198.2169304578182
 20
248.5952374120363
 30
0.0
 10
198.0000000000001
 20
247.1066373902945
 30
0.0
 10
198.0000000000001
 20
251.0
 30
0.0
  0
SPLINE
  5
132
330
1F
100
AcDbEntity
  8
0
  6
Continuous
 62
     7
370
    25
100
AcDbSpline
210
0.0
220
0.0
230
1.0
 70
     8
 71
     3
 72
    11
 73
     7
 74
     0
 42
0.00000001
 43
0.00000001
 40
0.0
 40
0.0
 40
0.0
 40
0.0
 40
1.0
 40
1.0
 40
1.0
 40
2.0
 40
2.0
 40
2.0
 40
2.0
 10
237.999951576796
 20
183.000444105523
 30
0.0
 10
235.9621137389611
 20
188.0274711325533
 30
0.0
 10
231.7508711854055
 20
192.6588500713713
 30
0.0
 10
231.8864380632859
 20
198.0815251866074
 30
0.0
 10
232.1023236964498
 20
206.7169505131664
 30
0.0
 10
236.6287804056291
 20
214.6941377992206
 30
0.0
 10
238.9999515767961
 20
223.000444105523
 30
0.0
  0
SPLINE
  5
134
330
1F
100
AcDbEntity
  8
0
  6
Continuous
 62
     7
370
    25
100
AcDbSpline
210
0.0
220
0.0
230
1.0
 70
     8
 71
     3
 72
     8
 73
     4
 74
     0
 42
0.00000001
 43
0.00000001
 40
0.0
 40
0.0
 40
0.0
 40
0.0
 40
1.0
 40
1.0
 40
1.0
 40
1.0
 10
132.0
 20
201.0
 30
0.0
 10
127.6892381117933
 20
205.3107618882067
 30
0.0
 10
131.6829130692923
 20
208.7865544059077
 30
0.0
 10
134.0
 20
214.0
 30
0.0
  0
SPLINE
  5
13A
330
1F
100
AcDbEntity
  8
0
  6
Continuous
 62
     7
370
    25
100
AcDbSpline
210
0.0
220
0.0
230
1.0
 70
     8
 71
     3
 72
    11
 73
     7
 74
     0
 42
0.00000001
 43
0.00000001
 40
0.0
 40
0.0
 40
0.0
 40
0.0
 40
1.0
 40
1.0
 40
1.0
 40
2.0
 40
2.0
 40
2.0
 40
2.0
 10
199.0000000000001
 20
159.0
 30
0.0
 10
192.8790171427847
 20
174.3024571430383
 30
0.0
 10
169.7673916210948
 20
179.8371544957398
 30
0.0
 10
158.0
 20
167.0
 30
0.0
 10
152.8233336866654
 20
161.3527276581805
 30
0.0
 10
153.0
 20
161.8653091975453
 30
0.0
 10
153.0
 20
158.0
 30
0.0
  0
SPLINE
  5
140
330
1F
100
AcDbEntity
  8
0
  6
Continuous
 62
     7
370
    25
100
AcDbSpline
210
0.0
220
0.0
230
1.0
 70
     8
 71
     3
 72
    20
 73
    16
 74
     0
 42
0.00000001
 43
0.00000001
 40
0.0
 40
0.0
 40
0.0
 40
0.0
 40
1.0
 40
1.0
 40
1.0
 40
2.0
 40
2.0
 40
2.0
 40
3.0
 40
3.0
 40
3.0
 40
4.0
 40
4.0
 40
4.0
 40
5.0
 40
5.0
 40
5.0
 40
5.0
 10
249.0000000000001
 20
59.0
 30
0.0
 10
249.3333333333334
 20
58.66666666666664
 30
0.0
 10
249.6124148839001
 20
58.26832815729993
 30
0.0
 10
250.0000000000001
 20
57.99999999999999
 30
0.0
 10
257.8228866360874
 20
52.58415540578565
 30
0.0
 10
267.0222877752143
 20
46.18551294611073
 30
0.0
 10
275.0000000000001
 20
40.99999999999998
 30
0.0
 10
277.6366204188246
 20
39.28619672776406
 30
0.0
 10
280.0167132219648
 20
36.99442892601174
 30
0.0
 10
283.0000000000001
 20
35.99999999999998
 30
0.0
 10
284.3038404810407
 20
35.5653865063198
 30
0.0
 10
285.9982941379096
 20
36.05900358409681
 30
0.0
 10
287.0000000000001
 20
36.99999999999998
 30
0.0
 10
297.1371328991306
 20
46.52276120827409
 30
0.0
 10
306.3333333333334
 20
56.99999999999999
 30
0.0
 10
316.0000000000001
 20
66.99999999999994
 30
0.0
  0
SPLINE
  5
156
330
1F
100
AcDbEntity
  8
0
  6
Continuous
 62
     7
370
    25
100
AcDbSpline
210
0.0
220
0.0
230
1.0
 70
     8
 71
     3
 72
    11
 73
     7
 74
     0
 42
0.00000001
 43
0.00000001
 40
0.0
 40
0.0
 40
0.0
 40
0.0
 40
1.0
 40
1.0
 40
1.0
 40
2.0
 40
2.0
 40
2.0
 40
2.0
 10
198.0000000000001
 20
299.0000000000001
 30
0.0
 10
209.3333333333334
 20
295.6666666666667
 30
0.0
 10
220.9041220971635
 20
293.0542630798826
 30
0.0
 10
232.0000000000001
 20
289.0000000000001
 30
0.0
 10
238.3007806554319
 20
286.6977916835923
 30
0.0
 10
244.0000000000001
 20
283.0000000000001
 30
0.0
 10
250.0000000000001
 20
280.0
 30
0.0
  0
SPLINE
  5
15A
330
1F
100
AcDbEntity
  8
0
  6
Continuous
 62
     7
370
    25
100
AcDbSpline
210
0.0
220
0.0
230
1.0
 70
     8
 71
     3
 72
    11
 73
     7
 74
     0
 42
0.00000001
 43
0.00000001
 40
0.0
 40
0.0
 40
0.0
 40
0.0
 40
1.0
 40
1.0
 40
1.0
 40
2.0
 40
2.0
 40
2.0
 40
2.0
 10
102.0
 20
279.0
 30
0.0
 10
112.0
 20
284.0000000000001
 30
0.0
 10
121.703273107798
 20
289.6436924686838
 30
0.0
 10
132.0
 20
294.0000000000001
 30
0.0
 10
139.0873933551
 20
296.9985125733115
 30
0.0
 10
146.6666666666667
 20
298.6666666666667
 30
0.0
 10
154.0
 20
301.0000000000001
 30
0.0
  0
SPLINE
  5
15C
330
1F
100
AcDbEntity
  8
0
  6
Continuous
 62
     7
370
    25
100
AcDbSpline
210
0.0
220
0.0
230
1.0
 70
     8
 71
     3
 72
     8
 73
     4
 74
     0
 42
0.00000001
 43
0.00000001
 40
0.0
 40
0.0
 40
0.0
 40
0.0
 40
1.0
 40
1.0
 40
1.0
 40
1.0
 10
206.0000000000001
 20
42.99999999999999
 30
0.0
 10
223.22006835861
 20
46.4440136717219
 30
0.0
 10
233.4599319288752
 20
51.22996596443758
 30
0.0
 10
249.0000000000001
 20
59.0
 30
0.0
  0
SPLINE
  5
164
330
1F
100
AcDbEntity
  8
0
  6
Continuous
 62
     7
370
    25
100
AcDbSpline
210
0.0
220
0.0
230
1.0
 70
     8
 71
     3
 72
    11
 73
     7
 74
     0
 42
0.00000001
 43
0.00000001
 40
0.0
 40
0.0
 40
0.0
 40
0.0
 40
1.0
 40
1.0
 40
1.0
 40
2.0
 40
2.0
 40
2.0
 40
2.0
 10
38.00000000000001
 20
146.0
 30
0.0
 10
39.70760672130927
 20
137.4619663934537
 30
0.0
 10
41.9557209922278
 20
128.5830231395729
 30
0.0
 10
46.00000000000001
 20
121.0
 30
0.0
 10
47.06013054753188
 20
119.0122552233777
 30
0.0
 10
53.1174109236279
 20
104.8825890763721
 30
0.0
 10
57.00000000000002
 20
101.0
 30
0.0
  0
SPLINE
  5
177
330
1F
100
AcDbEntity
  8
0
  6
Continuous
 62
     7
370
    25
100
AcDbSpline
210
0.0
220
0.0
230
1.0
 70
     8
 71
     3
 72
    20
 73
    16
 74
     0
 42
0.00000001
 43
0.00000001
 40
0.0
 40
0.0
 40
0.0
 40
0.0
 40
1.0
 40
1.0
 40
1.0
 40
2.0
 40
2.0
 40
2.0
 40
3.0
 40
3.0
 40
3.0
 40
4.0
 40
4.0
 40
4.0
 40
5.0
 40
5.0
 40
5.0
 40
5.0
 10
293.0000000000001
 20
102.0
 30
0.0
 10
295.0235917204888
 20
104.0235917204886
 30
0.0
 10
296.7625815691741
 20
106.5251631383479
 30
0.0
 10
298.0000000000001
 20
109.0
 30
0.0
 10
300.8007935383467
 20
114.6015870766933
 30
0.0
 10
303.7045431689445
 20
120.1730711211666
 30
0.0
 10
306.0000000000001
 20
126.0
 30
0.0
 10
308.048023506368
 20
131.1988289007801
 30
0.0
 10
309.0683073965139
 20
136.7568343619661
 30
0.0
 10
311.0000000000001
 20
142.0
 30
0.0
 10
311.4154861324849
 20
143.1277480738876
 30
0.0
 10
311.8377210562347
 20
144.6941371200617
 30
0.0
 10
313.0000000000001
 20
145.0
 30
0.0
 10
324.8222417550625
 20
148.1111162513322
 30
0.0
 10
337.0000000000001
 20
149.6666666666666
 30
0.0
 10
349.0000000000001
 20
152.0
 30
0.0
  0
LINE
  5
17E
330
1F
100
AcDbEntity
  8
0
  6
Continuous
 62
     7
370
    25
100
AcDbLine
 10
276.272555356
 20
130.0042837073
 30
0.0
 11
264.2123720366
 21
129.0004441055
 31
0.0
  0
LINE
  5
17F
330
1F
100
AcDbEntity
  8
0
  6
Continuous
 62
     7
370
    25
100
AcDbLine
 10
257.9703115801
 20
128.0
 30
0.0
 11
257.9703115801
 21
121.9858626813
 31
0.0
  0
LINE
  5
180
330
1F
100
AcDbEntity
  8
0
  6
Continuous
 62
     7
370
    25
100
AcDbLine
 10
257.9703115801
 20
121.9858626813
 30
0.0
 11
253.1706120326
 21
120.0004441055
 31
0.0
  0
LINE
  5
181
330
1F
100
AcDbEntity
  8
0
  6
Continuous
 62
     7
370
    25
100
AcDbLine
 10
253.1706120326
 20
120.0004441055
 30
0.0
 11
257.9703115801
 21
116.9986788379
 31
0.0
  0
LINE
  5
182
330
1F
100
AcDbEntity
  8
0
  6
Continuous
 62
     7
370
    25
100
AcDbLine
 10
257.9703115801
 20
116.9986788379
 30
0.0
 11
258.9661568677
 21
111.0236071125
 31
0.0
  0
LINE
  5
183
330
1F
100
AcDbEntity
  8
0
  6
Continuous
 62
     7
370
    25
100
AcDbLine
 10
258.9661568677
 20
111.0236071125
 30
0.0
 11
262.0296960812
 21
115.0556703966
 31
0.0
  0
LINE
  5
184
330
1F
100
AcDbEntity
  8
0
  6
Continuous
 62
     7
370
    25
100
AcDbLine
 10
262.0296960812
 20
115.0556703966
 30
0.0
 11
267.8408096512
 21
115.0556703966
 31
0.0
  0
LINE
  5
185
330
1F
100
AcDbEntity
  8
0
  6
Continuous
 62
     7
370
    25
100
AcDbLine
 10
267.8408096512
 20
115.0556703966
 30
0.0
 11
265.8681455874
 21
119.8245362317
 31
0.0
  0
LINE
  5
186
330
1F
100
AcDbEntity
  8
0
  6
Continuous
 62
     7
370
    25
100
AcDbLine
 10
265.8681455874
 20
119.8245362317
 30
0.0
 11
269.1004956072
 21
124.9929313407
 31
0.0
  0
LINE
  5
187
330
1F
100
AcDbEntity
  8
0
  6
Continuous
 62
     7
370
    25
100
AcDbLine
 10
269.1004956072
 20
124.9929313407
 30
0.0
 11
262.0296960812
 21
124.0256620673
 31
0.0
  0
LINE
  5
188
330
1F
100
AcDbEntity
  8
0
  6
Continuous
 62
     7
370
    25
100
AcDbLine
 10
262.0296960812
 20
124.0256620673
 30
0.0
 11
257.9703115801
 21
128.0
 31
0.0
  0
LINE
  5
189
330
1F
100
AcDbEntity
  8
0
  6
Continuous
 62
     7
370
    25
100
AcDbLine
 10
270.8445134564
 20
119.8245362317
 30
0.0
 11
276.272555356
 21
130.0042837073
 31
0.0
  0
LINE
  5
18A
330
1F
100
AcDbEntity
  8
0
  6
Continuous
 62
     7
370
    25
100
AcDbLine
 10
275.7550116021
 20
109.0520580051
 30
0.0
 11
270.8445134564
 21
119.8245362317
 31
0.0
  0
LINE
  5
18B
330
1F
100
AcDbEntity
  8
0
  6
Continuous
 62
     7
370
    25
100
AcDbLine
 10
264.9352528662
 20
109.9483057127
 30
0.0
 11
275.7550116021
 21
109.0520580051
 31
0.0
  0
LINE
  5
18C
330
1F
100
AcDbEntity
  8
0
  6
Continuous
 62
     7
370
    25
100
AcDbLine
 10
256.2850073157
 20
102.0
 30
0.0
 11
264.9352528662
 21
109.9483057127
 31
0.0
  0
LINE
  5
18D
330
1F
100
AcDbEntity
  8
0
  6
Continuous
 62
     7
370
    25
100
AcDbLine
 10
253.9159346101
 20
112.99924677
 30
0.0
 11
256.2850073157
 21
102.0
 31
0.0
  0
LINE
  5
18E
330
1F
100
AcDbEntity
  8
0
  6
Continuous
 62
     7
370
    25
100
AcDbLine
 10
243.0113198755
 20
117.9577846203
 30
0.0
 11
253.9159346101
 21
112.99924677
 31
0.0
  0
LINE
  5
18F
330
1F
100
AcDbEntity
  8
0
  6
Continuous
 62
     7
370
    25
100
AcDbLine
 10
253.9159346101
 20
124.9929313407
 30
0.0
 11
243.0113198755
 21
117.9577846203
 31
0.0
  0
LINE
  5
190
330
1F
100
AcDbEntity
  8
0
  6
Continuous
 62
     7
370
    25
100
AcDbLine
 10
255.5704618064
 20
137.0
 30
0.0
 11
253.9159346101
 21
124.9929313407
 31
0.0
  0
LINE
  5
191
330
1F
100
AcDbEntity
  8
0
  6
Continuous
 62
     7
370
    25
100
AcDbLine
 10
264.2123720366
 20
129.0004441055
 30
0.0
 11
255.5704618064
 21
137.0
 31
0.0
  0
LINE
  5
192
330
1F
100
AcDbEntity
  8
0
  6
Continuous
 62
     7
370
    25
100
AcDbLine
 10
247.4994858808
 20
176.7057767127
 30
0.0
 11
254.2799271376
 21
164.9617079582
 31
0.0
  0
LINE
  5
193
330
1F
100
AcDbEntity
  8
0
  6
Continuous
 62
     7
370
    25
100
AcDbLine
 10
270.1004739342
 20
176.7057767127
 30
0.0
 11
265.5804211643
 21
184.5347377631
 31
0.0
  0
LINE
  5
194
330
1F
100
AcDbEntity
  8
0
  6
Continuous
 62
     7
370
    25
100
AcDbLine
 10
265.5804211643
 20
184.5347377631
 30
0.0
 11
256.5403156245
 21
184.5347377631
 31
0.0
  0
LINE
  5
195
330
1F
100
AcDbEntity
  8
0
  6
Continuous
 62
     7
370
    25
100
AcDbLine
 10
256.5403156245
 20
184.5347377631
 30
0.0
 11
252.0202628546
 21
176.7057767127
 31
0.0
  0
LINE
  5
196
330
1F
100
AcDbEntity
  8
0
  6
Continuous
 62
     7
370
    25
100
AcDbLine
 10
252.0202628546
 20
176.7057767127
 30
0.0
 11
256.5403156245
 21
168.8768156623
 31
0.0
  0
LINE
  5
197
330
1F
100
AcDbEntity
  8
0
  6
Continuous
 62
     7
370
    25
100
AcDbLine
 10
256.5403156245
 20
168.8768156623
 30
0.0
 11
265.5804211643
 21
168.8768156623
 31
0.0
  0
LINE
  5
198
330
1F
100
AcDbEntity
  8
0
  6
Continuous
 62
     7
370
    25
100
AcDbLine
 10
265.5804211643
 20
168.8768156623
 30
0.0
 11
270.1004739342
 21
176.7057767127
 31
0.0
  0
LINE
  5
199
330
1F
100
AcDbEntity
  8
0
  6
Continuous
 62
     7
370
    25
100
AcDbLine
 10
254.2799271376
 20
188.4498454672
 30
0.0
 11
247.4994858808
 21
176.7057767127
 31
0.0
  0
LINE
  5
19A
330
1F
100
AcDbEntity
  8
0
  6
Continuous
 62
     7
370
    25
100
AcDbLine
 10
267.8408096512
 20
188.4498454672
 30
0.0
 11
254.2799271376
 21
188.4498454672
 31
0.0
  0
LINE
  5
19B
330
1F
100
AcDbEntity
  8
0
  6
Continuous
 62
     7
370
    25
100
AcDbLine
 10
274.6212509079
 20
176.7057767127
 30
0.0
 11
267.8408096512
 21
188.4498454672
 31
0.0
  0
LINE
  5
19C
330
1F
100
AcDbEntity
  8
0
  6
Continuous
 62
     7
370
    25
100
AcDbLine
 10
267.8408096512
 20
164.9617079582
 30
0.0
 11
274.6212509079
 21
176.7057767127
 31
0.0
  0
LINE
  5
19D
330
1F
100
AcDbEntity
  8
0
  6
Continuous
 62
     7
370
    25
100
AcDbLine
 10
254.2799271376
 20
164.9617079582
 30
0.0
 11
267.8408096512
 21
164.9617079582
 31
0.0
  0
LINE
  5
19E
330
1F
100
AcDbEntity
  8
0
  6
Continuous
 62
     7
370
    25
100
AcDbLine
 10
75.3067686311
 20
176.0
 30
0.0
 11
81.9800764733
 21
164.4414917627
 31
0.0
  0
LINE
  5
19F
330
1F
100
AcDbEntity
  8
0
  6
Continuous
 62
     7
370
    25
100
AcDbLine
 10
96.8687183969
 20
176.0
 30
0.0
 11
92.7610513562
 21
183.114688015
 31
0.0
  0
LINE
  5
1A0
330
1F
100
AcDbEntity
  8
0
  6
Continuous
 62
     7
370
    25
100
AcDbLine
 10
92.7610513562
 20
183.114688015
 30
0.0
 11
84.5457172749
 21
183.114688015
 31
0.0
  0
LINE
  5
1A1
330
1F
100
AcDbEntity
  8
0
  6
Continuous
 62
     7
370
    25
100
AcDbLine
 10
84.5457172749
 20
183.114688015
 30
0.0
 11
80.4380502342
 21
176.0
 31
0.0
  0
LINE
  5
1A2
330
1F
100
AcDbEntity
  8
0
  6
Continuous
 62
     7
370
    25
100
AcDbLine
 10
80.4380502342
 20
176.0
 30
0.0
 11
84.5457172749
 21
168.885311985
 31
0.0
  0
LINE
  5
1A3
330
1F
100
AcDbEntity
  8
0
  6
Continuous
 62
     7
370
    25
100
AcDbLine
 10
84.5457172749
 20
168.885311985
 30
0.0
 11
92.7610513562
 21
168.885311985
 31
0.0
  0
LINE
  5
1A4
330
1F
100
AcDbEntity
  8
0
  6
Continuous
 62
     7
370
    25
100
AcDbLine
 10
92.7610513562
 20
168.885311985
 30
0.0
 11
96.8687183969
 21
176.0
 31
0.0
  0
LINE
  5
1A5
330
1F
100
AcDbEntity
  8
0
  6
Continuous
 62
     7
370
    25
100
AcDbLine
 10
81.9800764733
 20
187.5585082373
 30
0.0
 11
75.3067686311
 21
176.0
 31
0.0
  0
LINE
  5
1A6
330
1F
100
AcDbEntity
  8
0
  6
Continuous
 62
     7
370
    25
100
AcDbLine
 10
95.3266921578
 20
187.5585082373
 30
0.0
 11
81.9800764733
 21
187.5585082373
 31
0.0
  0
LINE
  5
1A7
330
1F
100
AcDbEntity
  8
0
  6
Continuous
 62
     7
370
    25
100
AcDbLine
 10
102.0
 20
176.0
 30
0.0
 11
95.3266921578
 21
187.5585082373
 31
0.0
  0
LINE
  5
1A8
330
1F
100
AcDbEntity
  8
0
  6
Continuous
 62
     7
370
    25
100
AcDbLine
 10
95.3266921578
 20
164.4414917627
 30
0.0
 11
102.0
 21
176.0
 31
0.0
  0
LINE
  5
1A9
330
1F
100
AcDbEntity
  8
0
  6
Continuous
 62
     7
370
    25
100
AcDbLine
 10
81.9800764733
 20
164.4414917627
 30
0.0
 11
95.3266921578
 21
164.4414917627
 31
0.0
  0
LINE
  5
1AA
330
1F
100
AcDbEntity
  8
0
  6
Continuous
 62
     7
370
    25
100
AcDbLine
 10
88.0435378105
 20
115.0556703966
 30
0.0
 11
83.0010220944
 21
113.9695881765
 31
0.0
  0
LINE
  5
1AB
330
1F
100
AcDbEntity
  8
0
  6
Continuous
 62
     7
370
    25
100
AcDbLine
 10
74.0798499677
 20
130.0042837073
 30
0.0
 11
86.0078038845
 21
128.0
 31
0.0
  0
LINE
  5
1AC
330
1F
100
AcDbEntity
  8
0
  6
Continuous
 62
     7
370
    25
100
AcDbLine
 10
86.0078038845
 20
128.0
 30
0.0
 11
95.0547347799
 21
136.8900477007
 31
0.0
  0
LINE
  5
1AD
330
1F
100
AcDbEntity
  8
0
  6
Continuous
 62
     7
370
    25
100
AcDbLine
 10
95.0547347799
 20
136.8900477007
 30
0.0
 11
97.0377209492
 21
124.9921306849
 31
0.0
  0
LINE
  5
1AE
330
1F
100
AcDbEntity
  8
0
  6
Continuous
 62
     7
370
    25
100
AcDbLine
 10
97.0377209492
 20
124.9921306849
 30
0.0
 11
107.9551421261
 21
120.0277694993
 31
0.0
  0
LINE
  5
1AF
330
1F
100
AcDbEntity
  8
0
  6
Continuous
 62
     7
370
    25
100
AcDbLine
 10
107.9551421261
 20
120.0277694993
 30
0.0
 11
97.0377209492
 21
113.9695881765
 31
0.0
  0
LINE
  5
1B0
330
1F
100
AcDbEntity
  8
0
  6
Continuous
 62
     7
370
    25
100
AcDbLine
 10
97.0377209492
 20
113.9695881765
 30
0.0
 11
96.0462278645
 21
102.0
 31
0.0
  0
LINE
  5
1B1
330
1F
100
AcDbEntity
  8
0
  6
Continuous
 62
     7
370
    25
100
AcDbLine
 10
96.0462278645
 20
102.0
 30
0.0
 11
86.8787233884
 21
109.9483057127
 31
0.0
  0
LINE
  5
1B2
330
1F
100
AcDbEntity
  8
0
  6
Continuous
 62
     7
370
    25
100
AcDbLine
 10
86.8787233884
 20
109.9483057127
 30
0.0
 11
74.0798499677
 21
107.8151601426
 31
0.0
  0
LINE
  5
1B3
330
1F
100
AcDbEntity
  8
0
  6
Continuous
 62
     7
370
    25
100
AcDbLine
 10
74.0798499677
 20
107.8151601426
 30
0.0
 11
80.0438269261
 21
119.0
 31
0.0
  0
LINE
  5
1B4
330
1F
100
AcDbEntity
  8
0
  6
Continuous
 62
     7
370
    25
100
AcDbLine
 10
80.0438269261
 20
119.0
 30
0.0
 11
74.0798499677
 21
130.0042837073
 31
0.0
  0
LINE
  5
1B5
330
1F
100
AcDbEntity
  8
0
  6
Continuous
 62
     7
370
    25
100
AcDbLine
 10
92.0056809221
 20
111.0236071125
 30
0.0
 11
88.0435378105
 21
115.0556703966
 31
0.0
  0
LINE
  5
1B6
330
1F
100
AcDbEntity
  8
0
  6
Continuous
 62
     7
370
    25
100
AcDbLine
 10
92.995721945
 20
116.9155692406
 30
0.0
 11
92.0056809221
 21
111.0236071125
 31
0.0
  0
LINE
  5
1B7
330
1F
100
AcDbEntity
  8
0
  6
Continuous
 62
     7
370
    25
100
AcDbLine
 10
97.9930718703
 20
119.0
 30
0.0
 11
92.995721945
 21
116.9155692406
 31
0.0
  0
LINE
  5
1B8
330
1F
100
AcDbEntity
  8
0
  6
Continuous
 62
     7
370
    25
100
AcDbLine
 10
92.995721945
 20
121.0555389985
 30
0.0
 11
97.9930718703
 21
119.0
 31
0.0
  0
LINE
  5
1B9
330
1F
100
AcDbEntity
  8
0
  6
Continuous
 62
     7
370
    25
100
AcDbLine
 10
92.0056809221
 20
126.9957851361
 30
0.0
 11
92.995721945
 21
121.0555389985
 31
0.0
  0
LINE
  5
1BA
330
1F
100
AcDbEntity
  8
0
  6
Continuous
 62
     7
370
    25
100
AcDbLine
 10
87.9276548038
 20
122.9884762338
 30
0.0
 11
92.0056809221
 21
126.9957851361
 31
0.0
  0
LINE
  5
1BB
330
1F
100
AcDbEntity
  8
0
  6
Continuous
 62
     7
370
    25
100
AcDbLine
 10
83.0010220944
 20
124.002089662
 30
0.0
 11
87.9276548038
 21
122.9884762338
 31
0.0
  0
LINE
  5
1BC
330
1F
100
AcDbEntity
  8
0
  6
Continuous
 62
     7
370
    25
100
AcDbLine
 10
85.0701603049
 20
119.0
 30
0.0
 11
83.0010220944
 21
124.002089662
 31
0.0
  0
LINE
  5
1BD
330
1F
100
AcDbEntity
  8
0
  6
Continuous
 62
     7
370
    25
100
AcDbLine
 10
83.0010220944
 20
113.9695881765
 30
0.0
 11
85.0701603049
 21
119.0
 31
0.0
  0
LINE
  5
1BE
330
1F
100
AcDbEntity
  8
0
  6
Continuous
 62
     7
370
    25
100
AcDbLine
 10
199.161719965
 20
196.2812993819
 30
0.0
 11
209.0
 21
176.0
 31
0.0
  0
LINE
  5
1BF
330
1F
100
AcDbEntity
  8
0
  6
Continuous
 62
     7
370
    25
100
AcDbLine
 10
209.0
 20
137.0
 30
0.0
 11
199.0
 21
104.0
 31
0.0
  0
LINE
  5
1C0
330
1F
100
AcDbEntity
  8
0
  6
Continuous
 62
     7
370
    25
100
AcDbLine
 10
144.0
 20
216.0
 30
0.0
 11
151.6681578195
 21
210.1363257526
 31
0.0
  0
LINE
  5
1C1
330
1F
100
AcDbEntity
  8
0
  6
Continuous
 62
     7
370
    25
100
AcDbLine
 10
232.0
 20
212.0
 30
0.0
 11
226.2591040955
 21
202.7902577286
 31
0.0
  0
LINE
  5
1C2
330
1F
100
AcDbEntity
  8
0
  6
Continuous
 62
     7
370
    25
100
AcDbLine
 10
119.0
 20
214.0
 30
0.0
 11
123.2541309464
 21
203.0
 31
0.0
  0
LINE
  5
1C3
330
1F
100
AcDbEntity
  8
0
  6
Continuous
 62
     7
370
    25
100
AcDbLine
 10
226.0
 20
199.0
 30
0.0
 11
221.0
 21
192.0
 31
0.0
  0
LINE
  5
1C4
330
1F
100
AcDbEntity
  8
0
  6
Continuous
 62
     7
370
    25
100
AcDbLine
 10
146.4469306953
 20
240.9369097651
 30
0.0
 11
136.0
 21
219.3144072649
 31
0.0
  0
LINE
  5
1C5
330
1F
100
AcDbEntity
  8
0
  6
Continuous
 62
     7
370
    25
100
AcDbLine
 10
146.0
 20
251.0
 30
0.0
 11
131.0
 21
224.0
 31
0.0
  0
LINE
  5
1C6
330
1F
100
AcDbEntity
  8
0
  6
Continuous
 62
     7
370
    25
100
AcDbLine
 10
206.0
 20
252.0
 30
0.0
 11
233.0
 21
233.0
 31
0.0
  0
LINE
  5
1C7
330
1F
100
AcDbEntity
  8
0
  6
Continuous
 62
     7
370
    25
100
AcDbLine
 10
119.0
 20
224.0
 30
0.0
 11
128.0
 21
218.0
 31
0.0
  0
LINE
  5
1C8
330
1F
100
AcDbEntity
  8
0
  6
Continuous
 62
     7
370
    25
100
AcDbLine
 10
221.0
 20
203.0
 30
0.0
 11
219.0
 21
201.0
 31
0.0
  0
LINE
  5
1C9
330
1F
100
AcDbEntity
  8
0
  6
Continuous
 62
     7
370
    25
100
AcDbLine
 10
142.0
 20
209.0
 30
0.0
 11
147.0
 21
205.0
 31
0.0
  0
LINE
  5
1CA
330
1F
100
AcDbEntity
  8
0
  6
Continuous
 62
     7
370
    25
100
AcDbLine
 10
210.0
 20
209.0
 30
0.0
 11
213.0
 21
198.0
 31
0.0
  0
LINE
  5
1CB
330
1F
100
AcDbEntity
  8
0
  6
Continuous
 62
     7
370
    25
100
AcDbLine
 10
125.0
 20
198.0
 30
0.0
 11
128.0
 21
192.0
 31
0.0
  0
LINE
  5
1CC
330
1F
100
AcDbEntity
  8
0
  6
Continuous
 62
     7
370
    25
100
AcDbLine
 10
145.0
 20
196.0
 30
0.0
 11
140.0
 21
184.0
 31
0.0
  0
LINE
  5
1CD
330
1F
100
AcDbEntity
  8
0
  6
Continuous
 62
     7
370
    25
100
AcDbLine
 10
205.0
 20
196.0
 30
0.0
 11
214.0
 21
188.0
 31
0.0
  0
LINE
  5
1CE
330
1F
100
AcDbEntity
  8
0
  6
Continuous
 62
     7
370
    25
100
AcDbLine
 10
121.0
 20
190.0
 30
0.0
 11
122.0
 21
188.0
 31
0.0
  0
LINE
  5
1CF
330
1F
100
AcDbEntity
  8
0
  6
Continuous
 62
     7
370
    25
100
AcDbLine
 10
218.0
 20
183.0
 30
0.0
 11
218.0
 21
171.0
 31
0.0
  0
LINE
  5
1D0
330
1F
100
AcDbEntity
  8
0
  6
Continuous
 62
     7
370
    25
100
AcDbLine
 10
136.0
 20
176.0
 30
0.0
 11
133.0
 21
172.0
 31
0.0
  0
LINE
  5
1D1
330
1F
100
AcDbEntity
  8
0
  6
Continuous
 62
     7
370
    25
100
AcDbLine
 10
125.0
 20
175.0
 30
0.0
 11
124.0
 21
173.0
 31
0.0
  0
LINE
  5
1D2
330
1F
100
AcDbEntity
  8
0
  6
Continuous
 62
     7
370
    25
100
AcDbLine
 10
232.0
 20
176.0
 30
0.0
 11
227.0
 21
173.0
 31
0.0
  0
LINE
  5
1D3
330
1F
100
AcDbEntity
  8
0
  6
Continuous
 62
     7
370
    25
100
AcDbLine
 10
140.0
 20
171.0
 30
0.0
 11
145.0
 21
160.0
 31
0.0
  0
LINE
  5
1D4
330
1F
100
AcDbEntity
  8
0
  6
Continuous
 62
     7
370
    25
100
AcDbLine
 10
211.0
 20
169.0
 30
0.0
 11
214.0
 21
163.0
 31
0.0
  0
LINE
  5
1D5
330
1F
100
AcDbEntity
  8
0
  6
Continuous
 62
     7
370
    25
100
AcDbLine
 10
118.0
 20
168.0
 30
0.0
 11
122.0
 21
166.0
 31
0.0
  0
LINE
  5
1D6
330
1F
100
AcDbEntity
  8
0
  6
Continuous
 62
     7
370
    25
100
AcDbLine
 10
127.0
 20
163.0
 30
0.0
 11
129.0
 21
162.0
 31
0.0
  0
LINE
  5
1D7
330
1F
100
AcDbEntity
  8
0
  6
Continuous
 62
     7
370
    25
100
AcDbLine
 10
138.0
 20
156.0
 30
0.0
 11
149.0
 21
149.0
 31
0.0
  0
LINE
  5
1D8
330
1F
100
AcDbEntity
  8
0
  6
Continuous
 62
     7
370
    25
100
AcDbLine
 10
214.0
 20
156.0
 30
0.0
 11
211.0
 21
145.0
 31
0.0
  0
LINE
  5
1D9
330
1F
100
AcDbEntity
  8
0
  6
Continuous
 62
     7
370
    25
100
AcDbLine
 10
136.0
 20
140.0
 30
0.0
 11
134.0
 21
139.0
 31
0.0
  0
LINE
  5
1DA
330
1F
100
AcDbEntity
  8
0
  6
Continuous
 62
     7
370
    25
100
AcDbLine
 10
222.0
 20
147.0
 30
0.0
 11
218.0
 21
140.0
 31
0.0
  0
LINE
  5
1DB
330
1F
100
AcDbEntity
  8
0
  6
Continuous
 62
     7
370
    25
100
AcDbLine
 10
125.0
 20
140.0
 30
0.0
 11
128.0
 21
134.0
 31
0.0
  0
LINE
  5
1DC
330
1F
100
AcDbEntity
  8
0
  6
Continuous
 62
     7
370
    25
100
AcDbLine
 10
225.0
 20
140.0
 30
0.0
 11
230.0
 21
131.0
 31
0.0
  0
LINE
  5
1DD
330
1F
100
AcDbEntity
  8
0
  6
Continuous
 62
     7
370
    25
100
AcDbLine
 10
220.0
 20
129.0
 30
0.0
 11
234.0
 21
120.0
 31
0.0
  0
LINE
  5
1DE
330
1F
100
AcDbEntity
  8
0
  6
Continuous
 62
     7
370
    25
100
AcDbLine
 10
130.0
 20
128.0
 30
0.0
 11
146.0
 21
102.0
 31
0.0
  0
LINE
  5
1DF
330
1F
100
AcDbEntity
  8
0
  6
Continuous
 62
     7
370
    25
100
AcDbLine
 10
218.9999827274
 20
160.0000211259
 30
0.0
 11
224.4097443726
 21
164.4230730209
 31
0.0
  0
LINE
  5
1E0
330
1F
100
AcDbEntity
  8
0
  6
Continuous
 62
     7
370
    25
100
AcDbLine
 10
134.0
 20
214.0
 30
0.0
 11
136.0
 21
212.0
 31
0.0
  0
LINE
  5
1E1
330
1F
100
AcDbEntity
  8
0
  6
Continuous
 62
     7
370
    25
100
AcDbLine
 10
201.0
 20
143.0
 30
0.0
 11
209.0
 21
137.0
 31
0.0
  0
LINE
  5
1E2
330
1F
100
AcDbEntity
  8
0
  6
Continuous
 62
     7
370
    25
100
AcDbLine
 10
144.0
 20
138.0
 30
0.0
 11
152.0
 21
144.0
 31
0.0
  0
LINE
  5
1E3
330
1F
100
AcDbEntity
  8
0
  6
Continuous
 62
     7
370
    25
100
AcDbLine
 10
153.9034424534
 20
104.3282956583
 30
0.0
 11
144.0
 21
138.0
 31
0.0
  0
LINE
  5
1E4
330
1F
100
AcDbEntity
  8
0
  6
Continuous
 62
     7
370
    25
100
AcDbLine
 10
208.0
 20
215.0
 30
0.0
 11
201.0
 21
211.0
 31
0.0
  0
LINE
  5
1E5
330
1F
100
AcDbEntity
  8
0
  6
Continuous
 62
     7
370
    25
100
AcDbLine
 10
198.0
 20
251.0
 30
0.0
 11
208.0
 21
215.0
 31
0.0
  0
LINE
  5
1E6
330
1F
100
AcDbEntity
  8
0
  6
Continuous
 62
     7
370
    25
100
AcDbLine
 10
144.0
 20
216.0
 30
0.0
 11
154.0
 21
251.0
 31
0.0
  0
LINE
  5
1E7
330
1F
100
AcDbEntity
  8
0
  6
Continuous
 62
     7
370
    25
100
AcDbLine
 10
226.2591040955
 20
202.7902577286
 30
0.0
 11
228.8862391451
 21
201.1526322226
 31
0.0
  0
LINE
  5
1E8
330
1F
100
AcDbEntity
  8
0
  6
Continuous
 62
     7
370
    25
100
AcDbLine
 10
228.8862391451
 20
201.1526322226
 30
0.0
 11
232.0
 21
212.0
 31
0.0
  0
LINE
  5
1E9
330
1F
100
AcDbEntity
  8
0
  6
Continuous
 62
     7
370
    25
100
AcDbLine
 10
124.5660185039
 20
206.0610709673
 30
0.0
 11
119.0
 21
214.0
 31
0.0
  0
LINE
  5
1EA
330
1F
100
AcDbEntity
  8
0
  6
Continuous
 62
     7
370
    25
100
AcDbLine
 10
221.0
 20
192.0
 30
0.0
 11
225.0
 21
187.0
 31
0.0
  0
LINE
  5
1EB
330
1F
100
AcDbEntity
  8
0
  6
Continuous
 62
     7
370
    25
100
AcDbLine
 10
225.0
 20
187.0
 30
0.0
 11
226.0
 21
199.0
 31
0.0
  0
LINE
  5
1EC
330
1F
100
AcDbEntity
  8
0
  6
Continuous
 62
     7
370
    25
100
AcDbLine
 10
136.0
 20
219.3144072649
 30
0.0
 11
140.0
 21
216.0
 31
0.0
  0
LINE
  5
1ED
330
1F
100
AcDbEntity
  8
0
  6
Continuous
 62
     7
370
    25
100
AcDbLine
 10
140.0
 20
216.0
 30
0.0
 11
146.4469306953
 21
240.9369097651
 31
0.0
  0
LINE
  5
1EE
330
1F
100
AcDbEntity
  8
0
  6
Continuous
 62
     7
370
    25
100
AcDbLine
 10
145.0
 20
252.0
 30
0.0
 11
146.0
 21
251.0
 31
0.0
  0
LINE
  5
1EF
330
1F
100
AcDbEntity
  8
0
  6
Continuous
 62
     7
370
    25
100
AcDbLine
 10
117.0
 20
234.0
 30
0.0
 11
145.0
 21
252.0
 31
0.0
  0
LINE
  5
1F0
330
1F
100
AcDbEntity
  8
0
  6
Continuous
 62
     7
370
    25
100
AcDbLine
 10
131.0
 20
224.0
 30
0.0
 11
117.0
 21
234.0
 31
0.0
  0
LINE
  5
1F1
330
1F
100
AcDbEntity
  8
0
  6
Continuous
 62
     7
370
    25
100
AcDbLine
 10
219.0
 20
224.0
 30
0.0
 11
206.0
 21
252.0
 31
0.0
  0
LINE
  5
1F2
330
1F
100
AcDbEntity
  8
0
  6
Continuous
 62
     7
370
    25
100
AcDbLine
 10
233.0
 20
233.0
 30
0.0
 11
219.0
 21
224.0
 31
0.0
  0
LINE
  5
1F3
330
1F
100
AcDbEntity
  8
0
  6
Continuous
 62
     7
370
    25
100
AcDbLine
 10
125.0
 20
212.0
 30
0.0
 11
119.0
 21
224.0
 31
0.0
  0
LINE
  5
1F4
330
1F
100
AcDbEntity
  8
0
  6
Continuous
 62
     7
370
    25
100
AcDbLine
 10
128.0
 20
218.0
 30
0.0
 11
125.0
 21
212.0
 31
0.0
  0
LINE
  5
1F5
330
1F
100
AcDbEntity
  8
0
  6
Continuous
 62
     7
370
    25
100
AcDbLine
 10
223.0
 20
217.0
 30
0.0
 11
230.0
 21
223.0
 31
0.0
  0
LINE
  5
1F6
330
1F
100
AcDbEntity
  8
0
  6
Continuous
 62
     7
370
    25
100
AcDbLine
 10
225.0
 20
212.0
 30
0.0
 11
223.0
 21
217.0
 31
0.0
  0
LINE
  5
1F7
330
1F
100
AcDbEntity
  8
0
  6
Continuous
 62
     7
370
    25
100
AcDbLine
 10
217.0
 20
214.0
 30
0.0
 11
221.0
 21
203.0
 31
0.0
  0
LINE
  5
1F8
330
1F
100
AcDbEntity
  8
0
  6
Continuous
 62
     7
370
    25
100
AcDbLine
 10
216.0
 20
213.0
 30
0.0
 11
217.0
 21
214.0
 31
0.0
  0
LINE
  5
1F9
330
1F
100
AcDbEntity
  8
0
  6
Continuous
 62
     7
370
    25
100
AcDbLine
 10
219.0
 20
201.0
 30
0.0
 11
216.0
 21
213.0
 31
0.0
  0
LINE
  5
1FA
330
1F
100
AcDbEntity
  8
0
  6
Continuous
 62
     7
370
    25
100
AcDbLine
 10
139.0
 20
200.0
 30
0.0
 11
142.0
 21
209.0
 31
0.0
  0
LINE
  5
1FB
330
1F
100
AcDbEntity
  8
0
  6
Continuous
 62
     7
370
    25
100
AcDbLine
 10
147.0
 20
205.0
 30
0.0
 11
139.0
 21
200.0
 31
0.0
  0
LINE
  5
1FC
330
1F
100
AcDbEntity
  8
0
  6
Continuous
 62
     7
370
    25
100
AcDbLine
 10
204.0
 20
205.0
 30
0.0
 11
210.0
 21
209.0
 31
0.0
  0
LINE
  5
1FD
330
1F
100
AcDbEntity
  8
0
  6
Continuous
 62
     7
370
    25
100
AcDbLine
 10
213.0
 20
198.0
 30
0.0
 11
204.0
 21
205.0
 31
0.0
  0
LINE
  5
1FE
330
1F
100
AcDbEntity
  8
0
  6
Continuous
 62
     7
370
    25
100
AcDbLine
 10
127.0
 20
191.0
 30
0.0
 11
125.0
 21
198.0
 31
0.0
  0
LINE
  5
1FF
330
1F
100
AcDbEntity
  8
0
  6
Continuous
 62
     7
370
    25
100
AcDbLine
 10
128.0
 20
192.0
 30
0.0
 11
127.0
 21
191.0
 31
0.0
  0
LINE
  5
200
330
1F
100
AcDbEntity
  8
0
  6
Continuous
 62
     7
370
    25
100
AcDbLine
 10
137.0
 20
190.0
 30
0.0
 11
145.0
 21
196.0
 31
0.0
  0
LINE
  5
201
330
1F
100
AcDbEntity
  8
0
  6
Continuous
 62
     7
370
    25
100
AcDbLine
 10
140.0
 20
184.0
 30
0.0
 11
137.0
 21
190.0
 31
0.0
  0
LINE
  5
202
330
1F
100
AcDbEntity
  8
0
  6
Continuous
 62
     7
370
    25
100
AcDbLine
 10
211.0
 20
184.0
 30
0.0
 11
205.0
 21
196.0
 31
0.0
  0
LINE
  5
203
330
1F
100
AcDbEntity
  8
0
  6
Continuous
 62
     7
370
    25
100
AcDbLine
 10
214.0
 20
188.0
 30
0.0
 11
211.0
 21
184.0
 31
0.0
  0
LINE
  5
204
330
1F
100
AcDbEntity
  8
0
  6
Continuous
 62
     7
370
    25
100
AcDbLine
 10
120.0
 20
187.0
 30
0.0
 11
121.0
 21
190.0
 31
0.0
  0
LINE
  5
205
330
1F
100
AcDbEntity
  8
0
  6
Continuous
 62
     7
370
    25
100
AcDbLine
 10
122.0
 20
188.0
 30
0.0
 11
120.0
 21
187.0
 31
0.0
  0
LINE
  5
206
330
1F
100
AcDbEntity
  8
0
  6
Continuous
 62
     7
370
    25
100
AcDbLine
 10
215.0
 20
177.0
 30
0.0
 11
218.0
 21
183.0
 31
0.0
  0
LINE
  5
207
330
1F
100
AcDbEntity
  8
0
  6
Continuous
 62
     7
370
    25
100
AcDbLine
 10
218.0
 20
171.0
 30
0.0
 11
215.0
 21
177.0
 31
0.0
  0
LINE
  5
208
330
1F
100
AcDbEntity
  8
0
  6
Continuous
 62
     7
370
    25
100
AcDbLine
 10
133.0
 20
182.0
 30
0.0
 11
136.0
 21
176.0
 31
0.0
  0
LINE
  5
209
330
1F
100
AcDbEntity
  8
0
  6
Continuous
 62
     7
370
    25
100
AcDbLine
 10
132.0
 20
179.0
 30
0.0
 11
133.0
 21
182.0
 31
0.0
  0
LINE
  5
20A
330
1F
100
AcDbEntity
  8
0
  6
Continuous
 62
     7
370
    25
100
AcDbLine
 10
133.0
 20
172.0
 30
0.0
 11
132.0
 21
179.0
 31
0.0
  0
LINE
  5
20B
330
1F
100
AcDbEntity
  8
0
  6
Continuous
 62
     7
370
    25
100
AcDbLine
 10
123.0
 20
181.0
 30
0.0
 11
125.0
 21
175.0
 31
0.0
  0
LINE
  5
20C
330
1F
100
AcDbEntity
  8
0
  6
Continuous
 62
     7
370
    25
100
AcDbLine
 10
117.0
 20
177.0
 30
0.0
 11
123.0
 21
181.0
 31
0.0
  0
LINE
  5
20D
330
1F
100
AcDbEntity
  8
0
  6
Continuous
 62
     7
370
    25
100
AcDbLine
 10
124.0
 20
173.0
 30
0.0
 11
117.0
 21
177.0
 31
0.0
  0
LINE
  5
20E
330
1F
100
AcDbEntity
  8
0
  6
Continuous
 62
     7
370
    25
100
AcDbLine
 10
227.0
 20
179.0
 30
0.0
 11
232.0
 21
176.0
 31
0.0
  0
LINE
  5
20F
330
1F
100
AcDbEntity
  8
0
  6
Continuous
 62
     7
370
    25
100
AcDbLine
 10
226.0
 20
178.0
 30
0.0
 11
227.0
 21
179.0
 31
0.0
  0
LINE
  5
210
330
1F
100
AcDbEntity
  8
0
  6
Continuous
 62
     7
370
    25
100
AcDbLine
 10
227.0
 20
173.0
 30
0.0
 11
226.0
 21
178.0
 31
0.0
  0
LINE
  5
211
330
1F
100
AcDbEntity
  8
0
  6
Continuous
 62
     7
370
    25
100
AcDbLine
 10
137.0
 20
165.0
 30
0.0
 11
140.0
 21
171.0
 31
0.0
  0
LINE
  5
212
330
1F
100
AcDbEntity
  8
0
  6
Continuous
 62
     7
370
    25
100
AcDbLine
 10
145.0
 20
160.0
 30
0.0
 11
137.0
 21
165.0
 31
0.0
  0
LINE
  5
213
330
1F
100
AcDbEntity
  8
0
  6
Continuous
 62
     7
370
    25
100
AcDbLine
 10
207.0
 20
159.0
 30
0.0
 11
211.0
 21
169.0
 31
0.0
  0
LINE
  5
214
330
1F
100
AcDbEntity
  8
0
  6
Continuous
 62
     7
370
    25
100
AcDbLine
 10
214.0
 20
163.0
 30
0.0
 11
207.0
 21
159.0
 31
0.0
  0
LINE
  5
215
330
1F
100
AcDbEntity
  8
0
  6
Continuous
 62
     7
370
    25
100
AcDbLine
 10
121.0
 20
164.0
 30
0.0
 11
118.0
 21
168.0
 31
0.0
  0
LINE
  5
216
330
1F
100
AcDbEntity
  8
0
  6
Continuous
 62
     7
370
    25
100
AcDbLine
 10
122.0
 20
166.0
 30
0.0
 11
121.0
 21
164.0
 31
0.0
  0
LINE
  5
217
330
1F
100
AcDbEntity
  8
0
  6
Continuous
 62
     7
370
    25
100
AcDbLine
 10
125.0
 20
155.0
 30
0.0
 11
127.0
 21
163.0
 31
0.0
  0
LINE
  5
218
330
1F
100
AcDbEntity
  8
0
  6
Continuous
 62
     7
370
    25
100
AcDbLine
 10
129.0
 20
162.0
 30
0.0
 11
125.0
 21
155.0
 31
0.0
  0
LINE
  5
219
330
1F
100
AcDbEntity
  8
0
  6
Continuous
 62
     7
370
    25
100
AcDbLine
 10
142.0
 20
144.0
 30
0.0
 11
138.0
 21
156.0
 31
0.0
  0
LINE
  5
21A
330
1F
100
AcDbEntity
  8
0
  6
Continuous
 62
     7
370
    25
100
AcDbLine
 10
149.0
 20
149.0
 30
0.0
 11
142.0
 21
144.0
 31
0.0
  0
LINE
  5
21B
330
1F
100
AcDbEntity
  8
0
  6
Continuous
 62
     7
370
    25
100
AcDbLine
 10
205.0
 20
149.0
 30
0.0
 11
214.0
 21
156.0
 31
0.0
  0
LINE
  5
21C
330
1F
100
AcDbEntity
  8
0
  6
Continuous
 62
     7
370
    25
100
AcDbLine
 10
211.0
 20
145.0
 30
0.0
 11
205.0
 21
149.0
 31
0.0
  0
LINE
  5
21D
330
1F
100
AcDbEntity
  8
0
  6
Continuous
 62
     7
370
    25
100
AcDbLine
 10
132.0
 20
155.0
 30
0.0
 11
136.0
 21
140.0
 31
0.0
  0
LINE
  5
21E
330
1F
100
AcDbEntity
  8
0
  6
Continuous
 62
     7
370
    25
100
AcDbLine
 10
129.0
 20
148.0
 30
0.0
 11
132.0
 21
155.0
 31
0.0
  0
LINE
  5
21F
330
1F
100
AcDbEntity
  8
0
  6
Continuous
 62
     7
370
    25
100
AcDbLine
 10
134.0
 20
139.0
 30
0.0
 11
129.0
 21
148.0
 31
0.0
  0
LINE
  5
220
330
1F
100
AcDbEntity
  8
0
  6
Continuous
 62
     7
370
    25
100
AcDbLine
 10
219.0
 20
152.0
 30
0.0
 11
222.0
 21
147.0
 31
0.0
  0
LINE
  5
221
330
1F
100
AcDbEntity
  8
0
  6
Continuous
 62
     7
370
    25
100
AcDbLine
 10
216.0
 20
141.0
 30
0.0
 11
219.0
 21
152.0
 31
0.0
  0
LINE
  5
222
330
1F
100
AcDbEntity
  8
0
  6
Continuous
 62
     7
370
    25
100
AcDbLine
 10
218.0
 20
140.0
 30
0.0
 11
216.0
 21
141.0
 31
0.0
  0
LINE
  5
223
330
1F
100
AcDbEntity
  8
0
  6
Continuous
 62
     7
370
    25
100
AcDbLine
 10
120.0
 20
128.0
 30
0.0
 11
125.0
 21
140.0
 31
0.0
  0
LINE
  5
224
330
1F
100
AcDbEntity
  8
0
  6
Continuous
 62
     7
370
    25
100
AcDbLine
 10
128.0
 20
134.0
 30
0.0
 11
120.0
 21
128.0
 31
0.0
  0
LINE
  5
225
330
1F
100
AcDbEntity
  8
0
  6
Continuous
 62
     7
370
    25
100
AcDbLine
 10
223.0
 20
135.0
 30
0.0
 11
225.0
 21
140.0
 31
0.0
  0
LINE
  5
226
330
1F
100
AcDbEntity
  8
0
  6
Continuous
 62
     7
370
    25
100
AcDbLine
 10
230.0
 20
131.0
 30
0.0
 11
223.0
 21
135.0
 31
0.0
  0
LINE
  5
227
330
1F
100
AcDbEntity
  8
0
  6
Continuous
 62
     7
370
    25
100
AcDbLine
 10
213.0
 20
129.0
 30
0.0
 11
214.0
 21
134.0
 31
0.0
  0
LINE
  5
228
330
1F
100
AcDbEntity
  8
0
  6
Continuous
 62
     7
370
    25
100
AcDbLine
 10
215.0
 20
132.0
 30
0.0
 11
213.0
 21
129.0
 31
0.0
  0
LINE
  5
229
330
1F
100
AcDbEntity
  8
0
  6
Continuous
 62
     7
370
    25
100
AcDbLine
 10
208.0
 20
101.0
 30
0.0
 11
220.0
 21
129.0
 31
0.0
  0
LINE
  5
22A
330
1F
100
AcDbEntity
  8
0
  6
Continuous
 62
     7
370
    25
100
AcDbLine
 10
234.0
 20
120.0
 30
0.0
 11
208.0
 21
101.0
 31
0.0
  0
LINE
  5
22B
330
1F
100
AcDbEntity
  8
0
  6
Continuous
 62
     7
370
    25
100
AcDbLine
 10
119.0
 20
119.0
 30
0.0
 11
130.0
 21
128.0
 31
0.0
  0
LINE
  5
22C
330
1F
100
AcDbEntity
  8
0
  6
Continuous
 62
     7
370
    25
100
AcDbLine
 10
146.0
 20
102.0
 30
0.0
 11
119.0
 21
119.0
 31
0.0
  0
LINE
  5
22D
330
1F
100
AcDbEntity
  8
0
  6
Continuous
 62
     7
370
    25
100
AcDbLine
 10
227.0
 20
152.0
 30
0.0
 11
218.9999827274
 21
160.0000211259
 31
0.0
  0
LINE
  5
22E
330
1F
100
AcDbEntity
  8
0
  6
Continuous
 62
     7
370
    25
100
AcDbLine
 10
224.4097443726
 20
164.4230730209
 30
0.0
 11
227.0
 21
152.0
 31
0.0
  0
LINE
  5
22F
330
1F
100
AcDbEntity
  8
0
  6
Continuous
 62
     7
370
    25
100
AcDbLine
 10
238.9999515768
 20
129.0004441055
 30
0.0
 11
232.5023010832
 21
154.6058210104
 31
0.0
  0
LINE
  5
230
330
1F
100
AcDbEntity
  8
0
  6
Continuous
 62
     7
370
    25
100
AcDbLine
 10
237.707995647
 20
115.2751211292
 30
0.0
 11
200.5427679038
 21
88.1123824397
 31
0.0
  0
LINE
  5
231
330
1F
100
AcDbEntity
  8
0
  6
Continuous
 62
     7
370
    25
100
AcDbLine
 10
152.0
 20
89.4622954622
 30
0.0
 11
114.1710263434
 21
114.4356072213
 31
0.0
  0
LINE
  5
232
330
1F
100
AcDbEntity
  8
0
  6
Continuous
 62
     7
370
    25
100
AcDbLine
 10
112.5246436314
 20
128.0
 30
0.0
 11
120.4730687834
 21
151.5323590511
 31
0.0
  0
LINE
  5
233
330
1F
100
AcDbEntity
  8
0
  6
Continuous
 62
     7
370
    25
100
AcDbLine
 10
120.4730687834
 20
151.5323590511
 30
0.0
 11
112.5246436314
 21
168.0
 31
0.0
  0
LINE
  5
234
330
1F
100
AcDbEntity
  8
0
  6
Continuous
 62
     7
370
    25
100
AcDbLine
 10
112.5246436314
 20
184.0
 30
0.0
 11
120.9999515768
 21
201.0004441055
 31
0.0
  0
LINE
  5
235
330
1F
100
AcDbEntity
  8
0
  6
Continuous
 62
     7
370
    25
100
AcDbLine
 10
111.8512149441
 20
224.656533734
 30
0.0
 11
120.9999515768
 21
201.0004441055
 31
0.0
  0
LINE
  5
236
330
1F
100
AcDbEntity
  8
0
  6
Continuous
 62
     7
370
    25
100
AcDbLine
 10
112.9999515768
 20
236.9309409198
 30
0.0
 11
151.7518137142
 21
261.5909491136
 31
0.0
  0
LINE
  5
237
330
1F
100
AcDbEntity
  8
0
  6
Continuous
 62
     7
370
    25
100
AcDbLine
 10
200.9999515768
 20
260.9451560408
 30
0.0
 11
236.8897266583
 21
238.1248092898
 31
0.0
  0
LINE
  5
238
330
1F
100
AcDbEntity
  8
0
  6
Continuous
 62
     7
370
    25
100
AcDbLine
 10
136.0
 20
212.0
 30
0.0
 11
132.0
 21
201.0
 31
0.0
  0
LINE
  5
239
330
1F
100
AcDbEntity
  8
0
  6
Continuous
 62
     7
370
    25
100
AcDbLine
 10
143.0
 20
177.0
 30
0.0
 11
153.0
 21
198.0
 31
0.0
  0
LINE
  5
23A
330
1F
100
AcDbEntity
  8
0
  6
Continuous
 62
     7
370
    25
100
AcDbLine
 10
144.0
 20
177.0
 30
0.0
 11
143.0
 21
177.0
 31
0.0
  0
LINE
  5
23B
330
1F
100
AcDbEntity
  8
0
  6
Continuous
 62
     7
370
    25
100
AcDbLine
 10
153.0
 20
158.0
 30
0.0
 11
144.0
 21
177.0
 31
0.0
  0
LINE
  5
23C
330
1F
100
AcDbEntity
  8
0
  6
Continuous
 62
     7
370
    25
100
AcDbLine
 10
209.0
 20
176.0
 30
0.0
 11
199.0
 21
159.0
 31
0.0
  0
LINE
  5
23D
330
1F
100
AcDbEntity
  8
0
  6
Continuous
 62
     7
370
    25
100
AcDbLine
 10
230.0
 20
223.0
 30
0.0
 11
225.0
 21
212.0
 31
0.0
  0
LINE
  5
23E
330
1F
100
AcDbEntity
  8
0
  6
Continuous
 62
     7
370
    25
100
AcDbLine
 10
214.0
 20
134.0
 30
0.0
 11
215.0
 21
132.0
 31
0.0
  0
LINE
  5
23F
330
1F
100
AcDbEntity
  8
0
  6
Continuous
 62
     7
370
    25
100
AcDbLine
 10
232.5023010832
 20
154.6058210104
 30
0.0
 11
237.9297032584
 21
170.6743596527
 31
0.0
  0
LINE
  5
240
330
1F
100
AcDbEntity
  8
0
  6
Continuous
 62
     7
370
    25
100
AcDbLine
 10
123.2541309464
 20
203.0
 30
0.0
 11
124.5660185039
 21
206.0610709673
 31
0.0
  0
LINE
  5
241
330
1F
100
AcDbEntity
  8
0
  6
Continuous
 62
     7
370
    25
100
AcDbLine
 10
68.0
 20
251.0
 30
0.0
 11
47.0
 21
198.0
 31
0.0
  0
LINE
  5
242
330
1F
100
AcDbEntity
  8
0
  6
Continuous
 62
     7
370
    25
100
AcDbLine
 10
7.8676197392
 20
191.0
 30
0.0
 11
47.0
 21
198.0
 31
0.0
  0
LINE
  5
243
330
1F
100
AcDbEntity
  8
0
  6
Continuous
 62
     7
370
    25
100
AcDbLine
 10
68.6215207354
 20
101.0
 30
0.0
 11
46.1134196554
 21
153.8542673284
 31
0.0
  0
LINE
  5
244
330
1F
100
AcDbEntity
  8
0
  6
Continuous
 62
     7
370
    25
100
AcDbLine
 10
68.6215207354
 20
47.2761408763
 30
0.0
 11
47.0
 21
68.0
 31
0.0
  0
LINE
  5
245
330
1F
100
AcDbEntity
  8
0
  6
Continuous
 62
     7
370
    25
100
AcDbLine
 10
46.1134196554
 20
282.2411356095
 30
0.0
 11
68.0
 21
251.0
 31
0.0
  0
LINE
  5
246
330
1F
100
AcDbEntity
  8
0
  6
Continuous
 62
     7
370
    25
100
AcDbLine
 10
102.0
 20
70.0773949251
 30
0.0
 11
154.0
 21
51.0
 31
0.0
  0
LINE
  5
247
330
1F
100
AcDbEntity
  8
0
  6
Continuous
 62
     7
370
    25
100
AcDbLine
 10
160.0
 20
8.2850329463
 30
0.0
 11
154.0
 21
51.0
 31
0.0
  0
LINE
  5
248
330
1F
100
AcDbEntity
  8
0
  6
Continuous
 62
     7
370
    25
100
AcDbLine
 10
160.0
 20
8.2850329463
 30
0.0
 11
189.7247024718
 21
8.2850329463
 31
0.0
  0
LINE
  5
249
330
1F
100
AcDbEntity
  8
0
  6
Continuous
 62
     7
370
    25
100
AcDbLine
 10
189.7247024718
 20
8.2850329463
 30
0.0
 11
198.0
 21
49.9160873081
 31
0.0
  0
LINE
  5
24A
330
1F
100
AcDbEntity
  8
0
  6
Continuous
 62
     7
370
    25
100
AcDbLine
 10
7.8676197392
 20
160.807212736
 30
0.0
 11
46.1134196554
 21
153.8542673284
 31
0.0
  0
LINE
  5
24B
330
1F
100
AcDbEntity
  8
0
  6
Continuous
 62
     7
370
    25
100
AcDbLine
 10
249.0
 20
70.0773949251
 30
0.0
 11
284.0
 21
47.5441687649
 31
0.0
  0
LINE
  5
24C
330
1F
100
AcDbEntity
  8
0
  6
Continuous
 62
     7
370
    25
100
AcDbLine
 10
304.5933290626
 20
67.0
 30
0.0
 11
284.0
 21
47.5441687649
 31
0.0
  0
LINE
  5
24D
330
1F
100
AcDbEntity
  8
0
  6
Continuous
 62
     7
370
    25
100
AcDbLine
 10
281.8051717227
 20
101.0
 30
0.0
 11
304.5933290626
 21
67.0
 31
0.0
  0
LINE
  5
24E
330
1F
100
AcDbEntity
  8
0
  6
Continuous
 62
     7
370
    25
100
AcDbLine
 10
68.6215207354
 20
47.2761408763
 30
0.0
 11
102.0
 21
70.0773949251
 31
0.0
  0
LINE
  5
24F
330
1F
100
AcDbEntity
  8
0
  6
Continuous
 62
     7
370
    25
100
AcDbLine
 10
342.5716118956
 20
159.0
 30
0.0
 11
305.2084822624
 21
152.0
 31
0.0
  0
LINE
  5
250
330
1F
100
AcDbEntity
  8
0
  6
Continuous
 62
     7
370
    25
100
AcDbLine
 10
342.5716118956
 20
189.2518262103
 30
0.0
 11
342.5716118956
 21
159.0
 31
0.0
  0
LINE
  5
251
330
1F
100
AcDbEntity
  8
0
  6
Continuous
 62
     7
370
    25
100
AcDbLine
 10
305.2084822624
 20
195.0
 30
0.0
 11
342.5716118956
 21
189.2518262103
 31
0.0
  0
LINE
  5
252
330
1F
100
AcDbEntity
  8
0
  6
Continuous
 62
     7
370
    25
100
AcDbLine
 10
7.8676197392
 20
160.807212736
 30
0.0
 11
7.8676197392
 21
191.0
 31
0.0
  0
LINE
  5
253
330
1F
100
AcDbEntity
  8
0
  6
Continuous
 62
     7
370
    25
100
AcDbLine
 10
302.0
 20
281.0
 30
0.0
 11
283.0
 21
251.0
 31
0.0
  0
LINE
  5
254
330
1F
100
AcDbEntity
  8
0
  6
Continuous
 62
     7
370
    25
100
AcDbLine
 10
283.0
 20
301.0
 30
0.0
 11
302.0
 21
281.0
 31
0.0
  0
LINE
  5
255
330
1F
100
AcDbEntity
  8
0
  6
Continuous
 62
     7
370
    25
100
AcDbLine
 10
47.0
 20
68.0
 30
0.0
 11
68.6215207354
 21
101.0
 31
0.0
  0
LINE
  5
256
330
1F
100
AcDbEntity
  8
0
  6
Continuous
 62
     7
370
    25
100
AcDbLine
 10
189.7247024718
 20
340.0
 30
0.0
 11
198.0
 21
299.0
 31
0.0
  0
LINE
  5
257
330
1F
100
AcDbEntity
  8
0
  6
Continuous
 62
     7
370
    25
100
AcDbLine
 10
160.0
 20
340.0
 30
0.0
 11
189.7247024718
 21
340.0
 31
0.0
  0
LINE
  5
258
330
1F
100
AcDbEntity
  8
0
  6
Continuous
 62
     7
370
    25
100
AcDbLine
 10
154.0
 20
301.0
 30
0.0
 11
160.0
 21
340.0
 31
0.0
  0
LINE
  5
259
330
1F
100
AcDbEntity
  8
0
  6
Continuous
 62
     7
370
    25
100
AcDbLine
 10
68.0
 20
303.6907053014
 30
0.0
 11
102.0
 21
279.0
 31
0.0
  0
LINE
  5
25A
330
1F
100
AcDbEntity
  8
0
  6
Continuous
 62
     7
370
    25
100
AcDbLine
 10
198.0
 20
2.0
 30
0.0
 11
206.0
 21
43.0
 31
0.0
  0
LINE
  5
25B
330
1F
100
AcDbEntity
  8
0
  6
Continuous
 62
     7
370
    25
100
AcDbLine
 10
198.0
 20
2.0
 30
0.0
 11
151.0
 21
1.0
 31
0.0
  0
LINE
  5
25C
330
1F
100
AcDbEntity
  8
0
  6
Continuous
 62
     7
370
    25
100
AcDbLine
 10
144.0
 20
42.0
 30
0.0
 11
151.0
 21
1.0
 31
0.0
  0
LINE
  5
25D
330
1F
100
AcDbEntity
  8
0
  6
Continuous
 62
     7
370
    25
100
AcDbLine
 10
305.2084822624
 20
152.0
 30
0.0
 11
281.8051717227
 21
101.0
 31
0.0
  0
LINE
  5
25E
330
1F
100
AcDbEntity
  8
0
  6
Continuous
 62
     7
370
    25
100
AcDbLine
 10
66.0
 20
36.0
 30
0.0
 11
102.0
 21
59.0
 31
0.0
  0
LINE
  5
25F
330
1F
100
AcDbEntity
  8
0
  6
Continuous
 62
     7
370
    25
100
AcDbLine
 10
35.0
 20
68.0
 30
0.0
 11
66.0
 21
36.0
 31
0.0
  0
LINE
  5
260
330
1F
100
AcDbEntity
  8
0
  6
Continuous
 62
     7
370
    25
100
AcDbLine
 10
57.0
 20
101.0
 30
0.0
 11
35.0
 21
68.0
 31
0.0
  0
LINE
  5
261
330
1F
100
AcDbEntity
  8
0
  6
Continuous
 62
     7
370
    25
100
AcDbLine
 10
0.0
 20
153.0
 30
0.0
 11
38.0
 21
146.0
 31
0.0
  0
LINE
  5
262
330
1F
100
AcDbEntity
  8
0
  6
Continuous
 62
     7
370
    25
100
AcDbLine
 10
0.0
 20
153.0
 30
0.0
 11
0.0
 21
199.0
 31
0.0
  0
LINE
  5
263
330
1F
100
AcDbEntity
  8
0
  6
Continuous
 62
     7
370
    25
100
AcDbLine
 10
37.0
 20
205.0
 30
0.0
 11
0.0
 21
199.0
 31
0.0
  0
LINE
  5
264
330
1F
100
AcDbEntity
  8
0
  6
Continuous
 62
     7
370
    25
100
AcDbLine
 10
57.0
 20
250.0
 30
0.0
 11
37.0
 21
205.0
 31
0.0
  0
LINE
  5
265
330
1F
100
AcDbEntity
  8
0
  6
Continuous
 62
     7
370
    25
100
AcDbLine
 10
35.0
 20
284.0
 30
0.0
 11
57.0
 21
250.0
 31
0.0
  0
LINE
  5
266
330
1F
100
AcDbEntity
  8
0
  6
Continuous
 62
     7
370
    25
100
AcDbLine
 10
67.0
 20
315.0
 30
0.0
 11
35.0
 21
284.0
 31
0.0
  0
LINE
  5
267
330
1F
100
AcDbEntity
  8
0
  6
Continuous
 62
     7
370
    25
100
AcDbLine
 10
101.0
 20
292.0
 30
0.0
 11
67.0
 21
315.0
 31
0.0
  0
LINE
  5
268
330
1F
100
AcDbEntity
  8
0
  6
Continuous
 62
     7
370
    25
100
AcDbLine
 10
144.0
 20
308.0
 30
0.0
 11
101.0
 21
292.0
 31
0.0
  0
LINE
  5
269
330
1F
100
AcDbEntity
  8
0
  6
Continuous
 62
     7
370
    25
100
AcDbLine
 10
151.0
 20
348.0
 30
0.0
 11
144.0
 21
308.0
 31
0.0
  0
LINE
  5
26A
330
1F
100
AcDbEntity
  8
0
  6
Continuous
 62
     7
370
    25
100
AcDbLine
 10
198.0
 20
49.9160873081
 30
0.0
 11
249.0
 21
70.0773949251
 31
0.0
  0
LINE
  5
26B
330
1F
100
AcDbEntity
  8
0
  6
Continuous
 62
     7
370
    25
100
AcDbLine
 10
205.0
 20
309.0
 30
0.0
 11
198.0
 21
349.0
 31
0.0
  0
LINE
  5
26C
330
1F
100
AcDbEntity
  8
0
  6
Continuous
 62
     7
370
    25
100
AcDbLine
 10
248.0
 20
292.0
 30
0.0
 11
205.0
 21
309.0
 31
0.0
  0
LINE
  5
26D
330
1F
100
AcDbEntity
  8
0
  6
Continuous
 62
     7
370
    25
100
AcDbLine
 10
284.0
 20
315.0
 30
0.0
 11
248.0
 21
292.0
 31
0.0
  0
LINE
  5
26E
330
1F
100
AcDbEntity
  8
0
  6
Continuous
 62
     7
370
    25
100
AcDbLine
 10
316.0
 20
284.0
 30
0.0
 11
284.0
 21
315.0
 31
0.0
  0
LINE
  5
26F
330
1F
100
AcDbEntity
  8
0
  6
Continuous
 62
     7
370
    25
100
AcDbLine
 10
293.0
 20
251.0
 30
0.0
 11
316.0
 21
284.0
 31
0.0
  0
LINE
  5
270
330
1F
100
AcDbEntity
  8
0
  6
Continuous
 62
     7
370
    25
100
AcDbLine
 10
312.0
 20
205.0
 30
0.0
 11
293.0
 21
251.0
 31
0.0
  0
LINE
  5
271
330
1F
100
AcDbEntity
  8
0
  6
Continuous
 62
     7
370
    25
100
AcDbLine
 10
349.0
 20
198.0
 30
0.0
 11
312.0
 21
205.0
 31
0.0
  0
LINE
  5
272
330
1F
100
AcDbEntity
  8
0
  6
Continuous
 62
     7
370
    25
100
AcDbLine
 10
349.0
 20
198.0
 30
0.0
 11
349.0
 21
152.0
 31
0.0
  0
LINE
  5
273
330
1F
100
AcDbEntity
  8
0
  6
Continuous
 62
     7
370
    25
100
AcDbLine
 10
316.0
 20
67.0
 30
0.0
 11
293.0
 21
102.0
 31
0.0
  0
LINE
  5
274
330
1F
100
AcDbEntity
  8
0
  6
Continuous
 62
     7
370
    25
100
AcDbLine
 10
250.0
 20
280.0
 30
0.0
 11
283.0
 21
301.0
 31
0.0
  0
LINE
  5
275
330
1F
100
AcDbEntity
  8
0
  6
Continuous
 62
     7
370
    25
100
AcDbLine
 10
46.1134196554
 20
282.2411356095
 30
0.0
 11
68.0
 21
303.6907053014
 31
0.0
  0
LINE
  5
276
330
1F
100
AcDbEntity
  8
0
  6
Continuous
 62
     7
370
    25
100
AcDbLine
 10
283.0
 20
251.0
 30
0.0
 11
305.2084822624
 21
195.0
 31
0.0
  0
LINE
  5
277
330
1F
100
AcDbEntity
  8
0
  6
Continuous
 62
     7
370
    25
100
AcDbLine
 10
102.0
 20
59.0
 30
0.0
 11
144.0
 21
42.0
 31
0.0
  0
LINE
  5
278
330
1F
100
AcDbEntity
  8
0
  6
Continuous
 62
     7
370
    25
100
AcDbLine
 10
151.0
 20
348.0
 30
0.0
 11
198.0
 21
349.0
 31
0.0
  0
ARC
  5
279
330
1F
100
AcDbEntity
  8
0
  6
Continuous
 62
     7
370
    25
100
AcDbCircle
 10
176.3640349421
 20
92.1190613936
 30
0.0
 40
25.56449913987691
100
AcDbArc
 50
27.6936326941
 51
151.4721739926
  0
ARC
  5
27A
330
1F
100
AcDbEntity
  8
0
  6
Continuous
 62
     7
370
    25
100
AcDbCircle
 10
176.4129865491
 20
206.0610709673
 30
0.0
 40
25.07816281993721
100
AcDbArc
 50
11.3581583964
 51
170.6478414655
  0
ARC
  5
27B
330
1F
100
AcDbEntity
  8
0
  6
Continuous
 62
     7
370
    25
100
AcDbCircle
 10
261.0603683944
 20
120.0004441055
 30
0.0
 40
23.82565823152926
100
AcDbArc
 50
191.4392703129
 51
157.8059878979
  0
ARC
  5
27C
330
1F
100
AcDbEntity
  8
0
  6
Continuous
 62
     7
370
    25
100
AcDbCircle
 10
176.3640349421
 20
92.1190613936
 30
0.0
 40
24.50845984295016
100
AcDbArc
 50
186.2232057484
 51
350.5909688844
  0
ARC
  5
27D
330
1F
100
AcDbEntity
  8
0
  6
Continuous
 62
     7
370
    25
100
AcDbCircle
 10
89.807533952
 20
118.3605916961
 30
0.0
 40
24.6776268030777
100
AcDbArc
 50
22.9926637333
 51
350.8482222097
  0
ARC
  5
27E
330
1F
100
AcDbEntity
  8
0
  6
Continuous
 62
     7
370
    25
100
AcDbCircle
 10
88.6533843155
 20
176.0
 30
0.0
 40
25.17612006096462
100
AcDbArc
 50
18.5275997637
 51
341.4724002363
  0
ARC
  5
27F
330
1F
100
AcDbEntity
  8
0
  6
Continuous
 62
     7
370
    25
100
AcDbCircle
 10
88.8466211472
 20
233.0004441055
 30
0.0
 40
24.47104771046275
100
AcDbArc
 50
9.2427833666
 51
340.0639743525
  0
ARC
  5
280
330
1F
100
AcDbEntity
  8
0
  6
Continuous
 62
     7
370
    25
100
AcDbCircle
 10
176.4007315655
 20
263.1630296025
 30
0.0
 40
24.69899974292291
100
AcDbArc
 50
354.8481236875
 51
183.649318103
  0
ARC
  5
281
330
1F
100
AcDbEntity
  8
0
  6
Continuous
 62
     7
370
    25
100
AcDbCircle
 10
261.2448866301
 20
233.8135625396
 30
0.0
 40
24.73379602474203
100
AcDbArc
 50
205.9240855269
 51
169.9617312739
  0
ARC
  5
282
330
1F
100
AcDbEntity
  8
0
  6
Continuous
 62
     7
370
    25
100
AcDbCircle
 10
261.0603683944
 20
176.7057767127
 30
0.0
 40
23.90409298398393
100
AcDbArc
 50
194.6146826659
 51
164.7322488591
  0
ARC
  5
283
330
1F
100
AcDbEntity
  8
0
  6
Continuous
 62
     7
370
    25
100
AcDbCircle
 10
176.4129865491
 20
206.0610709673
 30
0.0
 40
24.76184169826112
100
AcDbArc
 50
198.9985411434
 51
336.7369372248
  0
MTEXT
  5
285
330
1F
100
AcDbEntity
  8
0
  6
Continuous
 62
     7
100
AcDbMText
 10
0.0
 20
-0.0195663917
 30
0.0
 40
4.83362
 41
0.0
 71
     1
 72
     1
  1
SOLIDWORKS Educational Product.
  7
SLDTEXTSTYLE0
 73
     1
 44
1.0
  0
MTEXT
  5
286
330
1F
100
AcDbEntity
  8
0
  6
Continuous
 62
     7
100
AcDbMText
 10
0.0
 20
-7.2699963917
 30
0.0
 40
4.83362
 41
0.0
 71
     1
 72
     1
  1
For Instructional Use Only.
  7
SLDTEXTSTYLE0
 73
     1
 44
1.0
  0
ENDSEC
  0
SECTION
  2
OBJECTS
  0
DICTIONARY
  5
C
330
0
100
AcDbDictionary
281
     1
  3
ACAD_GROUP
350
D
  3
ACAD_LAYOUT
350
1A
  3
ACAD_MLINESTYLE
350
17
  3
ACAD_PLOTSETTINGS
350
19
  3
ACAD_PLOTSTYLENAME
350
E
  3
ACAD_SCALELIST
350
47
  3
DWGPROPS
350
287
  0
DICTIONARY
  5
D
102
{ACAD_REACTORS
330
C
102
}
330
C
100
AcDbDictionary
281
     1
  0
DICTIONARY
  5
1A
102
{ACAD_REACTORS
330
C
102
}
330
C
100
AcDbDictionary
281
     1
  3
Layout1
350
1E
  3
Layout2
350
26
  3
Model
350
22
  0
DICTIONARY
  5
17
102
{ACAD_REACTORS
330
C
102
}
330
C
100
AcDbDictionary
281
     1
  3
Standard
350
18
  0
DICTIONARY
  5
19
102
{ACAD_REACTORS
330
C
102
}
330
C
100
AcDbDictionary
281
     1
  0
ACDBDICTIONARYWDFLT
  5
E
102
{ACAD_REACTORS
330
C
102
}
330
C
100
AcDbDictionary
281
     1
  3
Normal
350
F
100
AcDbDictionaryWithDefault
340
F
  0
DICTIONARY
  5
47
102
{ACAD_REACTORS
330
C
102
}
330
C
100
AcDbDictionary
281
     1
  3
A0
350
48
  3
A1
350
49
  3
A2
350
4A
  3
A3
350
4B
  3
A4
350
4C
  3
A5
350
4D
  3
A6
350
4E
  3
A7
350
4F
  3
A8
350
50
  3
A9
350
51
  3
B0
350
52
  3
B1
350
53
  3
B2
350
54
  3
B3
350
55
  3
B4
350
56
  3
B5
350
57
  3
B6
350
58
  0
XRECORD
  5
287
102
{ACAD_REACTORS
330
C
102
}
330
C
100
AcDbXrecord
280
     1
  1
DWGPROPS COOKIE
  2

  3

  4

  6

  7

  8
ppak1
  9

300
=
301
=
302
=
303
=
304
=
305
=
306
=
307
=
308
=
309
=
 40
0.0
 41
2460542.068588715
 42
2460542.068643021
  1

 90
        0
  0
LAYOUT
  5
1E
102
{ACAD_REACTORS
330
1A
102
}
330
1A
100
AcDbPlotSettings
  1

  2
none_device
  4

  6

 40
0.0
 41
0.0
 42
0.0
 43
0.0
 44
0.0
 45
0.0
 46
0.0
 47
0.0
 48
0.0
 49
0.0
140
0.0
141
0.0
142
1.0
143
1.0
 70
   688
 72
     1
 73
     0
 74
     5
  7

 75
    16
147
1.0
148
0.0
149
0.0
100
AcDbLayout
  1
Layout1
 70
     1
 71
     1
 10
0.0
 20
0.0
 11
420.0
 21
297.0
 12
0.0
 22
0.0
 32
0.0
 14
1.0000000000E+20
 24
1.0000000000E+20
 34
1.0000000000E+20
 15
-1.0000000000E+20
 25
-1.0000000000E+20
 35
-1.0000000000E+20
146
0.0
 13
0.0
 23
0.0
 33
0.0
 16
1.0
 26
0.0
 36
0.0
 17
0.0
 27
1.0
 37
0.0
 76
     0
330
1B
  0
LAYOUT
  5
26
102
{ACAD_REACTORS
330
1A
102
}
330
1A
100
AcDbPlotSettings
  1

  2
none_device
  4

  6

 40
0.0
 41
0.0
 42
0.0
 43
0.0
 44
0.0
 45
0.0
 46
0.0
 47
0.0
 48
0.0
 49
0.0
140
0.0
141
0.0
142
1.0
143
1.0
 70
   688
 72
     1
 73
     0
 74
     5
  7

 75
    16
147
1.0
148
0.0
149
0.0
100
AcDbLayout
  1
Layout2
 70
     1
 71
     2
 10
0.0
 20
0.0
 11
0.0
 21
0.0
 12
0.0
 22
0.0
 32
0.0
 14
0.0
 24
0.0
 34
0.0
 15
0.0
 25
0.0
 35
0.0
146
0.0
 13
0.0
 23
0.0
 33
0.0
 16
1.0
 26
0.0
 36
0.0
 17
0.0
 27
1.0
 37
0.0
 76
     0
330
23
  0
LAYOUT
  5
22
102
{ACAD_REACTORS
330
1A
102
}
330
1A
100
AcDbPlotSettings
  1

  2
none_device
  4
ANSI_A_(11.00_x_8.50_Inches)
  6

 40
6.35
 41
19.05
 42
6.35000508
 43
19.05000254
 44
279.4
 45
215.9
 46
26.1723983221
 47
-18.5846995459
 48
0.0
 49
0.0
140
0.0
141
0.0
142
0.0241810345
143
1.0
 70
  1696
 72
     0
 73
     0
 74
     0
  7

 75
     0
147
0.0179189148
148
-1300.4909072572
149
0.0
100
AcDbLayout
  1
Model
 70
     1
 71
     0
 10
0.0
 20
0.0
 11
420.0
 21
297.0
 12
0.0
 22
0.0
 32
0.0
 14
0.0
 24
1.0
 34
0.0
 15
349.0
 25
349.0
 35
0.0
146
0.0
 13
0.0
 23
0.0
 33
0.0
 16
1.0
 26
0.0
 36
0.0
 17
0.0
 27
1.0
 37
0.0
 76
     0
330
1F
331
29
  0
MLINESTYLE
  5
18
102
{ACAD_REACTORS
330
17
102
}
330
17
100
AcDbMlineStyle
  2
Standard
 70
     0
  3

 62
   256
 51
90.0
 52
90.0
 71
     2
 49
0.5
 62
   256
  6
BYLAYER
 49
-0.5
 62
   256
  6
BYLAYER
  0
ACDBPLACEHOLDER
  5
F
102
{ACAD_REACTORS
330
E
102
}
330
E
  0
SCALE
  5
48
102
{ACAD_REACTORS
330
47
102
}
330
47
100
AcDbScale
 70
     0
300
1:1
140
1.0
141
1.0
290
     1
  0
SCALE
  5
49
102
{ACAD_REACTORS
330
47
102
}
330
47
100
AcDbScale
 70
     0
300
1:2
140
1.0
141
2.0
290
     0
  0
SCALE
  5
4A
102
{ACAD_REACTORS
330
47
102
}
330
47
100
AcDbScale
 70
     0
300
1:4
140
1.0
141
4.0
290
     0
  0
SCALE
  5
4B
102
{ACAD_REACTORS
330
47
102
}
330
47
100
AcDbScale
 70
     0
300
1:5
140
1.0
141
5.0
290
     0
  0
SCALE
  5
4C
102
{ACAD_REACTORS
330
47
102
}
330
47
100
AcDbScale
 70
     0
300
1:8
140
1.0
141
8.0
290
     0
  0
SCALE
  5
4D
102
{ACAD_REACTORS
330
47
102
}
330
47
100
AcDbScale
 70
     0
300
1:10
140
1.0
141
10.0
290
     0
  0
SCALE
  5
4E
102
{ACAD_REACTORS
330
47
102
}
330
47
100
AcDbScale
 70
     0
300
1:16
140
1.0
141
16.0
290
     0
  0
SCALE
  5
4F
102
{ACAD_REACTORS
330
47
102
}
330
47
100
AcDbScale
 70
     0
300
1:20
140
1.0
141
20.0
290
     0
  0
SCALE
  5
50
102
{ACAD_REACTORS
330
47
102
}
330
47
100
AcDbScale
 70
     0
300
1:30
140
1.0
141
30.0
290
     0
  0
SCALE
  5
51
102
{ACAD_REACTORS
330
47
102
}
330
47
100
AcDbScale
 70
     0
300
1:40
140
1.0
141
40.0
290
     0
  0
SCALE
  5
52
102
{ACAD_REACTORS
330
47
102
}
330
47
100
AcDbScale
 70
     0
300
1:50
140
1.0
141
50.0
290
     0
  0
SCALE
  5
53
102
{ACAD_REACTORS
330
47
102
}
330
47
100
AcDbScale
 70
     0
300
1:100
140
1.0
141
100.0
290
     0
  0
SCALE
  5
54
102
{ACAD_REACTORS
330
47
102
}
330
47
100
AcDbScale
 70
     0
300
2:1
140
2.0
141
1.0
290
     0
  0
SCALE
  5
55
102
{ACAD_REACTORS
330
47
102
}
330
47
100
AcDbScale
 70
     0
300
4:1
140
4.0
141
1.0
290
     0
  0
SCALE
  5
56
102
{ACAD_REACTORS
330
47
102
}
330
47
100
AcDbScale
 70
     0
300
8:1
140
8.0
141
1.0
290
     0
  0
SCALE
  5
57
102
{ACAD_REACTORS
330
47
102
}
330
47
100
AcDbScale
 70
     0
300
10:1
140
10.0
141
1.0
290
     0
  0
SCALE
  5
58
102
{ACAD_REACTORS
330
47
102
}
330
47
100
AcDbScale
 70
     0
300
100:1
140
100.0
141
1.0
290
     0
  0
ENDSEC
  0
EOF
