ISO-10303-21;
HEADER;
FILE_DESCRIPTION (( 'STEP AP214' ),
    '1' );
FILE_NAME ('Base Fixture.STEP',
    '2025-03-12T01:12:52',
    ( '' ),
    ( '' ),
    'SwSTEP 2.0',
    'SolidWorks 2024',
    '' );
FILE_SCHEMA (( 'AUTOMOTIVE_DESIGN' ));
ENDSEC;

DATA;
#1 = AXIS2_PLACEMENT_3D ( 'NONE', #14, #11, #8 ) ;
#2 = MANIFOLD_SOLID_BREP ( 'Cut-Extrude1', #191 ) ;
#3 = VECTOR ( 'NONE', #224, 39.37007874015748143 ) ;
#4 = LINE ( 'NONE', #9, #3 ) ;
#5 = AXIS2_PLACEMENT_3D ( 'NONE', #355, #157, #267 ) ;
#6 = CARTESIAN_POINT ( 'NONE',  ( -3.317333216474452444E-15, 0.2187499999999999445, -0.8749426215660135453 ) ) ;
#7 = EDGE_CURVE ( 'NONE', #242, #384, #333, .T. ) ;
#8 = DIRECTION ( 'NONE',  ( 0.000000000000000000, 0.000000000000000000, 1.000000000000000000 ) ) ;
#9 = CARTESIAN_POINT ( 'NONE',  ( 2.937499999999992895, -0.2187500000000000278, 2.812499999999999112 ) ) ;
#10 = ORIENTED_EDGE ( 'NONE', *, *, #67, .F. ) ;
#11 = DIRECTION ( 'NONE',  ( -0.000000000000000000, 1.000000000000000000, -0.000000000000000000 ) ) ;
#12 = LINE ( 'NONE', #436, #237 ) ;
#13 = EDGE_LOOP ( 'NONE', ( #228, #352 ) ) ;
#14 = CARTESIAN_POINT ( 'NONE',  ( 2.812499999999992895, -0.2187500000000000278, -2.812500000000000000 ) ) ;
#15 = DIRECTION ( 'NONE',  ( -0.000000000000000000, 1.000000000000000000, -0.000000000000000000 ) ) ;
#16 = VERTEX_POINT ( 'NONE', #80 ) ;
#17 = ADVANCED_FACE ( 'NONE', ( #501, #377, #334, #82 ), #336, .F. ) ;
#18 = FACE_OUTER_BOUND ( 'NONE', #96, .T. ) ;
#19 = ORIENTED_EDGE ( 'NONE', *, *, #382, .T. ) ;
#20 = DIRECTION ( 'NONE',  ( -0.000000000000000000, -0.000000000000000000, 1.000000000000000000 ) ) ;
#21 = ORIENTED_EDGE ( 'NONE', *, *, #353, .F. ) ;
#22 = CARTESIAN_POINT ( 'NONE',  ( 2.937499999999992895, -0.2187500000000000278, 2.812499999999999112 ) ) ;
#23 = ORIENTED_EDGE ( 'NONE', *, *, #345, .F. ) ;
#24 = LINE ( 'NONE', #357, #359 ) ;
#25 = CARTESIAN_POINT ( 'NONE',  ( -2.812499999999992006, 0.2187499999999999445, -2.937500000000000000 ) ) ;
#26 = ORIENTED_EDGE ( 'NONE', *, *, #229, .T. ) ;
#27 = CIRCLE ( 'NONE', #413, 0.1249999999999999029 ) ;
#28 = AXIS2_PLACEMENT_3D ( 'NONE', #548, #480, #94 ) ;
#29 = DIRECTION ( 'NONE',  ( 0.000000000000000000, 0.000000000000000000, 1.000000000000000000 ) ) ;
#30 = AXIS2_PLACEMENT_3D ( 'NONE', #66, #452, #314 ) ;
#31 = LINE ( 'NONE', #457, #222 ) ;
#32 = EDGE_LOOP ( 'NONE', ( #461, #509, #158, #262 ) ) ;
#33 = AXIS2_PLACEMENT_3D ( 'NONE', #227, #543, #323 ) ;
#34 =( NAMED_UNIT ( * ) SI_UNIT ( $, .STERADIAN. ) SOLID_ANGLE_UNIT ( ) );
#35 = ORIENTED_EDGE ( 'NONE', *, *, #465, .F. ) ;
#36 = EDGE_CURVE ( 'NONE', #362, #524, #303, .T. ) ;
#37 =( NAMED_UNIT ( * ) PLANE_ANGLE_UNIT ( ) SI_UNIT ( $, .RADIAN. ) );
#38 = DIRECTION ( 'NONE',  ( -0.000000000000000000, 1.000000000000000000, -0.000000000000000000 ) ) ;
#39 = DIRECTION ( 'NONE',  ( 0.000000000000000000, 1.000000000000000000, -0.000000000000000000 ) ) ;
#40 = CARTESIAN_POINT ( 'NONE',  ( 2.937499999999992895, -0.2187500000000000278, 2.812499999999999112 ) ) ;
#41 = UNCERTAINTY_MEASURE_WITH_UNIT (LENGTH_MEASURE( 1.000000000000000082E-05 ), #414, 'distance_accuracy_value', 'NONE');
#42 = DIRECTION ( 'NONE',  ( 0.000000000000000000, 1.000000000000000000, -0.000000000000000000 ) ) ;
#43 = DIRECTION ( 'NONE',  ( 0.000000000000000000, 1.000000000000000000, 0.000000000000000000 ) ) ;
#44 = DIRECTION ( 'NONE',  ( -0.000000000000000000, 0.000000000000000000, 1.000000000000000000 ) ) ;
#45 = ORIENTED_EDGE ( 'NONE', *, *, #245, .T. ) ;
#46 = AXIS2_PLACEMENT_3D ( 'NONE', #494, #69, #112 ) ;
#47 = CARTESIAN_POINT ( 'NONE',  ( -2.000000000000004885, -0.2187500000000000278, 1.311329505519473360 ) ) ;
#48 = EDGE_CURVE ( 'NONE', #496, #64, #381, .T. ) ;
#49 = CYLINDRICAL_SURFACE ( 'NONE', #538, 0.1249999999999999029 ) ;
#50 = ORIENTED_EDGE ( 'NONE', *, *, #48, .F. ) ;
#51 = FACE_OUTER_BOUND ( 'NONE', #554, .T. ) ;
#52 = DIRECTION ( 'NONE',  ( -0.000000000000000000, 1.000000000000000000, -0.000000000000000000 ) ) ;
#53 = VERTEX_POINT ( 'NONE', #244 ) ;
#54 = AXIS2_PLACEMENT_3D ( 'NONE', #184, #255, #57 ) ;
#55 = CARTESIAN_POINT ( 'NONE',  ( -3.310811972268992627E-15, 0.2187499999999999445, -0.9281926215660134538 ) ) ;
#56 = VECTOR ( 'NONE', #470, 39.37007874015748143 ) ;
#57 = DIRECTION ( 'NONE',  ( 0.000000000000000000, 0.000000000000000000, 1.000000000000000000 ) ) ;
#58 = ORIENTED_EDGE ( 'NONE', *, *, #546, .F. ) ;
#59 = DIRECTION ( 'NONE',  ( 0.000000000000000000, 0.000000000000000000, 1.000000000000000000 ) ) ;
#60 = DIRECTION ( 'NONE',  ( -0.000000000000000000, 1.000000000000000000, -0.000000000000000000 ) ) ;
#61 = VERTEX_POINT ( 'NONE', #394 ) ;
#62 = EDGE_CURVE ( 'NONE', #53, #496, #428, .T. ) ;
#63 = DIRECTION ( 'NONE',  ( 1.000000000000000000, 0.000000000000000000, 0.000000000000000000 ) ) ;
#64 = VERTEX_POINT ( 'NONE', #304 ) ;
#65 = ORIENTED_EDGE ( 'NONE', *, *, #229, .F. ) ;
#66 = CARTESIAN_POINT ( 'NONE',  ( -3.317333216474452444E-15, 0.2187499999999999445, -0.8749426215660135453 ) ) ;
#67 = EDGE_CURVE ( 'NONE', #194, #242, #199, .T. ) ;
#68 = ORIENTED_EDGE ( 'NONE', *, *, #91, .T. ) ;
#69 = DIRECTION ( 'NONE',  ( -0.000000000000000000, 1.000000000000000000, -0.000000000000000000 ) ) ;
#70 = AXIS2_PLACEMENT_3D ( 'NONE', #550, #42, #249 ) ;
#71 = ORIENTED_EDGE ( 'NONE', *, *, #254, .T. ) ;
#72 = DIRECTION ( 'NONE',  ( -0.000000000000000000, 1.000000000000000000, -0.000000000000000000 ) ) ;
#73 = ORIENTED_EDGE ( 'NONE', *, *, #529, .F. ) ;
#74 = VECTOR ( 'NONE', #474, 39.37007874015748143 ) ;
#75 = CIRCLE ( 'NONE', #417, 0.1249999999999999029 ) ;
#76 = ADVANCED_FACE ( 'NONE', ( #350 ), #425, .F. ) ;
#77 = AXIS2_PLACEMENT_3D ( 'NONE', #409, #234, #59 ) ;
#78 = CARTESIAN_POINT ( 'NONE',  ( 2.937499999999992895, -0.2187500000000000278, -2.812499999999999112 ) ) ;
#79 = VERTEX_POINT ( 'NONE', #127 ) ;
#80 = CARTESIAN_POINT ( 'NONE',  ( -2.000000000000004885, 0.2187499999999999445, 1.258079505519473340 ) ) ;
#81 = CARTESIAN_POINT ( 'NONE',  ( 2.999999999999998668, -0.2187500000000000278, 3.000000000000000444 ) ) ;
#82 = FACE_OUTER_BOUND ( 'NONE', #246, .T. ) ;
#83 = FACE_OUTER_BOUND ( 'NONE', #278, .T. ) ;
#84 = DIRECTION ( 'NONE',  ( 0.000000000000000000, 0.000000000000000000, 1.000000000000000000 ) ) ;
#85 = CYLINDRICAL_SURFACE ( 'NONE', #312, 0.05324999999999976974 ) ;
#86 = ORIENTED_EDGE ( 'NONE', *, *, #269, .T. ) ;
#87 = CARTESIAN_POINT ( 'NONE',  ( -2.812499999999992006, -0.2187500000000000278, 2.937500000000000000 ) ) ;
#88 = ORIENTED_EDGE ( 'NONE', *, *, #7, .T. ) ;
#89 = DIRECTION ( 'NONE',  ( 1.000000000000000000, 0.000000000000000000, 0.000000000000000000 ) ) ;
#90 = DIMENSIONAL_EXPONENTS ( 1.000000000000000000, 0.000000000000000000, 0.000000000000000000, 0.000000000000000000, 0.000000000000000000, 0.000000000000000000, 0.000000000000000000 ) ;
#91 = EDGE_CURVE ( 'NONE', #111, #119, #264, .T. ) ;
#92 = PLANE ( 'NONE',  #462 ) ;
#93 = ORIENTED_EDGE ( 'NONE', *, *, #388, .T. ) ;
#94 = DIRECTION ( 'NONE',  ( 0.000000000000000000, 0.000000000000000000, -1.000000000000000000 ) ) ;
#95 = DIRECTION ( 'NONE',  ( -0.000000000000000000, 1.000000000000000000, -0.000000000000000000 ) ) ;
#96 = EDGE_LOOP ( 'NONE', ( #259, #420, #412, #536 ) ) ;
#97 = APPLICATION_CONTEXT ( 'automotive_design' ) ;
#98 = LINE ( 'NONE', #398, #56 ) ;
#99 = LINE ( 'NONE', #215, #74 ) ;
#100 = EDGE_LOOP ( 'NONE', ( #498, #152 ) ) ;
#101 = AXIS2_PLACEMENT_3D ( 'NONE', #129, #15, #513 ) ;
#102 = FACE_OUTER_BOUND ( 'NONE', #330, .T. ) ;
#103 = CARTESIAN_POINT ( 'NONE',  ( -2.000000000000004885, -0.2187500000000000278, 1.311329505519473360 ) ) ;
#104 = EDGE_LOOP ( 'NONE', ( #500, #348, #164, #19 ) ) ;
#105 = AXIS2_PLACEMENT_3D ( 'NONE', #186, #449, #149 ) ;
#106 = AXIS2_PLACEMENT_3D ( 'NONE', #103, #197, #460 ) ;
#107 = DIRECTION ( 'NONE',  ( 0.000000000000000000, 1.000000000000000000, -0.000000000000000000 ) ) ;
#108 = ORIENTED_EDGE ( 'NONE', *, *, #7, .F. ) ;
#109 = EDGE_CURVE ( 'NONE', #247, #16, #98, .T. ) ;
#110 = LINE ( 'NONE', #193, #387 ) ;
#111 = VERTEX_POINT ( 'NONE', #169 ) ;
#112 = DIRECTION ( 'NONE',  ( 0.000000000000000000, 0.000000000000000000, 1.000000000000000000 ) ) ;
#113 = ORIENTED_EDGE ( 'NONE', *, *, #315, .T. ) ;
#114 = CARTESIAN_POINT ( 'NONE',  ( 2.812499999999992895, 0.2187499999999999445, 2.812500000000000000 ) ) ;
#115 = VERTEX_POINT ( 'NONE', #138 ) ;
#116 = EDGE_CURVE ( 'NONE', #358, #324, #75, .T. ) ;
#117 = DIRECTION ( 'NONE',  ( -0.000000000000000000, 1.000000000000000000, -0.000000000000000000 ) ) ;
#118 = ORIENTED_EDGE ( 'NONE', *, *, #375, .T. ) ;
#119 = VERTEX_POINT ( 'NONE', #168 ) ;
#120 = APPLICATION_PROTOCOL_DEFINITION ( 'draft international standard', 'automotive_design', 1998, #97 ) ;
#121 = AXIS2_PLACEMENT_3D ( 'NONE', #195, #107, #271 ) ;
#122 = SURFACE_STYLE_FILL_AREA ( #421 ) ;
#123 = PRESENTATION_STYLE_ASSIGNMENT (( #547 ) ) ;
#124 = DIRECTION ( 'NONE',  ( 0.000000000000000000, 0.000000000000000000, -1.000000000000000000 ) ) ;
#125 = EDGE_LOOP ( 'NONE', ( #327, #542, #366, #45 ) ) ;
#126 = AXIS2_PLACEMENT_3D ( 'NONE', #87, #44, #89 ) ;
#127 = CARTESIAN_POINT ( 'NONE',  ( 2.812499999999992006, 0.2187499999999999445, 2.937500000000000000 ) ) ;
#128 = AXIS2_PLACEMENT_3D ( 'NONE', #346, #38, #383 ) ;
#129 = CARTESIAN_POINT ( 'NONE',  ( -2.000000000000004885, 0.2187499999999999445, 1.311329505519473360 ) ) ;
#130 = CIRCLE ( 'NONE', #5, 0.1249999999999999029 ) ;
#131 = CARTESIAN_POINT ( 'NONE',  ( -2.812499999999992006, -0.2187500000000000278, -2.937500000000000000 ) ) ;
#132 = ADVANCED_FACE ( 'NONE', ( #335 ), #467, .F. ) ;
#133 = CARTESIAN_POINT ( 'NONE',  ( -2.937499999999992895, -0.2187500000000000278, 2.812499999999999112 ) ) ;
#134 = CARTESIAN_POINT ( 'NONE',  ( 1.999999999999998446, 0.2187499999999999445, 1.364579505519474933 ) ) ;
#135 = DIRECTION ( 'NONE',  ( -0.000000000000000000, 0.000000000000000000, 1.000000000000000000 ) ) ;
#136 = ORIENTED_EDGE ( 'NONE', *, *, #491, .F. ) ;
#137 = AXIS2_PLACEMENT_3D ( 'NONE', #331, #427, #209 ) ;
#138 = CARTESIAN_POINT ( 'NONE',  ( -2.000000000000004885, 0.2187499999999999445, 1.364579505519473601 ) ) ;
#139 = DIRECTION ( 'NONE',  ( 0.000000000000000000, 0.000000000000000000, 1.000000000000000000 ) ) ;
#140 = EDGE_LOOP ( 'NONE', ( #283, #437, #171, #486 ) ) ;
#141 = ADVANCED_FACE ( 'NONE', ( #83 ), #292, .T. ) ;
#142 = CARTESIAN_POINT ( 'NONE',  ( 1.999999999999998446, 0.2187499999999999445, 1.258079505519474672 ) ) ;
#143 = LINE ( 'NONE', #329, #490 ) ;
#144 = ORIENTED_EDGE ( 'NONE', *, *, #285, .F. ) ;
#145 = CIRCLE ( 'NONE', #468, 0.05325000000000004036 ) ;
#146 = DIRECTION ( 'NONE',  ( -0.000000000000000000, 1.000000000000000000, -0.000000000000000000 ) ) ;
#147 = VERTEX_POINT ( 'NONE', #134 ) ;
#148 = CIRCLE ( 'NONE', #121, 0.1249999999999999029 ) ;
#149 = DIRECTION ( 'NONE',  ( 0.000000000000000000, 0.000000000000000000, 1.000000000000000000 ) ) ;
#150 = ADVANCED_FACE ( 'NONE', ( #51 ), #85, .F. ) ;
#151 = ADVANCED_FACE ( 'NONE', ( #223 ), #551, .T. ) ;
#152 = ORIENTED_EDGE ( 'NONE', *, *, #517, .T. ) ;
#153 = FACE_BOUND ( 'NONE', #453, .T. ) ;
#154 = DIRECTION ( 'NONE',  ( 0.000000000000000000, 1.000000000000000000, 0.000000000000000000 ) ) ;
#155 = VERTEX_POINT ( 'NONE', #142 ) ;
#156 = LINE ( 'NONE', #367, #341 ) ;
#157 = DIRECTION ( 'NONE',  ( 0.000000000000000000, 1.000000000000000000, -0.000000000000000000 ) ) ;
#158 = ORIENTED_EDGE ( 'NONE', *, *, #48, .T. ) ;
#159 = AXIS2_PLACEMENT_3D ( 'NONE', #463, #29, #165 ) ;
#160 = PRODUCT_RELATED_PRODUCT_CATEGORY ( 'part', '', ( #349 ) ) ;
#161 = CARTESIAN_POINT ( 'NONE',  ( 1.999999999999998446, -0.2187500000000000278, 1.311329505519474914 ) ) ;
#162 = EDGE_CURVE ( 'NONE', #194, #79, #300, .T. ) ;
#163 = VERTEX_POINT ( 'NONE', #484 ) ;
#164 = ORIENTED_EDGE ( 'NONE', *, *, #285, .T. ) ;
#165 = DIRECTION ( 'NONE',  ( 1.000000000000000000, 0.000000000000000000, 0.000000000000000000 ) ) ;
#166 = SURFACE_SIDE_STYLE ('',( #122 ) ) ;
#167 = MECHANICAL_DESIGN_GEOMETRIC_PRESENTATION_REPRESENTATION (  '', ( #504 ), #426 ) ;
#168 = CARTESIAN_POINT ( 'NONE',  ( -2.812499999999992006, 0.2187499999999999445, 2.937500000000000000 ) ) ;
#169 = CARTESIAN_POINT ( 'NONE',  ( -2.937499999999992895, 0.2187499999999999445, 2.812499999999999112 ) ) ;
#170 = VERTEX_POINT ( 'NONE', #435 ) ;
#171 = ORIENTED_EDGE ( 'NONE', *, *, #116, .T. ) ;
#172 = CIRCLE ( 'NONE', #289, 0.05324999999999976974 ) ;
#173 = ADVANCED_FACE ( 'NONE', ( #102 ), #266, .F. ) ;
#174 = DIRECTION ( 'NONE',  ( 0.000000000000000000, 0.000000000000000000, -1.000000000000000000 ) ) ;
#175 = ORIENTED_EDGE ( 'NONE', *, *, #109, .T. ) ;
#176 = DIRECTION ( 'NONE',  ( -0.000000000000000000, 1.000000000000000000, -0.000000000000000000 ) ) ;
#177 = DIRECTION ( 'NONE',  ( 0.000000000000000000, 0.000000000000000000, 1.000000000000000000 ) ) ;
#178 = FACE_OUTER_BOUND ( 'NONE', #202, .T. ) ;
#179 = VERTEX_POINT ( 'NONE', #206 ) ;
#180 = CARTESIAN_POINT ( 'NONE',  ( 2.812499999999992895, -0.2187500000000000278, 2.812500000000000000 ) ) ;
#181 = CARTESIAN_POINT ( 'NONE',  ( -2.812499999999992006, 0.2187499999999999445, -2.937500000000000000 ) ) ;
#182 = VERTEX_POINT ( 'NONE', #337 ) ;
#183 = DIRECTION ( 'NONE',  ( -0.000000000000000000, 1.000000000000000000, -0.000000000000000000 ) ) ;
#184 = CARTESIAN_POINT ( 'NONE',  ( 1.999999999999998446, -0.2187500000000000278, 1.311329505519474914 ) ) ;
#185 = VERTEX_POINT ( 'NONE', #219 ) ;
#186 = CARTESIAN_POINT ( 'NONE',  ( -2.812499999999992895, -0.2187500000000000278, 2.812500000000000000 ) ) ;
#187 = LINE ( 'NONE', #402, #464 ) ;
#188 = VERTEX_POINT ( 'NONE', #250 ) ;
#189 = LINE ( 'NONE', #273, #419 ) ;
#190 = EDGE_CURVE ( 'NONE', #324, #286, #214, .T. ) ;
#191 = CLOSED_SHELL ( 'NONE', ( #299, #150, #173, #17, #217, #132, #415, #76, #290, #423, #505, #319, #141, #151, #380, #397 ) ) ;
#192 = ORIENTED_EDGE ( 'NONE', *, *, #116, .F. ) ;
#193 = CARTESIAN_POINT ( 'NONE',  ( -2.937499999999992895, -0.2187500000000000278, 2.812499999999999112 ) ) ;
#194 = VERTEX_POINT ( 'NONE', #230 ) ;
#195 = CARTESIAN_POINT ( 'NONE',  ( 2.812499999999992895, -0.2187500000000000278, -2.812500000000000000 ) ) ;
#196 = AXIS2_PLACEMENT_3D ( 'NONE', #392, #213, #135 ) ;
#197 = DIRECTION ( 'NONE',  ( -0.000000000000000000, 1.000000000000000000, -0.000000000000000000 ) ) ;
#198 = ORIENTED_EDGE ( 'NONE', *, *, #529, .T. ) ;
#199 = CIRCLE ( 'NONE', #291, 0.1249999999999999029 ) ;
#200 = AXIS2_PLACEMENT_3D ( 'NONE', #454, #445, #406 ) ;
#201 = CARTESIAN_POINT ( 'NONE',  ( -3.310811972268992627E-15, 0.2187499999999999445, -0.9281926215660134538 ) ) ;
#202 = EDGE_LOOP ( 'NONE', ( #320, #503, #405, #88 ) ) ;
#203 = ORIENTED_EDGE ( 'NONE', *, *, #36, .F. ) ;
#204 = EDGE_CURVE ( 'NONE', #64, #496, #531, .T. ) ;
#205 = EDGE_CURVE ( 'NONE', #324, #362, #110, .T. ) ;
#206 = CARTESIAN_POINT ( 'NONE',  ( 2.812499999999992006, -0.2187500000000000278, -2.937500000000000000 ) ) ;
#207 =( LENGTH_UNIT ( ) NAMED_UNIT ( * ) SI_UNIT ( $, .METRE. ) );
#208 = DIRECTION ( 'NONE',  ( 0.000000000000000000, 0.000000000000000000, -1.000000000000000000 ) ) ;
#209 = DIRECTION ( 'NONE',  ( 0.000000000000000000, 0.000000000000000000, 1.000000000000000000 ) ) ;
#210 = UNCERTAINTY_MEASURE_WITH_UNIT (LENGTH_MEASURE( 1.000000000000000082E-05 ), #512, 'distance_accuracy_value', 'NONE');
#211 = DIRECTION ( 'NONE',  ( -0.000000000000000000, 1.000000000000000000, -0.000000000000000000 ) ) ;
#212 = CIRCLE ( 'NONE', #77, 0.05324999999999990158 ) ;
#213 = DIRECTION ( 'NONE',  ( -1.000000000000000000, 0.000000000000000000, -0.000000000000000000 ) ) ;
#214 = LINE ( 'NONE', #391, #372 ) ;
#215 = CARTESIAN_POINT ( 'NONE',  ( -2.937499999999992895, -0.2187500000000000278, 2.812499999999999112 ) ) ;
#216 = EDGE_LOOP ( 'NONE', ( #489, #108, #113, #198 ) ) ;
#217 = ADVANCED_FACE ( 'NONE', ( #488, #404, #153, #528 ), #318, .F. ) ;
#218 = EDGE_CURVE ( 'NONE', #179, #358, #189, .T. ) ;
#219 = CARTESIAN_POINT ( 'NONE',  ( -3.317333216474452444E-15, -0.2187500000000000278, -0.8216926215660136368 ) ) ;
#220 = CARTESIAN_POINT ( 'NONE',  ( 1.999999999999998446, 0.2187499999999999445, 1.311329505519474914 ) ) ;
#221 = ORIENTED_EDGE ( 'NONE', *, *, #251, .F. ) ;
#222 = VECTOR ( 'NONE', #72, 39.37007874015748143 ) ;
#223 = FACE_OUTER_BOUND ( 'NONE', #216, .T. ) ;
#224 = DIRECTION ( 'NONE',  ( 0.000000000000000000, 0.000000000000000000, -1.000000000000000000 ) ) ;
#225 = ORIENTED_EDGE ( 'NONE', *, *, #218, .F. ) ;
#226 = CARTESIAN_POINT ( 'NONE',  ( 2.937499999999992895, -0.2187500000000000278, -2.812499999999999112 ) ) ;
#227 = CARTESIAN_POINT ( 'NONE',  ( -2.812499999999992895, -0.2187500000000000278, -2.812500000000000000 ) ) ;
#228 = ORIENTED_EDGE ( 'NONE', *, *, #382, .F. ) ;
#229 = EDGE_CURVE ( 'NONE', #61, #170, #487, .T. ) ;
#230 = CARTESIAN_POINT ( 'NONE',  ( 2.812499999999992006, -0.2187500000000000278, 2.937500000000000000 ) ) ;
#231 = EDGE_LOOP ( 'NONE', ( #282, #339 ) ) ;
#232 = DIRECTION ( 'NONE',  ( 0.000000000000000000, -0.000000000000000000, -1.000000000000000000 ) ) ;
#233 = ORIENTED_EDGE ( 'NONE', *, *, #332, .F. ) ;
#234 = DIRECTION ( 'NONE',  ( -0.000000000000000000, 1.000000000000000000, -0.000000000000000000 ) ) ;
#235 = CARTESIAN_POINT ( 'NONE',  ( -2.812499999999992006, -0.2187500000000000278, 2.937500000000000000 ) ) ;
#236 = ORIENTED_EDGE ( 'NONE', *, *, #546, .T. ) ;
#237 = VECTOR ( 'NONE', #95, 39.37007874015748143 ) ;
#238 = DIRECTION ( 'NONE',  ( 0.000000000000000000, 0.000000000000000000, 1.000000000000000000 ) ) ;
#239 = ORIENTED_EDGE ( 'NONE', *, *, #315, .F. ) ;
#240 = AXIS2_PLACEMENT_3D ( 'NONE', #6, #481, #429 ) ;
#241 = DIRECTION ( 'NONE',  ( -0.000000000000000000, 1.000000000000000000, -0.000000000000000000 ) ) ;
#242 = VERTEX_POINT ( 'NONE', #22 ) ;
#243 = AXIS2_PLACEMENT_3D ( 'NONE', #161, #60, #281 ) ;
#244 = CARTESIAN_POINT ( 'NONE',  ( -3.310811972268992627E-15, -0.2187500000000000278, -0.9281926215660134538 ) ) ;
#245 = EDGE_CURVE ( 'NONE', #358, #450, #534, .T. ) ;
#246 = EDGE_LOOP ( 'NONE', ( #203, #287, #192, #225, #256, #239, #10, #403 ) ) ;
#247 = VERTEX_POINT ( 'NONE', #321 ) ;
#248 = CARTESIAN_POINT ( 'NONE',  ( -3.317333216474452444E-15, 0.2187499999999999445, -0.8749426215660135453 ) ) ;
#249 = DIRECTION ( 'NONE',  ( 0.000000000000000000, 0.000000000000000000, -1.000000000000000000 ) ) ;
#250 = CARTESIAN_POINT ( 'NONE',  ( 1.999999999999998446, -0.2187500000000000278, 1.364579505519474489 ) ) ;
#251 = EDGE_CURVE ( 'NONE', #185, #53, #444, .T. ) ;
#252 = FACE_OUTER_BOUND ( 'NONE', #104, .T. ) ;
#253 = DIRECTION ( 'NONE',  ( -0.000000000000000000, 1.000000000000000000, -0.000000000000000000 ) ) ;
#254 = EDGE_CURVE ( 'NONE', #53, #185, #212, .T. ) ;
#255 = DIRECTION ( 'NONE',  ( -0.000000000000000000, 1.000000000000000000, -0.000000000000000000 ) ) ;
#256 = ORIENTED_EDGE ( 'NONE', *, *, #277, .F. ) ;
#257 = DIRECTION ( 'NONE',  ( -0.000000000000000000, 1.000000000000000000, -0.000000000000000000 ) ) ;
#258 = CARTESIAN_POINT ( 'NONE',  ( -2.000000000000004885, 0.2187499999999999445, 1.364579505519473601 ) ) ;
#259 = ORIENTED_EDGE ( 'NONE', *, *, #91, .F. ) ;
#260 = DIRECTION ( 'NONE',  ( 0.000000000000000000, 1.000000000000000000, -0.000000000000000000 ) ) ;
#261 = PLANE ( 'NONE',  #126 ) ;
#262 = ORIENTED_EDGE ( 'NONE', *, *, #440, .F. ) ;
#263 = VECTOR ( 'NONE', #373, 39.37007874015748143 ) ;
#264 = CIRCLE ( 'NONE', #28, 0.1249999999999999029 ) ;
#265 = CIRCLE ( 'NONE', #54, 0.05324999999999976974 ) ;
#266 = CYLINDRICAL_SURFACE ( 'NONE', #128, 0.05325000000000004036 ) ;
#267 = DIRECTION ( 'NONE',  ( 0.000000000000000000, 0.000000000000000000, -1.000000000000000000 ) ) ;
#268 = ORIENTED_EDGE ( 'NONE', *, *, #345, .T. ) ;
#269 = EDGE_CURVE ( 'NONE', #524, #194, #24, .T. ) ;
#270 = VECTOR ( 'NONE', #241, 39.37007874015748143 ) ;
#271 = DIRECTION ( 'NONE',  ( 0.000000000000000000, 0.000000000000000000, -1.000000000000000000 ) ) ;
#272 = VERTEX_POINT ( 'NONE', #226 ) ;
#273 = CARTESIAN_POINT ( 'NONE',  ( -2.812499999999992006, -0.2187500000000000278, -2.937500000000000000 ) ) ;
#274 = ORIENTED_EDGE ( 'NONE', *, *, #491, .T. ) ;
#275 = DIRECTION ( 'NONE',  ( 0.000000000000000000, -1.000000000000000000, 0.000000000000000000 ) ) ;
#276 = LINE ( 'NONE', #78, #270 ) ;
#277 = EDGE_CURVE ( 'NONE', #272, #179, #148, .T. ) ;
#278 = EDGE_LOOP ( 'NONE', ( #65, #73, #527, #371 ) ) ;
#279 = CARTESIAN_POINT ( 'NONE',  ( -2.812499999999992006, -0.2187500000000000278, 2.937500000000000000 ) ) ;
#280 = EDGE_LOOP ( 'NONE', ( #136, #35, #86, #310 ) ) ;
#281 = DIRECTION ( 'NONE',  ( 0.000000000000000000, 0.000000000000000000, 1.000000000000000000 ) ) ;
#282 = ORIENTED_EDGE ( 'NONE', *, *, #353, .T. ) ;
#283 = ORIENTED_EDGE ( 'NONE', *, *, #539, .F. ) ;
#284 = VECTOR ( 'NONE', #146, 39.37007874015748143 ) ;
#285 = EDGE_CURVE ( 'NONE', #188, #147, #156, .T. ) ;
#286 = VERTEX_POINT ( 'NONE', #325 ) ;
#287 = ORIENTED_EDGE ( 'NONE', *, *, #205, .F. ) ;
#288 = DIRECTION ( 'NONE',  ( -0.000000000000000000, 1.000000000000000000, -0.000000000000000000 ) ) ;
#289 = AXIS2_PLACEMENT_3D ( 'NONE', #47, #343, #472 ) ;
#290 = ADVANCED_FACE ( 'NONE', ( #18 ), #360, .T. ) ;
#291 = AXIS2_PLACEMENT_3D ( 'NONE', #180, #43, #439 ) ;
#292 = CYLINDRICAL_SURFACE ( 'NONE', #1, 0.1249999999999999029 ) ;
#293 = PRODUCT_DEFINITION_CONTEXT ( 'detailed design', #97, 'design' ) ;
#294 = ORIENTED_EDGE ( 'NONE', *, *, #204, .T. ) ;
#295 = AXIS2_PLACEMENT_3D ( 'NONE', #326, #526, #446 ) ;
#296 = CARTESIAN_POINT ( 'NONE',  ( 2.812499999999992895, -0.2187500000000000278, 2.812500000000000000 ) ) ;
#297 = LINE ( 'NONE', #181, #459 ) ;
#298 = DIRECTION ( 'NONE',  ( 0.000000000000000000, 0.000000000000000000, 1.000000000000000000 ) ) ;
#299 = ADVANCED_FACE ( 'NONE', ( #469 ), #523, .F. ) ;
#300 = LINE ( 'NONE', #477, #370 ) ;
#301 = LINE ( 'NONE', #309, #511 ) ;
#302 = ORIENTED_EDGE ( 'NONE', *, *, #251, .T. ) ;
#303 = CIRCLE ( 'NONE', #70, 0.1249999999999999029 ) ;
#304 = CARTESIAN_POINT ( 'NONE',  ( -3.317333216474452444E-15, 0.2187499999999999445, -0.8216926215660136368 ) ) ;
#305 = CARTESIAN_POINT ( 'NONE',  ( 2.937499999999992895, 0.2187499999999999445, 2.812499999999999112 ) ) ;
#306 = ORIENTED_EDGE ( 'NONE', *, *, #364, .T. ) ;
#307 = ADVANCED_BREP_SHAPE_REPRESENTATION ( 'Base Fixture', ( #2, #159 ), #389 ) ;
#308 = CARTESIAN_POINT ( 'NONE',  ( -2.000000000000004885, 0.2187499999999999445, 1.311329505519473360 ) ) ;
#309 = CARTESIAN_POINT ( 'NONE',  ( 2.937499999999992895, 0.2187499999999999445, 2.812499999999999112 ) ) ;
#310 = ORIENTED_EDGE ( 'NONE', *, *, #162, .T. ) ;
#311 = AXIS2_PLACEMENT_3D ( 'NONE', #351, #441, #139 ) ;
#312 = AXIS2_PLACEMENT_3D ( 'NONE', #354, #522, #177 ) ;
#313 = AXIS2_PLACEMENT_3D ( 'NONE', #401, #275, #232 ) ;
#314 = DIRECTION ( 'NONE',  ( 0.000000000000000000, 0.000000000000000000, 1.000000000000000000 ) ) ;
#315 = EDGE_CURVE ( 'NONE', #242, #272, #4, .T. ) ;
#316 = ORIENTED_EDGE ( 'NONE', *, *, #517, .F. ) ;
#317 = CIRCLE ( 'NONE', #295, 0.05325000000000004036 ) ;
#318 = PLANE ( 'NONE',  #313 ) ;
#319 = ADVANCED_FACE ( 'NONE', ( #475 ), #92, .T. ) ;
#320 = ORIENTED_EDGE ( 'NONE', *, *, #456, .F. ) ;
#321 = CARTESIAN_POINT ( 'NONE',  ( -2.000000000000004885, -0.2187500000000000278, 1.258079505519473784 ) ) ;
#322 = EDGE_CURVE ( 'NONE', #188, #182, #265, .T. ) ;
#323 = DIRECTION ( 'NONE',  ( 0.000000000000000000, 0.000000000000000000, 1.000000000000000000 ) ) ;
#324 = VERTEX_POINT ( 'NONE', #516 ) ;
#325 = CARTESIAN_POINT ( 'NONE',  ( -2.937499999999992895, 0.2187499999999999445, -2.812499999999999112 ) ) ;
#326 = CARTESIAN_POINT ( 'NONE',  ( -2.000000000000004885, 0.2187499999999999445, 1.311329505519473360 ) ) ;
#327 = ORIENTED_EDGE ( 'NONE', *, *, #364, .F. ) ;
#328 = SHAPE_DEFINITION_REPRESENTATION ( #508, #307 ) ;
#329 = CARTESIAN_POINT ( 'NONE',  ( -2.812499999999992006, 0.2187499999999999445, 2.937500000000000000 ) ) ;
#330 = EDGE_LOOP ( 'NONE', ( #393, #175, #236, #23 ) ) ;
#331 = CARTESIAN_POINT ( 'NONE',  ( -3.317333216474452444E-15, 0.2187499999999999445, -0.8749426215660135453 ) ) ;
#332 = EDGE_CURVE ( 'NONE', #115, #16, #338, .T. ) ;
#333 = LINE ( 'NONE', #466, #476 ) ;
#334 = FACE_BOUND ( 'NONE', #544, .T. ) ;
#335 = FACE_OUTER_BOUND ( 'NONE', #533, .T. ) ;
#336 = PLANE ( 'NONE',  #549 ) ;
#337 = CARTESIAN_POINT ( 'NONE',  ( 1.999999999999998446, -0.2187500000000000278, 1.258079505519475116 ) ) ;
#338 = CIRCLE ( 'NONE', #101, 0.05325000000000004036 ) ;
#339 = ORIENTED_EDGE ( 'NONE', *, *, #521, .T. ) ;
#340 = AXIS2_PLACEMENT_3D ( 'NONE', #248, #518, #510 ) ;
#341 = VECTOR ( 'NONE', #537, 39.37007874015748143 ) ;
#342 = CIRCLE ( 'NONE', #106, 0.05324999999999976974 ) ;
#343 = DIRECTION ( 'NONE',  ( -0.000000000000000000, 1.000000000000000000, -0.000000000000000000 ) ) ;
#344 = CARTESIAN_POINT ( 'NONE',  ( 1.999999999999998446, 0.2187499999999999445, 1.311329505519474914 ) ) ;
#345 = EDGE_CURVE ( 'NONE', #163, #115, #433, .T. ) ;
#346 = CARTESIAN_POINT ( 'NONE',  ( -2.000000000000004885, 0.2187499999999999445, 1.311329505519473360 ) ) ;
#347 = PLANE ( 'NONE',  #196 ) ;
#348 = ORIENTED_EDGE ( 'NONE', *, *, #322, .F. ) ;
#349 = PRODUCT ( 'Base Fixture', 'Base Fixture', '', ( #502 ) ) ;
#350 = FACE_OUTER_BOUND ( 'NONE', #455, .T. ) ;
#351 = CARTESIAN_POINT ( 'NONE',  ( 1.999999999999998446, 0.2187499999999999445, 1.311329505519474914 ) ) ;
#352 = ORIENTED_EDGE ( 'NONE', *, *, #375, .F. ) ;
#353 = EDGE_CURVE ( 'NONE', #163, #247, #172, .T. ) ;
#354 = CARTESIAN_POINT ( 'NONE',  ( 1.999999999999998446, 0.2187499999999999445, 1.311329505519474914 ) ) ;
#355 = CARTESIAN_POINT ( 'NONE',  ( -2.812499999999992895, 0.2187499999999999445, -2.812500000000000000 ) ) ;
#356 = ORIENTED_EDGE ( 'NONE', *, *, #440, .T. ) ;
#357 = CARTESIAN_POINT ( 'NONE',  ( -2.812499999999992006, -0.2187500000000000278, 2.937500000000000000 ) ) ;
#358 = VERTEX_POINT ( 'NONE', #131 ) ;
#359 = VECTOR ( 'NONE', #63, 39.37007874015748143 ) ;
#360 = CYLINDRICAL_SURFACE ( 'NONE', #105, 0.1249999999999999029 ) ;
#361 = EDGE_CURVE ( 'NONE', #182, #155, #12, .T. ) ;
#362 = VERTEX_POINT ( 'NONE', #133 ) ;
#363 = DIRECTION ( 'NONE',  ( -1.000000000000000000, -0.000000000000000000, -0.000000000000000000 ) ) ;
#364 = EDGE_CURVE ( 'NONE', #170, #450, #297, .T. ) ;
#365 = CYLINDRICAL_SURFACE ( 'NONE', #33, 0.1249999999999999029 ) ;
#366 = ORIENTED_EDGE ( 'NONE', *, *, #218, .T. ) ;
#367 = CARTESIAN_POINT ( 'NONE',  ( 1.999999999999998446, 0.2187499999999999445, 1.364579505519474489 ) ) ;
#368 = CIRCLE ( 'NONE', #311, 0.05325000000000004036 ) ;
#369 =( LENGTH_UNIT ( ) NAMED_UNIT ( * ) SI_UNIT ( $, .METRE. ) );
#370 = VECTOR ( 'NONE', #257, 39.37007874015748143 ) ;
#371 = ORIENTED_EDGE ( 'NONE', *, *, #451, .T. ) ;
#372 = VECTOR ( 'NONE', #532, 39.37007874015748143 ) ;
#373 = DIRECTION ( 'NONE',  ( -0.000000000000000000, 1.000000000000000000, -0.000000000000000000 ) ) ;
#374 = ORIENTED_EDGE ( 'NONE', *, *, #190, .F. ) ;
#375 = EDGE_CURVE ( 'NONE', #155, #147, #145, .T. ) ;
#376 = APPLICATION_PROTOCOL_DEFINITION ( 'draft international standard', 'automotive_design', 1998, #552 ) ;
#377 = FACE_BOUND ( 'NONE', #100, .T. ) ;
#378 = DIRECTION ( 'NONE',  ( -0.000000000000000000, 1.000000000000000000, -0.000000000000000000 ) ) ;
#379 = CARTESIAN_POINT ( 'NONE',  ( -2.812499999999992895, -0.2187500000000000278, -2.812500000000000000 ) ) ;
#380 = ADVANCED_FACE ( 'NONE', ( #178 ), #49, .T. ) ;
#381 = CIRCLE ( 'NONE', #137, 0.05324999999999990158 ) ;
#382 = EDGE_CURVE ( 'NONE', #147, #155, #368, .T. ) ;
#383 = DIRECTION ( 'NONE',  ( 0.000000000000000000, 0.000000000000000000, 1.000000000000000000 ) ) ;
#384 = VERTEX_POINT ( 'NONE', #305 ) ;
#385 = CARTESIAN_POINT ( 'NONE',  ( -2.812499999999992006, -0.2187500000000000278, -2.937500000000000000 ) ) ;
#386 = AXIS2_PLACEMENT_3D ( 'NONE', #40, #525, #208 ) ;
#387 = VECTOR ( 'NONE', #20, 39.37007874015748143 ) ;
#388 = EDGE_CURVE ( 'NONE', #362, #111, #99, .T. ) ;
#389 =( GEOMETRIC_REPRESENTATION_CONTEXT ( 3 ) GLOBAL_UNCERTAINTY_ASSIGNED_CONTEXT ( ( #41 ) ) GLOBAL_UNIT_ASSIGNED_CONTEXT ( ( #414, #410, #34 ) ) REPRESENTATION_CONTEXT ( 'NONE', 'WORKASPACE' ) );
#390 = CYLINDRICAL_SURFACE ( 'NONE', #438, 0.05324999999999976974 ) ;
#391 = CARTESIAN_POINT ( 'NONE',  ( -2.937499999999992895, -0.2187500000000000278, -2.812499999999999112 ) ) ;
#392 = CARTESIAN_POINT ( 'NONE',  ( -2.937499999999992895, -0.2187500000000000278, 2.812499999999999112 ) ) ;
#393 = ORIENTED_EDGE ( 'NONE', *, *, #521, .F. ) ;
#394 = CARTESIAN_POINT ( 'NONE',  ( 2.937499999999992895, 0.2187499999999999445, -2.812499999999999112 ) ) ;
#395 = DIRECTION ( 'NONE',  ( 0.000000000000000000, 0.000000000000000000, 1.000000000000000000 ) ) ;
#396 = ORIENTED_EDGE ( 'NONE', *, *, #553, .T. ) ;
#397 = ADVANCED_FACE ( 'NONE', ( #478 ), #261, .T. ) ;
#398 = CARTESIAN_POINT ( 'NONE',  ( -2.000000000000004885, 0.2187499999999999445, 1.258079505519473340 ) ) ;
#399 = DIRECTION ( 'NONE',  ( -1.000000000000000000, 0.000000000000000000, -0.000000000000000000 ) ) ;
#400 = EDGE_LOOP ( 'NONE', ( #68, #274, #493, #434, #26, #306, #422, #396 ) ) ;
#401 = CARTESIAN_POINT ( 'NONE',  ( -3.000000000000001776, 0.2187499999999999445, 3.000000000000000444 ) ) ;
#402 = CARTESIAN_POINT ( 'NONE',  ( -2.937499999999992895, 0.2187499999999999445, 2.812499999999999112 ) ) ;
#403 = ORIENTED_EDGE ( 'NONE', *, *, #269, .F. ) ;
#404 = FACE_BOUND ( 'NONE', #13, .T. ) ;
#405 = ORIENTED_EDGE ( 'NONE', *, *, #67, .T. ) ;
#406 = DIRECTION ( 'NONE',  ( 0.000000000000000000, 0.000000000000000000, -1.000000000000000000 ) ) ;
#407 = COLOUR_RGB ( '',0.7921568627450980005, 0.8196078431372548767, 0.9333333333333333481 ) ;
#408 = ORIENTED_EDGE ( 'NONE', *, *, #62, .F. ) ;
#409 = CARTESIAN_POINT ( 'NONE',  ( -3.317333216474452444E-15, -0.2187500000000000278, -0.8749426215660135453 ) ) ;
#410 =( NAMED_UNIT ( * ) PLANE_ANGLE_UNIT ( ) SI_UNIT ( $, .RADIAN. ) );
#411 = LENGTH_MEASURE_WITH_UNIT ( LENGTH_MEASURE( 0.02539999999999999897 ), #369 );
#412 = ORIENTED_EDGE ( 'NONE', *, *, #36, .T. ) ;
#413 = AXIS2_PLACEMENT_3D ( 'NONE', #114, #154, #238 ) ;
#414 =( CONVERSION_BASED_UNIT ( 'INCH', #411 ) LENGTH_UNIT ( ) NAMED_UNIT ( #515 ) );
#415 = ADVANCED_FACE ( 'NONE', ( #252 ), #390, .F. ) ;
#416 = DIRECTION ( 'NONE',  ( 1.000000000000000000, 0.000000000000000000, 0.000000000000000000 ) ) ;
#417 = AXIS2_PLACEMENT_3D ( 'NONE', #379, #260, #124 ) ;
#418 = ORIENTED_EDGE ( 'NONE', *, *, #205, .T. ) ;
#419 = VECTOR ( 'NONE', #363, 39.37007874015748143 ) ;
#420 = ORIENTED_EDGE ( 'NONE', *, *, #388, .F. ) ;
#421 = FILL_AREA_STYLE ('',( #506 ) ) ;
#422 = ORIENTED_EDGE ( 'NONE', *, *, #539, .T. ) ;
#423 = ADVANCED_FACE ( 'NONE', ( #431 ), #347, .T. ) ;
#424 = LENGTH_MEASURE_WITH_UNIT ( LENGTH_MEASURE( 0.02539999999999999897 ), #207 );
#425 = CYLINDRICAL_SURFACE ( 'NONE', #340, 0.05324999999999990158 ) ;
#426 =( GEOMETRIC_REPRESENTATION_CONTEXT ( 3 ) GLOBAL_UNCERTAINTY_ASSIGNED_CONTEXT ( ( #210 ) ) GLOBAL_UNIT_ASSIGNED_CONTEXT ( ( #512, #37, #545 ) ) REPRESENTATION_CONTEXT ( 'NONE', 'WORKASPACE' ) );
#427 = DIRECTION ( 'NONE',  ( -0.000000000000000000, 1.000000000000000000, -0.000000000000000000 ) ) ;
#428 = LINE ( 'NONE', #55, #540 ) ;
#429 = DIRECTION ( 'NONE',  ( 0.000000000000000000, 0.000000000000000000, 1.000000000000000000 ) ) ;
#430 = EDGE_CURVE ( 'NONE', #384, #61, #301, .T. ) ;
#431 = FACE_OUTER_BOUND ( 'NONE', #530, .T. ) ;
#432 = PRESENTATION_LAYER_ASSIGNMENT (  '', '', ( #504 ) ) ;
#433 = LINE ( 'NONE', #258, #555 ) ;
#434 = ORIENTED_EDGE ( 'NONE', *, *, #430, .T. ) ;
#435 = CARTESIAN_POINT ( 'NONE',  ( 2.812499999999992006, 0.2187499999999999445, -2.937500000000000000 ) ) ;
#436 = CARTESIAN_POINT ( 'NONE',  ( 1.999999999999998446, 0.2187499999999999445, 1.258079505519475116 ) ) ;
#437 = ORIENTED_EDGE ( 'NONE', *, *, #245, .F. ) ;
#438 = AXIS2_PLACEMENT_3D ( 'NONE', #344, #253, #298 ) ;
#439 = DIRECTION ( 'NONE',  ( 0.000000000000000000, 0.000000000000000000, 1.000000000000000000 ) ) ;
#440 = EDGE_CURVE ( 'NONE', #185, #64, #31, .T. ) ;
#441 = DIRECTION ( 'NONE',  ( -0.000000000000000000, 1.000000000000000000, -0.000000000000000000 ) ) ;
#442 = ORIENTED_EDGE ( 'NONE', *, *, #361, .T. ) ;
#443 = AXIS2_PLACEMENT_3D ( 'NONE', #308, #288, #507 ) ;
#444 = CIRCLE ( 'NONE', #46, 0.05324999999999990158 ) ;
#445 = DIRECTION ( 'NONE',  ( 0.000000000000000000, 1.000000000000000000, -0.000000000000000000 ) ) ;
#446 = DIRECTION ( 'NONE',  ( 0.000000000000000000, 0.000000000000000000, 1.000000000000000000 ) ) ;
#447 = ORIENTED_EDGE ( 'NONE', *, *, #332, .T. ) ;
#448 = CIRCLE ( 'NONE', #243, 0.05324999999999976974 ) ;
#449 = DIRECTION ( 'NONE',  ( -0.000000000000000000, 1.000000000000000000, -0.000000000000000000 ) ) ;
#450 = VERTEX_POINT ( 'NONE', #25 ) ;
#451 = EDGE_CURVE ( 'NONE', #179, #170, #497, .T. ) ;
#452 = DIRECTION ( 'NONE',  ( -0.000000000000000000, 1.000000000000000000, -0.000000000000000000 ) ) ;
#453 = EDGE_LOOP ( 'NONE', ( #458, #50 ) ) ;
#454 = CARTESIAN_POINT ( 'NONE',  ( 2.812499999999992895, 0.2187499999999999445, -2.812500000000000000 ) ) ;
#455 = EDGE_LOOP ( 'NONE', ( #408, #221, #356, #294 ) ) ;
#456 = EDGE_CURVE ( 'NONE', #79, #384, #27, .T. ) ;
#457 = CARTESIAN_POINT ( 'NONE',  ( -3.317333216474452444E-15, 0.2187499999999999445, -0.8216926215660136368 ) ) ;
#458 = ORIENTED_EDGE ( 'NONE', *, *, #204, .F. ) ;
#459 = VECTOR ( 'NONE', #519, 39.37007874015748143 ) ;
#460 = DIRECTION ( 'NONE',  ( 0.000000000000000000, 0.000000000000000000, 1.000000000000000000 ) ) ;
#461 = ORIENTED_EDGE ( 'NONE', *, *, #254, .F. ) ;
#462 = AXIS2_PLACEMENT_3D ( 'NONE', #385, #174, #399 ) ;
#463 = CARTESIAN_POINT ( 'NONE',  ( 0.000000000000000000, 0.000000000000000000, 0.000000000000000000 ) ) ;
#464 = VECTOR ( 'NONE', #535, 39.37007874015748143 ) ;
#465 = EDGE_CURVE ( 'NONE', #524, #119, #485, .T. ) ;
#466 = CARTESIAN_POINT ( 'NONE',  ( 2.937499999999992895, -0.2187500000000000278, 2.812499999999999112 ) ) ;
#467 = CYLINDRICAL_SURFACE ( 'NONE', #443, 0.05325000000000004036 ) ;
#468 = AXIS2_PLACEMENT_3D ( 'NONE', #220, #176, #514 ) ;
#469 = FACE_OUTER_BOUND ( 'NONE', #32, .T. ) ;
#470 = DIRECTION ( 'NONE',  ( -0.000000000000000000, 1.000000000000000000, -0.000000000000000000 ) ) ;
#471 = PRODUCT_DEFINITION_FORMATION_WITH_SPECIFIED_SOURCE ( 'ANY', '', #349, .NOT_KNOWN. ) ;
#472 = DIRECTION ( 'NONE',  ( 0.000000000000000000, 0.000000000000000000, 1.000000000000000000 ) ) ;
#473 = PRODUCT_DEFINITION ( 'UNKNOWN', '', #471, #293 ) ;
#474 = DIRECTION ( 'NONE',  ( -0.000000000000000000, 1.000000000000000000, -0.000000000000000000 ) ) ;
#475 = FACE_OUTER_BOUND ( 'NONE', #125, .T. ) ;
#476 = VECTOR ( 'NONE', #378, 39.37007874015748143 ) ;
#477 = CARTESIAN_POINT ( 'NONE',  ( 2.812499999999992006, -0.2187500000000000278, 2.937500000000000000 ) ) ;
#478 = FACE_OUTER_BOUND ( 'NONE', #280, .T. ) ;
#479 = EDGE_LOOP ( 'NONE', ( #233, #58 ) ) ;
#480 = DIRECTION ( 'NONE',  ( 0.000000000000000000, 1.000000000000000000, -0.000000000000000000 ) ) ;
#481 = DIRECTION ( 'NONE',  ( -0.000000000000000000, 1.000000000000000000, -0.000000000000000000 ) ) ;
#482 = ORIENTED_EDGE ( 'NONE', *, *, #553, .F. ) ;
#483 = VECTOR ( 'NONE', #117, 39.37007874015748143 ) ;
#484 = CARTESIAN_POINT ( 'NONE',  ( -2.000000000000004885, -0.2187500000000000278, 1.364579505519473157 ) ) ;
#485 = LINE ( 'NONE', #235, #483 ) ;
#486 = ORIENTED_EDGE ( 'NONE', *, *, #190, .T. ) ;
#487 = CIRCLE ( 'NONE', #200, 0.1249999999999999029 ) ;
#488 = FACE_BOUND ( 'NONE', #479, .T. ) ;
#489 = ORIENTED_EDGE ( 'NONE', *, *, #430, .F. ) ;
#490 = VECTOR ( 'NONE', #416, 39.37007874015748143 ) ;
#491 = EDGE_CURVE ( 'NONE', #119, #79, #143, .T. ) ;
#492 = CARTESIAN_POINT ( 'NONE',  ( -2.812499999999992006, -0.2187500000000000278, -2.937500000000000000 ) ) ;
#493 = ORIENTED_EDGE ( 'NONE', *, *, #456, .T. ) ;
#494 = CARTESIAN_POINT ( 'NONE',  ( -3.317333216474452444E-15, -0.2187500000000000278, -0.8749426215660135453 ) ) ;
#495 = CARTESIAN_POINT ( 'NONE',  ( 2.812499999999992006, -0.2187500000000000278, -2.937500000000000000 ) ) ;
#496 = VERTEX_POINT ( 'NONE', #201 ) ;
#497 = LINE ( 'NONE', #495, #263 ) ;
#498 = ORIENTED_EDGE ( 'NONE', *, *, #322, .T. ) ;
#499 = FACE_OUTER_BOUND ( 'NONE', #140, .T. ) ;
#500 = ORIENTED_EDGE ( 'NONE', *, *, #361, .F. ) ;
#501 = FACE_BOUND ( 'NONE', #231, .T. ) ;
#502 = PRODUCT_CONTEXT ( 'NONE', #552, 'mechanical' ) ;
#503 = ORIENTED_EDGE ( 'NONE', *, *, #162, .F. ) ;
#504 = STYLED_ITEM ( 'NONE', ( #123 ), #2 ) ;
#505 = ADVANCED_FACE ( 'NONE', ( #499 ), #365, .T. ) ;
#506 = FILL_AREA_STYLE_COLOUR ( '', #407 ) ;
#507 = DIRECTION ( 'NONE',  ( 0.000000000000000000, 0.000000000000000000, 1.000000000000000000 ) ) ;
#508 = PRODUCT_DEFINITION_SHAPE ( 'NONE', 'NONE',  #473 ) ;
#509 = ORIENTED_EDGE ( 'NONE', *, *, #62, .T. ) ;
#510 = DIRECTION ( 'NONE',  ( 0.000000000000000000, 0.000000000000000000, 1.000000000000000000 ) ) ;
#511 = VECTOR ( 'NONE', #541, 39.37007874015748143 ) ;
#512 =( CONVERSION_BASED_UNIT ( 'INCH', #424 ) LENGTH_UNIT ( ) NAMED_UNIT ( #90 ) );
#513 = DIRECTION ( 'NONE',  ( 0.000000000000000000, 0.000000000000000000, 1.000000000000000000 ) ) ;
#514 = DIRECTION ( 'NONE',  ( 0.000000000000000000, 0.000000000000000000, 1.000000000000000000 ) ) ;
#515 = DIMENSIONAL_EXPONENTS ( 1.000000000000000000, 0.000000000000000000, 0.000000000000000000, 0.000000000000000000, 0.000000000000000000, 0.000000000000000000, 0.000000000000000000 ) ;
#516 = CARTESIAN_POINT ( 'NONE',  ( -2.937499999999992895, -0.2187500000000000278, -2.812499999999999112 ) ) ;
#517 = EDGE_CURVE ( 'NONE', #182, #188, #448, .T. ) ;
#518 = DIRECTION ( 'NONE',  ( -0.000000000000000000, 1.000000000000000000, -0.000000000000000000 ) ) ;
#519 = DIRECTION ( 'NONE',  ( -1.000000000000000000, -0.000000000000000000, -0.000000000000000000 ) ) ;
#520 = ORIENTED_EDGE ( 'NONE', *, *, #109, .F. ) ;
#521 = EDGE_CURVE ( 'NONE', #247, #163, #342, .T. ) ;
#522 = DIRECTION ( 'NONE',  ( -0.000000000000000000, 1.000000000000000000, -0.000000000000000000 ) ) ;
#523 = CYLINDRICAL_SURFACE ( 'NONE', #240, 0.05324999999999990158 ) ;
#524 = VERTEX_POINT ( 'NONE', #279 ) ;
#525 = DIRECTION ( 'NONE',  ( 1.000000000000000000, 0.000000000000000000, 0.000000000000000000 ) ) ;
#526 = DIRECTION ( 'NONE',  ( -0.000000000000000000, 1.000000000000000000, -0.000000000000000000 ) ) ;
#527 = ORIENTED_EDGE ( 'NONE', *, *, #277, .T. ) ;
#528 = FACE_OUTER_BOUND ( 'NONE', #400, .T. ) ;
#529 = EDGE_CURVE ( 'NONE', #272, #61, #276, .T. ) ;
#530 = EDGE_LOOP ( 'NONE', ( #482, #374, #418, #93 ) ) ;
#531 = CIRCLE ( 'NONE', #30, 0.05324999999999990158 ) ;
#532 = DIRECTION ( 'NONE',  ( -0.000000000000000000, 1.000000000000000000, -0.000000000000000000 ) ) ;
#533 = EDGE_LOOP ( 'NONE', ( #520, #21, #268, #447 ) ) ;
#534 = LINE ( 'NONE', #492, #284 ) ;
#535 = DIRECTION ( 'NONE',  ( -0.000000000000000000, -0.000000000000000000, 1.000000000000000000 ) ) ;
#536 = ORIENTED_EDGE ( 'NONE', *, *, #465, .T. ) ;
#537 = DIRECTION ( 'NONE',  ( -0.000000000000000000, 1.000000000000000000, -0.000000000000000000 ) ) ;
#538 = AXIS2_PLACEMENT_3D ( 'NONE', #296, #52, #395 ) ;
#539 = EDGE_CURVE ( 'NONE', #450, #286, #130, .T. ) ;
#540 = VECTOR ( 'NONE', #183, 39.37007874015748143 ) ;
#541 = DIRECTION ( 'NONE',  ( 0.000000000000000000, 0.000000000000000000, -1.000000000000000000 ) ) ;
#542 = ORIENTED_EDGE ( 'NONE', *, *, #451, .F. ) ;
#543 = DIRECTION ( 'NONE',  ( -0.000000000000000000, 1.000000000000000000, -0.000000000000000000 ) ) ;
#544 = EDGE_LOOP ( 'NONE', ( #302, #71 ) ) ;
#545 =( NAMED_UNIT ( * ) SI_UNIT ( $, .STERADIAN. ) SOLID_ANGLE_UNIT ( ) );
#546 = EDGE_CURVE ( 'NONE', #16, #115, #317, .T. ) ;
#547 = SURFACE_STYLE_USAGE ( .BOTH. , #166 ) ;
#548 = CARTESIAN_POINT ( 'NONE',  ( -2.812499999999992895, 0.2187499999999999445, 2.812500000000000000 ) ) ;
#549 = AXIS2_PLACEMENT_3D ( 'NONE', #81, #39, #84 ) ;
#550 = CARTESIAN_POINT ( 'NONE',  ( -2.812499999999992895, -0.2187500000000000278, 2.812500000000000000 ) ) ;
#551 = PLANE ( 'NONE',  #386 ) ;
#552 = APPLICATION_CONTEXT ( 'automotive_design' ) ;
#553 = EDGE_CURVE ( 'NONE', #286, #111, #187, .T. ) ;
#554 = EDGE_LOOP ( 'NONE', ( #316, #442, #118, #144 ) ) ;
#555 = VECTOR ( 'NONE', #211, 39.37007874015748143 ) ;
ENDSEC;
END-ISO-10303-21;
